<svg width="300" height="300" viewBox="0 0 300 300" fill="none" xmlns="http://www.w3.org/2000/svg">
<path d="M60.7577 1.40088C60.8043 1.40088 60.8411 1.36655 60.8411 1.31994C60.8411 1.27333 60.8043 1.23654 60.7577 1.23654C60.7135 1.23654 60.6767 1.27333 60.6767 1.31994C60.6767 1.36655 60.7135 1.40088 60.7577 1.40088Z" fill="#0095F6"/>
<path d="M90.4778 1.81299C90.7525 1.81299 90.9733 1.59465 90.9733 1.3199C90.9733 1.04515 90.7525 0.824356 90.4778 0.824356C90.2055 0.824356 89.9822 1.04515 89.9822 1.3199C89.9822 1.59465 90.2055 1.81299 90.4778 1.81299Z" fill="#0095F6"/>
<path d="M120.198 2.39209C120.789 2.39209 121.27 1.91127 121.27 1.32006C121.27 0.728847 120.789 0.248028 120.198 0.248028C119.606 0.248028 119.126 0.728847 119.126 1.32006C119.126 1.91127 119.606 2.39209 120.198 2.39209Z" fill="#0095F6"/>
<path d="M149.918 2.63721C150.646 2.63721 151.235 2.04845 151.235 1.31986C151.235 0.59127 150.646 5.65052e-05 149.918 5.65052e-05C149.189 5.65052e-05 148.6 0.59127 148.6 1.31986C148.6 2.04845 149.189 2.63721 149.918 2.63721Z" fill="#0095F6"/>
<path d="M179.638 2.39209C180.229 2.39209 180.71 1.91127 180.71 1.32006C180.71 0.728847 180.229 0.248028 179.638 0.248028C179.047 0.248028 178.566 0.728847 178.566 1.32006C178.566 1.91127 179.047 2.39209 179.638 2.39209Z" fill="#0095F6"/>
<path d="M209.356 1.89648C209.674 1.89648 209.934 1.63891 209.934 1.32C209.934 1.00109 209.674 0.74351 209.356 0.74351C209.039 0.74351 208.779 1.00109 208.779 1.32C208.779 1.63891 209.039 1.89648 209.356 1.89648Z" fill="#0095F6"/>
<path d="M239.078 1.40088C239.122 1.40088 239.159 1.36655 239.159 1.31994C239.159 1.27333 239.122 1.23654 239.078 1.23654C239.031 1.23654 238.995 1.27333 238.995 1.31994C238.995 1.36655 239.031 1.40088 239.078 1.40088Z" fill="#0095F6"/>
<path d="M31.0376 31.2046C31.1283 31.2046 31.202 31.131 31.202 31.0402C31.202 30.9495 31.1283 30.8734 31.0376 30.8734C30.9468 30.8734 30.8757 30.9495 30.8757 31.0402C30.8757 31.131 30.9468 31.2046 31.0376 31.2046Z" fill="#0095F6"/>
<path d="M60.7574 32.3599C61.486 32.3599 62.0772 31.7686 62.0772 31.0401C62.0772 30.3115 61.486 29.7203 60.7574 29.7203C60.0289 29.7203 59.4401 30.3115 59.4401 31.0401C59.4401 31.7686 60.0289 32.3599 60.7574 32.3599Z" fill="#0095F6"/>
<path d="M90.4777 33.5938C91.8907 33.5938 93.0338 32.4506 93.0338 31.04C93.0338 29.6294 91.8907 28.4838 90.4777 28.4838C89.0671 28.4838 87.9215 29.6294 87.9215 31.04C87.9215 32.4506 89.0671 33.5938 90.4777 33.5938Z" fill="#0095F6"/>
<path d="M120.198 34.5015C122.109 34.5015 123.659 32.9511 123.659 31.0401C123.659 29.1266 122.109 27.5786 120.198 27.5786C118.284 27.5786 116.739 29.1266 116.739 31.0401C116.739 32.9511 118.284 34.5015 120.198 34.5015Z" fill="#0095F6"/>
<path d="M149.918 34.8306C152.01 34.8306 153.708 33.133 153.708 31.0404C153.708 28.9454 152.01 27.2479 149.918 27.2479C147.823 27.2479 146.128 28.9454 146.128 31.0404C146.128 33.133 147.823 34.8306 149.918 34.8306Z" fill="#0095F6"/>
<path d="M179.638 34.5015C181.551 34.5015 183.097 32.9511 183.097 31.0401C183.097 29.1266 181.551 27.5786 179.638 27.5786C177.727 27.5786 176.177 29.1266 176.177 31.0401C176.177 32.9511 177.727 34.5015 179.638 34.5015Z" fill="#0095F6"/>
<path d="M209.356 33.6772C210.813 33.6772 211.995 32.4948 211.995 31.0401C211.995 29.5829 210.813 28.4029 209.356 28.4029C207.901 28.4029 206.718 29.5829 206.718 31.0401C206.718 32.4948 207.901 33.6772 209.356 33.6772Z" fill="#0095F6"/>
<path d="M239.078 32.4404C239.851 32.4404 240.479 31.8124 240.479 31.0397C240.479 30.2645 239.851 29.6389 239.078 29.6389C238.303 29.6389 237.675 30.2645 237.675 31.0397C237.675 31.8124 238.303 32.4404 239.078 32.4404Z" fill="#0095F6"/>
<path d="M268.796 31.2852C268.933 31.2852 269.046 31.1772 269.046 31.0398C269.046 30.9025 268.933 30.7896 268.796 30.7896C268.658 30.7896 268.548 30.9025 268.548 31.0398C268.548 31.1772 268.658 31.2852 268.796 31.2852Z" fill="#0095F6"/>
<path d="M1.32009 60.8408C1.36425 60.8408 1.40107 60.804 1.40107 60.7599C1.40107 60.7133 1.36425 60.6764 1.32009 60.6764C1.27348 60.6764 1.23666 60.7133 1.23666 60.7599C1.23666 60.804 1.27348 60.8408 1.32009 60.8408Z" fill="#0095F6"/>
<path d="M31.0373 62.0776C31.7659 62.0776 32.3572 61.4864 32.3572 60.7603C32.3572 60.0317 31.7659 59.4405 31.0373 59.4405C30.3112 59.4405 29.72 60.0317 29.72 60.7603C29.72 61.4864 30.3112 62.0776 31.0373 62.0776Z" fill="#0095F6"/>
<path d="M60.7576 63.8906C62.4871 63.8906 63.8903 62.4899 63.8903 60.7604C63.8903 59.0285 62.4871 57.6277 60.7576 57.6277C59.0282 57.6277 57.6274 59.0285 57.6274 60.7604C57.6274 62.4899 59.0282 63.8906 60.7576 63.8906Z" fill="#0095F6"/>
<path d="M90.4775 65.458C93.073 65.458 95.1778 63.3532 95.1778 60.7602C95.1778 58.1648 93.073 56.0624 90.4775 56.0624C87.8845 56.0624 85.7798 58.1648 85.7798 60.7602C85.7798 63.3532 87.8845 65.458 90.4775 65.458Z" fill="#0095F6"/>
<path d="M120.198 66.6113C123.428 66.6113 126.048 63.9914 126.048 60.7605C126.048 57.5273 123.428 54.9073 120.198 54.9073C116.964 54.9073 114.347 57.5273 114.347 60.7605C114.347 63.9914 116.964 66.6113 120.198 66.6113Z" fill="#0095F6"/>
<path d="M149.918 67.0229C153.377 67.0229 156.181 64.219 156.181 60.76C156.181 57.2986 153.377 54.4947 149.918 54.4947C146.459 54.4947 143.655 57.2986 143.655 60.76C143.655 64.219 146.459 67.0229 149.918 67.0229Z" fill="#0095F6"/>
<path d="M179.638 66.6113C182.871 66.6113 185.489 63.9914 185.489 60.7605C185.489 57.5273 182.871 54.9073 179.638 54.9073C176.407 54.9073 173.785 57.5273 173.785 60.7605C173.785 63.9914 176.407 66.6113 179.638 66.6113Z" fill="#0095F6"/>
<path d="M209.356 65.6221C212.042 65.6221 214.22 63.4437 214.22 60.7599C214.22 58.0737 212.042 55.8953 209.356 55.8953C206.672 55.8953 204.496 58.0737 204.496 60.7599C204.496 63.4437 206.672 65.6221 209.356 65.6221Z" fill="#0095F6"/>
<path d="M239.078 64.0547C240.898 64.0547 242.373 62.5804 242.373 60.7601C242.373 58.9374 240.898 57.463 239.078 57.463C237.258 57.463 235.781 58.9374 235.781 60.7601C235.781 62.5804 237.258 64.0547 239.078 64.0547Z" fill="#0095F6"/>
<path d="M268.796 62.1606C269.568 62.1606 270.196 61.5326 270.196 60.7599C270.196 59.9847 269.568 59.3567 268.796 59.3567C268.025 59.3567 267.397 59.9847 267.397 60.7599C267.397 61.5326 268.025 62.1606 268.796 62.1606Z" fill="#0095F6"/>
<path d="M298.516 60.8408C298.562 60.8408 298.599 60.804 298.599 60.7599C298.599 60.7133 298.562 60.6764 298.516 60.6764C298.472 60.6764 298.435 60.7133 298.435 60.7599C298.435 60.804 298.472 60.8408 298.516 60.8408Z" fill="#0095F6"/>
<path d="M1.31988 90.9731C1.59219 90.9731 1.81297 90.7524 1.81297 90.4776C1.81297 90.2053 1.59219 89.9845 1.31988 89.9845C1.04513 89.9845 0.824341 90.2053 0.824341 90.4776C0.824341 90.7524 1.04513 90.9731 1.31988 90.9731Z" fill="#0095F6"/>
<path d="M31.0377 93.0337C32.4482 93.0337 33.5939 91.8881 33.5939 90.4775C33.5939 89.0669 32.4482 87.9238 31.0377 87.9238C29.6296 87.9238 28.4839 89.0669 28.4839 90.4775C28.4839 91.8881 29.6296 93.0337 31.0377 93.0337Z" fill="#0095F6"/>
<path d="M60.7576 95.1758C63.353 95.1758 65.4553 93.0734 65.4553 90.478C65.4553 87.885 63.353 85.7826 60.7576 85.7826C58.1646 85.7826 56.0597 87.885 56.0597 90.478C56.0597 93.0734 58.1646 95.1758 60.7576 95.1758Z" fill="#0095F6"/>
<path d="M90.4777 97.0718C94.1207 97.0718 97.0719 94.1206 97.0719 90.4777C97.0719 86.8372 94.1207 83.886 90.4777 83.886C86.8372 83.886 83.8861 86.8372 83.8861 90.4777C83.8861 94.1206 86.8372 97.0718 90.4777 97.0718Z" fill="#0095F6"/>
<path d="M120.198 98.5562C124.658 98.5562 128.276 94.9402 128.276 90.4779C128.276 86.0181 124.658 82.4021 120.198 82.4021C115.735 82.4021 112.122 86.0181 112.122 90.4779C112.122 94.9402 115.735 98.5562 120.198 98.5562Z" fill="#0095F6"/>
<path d="M149.918 99.2139C154.743 99.2139 158.654 95.3035 158.654 90.4782C158.654 85.6552 154.743 81.7424 149.918 81.7424C145.093 81.7424 141.182 85.6552 141.182 90.4782C141.182 95.3035 145.093 99.2139 149.918 99.2139Z" fill="#0095F6"/>
<path d="M179.638 98.7202C184.189 98.7202 187.881 95.0307 187.881 90.4776C187.881 85.927 184.189 82.2374 179.638 82.2374C175.087 82.2374 171.398 85.927 171.398 90.4776C171.398 95.0307 175.087 98.7202 179.638 98.7202Z" fill="#0095F6"/>
<path d="M209.356 97.2358C213.089 97.2358 216.114 94.2111 216.114 90.4774C216.114 86.7461 213.089 83.7214 209.356 83.7214C205.624 83.7214 202.6 86.7461 202.6 90.4774C202.6 94.2111 205.624 97.2358 209.356 97.2358Z" fill="#0095F6"/>
<path d="M239.078 95.3423C241.762 95.3423 243.938 93.1639 243.938 90.4777C243.938 87.7915 241.762 85.6155 239.078 85.6155C236.392 85.6155 234.213 87.7915 234.213 90.4777C234.213 93.1639 236.392 95.3423 239.078 95.3423Z" fill="#0095F6"/>
<path d="M268.796 93.1982C270.297 93.1982 271.516 91.979 271.516 90.4777C271.516 88.9764 270.297 87.7596 268.796 87.7596C267.297 87.7596 266.078 88.9764 266.078 90.4777C266.078 91.979 267.297 93.1982 268.796 93.1982Z" fill="#0095F6"/>
<path d="M298.516 91.1377C298.881 91.1377 299.176 90.8433 299.176 90.4778C299.176 90.1147 298.881 89.8203 298.516 89.8203C298.153 89.8203 297.858 90.1147 297.858 90.4778C297.858 90.8433 298.153 91.1377 298.516 91.1377Z" fill="#0095F6"/>
<path d="M1.31983 121.27C1.91105 121.27 2.38938 120.792 2.38938 120.2C2.38938 119.607 1.91105 119.126 1.31983 119.126C0.728621 119.126 0.247772 119.607 0.247772 120.2C0.247772 120.792 0.728621 121.27 1.31983 121.27Z" fill="#0095F6"/>
<path d="M31.0375 123.659C32.9485 123.659 34.4989 122.109 34.4989 120.2C34.4989 118.287 32.9485 116.736 31.0375 116.736C29.1289 116.736 27.5786 118.287 27.5786 120.2C27.5786 122.109 29.1289 123.659 31.0375 123.659Z" fill="#0095F6"/>
<path d="M60.7577 126.049C63.991 126.049 66.6109 123.428 66.6109 120.2C66.6109 116.967 63.991 114.347 60.7577 114.347C57.5269 114.347 54.9069 116.967 54.9069 120.2C54.9069 123.428 57.5269 126.049 60.7577 126.049Z" fill="#0095F6"/>
<path d="M90.4777 128.274C94.94 128.274 98.5535 124.66 98.5535 120.2C98.5535 115.738 94.94 112.122 90.4777 112.122C86.0179 112.122 82.4019 115.738 82.4019 120.2C82.4019 124.66 86.0179 128.274 90.4777 128.274Z" fill="#0095F6"/>
<path d="M120.198 130.252C125.749 130.252 130.251 125.751 130.251 120.2C130.251 114.646 125.749 110.144 120.198 110.144C114.646 110.144 110.145 114.646 110.145 120.2C110.145 125.751 114.646 130.252 120.198 130.252Z" fill="#0095F6"/>
<path d="M149.918 131.325C156.063 131.325 161.043 126.343 161.043 120.2C161.043 114.055 156.063 109.073 149.918 109.073C143.773 109.073 138.793 114.055 138.793 120.2C138.793 126.343 143.773 131.325 149.918 131.325Z" fill="#0095F6"/>
<path d="M179.638 130.418C185.28 130.418 189.855 125.842 189.855 120.2C189.855 114.555 185.28 109.98 179.638 109.98C173.993 109.98 169.418 114.555 169.418 120.2C169.418 125.842 173.993 130.418 179.638 130.418Z" fill="#0095F6"/>
<path d="M209.355 128.44C213.909 128.44 217.598 124.751 217.598 120.2C217.598 115.647 213.909 111.958 209.355 111.958C204.805 111.958 201.115 115.647 201.115 120.2C201.115 124.751 204.805 128.44 209.355 128.44Z" fill="#0095F6"/>
<path d="M239.078 126.214C242.4 126.214 245.093 123.52 245.093 120.2C245.093 116.876 242.4 114.183 239.078 114.183C235.754 114.183 233.063 116.876 233.063 120.2C233.063 123.52 235.754 126.214 239.078 126.214Z" fill="#0095F6"/>
<path d="M268.796 123.826C270.797 123.826 272.421 122.202 272.421 120.2C272.421 118.196 270.797 116.572 268.796 116.572C266.796 116.572 265.17 118.196 265.17 120.2C265.17 122.202 266.796 123.826 268.796 123.826Z" fill="#0095F6"/>
<path d="M298.516 121.434C299.2 121.434 299.752 120.882 299.752 120.2C299.752 119.516 299.2 118.964 298.516 118.964C297.834 118.964 297.279 119.516 297.279 120.2C297.279 120.882 297.834 121.434 298.516 121.434Z" fill="#0095F6"/>
<path d="M1.31983 151.237C2.04842 151.237 2.63715 150.647 2.63715 149.919C2.63715 149.191 2.04842 148.599 1.31983 148.599C0.591244 148.599 0 149.191 0 149.919C0 150.647 0.591244 151.237 1.31983 151.237Z" fill="#0095F6"/>
<path d="M31.0374 153.71C33.1324 153.71 34.83 152.013 34.83 149.919C34.83 147.825 33.1324 146.127 31.0374 146.127C28.9449 146.127 27.2473 147.825 27.2473 149.919C27.2473 152.013 28.9449 153.71 31.0374 153.71Z" fill="#0095F6"/>
<path d="M60.7576 156.182C64.2165 156.182 67.023 153.377 67.023 149.919C67.023 146.46 64.2165 143.655 60.7576 143.655C57.2986 143.655 54.4971 146.46 54.4971 149.919C54.4971 153.377 57.2986 156.182 60.7576 156.182Z" fill="#0095F6"/>
<path d="M90.4778 158.654C95.3032 158.654 99.2135 154.743 99.2135 149.919C99.2135 145.094 95.3032 141.182 90.4778 141.182C85.6549 141.182 81.7421 145.094 81.7421 149.919C81.7421 154.743 85.6549 158.654 90.4778 158.654Z" fill="#0095F6"/>
<path d="M120.198 161.043C126.343 161.043 131.323 156.062 131.323 149.919C131.323 143.774 126.343 138.794 120.198 138.794C114.055 138.794 109.073 143.774 109.073 149.919C109.073 156.062 114.055 161.043 120.198 161.043Z" fill="#0095F6"/>
<path d="M149.918 162.775C157.02 162.775 162.772 157.018 162.772 149.919C162.772 142.818 157.02 137.062 149.918 137.062C142.816 137.062 137.063 142.818 137.063 149.919C137.063 157.018 142.816 162.775 149.918 162.775Z" fill="#0095F6"/>
<path d="M179.638 161.209C185.871 161.209 190.927 156.154 190.927 149.919C190.927 143.683 185.871 138.628 179.638 138.628C173.402 138.628 168.349 143.683 168.349 149.919C168.349 156.154 173.402 161.209 179.638 161.209Z" fill="#0095F6"/>
<path d="M209.355 158.818C214.271 158.818 218.255 154.835 218.255 149.919C218.255 145.003 214.271 141.017 209.355 141.017C204.442 141.017 200.458 145.003 200.458 149.919C200.458 154.835 204.442 158.818 209.355 158.818Z" fill="#0095F6"/>
<path d="M239.078 156.346C242.628 156.346 245.505 153.469 245.505 149.919C245.505 146.369 242.628 143.49 239.078 143.49C235.526 143.49 232.651 146.369 232.651 149.919C232.651 153.469 235.526 156.346 239.078 156.346Z" fill="#0095F6"/>
<path d="M268.796 153.874C270.981 153.874 272.753 152.104 272.753 149.919C272.753 147.734 270.981 145.962 268.796 145.962C266.612 145.962 264.841 147.734 264.841 149.919C264.841 152.104 266.612 153.874 268.796 153.874Z" fill="#0095F6"/>
<path d="M298.516 151.401C299.335 151.401 300 150.738 300 149.919C300 149.1 299.335 148.435 298.516 148.435C297.697 148.435 297.034 149.1 297.034 149.919C297.034 150.738 297.697 151.401 298.516 151.401Z" fill="#0095F6"/>
<path d="M1.31983 180.71C1.91105 180.71 2.38938 180.229 2.38938 179.638C2.38938 179.046 1.91105 178.568 1.31983 178.568C0.728621 178.568 0.247772 179.046 0.247772 179.638C0.247772 180.229 0.728621 180.71 1.31983 180.71Z" fill="#0095F6"/>
<path d="M31.0375 183.099C32.9485 183.099 34.4989 181.548 34.4989 179.637C34.4989 177.727 32.9485 176.176 31.0375 176.176C29.1289 176.176 27.5786 177.727 27.5786 179.637C27.5786 181.548 29.1289 183.099 31.0375 183.099Z" fill="#0095F6"/>
<path d="M60.7577 185.489C63.991 185.489 66.6109 182.869 66.6109 179.638C66.6109 176.407 63.991 173.786 60.7577 173.786C57.5269 173.786 54.9069 176.407 54.9069 179.638C54.9069 182.869 57.5269 185.489 60.7577 185.489Z" fill="#0095F6"/>
<path d="M90.4776 187.877C95.0307 187.877 98.7203 184.191 98.7203 179.637C98.7203 175.086 95.0307 171.396 90.4776 171.396C85.927 171.396 82.2374 175.086 82.2374 179.637C82.2374 184.191 85.927 187.877 90.4776 187.877Z" fill="#0095F6"/>
<path d="M120.198 189.857C125.842 189.857 130.418 185.283 130.418 179.638C130.418 173.993 125.842 169.42 120.198 169.42C114.555 169.42 109.98 173.993 109.98 179.638C109.98 185.283 114.555 189.857 120.198 189.857Z" fill="#0095F6"/>
<path d="M149.918 190.93C156.154 190.93 161.21 185.874 161.21 179.638C161.21 173.403 156.154 168.348 149.918 168.348C143.682 168.348 138.626 173.403 138.626 179.638C138.626 185.874 143.682 190.93 149.918 190.93Z" fill="#0095F6"/>
<path d="M179.638 190.022C185.371 190.022 190.022 185.374 190.022 179.638C190.022 173.902 185.371 169.254 179.638 169.254C173.903 169.254 169.254 173.902 169.254 179.638C169.254 185.374 173.903 190.022 179.638 190.022Z" fill="#0095F6"/>
<path d="M209.356 188.045C213.999 188.045 217.763 184.282 217.763 179.638C217.763 174.994 213.999 171.232 209.356 171.232C204.714 171.232 200.951 174.994 200.951 179.638C200.951 184.282 204.714 188.045 209.356 188.045Z" fill="#0095F6"/>
<path d="M239.078 185.736C242.446 185.736 245.174 183.006 245.174 179.638C245.174 176.27 242.446 173.54 239.078 173.54C235.71 173.54 232.977 176.27 232.977 179.638C232.977 183.006 235.71 185.736 239.078 185.736Z" fill="#0095F6"/>
<path d="M268.796 183.347C270.844 183.347 272.507 181.686 272.507 179.638C272.507 177.59 270.844 175.929 268.796 175.929C266.75 175.929 265.087 177.59 265.087 179.638C265.087 181.686 266.75 183.347 268.796 183.347Z" fill="#0095F6"/>
<path d="M298.516 180.958C299.244 180.958 299.836 180.367 299.836 179.638C299.836 178.91 299.244 178.318 298.516 178.318C297.787 178.318 297.198 178.91 297.198 179.638C297.198 180.367 297.787 180.958 298.516 180.958Z" fill="#0095F6"/>
<path d="M1.32006 209.935C1.63897 209.935 1.89652 209.677 1.89652 209.359C1.89652 209.039 1.63897 208.782 1.32006 208.782C1.00115 208.782 0.741089 209.039 0.741089 209.359C0.741089 209.677 1.00115 209.935 1.32006 209.935Z" fill="#0095F6"/>
<path d="M31.0373 211.995C32.4945 211.995 33.6745 210.815 33.6745 209.358C33.6745 207.901 32.4945 206.721 31.0373 206.721C29.5826 206.721 28.4026 207.901 28.4026 209.358C28.4026 210.815 29.5826 211.995 31.0373 211.995Z" fill="#0095F6"/>
<path d="M60.7577 214.221C63.4439 214.221 65.6222 212.044 65.6222 209.358C65.6222 206.671 63.4439 204.496 60.7577 204.496C58.0739 204.496 55.8955 206.671 55.8955 209.358C55.8955 212.044 58.0739 214.221 60.7577 214.221Z" fill="#0095F6"/>
<path d="M90.4779 216.116C94.2116 216.116 97.2364 213.089 97.2364 209.358C97.2364 205.624 94.2116 202.6 90.4779 202.6C86.7466 202.6 83.7219 205.624 83.7219 209.358C83.7219 213.089 86.7466 216.116 90.4779 216.116Z" fill="#0095F6"/>
<path d="M120.198 217.598C124.748 217.598 128.438 213.908 128.438 209.358C128.438 204.807 124.748 201.115 120.198 201.115C115.645 201.115 111.955 204.807 111.955 209.358C111.955 213.908 115.645 217.598 120.198 217.598Z" fill="#0095F6"/>
<path d="M149.918 218.258C154.834 218.258 158.818 214.274 158.818 209.358C158.818 204.441 154.834 200.458 149.918 200.458C145.002 200.458 141.018 204.441 141.018 209.358C141.018 214.274 145.002 218.258 149.918 218.258Z" fill="#0095F6"/>
<path d="M179.638 217.765C184.279 217.765 188.043 213.999 188.043 209.358C188.043 204.716 184.279 200.953 179.638 200.953C174.997 200.953 171.231 204.716 171.231 209.358C171.231 213.999 174.997 217.765 179.638 217.765Z" fill="#0095F6"/>
<path d="M209.356 216.281C213.18 216.281 216.281 213.18 216.281 209.358C216.281 205.536 213.18 202.435 209.356 202.435C205.534 202.435 202.435 205.536 202.435 209.358C202.435 213.18 205.534 216.281 209.356 216.281Z" fill="#0095F6"/>
<path d="M239.078 214.384C241.855 214.384 244.105 212.135 244.105 209.358C244.105 206.581 241.855 204.329 239.078 204.329C236.301 204.329 234.049 206.581 234.049 209.358C234.049 212.135 236.301 214.384 239.078 214.384Z" fill="#0095F6"/>
<path d="M268.796 212.242C270.388 212.242 271.683 210.95 271.683 209.358C271.683 207.763 270.388 206.473 268.796 206.473C267.206 206.473 265.911 207.763 265.911 209.358C265.911 210.95 267.206 212.242 268.796 212.242Z" fill="#0095F6"/>
<path d="M298.516 210.018C298.881 210.018 299.176 209.721 299.176 209.358C299.176 208.992 298.881 208.698 298.516 208.698C298.153 208.698 297.858 208.992 297.858 209.358C297.858 209.721 298.153 210.018 298.516 210.018Z" fill="#0095F6"/>
<path d="M1.32009 239.16C1.36425 239.16 1.40107 239.125 1.40107 239.078C1.40107 239.031 1.36425 238.995 1.32009 238.995C1.27348 238.995 1.23666 239.031 1.23666 239.078C1.23666 239.125 1.27348 239.16 1.32009 239.16Z" fill="#0095F6"/>
<path d="M31.0376 240.479C31.8103 240.479 32.4384 239.85 32.4384 239.078C32.4384 238.306 31.8103 237.677 31.0376 237.677C30.2673 237.677 29.6393 238.306 29.6393 239.078C29.6393 239.85 30.2673 240.479 31.0376 240.479Z" fill="#0095F6"/>
<path d="M60.7575 242.375C62.5778 242.375 64.0546 240.899 64.0546 239.078C64.0546 237.258 62.5778 235.781 60.7575 235.781C58.9373 235.781 57.4629 237.258 57.4629 239.078C57.4629 240.899 58.9373 242.375 60.7575 242.375Z" fill="#0095F6"/>
<path d="M90.4777 243.94C93.1639 243.94 95.3399 241.762 95.3399 239.078C95.3399 236.392 93.1639 234.215 90.4777 234.215C87.7939 234.215 85.6155 236.392 85.6155 239.078C85.6155 241.762 87.7939 243.94 90.4777 243.94Z" fill="#0095F6"/>
<path d="M120.198 245.093C123.519 245.093 126.215 242.399 126.215 239.078C126.215 235.757 123.519 233.06 120.198 233.06C116.874 233.06 114.183 235.757 114.183 239.078C114.183 242.399 116.874 245.093 120.198 245.093Z" fill="#0095F6"/>
<path d="M149.918 245.505C153.467 245.505 156.345 242.628 156.345 239.078C156.345 235.529 153.467 232.648 149.918 232.648C146.368 232.648 143.49 235.529 143.49 239.078C143.49 242.628 146.368 245.505 149.918 245.505Z" fill="#0095F6"/>
<path d="M179.638 245.176C183.006 245.176 185.737 242.446 185.737 239.078C185.737 235.71 183.006 232.979 179.638 232.979C176.27 232.979 173.54 235.71 173.54 239.078C173.54 242.446 176.27 245.176 179.638 245.176Z" fill="#0095F6"/>
<path d="M209.355 244.104C212.132 244.104 214.384 241.852 214.384 239.078C214.384 236.301 212.132 234.052 209.355 234.052C206.581 234.052 204.331 236.301 204.331 239.078C204.331 241.852 206.581 244.104 209.355 244.104Z" fill="#0095F6"/>
<path d="M239.078 242.539C240.989 242.539 242.539 240.989 242.539 239.078C242.539 237.167 240.989 235.616 239.078 235.616C237.164 235.616 235.617 237.167 235.617 239.078C235.617 240.989 237.164 242.539 239.078 242.539Z" fill="#0095F6"/>
<path d="M268.796 240.643C269.662 240.643 270.363 239.944 270.363 239.078C270.363 238.211 269.662 237.51 268.796 237.51C267.932 237.51 267.231 238.211 267.231 239.078C267.231 239.944 267.932 240.643 268.796 240.643Z" fill="#0095F6"/>
<path d="M298.516 239.16C298.562 239.16 298.599 239.125 298.599 239.078C298.599 239.031 298.562 238.995 298.516 238.995C298.472 238.995 298.435 239.031 298.435 239.078C298.435 239.125 298.472 239.16 298.516 239.16Z" fill="#0095F6"/>
<path d="M31.0377 269.043C31.1751 269.043 31.2879 268.933 31.2879 268.798C31.2879 268.661 31.1751 268.55 31.0377 268.55C30.9003 268.55 30.7899 268.661 30.7899 268.798C30.7899 268.933 30.9003 269.043 31.0377 269.043Z" fill="#0095F6"/>
<path d="M60.7576 270.199C61.5328 270.199 62.1608 269.571 62.1608 268.798C62.1608 268.023 61.5328 267.395 60.7576 267.395C59.9848 267.395 59.3568 268.023 59.3568 268.798C59.3568 269.571 59.9848 270.199 60.7576 270.199Z" fill="#0095F6"/>
<path d="M90.4779 271.516C91.9817 271.516 93.1985 270.299 93.1985 268.798C93.1985 267.294 91.9817 266.077 90.4779 266.077C88.9766 266.077 87.7598 267.294 87.7598 268.798C87.7598 270.299 88.9766 271.516 90.4779 271.516Z" fill="#0095F6"/>
<path d="M120.198 272.423C122.2 272.423 123.824 270.799 123.824 268.797C123.824 266.794 122.2 265.172 120.198 265.172C118.194 265.172 116.572 266.794 116.572 268.797C116.572 270.799 118.194 272.423 120.198 272.423Z" fill="#0095F6"/>
<path d="M149.918 272.752C152.103 272.752 153.872 270.982 153.872 268.798C153.872 266.613 152.103 264.841 149.918 264.841C147.732 264.841 145.963 266.613 145.963 268.798C145.963 270.982 147.732 272.752 149.918 272.752Z" fill="#0095F6"/>
<path d="M179.638 272.505C181.686 272.505 183.347 270.846 183.347 268.797C183.347 266.75 181.686 265.089 179.638 265.089C177.59 265.089 175.929 266.75 175.929 268.797C175.929 270.846 177.59 272.505 179.638 272.505Z" fill="#0095F6"/>
<path d="M209.356 271.683C210.95 271.683 212.241 270.39 212.241 268.798C212.241 267.203 210.95 265.913 209.356 265.913C207.763 265.913 206.473 267.203 206.473 268.798C206.473 270.39 207.763 271.683 209.356 271.683Z" fill="#0095F6"/>
<path d="M239.078 270.363C239.942 270.363 240.641 269.662 240.641 268.797C240.641 267.932 239.942 267.233 239.078 267.233C238.212 267.233 237.51 267.932 237.51 268.797C237.51 269.662 238.212 270.363 239.078 270.363Z" fill="#0095F6"/>
<path d="M268.796 269.043C268.933 269.043 269.046 268.933 269.046 268.798C269.046 268.661 268.933 268.55 268.796 268.55C268.658 268.55 268.548 268.661 268.548 268.798C268.548 268.933 268.658 269.043 268.796 269.043Z" fill="#0095F6"/>
<path d="M60.7577 298.599C60.8043 298.599 60.8411 298.563 60.8411 298.518C60.8411 298.472 60.8043 298.435 60.7577 298.435C60.7135 298.435 60.6767 298.472 60.6767 298.518C60.6767 298.563 60.7135 298.599 60.7577 298.599Z" fill="#0095F6"/>
<path d="M90.4776 299.176C90.8431 299.176 91.1375 298.882 91.1375 298.518C91.1375 298.152 90.8431 297.858 90.4776 297.858C90.1146 297.858 89.8202 298.152 89.8202 298.518C89.8202 298.882 90.1146 299.176 90.4776 299.176Z" fill="#0095F6"/>
<path d="M120.198 299.753C120.88 299.753 121.434 299.201 121.434 298.519C121.434 297.834 120.88 297.282 120.198 297.282C119.513 297.282 118.961 297.834 118.961 298.519C118.961 299.201 119.513 299.753 120.198 299.753Z" fill="#0095F6"/>
<path d="M149.918 300C150.737 300 151.4 299.335 151.4 298.518C151.4 297.699 150.737 297.034 149.918 297.034C149.098 297.034 148.434 297.699 148.434 298.518C148.434 299.335 149.098 300 149.918 300Z" fill="#0095F6"/>
<path d="M179.638 299.836C180.366 299.836 180.955 299.245 180.955 298.519C180.955 297.79 180.366 297.199 179.638 297.199C178.909 297.199 178.318 297.79 178.318 298.519C178.318 299.245 178.909 299.836 179.638 299.836Z" fill="#0095F6"/>
<path d="M209.356 299.176C209.721 299.176 210.015 298.882 210.015 298.518C210.015 298.152 209.721 297.858 209.356 297.858C208.992 297.858 208.698 298.152 208.698 298.518C208.698 298.882 208.992 299.176 209.356 299.176Z" fill="#0095F6"/>
<path d="M239.078 298.599C239.122 298.599 239.159 298.563 239.159 298.518C239.159 298.472 239.122 298.435 239.078 298.435C239.031 298.435 238.995 298.472 238.995 298.518C238.995 298.563 239.031 298.599 239.078 298.599Z" fill="#0095F6"/>
</svg>
