<svg width="400" height="401" viewBox="0 0 400 401" fill="none" xmlns="http://www.w3.org/2000/svg">
<path d="M133.476 0.67395C133.544 0.67395 133.599 0.620653 133.599 0.551686C133.599 0.482719 133.544 0.429461 133.476 0.429461C133.409 0.429461 133.354 0.482719 133.354 0.551686C133.354 0.620653 133.409 0.67395 133.476 0.67395Z" fill="#619FC6"/>
<path d="M155.631 0.859009C155.8 0.859009 155.937 0.724178 155.937 0.551761C155.937 0.382479 155.8 0.244551 155.631 0.244551C155.459 0.244551 155.325 0.382479 155.325 0.551761C155.325 0.724178 155.459 0.859009 155.631 0.859009Z" fill="#619FC6"/>
<path d="M177.787 1.04382C178.056 1.04382 178.276 0.824362 178.276 0.55163C178.276 0.278897 178.056 0.0626121 177.787 0.0626121C177.514 0.0626121 177.293 0.278897 177.293 0.55163C177.293 0.824362 177.514 1.04382 177.787 1.04382Z" fill="#619FC6"/>
<path d="M199.939 1.10339C200.245 1.10339 200.492 0.858872 200.492 0.551656C200.492 0.247575 200.245 -8.15392e-05 199.939 -8.15392e-05C199.633 -8.15392e-05 199.388 0.247575 199.388 0.551656C199.388 0.858872 199.633 1.10339 199.939 1.10339Z" fill="#619FC6"/>
<path d="M222.093 1.04382C222.363 1.04382 222.583 0.824362 222.583 0.55163C222.583 0.278897 222.363 0.0626121 222.093 0.0626121C221.822 0.0626121 221.601 0.278897 221.601 0.55163C221.601 0.824362 221.822 1.04382 222.093 1.04382Z" fill="#619FC6"/>
<path d="M244.246 0.921021C244.451 0.921021 244.617 0.754856 244.617 0.551091C244.617 0.347325 244.451 0.184337 244.246 0.184337C244.043 0.184337 243.878 0.347325 243.878 0.551091C243.878 0.754856 244.043 0.921021 244.246 0.921021Z" fill="#619FC6"/>
<path d="M266.401 0.736328C266.502 0.736328 266.585 0.651659 266.585 0.551344C266.585 0.447894 266.502 0.366398 266.401 0.366398C266.3 0.366398 266.218 0.447894 266.218 0.551344C266.218 0.651659 266.3 0.736328 266.401 0.736328Z" fill="#619FC6"/>
<path d="M89.168 22.8906C89.2699 22.8906 89.3517 22.8091 89.3517 22.7057C89.3517 22.6022 89.2699 22.5239 89.168 22.5239C89.0677 22.5239 88.9846 22.6022 88.9846 22.7057C88.9846 22.8091 89.0677 22.8906 89.168 22.8906Z" fill="#619FC6"/>
<path d="M111.324 23.2577C111.627 23.2577 111.875 23.01 111.875 22.706C111.875 22.3987 111.627 22.1542 111.324 22.1542C111.018 22.1542 110.77 22.3987 110.77 22.706C110.77 23.01 111.018 23.2577 111.324 23.2577Z" fill="#619FC6"/>
<path d="M133.476 23.7496C134.054 23.7496 134.519 23.2826 134.519 22.7057C134.519 22.1289 134.054 21.6618 133.476 21.6618C132.901 21.6618 132.432 22.1289 132.432 22.7057C132.432 23.2826 132.901 23.7496 133.476 23.7496Z" fill="#619FC6"/>
<path d="M155.631 24.0568C156.378 24.0568 156.982 23.4517 156.982 22.7056C156.982 21.9595 156.378 21.3545 155.631 21.3545C154.884 21.3545 154.278 21.9595 154.278 22.7056C154.278 23.4517 154.884 24.0568 155.631 24.0568Z" fill="#619FC6"/>
<path d="M177.787 24.2418C178.634 24.2418 179.32 23.5553 179.32 22.7057C179.32 21.8593 178.634 21.1696 177.787 21.1696C176.936 21.1696 176.25 21.8593 176.25 22.7057C176.25 23.5553 176.936 24.2418 177.787 24.2418Z" fill="#619FC6"/>
<path d="M199.939 24.3011C200.821 24.3011 201.537 23.5864 201.537 22.7055C201.537 21.8246 200.821 21.1067 199.939 21.1067C199.057 21.1067 198.341 21.8246 198.341 22.7055C198.341 23.5864 199.057 24.3011 199.939 24.3011Z" fill="#619FC6"/>
<path d="M222.094 24.2418C222.942 24.2418 223.628 23.5553 223.628 22.7057C223.628 21.8593 222.942 21.1696 222.094 21.1696C221.246 21.1696 220.557 21.8593 220.557 22.7057C220.557 23.5553 221.246 24.2418 222.094 24.2418Z" fill="#619FC6"/>
<path d="M244.246 24.0568C244.993 24.0568 245.599 23.4517 245.599 22.7056C245.599 21.9595 244.993 21.3545 244.246 21.3545C243.502 21.3545 242.896 21.9595 242.896 22.7056C242.896 23.4517 243.502 24.0568 244.246 24.0568Z" fill="#619FC6"/>
<path d="M266.401 23.7496C266.977 23.7496 267.445 23.2826 267.445 22.7057C267.445 22.1289 266.977 21.6618 266.401 21.6618C265.826 21.6618 265.357 22.1289 265.357 22.7057C265.357 23.2826 265.826 23.7496 266.401 23.7496Z" fill="#619FC6"/>
<path d="M288.556 23.3204C288.893 23.3204 289.168 23.0477 289.168 22.706C289.168 22.3675 288.893 22.0916 288.556 22.0916C288.217 22.0916 287.941 22.3675 287.941 22.706C287.941 23.0477 288.217 23.3204 288.556 23.3204Z" fill="#619FC6"/>
<path d="M310.71 22.8906C310.81 22.8906 310.892 22.8091 310.892 22.7057C310.892 22.6022 310.81 22.5239 310.71 22.5239C310.606 22.5239 310.525 22.6022 310.525 22.7057C310.525 22.8091 310.606 22.8906 310.71 22.8906Z" fill="#619FC6"/>
<path d="M67.0138 45.1669C67.185 45.1669 67.3223 45.0289 67.3223 44.8597C67.3223 44.6904 67.185 44.5525 67.0138 44.5525C66.8449 44.5525 66.7076 44.6904 66.7076 44.8597C66.7076 45.0289 66.8449 45.1669 67.0138 45.1669Z" fill="#619FC6"/>
<path d="M89.1681 45.7812C89.6765 45.7812 90.0903 45.3706 90.0903 44.8596C90.0903 44.3518 89.6765 43.938 89.1681 43.938C88.6599 43.938 88.2473 44.3518 88.2473 44.8596C88.2473 45.3706 88.6599 45.7812 89.1681 45.7812Z" fill="#619FC6"/>
<path d="M111.324 46.3961C112.171 46.3961 112.857 45.7096 112.857 44.8601C112.857 44.0137 112.171 43.324 111.324 43.324C110.475 43.324 109.787 44.0137 109.787 44.8601C109.787 45.7096 110.475 46.3961 111.324 46.3961Z" fill="#619FC6"/>
<path d="M133.476 46.8883C134.597 46.8883 135.503 45.9792 135.503 44.8601C135.503 43.7409 134.597 42.8318 133.476 42.8318C132.358 42.8318 131.449 43.7409 131.449 44.8601C131.449 45.9792 132.358 46.8883 133.476 46.8883Z" fill="#619FC6"/>
<path d="M155.631 47.2549C156.953 47.2549 158.029 46.1859 158.029 44.8598C158.029 43.5369 156.953 42.4648 155.631 42.4648C154.308 42.4648 153.234 43.5369 153.234 44.8598C153.234 46.1859 154.308 47.2549 155.631 47.2549Z" fill="#619FC6"/>
<path d="M177.787 47.502C179.244 47.502 180.426 46.3201 180.426 44.8593C180.426 43.4016 179.244 42.2166 177.787 42.2166C176.326 42.2166 175.144 43.4016 175.144 44.8593C175.144 46.3201 176.326 47.502 177.787 47.502Z" fill="#619FC6"/>
<path d="M199.939 47.5624C201.433 47.5624 202.641 46.3523 202.641 44.8601C202.641 43.3679 201.433 42.1579 199.939 42.1579C198.445 42.1579 197.235 43.3679 197.235 44.8601C197.235 46.3523 198.445 47.5624 199.939 47.5624Z" fill="#619FC6"/>
<path d="M222.093 47.502C223.55 47.502 224.736 46.3201 224.736 44.8593C224.736 43.4016 223.55 42.2166 222.093 42.2166C220.634 42.2166 219.452 43.4016 219.452 44.8593C219.452 46.3201 220.634 47.502 222.093 47.502Z" fill="#619FC6"/>
<path d="M244.246 47.2549C245.572 47.2549 246.643 46.1859 246.643 44.8598C246.643 43.5369 245.572 42.4648 244.246 42.4648C242.923 42.4648 241.852 43.5369 241.852 44.8598C241.852 46.1859 242.923 47.2549 244.246 47.2549Z" fill="#619FC6"/>
<path d="M266.401 46.8883C267.522 46.8883 268.428 45.9792 268.428 44.8601C268.428 43.7409 267.522 42.8318 266.401 42.8318C265.281 42.8318 264.375 43.7409 264.375 44.8601C264.375 45.9792 265.281 46.8883 266.401 46.8883Z" fill="#619FC6"/>
<path d="M288.556 46.459C289.438 46.459 290.151 45.7411 290.151 44.8602C290.151 43.9793 289.438 43.2645 288.556 43.2645C287.672 43.2645 286.958 43.9793 286.958 44.8602C286.958 45.7411 287.672 46.459 288.556 46.459Z" fill="#619FC6"/>
<path d="M310.71 45.8446C311.252 45.8446 311.691 45.4026 311.691 44.8603C311.691 44.3179 311.252 43.879 310.71 43.879C310.167 43.879 309.725 44.3179 309.725 44.8603C309.725 45.4026 310.167 45.8446 310.71 45.8446Z" fill="#619FC6"/>
<path d="M332.864 45.2296C333.064 45.2296 333.231 45.0635 333.231 44.8597C333.231 44.656 333.064 44.4898 332.864 44.4898C332.657 44.4898 332.494 44.656 332.494 44.8597C332.494 45.0635 332.657 45.2296 332.864 45.2296Z" fill="#619FC6"/>
<path d="M44.8616 67.3212C45.0293 67.3212 45.1676 67.1832 45.1676 67.014C45.1676 66.8447 45.0293 66.7067 44.8616 66.7067C44.6901 66.7067 44.5516 66.8447 44.5516 67.014C44.5516 67.1832 44.6901 67.3212 44.8616 67.3212Z" fill="#619FC6"/>
<path d="M67.0137 68.0575C67.5915 68.0575 68.0605 67.5904 68.0605 67.0136C68.0605 66.4368 67.5915 65.9697 67.0137 65.9697C66.4382 65.9697 65.9692 66.4368 65.9692 67.0136C65.9692 67.5904 66.4382 68.0575 67.0137 68.0575Z" fill="#619FC6"/>
<path d="M89.168 68.7946C90.1514 68.7946 90.9499 67.9983 90.9499 67.0139C90.9499 66.0296 90.1514 65.2334 89.168 65.2334C88.1862 65.2334 87.3865 66.0296 87.3865 67.0139C87.3865 67.9983 88.1862 68.7946 89.168 68.7946Z" fill="#619FC6"/>
<path d="M111.324 69.4716C112.68 69.4716 113.779 68.3712 113.779 67.0138C113.779 65.6564 112.68 64.5561 111.324 64.5561C109.965 64.5561 108.865 65.6564 108.865 67.0138C108.865 68.3712 109.965 69.4716 111.324 69.4716Z" fill="#619FC6"/>
<path d="M133.476 70.0233C135.138 70.0233 136.489 68.6784 136.489 67.0138C136.489 65.3524 135.138 64.0044 133.476 64.0044C131.813 64.0044 130.466 65.3524 130.466 67.0138C130.466 68.6784 131.813 70.0233 133.476 70.0233Z" fill="#619FC6"/>
<path d="M155.631 70.4559C157.533 70.4559 159.072 68.9136 159.072 67.0139C159.072 65.1141 157.533 63.5749 155.631 63.5749C153.73 63.5749 152.19 65.1141 152.19 67.0139C152.19 68.9136 153.73 70.4559 155.631 70.4559Z" fill="#619FC6"/>
<path d="M177.787 70.7008C179.819 70.7008 181.473 69.0487 181.473 67.0142C181.473 64.9797 179.819 63.3276 177.787 63.3276C175.75 63.3276 174.097 64.9797 174.097 67.0142C174.097 69.0487 175.75 70.7008 177.787 70.7008Z" fill="#619FC6"/>
<path d="M199.939 70.8224C202.041 70.8224 203.747 69.117 203.747 67.0135C203.747 64.91 202.041 63.2047 199.939 63.2047C197.835 63.2047 196.131 64.91 196.131 67.0135C196.131 69.117 197.835 70.8224 199.939 70.8224Z" fill="#619FC6"/>
<path d="M222.094 70.7008C224.13 70.7008 225.779 69.0487 225.779 67.0142C225.779 64.9797 224.13 63.3276 222.094 63.3276C220.058 63.3276 218.408 64.9797 218.408 67.0142C218.408 69.0487 220.058 70.7008 222.094 70.7008Z" fill="#619FC6"/>
<path d="M244.246 70.4559C246.147 70.4559 247.687 68.9136 247.687 67.0139C247.687 65.1141 246.147 63.5749 244.246 63.5749C242.347 63.5749 240.808 65.1141 240.808 67.0139C240.808 68.9136 242.347 70.4559 244.246 70.4559Z" fill="#619FC6"/>
<path d="M266.401 70.0233C268.063 70.0233 269.41 68.6784 269.41 67.0138C269.41 65.3524 268.063 64.0044 266.401 64.0044C264.738 64.0044 263.391 65.3524 263.391 67.0138C263.391 68.6784 264.738 70.0233 266.401 70.0233Z" fill="#619FC6"/>
<path d="M288.556 69.5343C289.946 69.5343 291.073 68.4057 291.073 67.0139C291.073 65.6251 289.946 64.4966 288.556 64.4966C287.164 64.4966 286.037 65.6251 286.037 67.0139C286.037 68.4057 287.164 69.5343 288.556 69.5343Z" fill="#619FC6"/>
<path d="M310.71 68.9199C311.76 68.9199 312.613 68.0672 312.613 67.0139C312.613 65.9637 311.76 65.1111 310.71 65.1111C309.66 65.1111 308.804 65.9637 308.804 67.0139C308.804 68.0672 309.66 68.9199 310.71 68.9199Z" fill="#619FC6"/>
<path d="M332.864 68.1798C333.507 68.1798 334.03 67.6594 334.03 67.0136C334.03 66.3678 333.507 65.8475 332.864 65.8475C332.218 65.8475 331.698 66.3678 331.698 67.0136C331.698 67.6594 332.218 68.1798 332.864 68.1798Z" fill="#619FC6"/>
<path d="M355.015 67.3839C355.222 67.3839 355.385 67.2177 355.385 67.014C355.385 66.8102 355.222 66.6472 355.015 66.6472C354.814 66.6472 354.648 66.8102 354.648 67.014C354.648 67.2177 354.814 67.3839 355.015 67.3839Z" fill="#619FC6"/>
<path d="M22.7056 89.3527C22.8073 89.3527 22.8893 89.2712 22.8893 89.1677C22.8893 89.0643 22.8073 88.9828 22.7056 88.9828C22.6052 88.9828 22.5219 89.0643 22.5219 89.1677C22.5219 89.2712 22.6052 89.3527 22.7056 89.3527Z" fill="#619FC6"/>
<path d="M44.8617 90.0898C45.3698 90.0898 45.7824 89.6761 45.7824 89.1682C45.7824 88.6604 45.3698 88.2497 44.8617 88.2497C44.3532 88.2497 43.9394 88.6604 43.9394 89.1682C43.9394 89.6761 44.3532 90.0898 44.8617 90.0898Z" fill="#619FC6"/>
<path d="M67.0137 90.9515C67.9993 90.9515 68.7952 90.1522 68.7952 89.1678C68.7952 88.1835 67.9993 87.3872 67.0137 87.3872C66.0303 87.3872 65.2318 88.1835 65.2318 89.1678C65.2318 90.1522 66.0303 90.9515 67.0137 90.9515Z" fill="#619FC6"/>
<path d="M89.1681 91.7477C90.5948 91.7477 91.7496 90.5941 91.7496 89.1677C91.7496 87.7445 90.5948 86.5877 89.1681 86.5877C87.7452 86.5877 86.5881 87.7445 86.5881 89.1677C86.5881 90.5941 87.7452 91.7477 89.1681 91.7477Z" fill="#619FC6"/>
<path d="M111.324 92.484C113.155 92.484 114.639 91.0012 114.639 89.1673C114.639 87.3366 113.155 85.8507 111.324 85.8507C109.49 85.8507 108.005 87.3366 108.005 89.1673C108.005 91.0012 109.49 92.484 111.324 92.484Z" fill="#619FC6"/>
<path d="M133.476 93.0986C135.65 93.0986 137.409 91.34 137.409 89.1675C137.409 86.9951 135.65 85.2364 133.476 85.2364C131.305 85.2364 129.545 86.9951 129.545 89.1675C129.545 91.34 131.305 93.0986 133.476 93.0986Z" fill="#619FC6"/>
<path d="M155.631 93.5917C158.074 93.5917 160.055 91.6136 160.055 89.1684C160.055 86.7263 158.074 84.7451 155.631 84.7451C153.188 84.7451 151.208 86.7263 151.208 89.1684C151.208 91.6136 153.188 93.5917 155.631 93.5917Z" fill="#619FC6"/>
<path d="M177.787 93.8981C180.397 93.8981 182.516 91.7789 182.516 89.1676C182.516 86.5563 180.397 84.4371 177.787 84.4371C175.172 84.4371 173.054 86.5563 173.054 89.1676C173.054 91.7789 175.172 93.8981 177.787 93.8981Z" fill="#619FC6"/>
<path d="M199.939 94.0205C202.621 94.0205 204.791 91.8481 204.791 89.1678C204.791 86.4875 202.621 84.315 199.939 84.315C197.259 84.315 195.086 86.4875 195.086 89.1678C195.086 91.8481 197.259 94.0205 199.939 94.0205Z" fill="#619FC6"/>
<path d="M222.093 93.8981C224.705 93.8981 226.824 91.7789 226.824 89.1676C226.824 86.5563 224.705 84.4371 222.093 84.4371C219.479 84.4371 217.364 86.5563 217.364 89.1676C217.364 91.7789 219.479 93.8981 222.093 93.8981Z" fill="#619FC6"/>
<path d="M244.246 93.6503C246.723 93.6503 248.731 91.6471 248.731 89.1674C248.731 86.6909 246.723 84.6846 244.246 84.6846C241.77 84.6846 239.761 86.6909 239.761 89.1674C239.761 91.6471 241.77 93.6503 244.246 93.6503Z" fill="#619FC6"/>
<path d="M266.402 93.1617C268.606 93.1617 270.393 91.3717 270.393 89.1679C270.393 86.9641 268.606 85.1741 266.402 85.1741C264.197 85.1741 262.409 86.9641 262.409 89.1679C262.409 91.3717 264.197 93.1617 266.402 93.1617Z" fill="#619FC6"/>
<path d="M288.556 92.5469C290.421 92.5469 291.933 91.0359 291.933 89.1675C291.933 87.3023 290.421 85.7881 288.556 85.7881C286.689 85.7881 285.176 87.3023 285.176 89.1675C285.176 91.0359 286.689 92.5469 288.556 92.5469Z" fill="#619FC6"/>
<path d="M310.71 91.8734C312.202 91.8734 313.412 90.6602 313.412 89.168C313.412 87.6758 312.202 86.4658 310.71 86.4658C309.218 86.4658 308.005 87.6758 308.005 89.168C308.005 90.6602 309.218 91.8734 310.71 91.8734Z" fill="#619FC6"/>
<path d="M332.864 91.0742C333.914 91.0742 334.767 90.2216 334.767 89.1682C334.767 88.1181 333.914 87.2654 332.864 87.2654C331.811 87.2654 330.958 88.1181 330.958 89.1682C330.958 90.2216 331.811 91.0742 332.864 91.0742Z" fill="#619FC6"/>
<path d="M355.015 90.2118C355.595 90.2118 356.062 89.7447 356.062 89.1679C356.062 88.5911 355.595 88.124 355.015 88.124C354.441 88.124 353.971 88.5911 353.971 89.1679C353.971 89.7447 354.441 90.2118 355.015 90.2118Z" fill="#619FC6"/>
<path d="M377.172 89.4121C377.307 89.4121 377.417 89.3024 377.417 89.1676C377.417 89.0328 377.307 88.9231 377.172 88.9231C377.037 88.9231 376.927 89.0328 376.927 89.1676C376.927 89.3024 377.037 89.4121 377.172 89.4121Z" fill="#619FC6"/>
<path d="M22.7057 111.877C23.0118 111.877 23.2604 111.626 23.2604 111.322C23.2604 111.015 23.0118 110.77 22.7057 110.77C22.3995 110.77 22.1546 111.015 22.1546 111.322C22.1546 111.626 22.3995 111.877 22.7057 111.877Z" fill="#619FC6"/>
<path d="M44.8616 112.858C45.709 112.858 46.3945 112.171 46.3945 111.322C46.3945 110.475 45.709 109.789 44.8616 109.789C44.013 109.789 43.3246 110.475 43.3246 111.322C43.3246 112.171 44.013 112.858 44.8616 112.858Z" fill="#619FC6"/>
<path d="M67.0137 113.78C68.373 113.78 69.4711 112.68 69.4711 111.322C69.4711 109.965 68.373 108.865 67.0137 108.865C65.6566 108.865 64.5585 109.965 64.5585 111.322C64.5585 112.68 65.6566 113.78 67.0137 113.78Z" fill="#619FC6"/>
<path d="M89.1681 114.638C91.0026 114.638 92.4867 113.156 92.4867 111.322C92.4867 109.491 91.0026 108.005 89.1681 108.005C87.3377 108.005 85.8499 109.491 85.8499 111.322C85.8499 113.156 87.3377 114.638 89.1681 114.638Z" fill="#619FC6"/>
<path d="M111.324 115.438C113.596 115.438 115.439 113.594 115.439 111.322C115.439 109.049 113.596 107.205 111.324 107.205C109.049 107.205 107.206 109.049 107.206 111.322C107.206 113.594 109.049 115.438 111.324 115.438Z" fill="#619FC6"/>
<path d="M133.476 116.174C136.158 116.174 138.332 114.002 138.332 111.321C138.332 108.641 136.158 106.468 133.476 106.468C130.797 106.468 128.623 108.641 128.623 111.321C128.623 114.002 130.797 116.174 133.476 116.174Z" fill="#619FC6"/>
<path d="M155.631 116.73C158.616 116.73 161.037 114.307 161.037 111.322C161.037 108.338 158.616 105.915 155.631 105.915C152.647 105.915 150.224 108.338 150.224 111.322C150.224 114.307 152.647 116.73 155.631 116.73Z" fill="#619FC6"/>
<path d="M177.787 117.097C180.973 117.097 183.56 114.51 183.56 111.322C183.56 108.131 180.973 105.548 177.787 105.548C174.597 105.548 172.009 108.131 172.009 111.322C172.009 114.51 174.597 117.097 177.787 117.097Z" fill="#619FC6"/>
<path d="M199.939 117.281C203.229 117.281 205.899 114.614 205.899 111.322C205.899 108.03 203.229 105.363 199.939 105.363C196.647 105.363 193.981 108.03 193.981 111.322C193.981 114.614 196.647 117.281 199.939 117.281Z" fill="#619FC6"/>
<path d="M222.094 117.159C225.318 117.159 227.928 114.548 227.928 111.322C227.928 108.099 225.318 105.485 222.094 105.485C218.871 105.485 216.256 108.099 216.256 111.322C216.256 114.548 218.871 117.159 222.094 117.159Z" fill="#619FC6"/>
<path d="M244.246 116.789C247.268 116.789 249.713 114.344 249.713 111.322C249.713 108.303 247.268 105.855 244.246 105.855C241.227 105.855 238.778 108.303 238.778 111.322C238.778 114.344 241.227 116.789 244.246 116.789Z" fill="#619FC6"/>
<path d="M266.401 116.237C269.116 116.237 271.314 114.037 271.314 111.322C271.314 108.607 269.116 106.406 266.401 106.406C263.685 106.406 261.487 108.607 261.487 111.322C261.487 114.037 263.685 116.237 266.401 116.237Z" fill="#619FC6"/>
<path d="M288.556 115.498C290.862 115.498 292.732 113.63 292.732 111.322C292.732 109.018 290.862 107.147 288.556 107.147C286.248 107.147 284.378 109.018 284.378 111.322C284.378 113.63 286.248 115.498 288.556 115.498Z" fill="#619FC6"/>
<path d="M310.71 114.701C312.575 114.701 314.089 113.187 314.089 111.322C314.089 109.457 312.575 107.946 310.71 107.946C308.845 107.946 307.33 109.457 307.33 111.322C307.33 113.187 308.845 114.701 310.71 114.701Z" fill="#619FC6"/>
<path d="M332.864 113.839C334.253 113.839 335.384 112.713 335.384 111.321C335.384 109.93 334.253 108.804 332.864 108.804C331.472 108.804 330.343 109.93 330.343 111.321C330.343 112.713 331.472 113.839 332.864 113.839Z" fill="#619FC6"/>
<path d="M355.015 112.918C355.902 112.918 356.614 112.203 356.614 111.322C356.614 110.441 355.902 109.723 355.015 109.723C354.134 109.723 353.422 110.441 353.422 111.322C353.422 112.203 354.134 112.918 355.015 112.918Z" fill="#619FC6"/>
<path d="M377.172 111.999C377.545 111.999 377.849 111.695 377.849 111.322C377.849 110.949 377.545 110.645 377.172 110.645C376.799 110.645 376.495 110.949 376.495 111.322C376.495 111.695 376.799 111.999 377.172 111.999Z" fill="#619FC6"/>
<path d="M399.326 111.385C399.36 111.385 399.389 111.356 399.389 111.322C399.389 111.291 399.36 111.262 399.326 111.262C399.291 111.262 399.266 111.291 399.266 111.322C399.266 111.356 399.291 111.385 399.326 111.385Z" fill="#619FC6"/>
<path d="M0.553467 133.598C0.620803 133.598 0.675914 133.545 0.675914 133.476C0.675914 133.41 0.620803 133.353 0.553467 133.353C0.483653 133.353 0.428574 133.41 0.428574 133.476C0.428574 133.545 0.483653 133.598 0.553467 133.598Z" fill="#619FC6"/>
<path d="M22.7057 134.52C23.2848 134.52 23.7502 134.053 23.7502 133.476C23.7502 132.899 23.2848 132.432 22.7057 132.432C22.1301 132.432 21.6623 132.899 21.6623 133.476C21.6623 134.053 22.1301 134.52 22.7057 134.52Z" fill="#619FC6"/>
<path d="M44.8616 135.504C45.982 135.504 46.888 134.598 46.888 133.476C46.888 132.357 45.982 131.451 44.8616 131.451C43.7409 131.451 42.8349 132.357 42.8349 133.476C42.8349 134.598 43.7409 135.504 44.8616 135.504Z" fill="#619FC6"/>
<path d="M67.0138 136.486C68.6752 136.486 70.026 135.138 70.026 133.477C70.026 131.815 68.6752 130.467 67.0138 130.467C65.3507 130.467 64.0037 131.815 64.0037 133.477C64.0037 135.138 65.3507 136.486 67.0138 136.486Z" fill="#619FC6"/>
<path d="M89.1682 137.41C91.3394 137.41 93.0993 135.648 93.0993 133.476C93.0993 131.306 91.3394 129.545 89.1682 129.545C86.9986 129.545 85.2374 131.306 85.2374 133.476C85.2374 135.648 86.9986 137.41 89.1682 137.41Z" fill="#619FC6"/>
<path d="M111.324 138.328C114.002 138.328 116.176 136.156 116.176 133.475C116.176 130.795 114.002 128.623 111.324 128.623C108.642 128.623 106.469 130.795 106.469 133.475C106.469 136.156 108.642 138.328 111.324 138.328Z" fill="#619FC6"/>
<path d="M133.476 139.128C136.599 139.128 139.128 136.598 139.128 133.476C139.128 130.356 136.599 127.827 133.476 127.827C130.356 127.827 127.825 130.356 127.825 133.476C127.825 136.598 130.356 139.128 133.476 139.128Z" fill="#619FC6"/>
<path d="M155.631 139.806C159.125 139.806 161.959 136.972 161.959 133.476C161.959 129.981 159.125 127.15 155.631 127.15C152.135 127.15 149.304 129.981 149.304 133.476C149.304 136.972 152.135 139.806 155.631 139.806Z" fill="#619FC6"/>
<path d="M177.787 140.294C181.552 140.294 184.604 137.241 184.604 133.476C184.604 129.711 181.552 126.657 177.787 126.657C174.018 126.657 170.966 129.711 170.966 133.476C170.966 137.241 174.018 140.294 177.787 140.294Z" fill="#619FC6"/>
<path d="M199.939 140.479C203.809 140.479 206.943 137.344 206.943 133.475C206.943 129.607 203.809 126.472 199.939 126.472C196.072 126.472 192.934 129.607 192.934 133.475C192.934 137.344 196.072 140.479 199.939 140.479Z" fill="#619FC6"/>
<path d="M222.093 140.357C225.893 140.357 228.973 137.276 228.973 133.476C228.973 129.677 225.893 126.595 222.093 126.595C218.291 126.595 215.211 129.677 215.211 133.476C215.211 137.276 218.291 140.357 222.093 140.357Z" fill="#619FC6"/>
<path d="M244.246 139.864C247.776 139.864 250.635 137.005 250.635 133.475C250.635 129.946 247.776 127.087 244.246 127.087C240.719 127.087 237.857 129.946 237.857 133.475C237.857 137.005 240.719 139.864 244.246 139.864Z" fill="#619FC6"/>
<path d="M266.402 139.191C269.557 139.191 272.114 136.633 272.114 133.476C272.114 130.323 269.557 127.765 266.402 127.765C263.244 127.765 260.689 130.323 260.689 133.476C260.689 136.633 263.244 139.191 266.402 139.191Z" fill="#619FC6"/>
<path d="M288.556 138.391C291.268 138.391 293.47 136.191 293.47 133.476C293.47 130.761 291.268 128.561 288.556 128.561C285.841 128.561 283.639 130.761 283.639 133.476C283.639 136.191 285.841 138.391 288.556 138.391Z" fill="#619FC6"/>
<path d="M310.71 137.532C312.948 137.532 314.763 135.714 314.763 133.476C314.763 131.238 312.948 129.422 310.71 129.422C308.472 129.422 306.655 131.238 306.655 133.476C306.655 135.714 308.472 137.532 310.71 137.532Z" fill="#619FC6"/>
<path d="M332.864 136.548C334.56 136.548 335.933 135.172 335.933 133.476C335.933 131.78 334.56 130.404 332.864 130.404C331.168 130.404 329.789 131.78 329.789 133.476C329.789 135.172 331.168 136.548 332.864 136.548Z" fill="#619FC6"/>
<path d="M355.015 135.567C356.168 135.567 357.106 134.629 357.106 133.476C357.106 132.322 356.168 131.388 355.015 131.388C353.864 131.388 352.927 132.322 352.927 133.476C352.927 134.629 353.864 135.567 355.015 135.567Z" fill="#619FC6"/>
<path d="M377.172 134.582C377.783 134.582 378.275 134.087 378.275 133.476C378.275 132.864 377.783 132.372 377.172 132.372C376.561 132.372 376.065 132.864 376.065 133.476C376.065 134.087 376.561 134.582 377.172 134.582Z" fill="#619FC6"/>
<path d="M399.326 133.66C399.426 133.66 399.511 133.579 399.511 133.475C399.511 133.375 399.426 133.293 399.326 133.293C399.222 133.293 399.141 133.375 399.141 133.475C399.141 133.579 399.222 133.66 399.326 133.66Z" fill="#619FC6"/>
<path d="M0.553423 155.937C0.722423 155.937 0.859572 155.799 0.859572 155.63C0.859572 155.461 0.722423 155.323 0.553423 155.323C0.381978 155.323 0.244827 155.461 0.244827 155.63C0.244827 155.799 0.381978 155.937 0.553423 155.937Z" fill="#619FC6"/>
<path d="M22.7057 156.981C23.4527 156.981 24.0588 156.376 24.0588 155.63C24.0588 154.884 23.4527 154.279 22.7057 154.279C21.9587 154.279 21.3562 154.884 21.3562 155.63C21.3562 156.376 21.9587 156.981 22.7057 156.981Z" fill="#619FC6"/>
<path d="M44.8616 158.028C46.1838 158.028 47.2553 156.953 47.2553 155.63C47.2553 154.307 46.1838 153.235 44.8616 153.235C43.539 153.235 42.4637 154.307 42.4637 155.63C42.4637 156.953 43.539 158.028 44.8616 158.028Z" fill="#619FC6"/>
<path d="M67.0137 159.072C68.9141 159.072 70.4546 157.53 70.4546 155.63C70.4546 153.73 68.9141 152.191 67.0137 152.191C65.1156 152.191 63.5751 153.73 63.5751 155.63C63.5751 157.53 65.1156 159.072 67.0137 159.072Z" fill="#619FC6"/>
<path d="M89.1681 160.053C91.611 160.053 93.5926 158.072 93.5926 155.629C93.5926 153.187 91.611 151.209 89.1681 151.209C86.7254 151.209 84.7451 153.187 84.7451 155.629C84.7451 158.072 86.7254 160.053 89.1681 160.053Z" fill="#619FC6"/>
<path d="M111.324 161.037C114.308 161.037 116.73 158.617 116.73 155.629C116.73 152.645 114.308 150.225 111.324 150.225C108.336 150.225 105.918 152.645 105.918 155.629C105.918 158.617 108.336 161.037 111.324 161.037Z" fill="#619FC6"/>
<path d="M133.476 161.956C136.972 161.956 139.804 159.125 139.804 155.63C139.804 152.135 136.972 149.304 133.476 149.304C129.983 149.304 127.148 152.135 127.148 155.63C127.148 159.125 129.983 161.956 133.476 161.956Z" fill="#619FC6"/>
<path d="M155.631 162.818C159.602 162.818 162.819 159.598 162.819 155.63C162.819 151.661 159.602 148.442 155.631 148.442C151.661 148.442 148.443 151.661 148.443 155.63C148.443 159.598 151.661 162.818 155.631 162.818Z" fill="#619FC6"/>
<path d="M177.787 163.433C182.093 163.433 185.587 159.94 185.587 155.63C185.587 151.32 182.093 147.827 177.787 147.827C173.476 147.827 169.982 151.32 169.982 155.63C169.982 159.94 173.476 163.433 177.787 163.433Z" fill="#619FC6"/>
<path d="M199.939 163.74C204.417 163.74 208.048 160.11 208.048 155.63C208.048 151.154 204.417 147.524 199.939 147.524C195.459 147.524 191.829 151.154 191.829 155.63C191.829 160.11 195.459 163.74 199.939 163.74Z" fill="#619FC6"/>
<path d="M222.093 163.492C226.435 163.492 229.955 159.975 229.955 155.63C229.955 151.288 226.435 147.768 222.093 147.768C217.75 147.768 214.229 151.288 214.229 155.63C214.229 159.975 217.75 163.492 222.093 163.492Z" fill="#619FC6"/>
<path d="M244.246 162.881C248.25 162.881 251.495 159.633 251.495 155.63C251.495 151.627 248.25 148.382 244.246 148.382C240.245 148.382 236.996 151.627 236.996 155.63C236.996 159.633 240.245 162.881 244.246 162.881Z" fill="#619FC6"/>
<path d="M266.401 162.078C269.965 162.078 272.851 159.194 272.851 155.63C272.851 152.069 269.965 149.179 266.401 149.179C262.838 149.179 259.951 152.069 259.951 155.63C259.951 159.194 262.838 162.078 266.401 162.078Z" fill="#619FC6"/>
<path d="M288.556 161.16C291.609 161.16 294.085 158.684 294.085 155.63C294.085 152.577 291.609 150.1 288.556 150.1C285.501 150.1 283.027 152.577 283.027 155.63C283.027 158.684 285.501 161.16 288.556 161.16Z" fill="#619FC6"/>
<path d="M310.71 160.116C313.186 160.116 315.193 158.106 315.193 155.63C315.193 153.153 313.186 151.147 310.71 151.147C308.23 151.147 306.224 153.153 306.224 155.63C306.224 158.106 308.23 160.116 310.71 160.116Z" fill="#619FC6"/>
<path d="M332.864 159.132C334.798 159.132 336.365 157.564 336.365 155.63C336.365 153.696 334.798 152.128 332.864 152.128C330.93 152.128 329.362 153.696 329.362 155.63C329.362 157.564 330.93 159.132 332.864 159.132Z" fill="#619FC6"/>
<path d="M355.015 158.15C356.41 158.15 357.535 157.022 357.535 155.63C357.535 154.241 356.41 153.113 355.015 153.113C353.626 153.113 352.5 154.241 352.5 155.63C352.5 157.022 353.626 158.15 355.015 158.15Z" fill="#619FC6"/>
<path d="M377.172 157.044C377.953 157.044 378.586 156.411 378.586 155.63C378.586 154.853 377.953 154.216 377.172 154.216C376.391 154.216 375.758 154.853 375.758 155.63C375.758 156.411 376.391 157.044 377.172 157.044Z" fill="#619FC6"/>
<path d="M399.326 156.06C399.561 156.06 399.755 155.868 399.755 155.63C399.755 155.392 399.561 155.201 399.326 155.201C399.088 155.201 398.893 155.392 398.893 155.63C398.893 155.868 399.088 156.06 399.326 156.06Z" fill="#619FC6"/>
<path d="M0.553531 178.277C0.82294 178.277 1.04335 178.057 1.04335 177.785C1.04335 177.513 0.82294 177.294 0.553531 177.294C0.281676 177.294 0.061264 177.513 0.061264 177.785C0.061264 178.057 0.281676 178.277 0.553531 178.277Z" fill="#619FC6"/>
<path d="M22.7056 179.32C23.5543 179.32 24.2424 178.633 24.2424 177.784C24.2424 176.936 23.5543 176.248 22.7056 176.248C21.8582 176.248 21.1725 176.936 21.1725 177.784C21.1725 178.633 21.8582 179.32 22.7056 179.32Z" fill="#619FC6"/>
<path d="M44.8616 180.426C46.3186 180.426 47.5027 179.244 47.5027 177.784C47.5027 176.325 46.3186 175.143 44.8616 175.143C43.4004 175.143 42.2189 176.325 42.2189 177.784C42.2189 179.244 43.4004 180.426 44.8616 180.426Z" fill="#619FC6"/>
<path d="M67.0138 181.471C69.0489 181.471 70.6994 179.82 70.6994 177.785C70.6994 175.75 69.0489 174.099 67.0138 174.099C64.9774 174.099 63.3278 175.75 63.3278 177.785C63.3278 179.82 64.9774 181.471 67.0138 181.471Z" fill="#619FC6"/>
<path d="M89.1681 182.515C91.7804 182.515 93.8986 180.397 93.8986 177.785C93.8986 175.173 91.7804 173.055 89.1681 173.055C86.5574 173.055 84.4392 175.173 84.4392 177.785C84.4392 180.397 86.5574 182.515 89.1681 182.515Z" fill="#619FC6"/>
<path d="M111.324 183.558C114.51 183.558 117.098 180.973 117.098 177.784C117.098 174.595 114.51 172.01 111.324 172.01C108.134 172.01 105.547 174.595 105.547 177.784C105.547 180.973 108.134 183.558 111.324 183.558Z" fill="#619FC6"/>
<path d="M133.476 184.603C137.242 184.603 140.297 181.55 140.297 177.784C140.297 174.018 137.242 170.966 133.476 170.966C129.711 170.966 126.658 174.018 126.658 177.784C126.658 181.55 129.711 184.603 133.476 184.603Z" fill="#619FC6"/>
<path d="M155.631 185.588C159.939 185.588 163.431 182.094 163.431 177.785C163.431 173.477 159.939 169.983 155.631 169.983C151.32 169.983 147.828 173.477 147.828 177.785C147.828 182.094 151.32 185.588 155.631 185.588Z" fill="#619FC6"/>
<path d="M177.787 186.508C182.602 186.508 186.508 182.602 186.508 177.784C186.508 172.965 182.602 169.062 177.787 169.062C172.968 169.062 169.062 172.965 169.062 177.784C169.062 182.602 172.968 186.508 177.787 186.508Z" fill="#619FC6"/>
<path d="M199.939 186.938C204.992 186.938 209.092 182.839 209.092 177.784C209.092 172.729 204.992 168.631 199.939 168.631C194.884 168.631 190.785 172.729 190.785 177.784C190.785 182.839 194.884 186.938 199.939 186.938Z" fill="#619FC6"/>
<path d="M222.094 186.508C226.91 186.508 230.816 182.602 230.816 177.784C230.816 172.965 226.91 169.062 222.094 169.062C217.275 169.062 213.369 172.965 213.369 177.784C213.369 182.602 217.275 186.508 222.094 186.508Z" fill="#619FC6"/>
<path d="M244.246 185.71C248.623 185.71 252.172 182.161 252.172 177.784C252.172 173.407 248.623 169.859 244.246 169.859C239.871 169.859 236.323 173.407 236.323 177.784C236.323 182.161 239.871 185.71 244.246 185.71Z" fill="#619FC6"/>
<path d="M266.401 184.727C270.234 184.727 273.344 181.618 273.344 177.785C273.344 173.951 270.234 170.842 266.401 170.842C262.568 170.842 259.458 173.951 259.458 177.785C259.458 181.618 262.568 184.727 266.401 184.727Z" fill="#619FC6"/>
<path d="M288.556 183.682C291.813 183.682 294.452 181.041 294.452 177.785C294.452 174.528 291.813 171.888 288.556 171.888C285.299 171.888 282.657 174.528 282.657 177.785C282.657 181.041 285.299 183.682 288.556 183.682Z" fill="#619FC6"/>
<path d="M310.71 182.638C313.39 182.638 315.559 180.465 315.559 177.784C315.559 175.105 313.39 172.932 310.71 172.932C308.03 172.932 305.856 175.105 305.856 177.784C305.856 180.465 308.03 182.638 310.71 182.638Z" fill="#619FC6"/>
<path d="M332.864 181.593C334.967 181.593 336.673 179.888 336.673 177.784C336.673 175.681 334.967 173.975 332.864 173.975C330.76 173.975 329.055 175.681 329.055 177.784C329.055 179.888 330.76 181.593 332.864 181.593Z" fill="#619FC6"/>
<path d="M355.015 180.488C356.51 180.488 357.72 179.278 357.72 177.785C357.72 176.291 356.51 175.082 355.015 175.082C353.526 175.082 352.312 176.291 352.312 177.785C352.312 179.278 353.526 180.488 355.015 180.488Z" fill="#619FC6"/>
<path d="M377.172 179.443C378.087 179.443 378.83 178.701 378.83 177.785C378.83 176.869 378.087 176.126 377.172 176.126C376.257 176.126 375.51 176.869 375.51 177.785C375.51 178.701 376.257 179.443 377.172 179.443Z" fill="#619FC6"/>
<path d="M399.326 178.399C399.661 178.399 399.937 178.124 399.937 177.784C399.937 177.445 399.661 177.17 399.326 177.17C398.987 177.17 398.712 177.445 398.712 177.784C398.712 178.124 398.987 178.399 399.326 178.399Z" fill="#619FC6"/>
<path d="M0.55349 200.491C0.857163 200.491 1.10453 200.243 1.10453 199.939C1.10453 199.633 0.857163 199.386 0.55349 199.386C0.24734 199.386 0 199.633 0 199.939C0 200.243 0.24734 200.491 0.55349 200.491Z" fill="#619FC6"/>
<path d="M22.7057 201.534C23.5874 201.534 24.3037 200.821 24.3037 199.939C24.3037 199.057 23.5874 198.341 22.7057 198.341C21.824 198.341 21.1077 199.057 21.1077 199.939C21.1077 200.821 21.824 201.534 22.7057 201.534Z" fill="#619FC6"/>
<path d="M44.8616 202.642C46.3516 202.642 47.5642 201.431 47.5642 199.94C47.5642 198.447 46.3516 197.236 44.8616 197.236C43.3675 197.236 42.1578 198.447 42.1578 199.94C42.1578 201.431 43.3675 202.642 44.8616 202.642Z" fill="#619FC6"/>
<path d="M67.0138 203.748C69.1198 203.748 70.8245 202.042 70.8245 199.94C70.8245 197.836 69.1198 196.13 67.0138 196.13C64.91 196.13 63.2053 197.836 63.2053 199.94C63.2053 202.042 64.91 203.748 67.0138 203.748Z" fill="#619FC6"/>
<path d="M89.1682 204.791C91.8501 204.791 94.0213 202.619 94.0213 199.939C94.0213 197.259 91.8501 195.085 89.1682 195.085C86.4904 195.085 84.3167 197.259 84.3167 199.939C84.3167 202.619 86.4904 204.791 89.1682 204.791Z" fill="#619FC6"/>
<path d="M111.324 205.898C114.614 205.898 117.281 203.23 117.281 199.939C117.281 196.648 114.614 193.98 111.324 193.98C108.032 193.98 105.363 196.648 105.363 199.939C105.363 203.23 108.032 205.898 111.324 205.898Z" fill="#619FC6"/>
<path d="M133.476 206.942C137.346 206.942 140.481 203.807 140.481 199.94C140.481 196.071 137.346 192.937 133.476 192.937C129.609 192.937 126.474 196.071 126.474 199.94C126.474 203.807 129.609 206.942 133.476 206.942Z" fill="#619FC6"/>
<path d="M155.631 208.048C160.11 208.048 163.741 204.418 163.741 199.94C163.741 195.46 160.11 191.83 155.631 191.83C151.153 191.83 147.522 195.46 147.522 199.94C147.522 204.418 151.153 208.048 155.631 208.048Z" fill="#619FC6"/>
<path d="M177.787 209.093C182.84 209.093 186.936 204.993 186.936 199.939C186.936 194.883 182.84 190.786 177.787 190.786C172.729 190.786 168.633 194.883 168.633 199.939C168.633 204.993 172.729 209.093 177.787 209.093Z" fill="#619FC6"/>
<path d="M199.939 209.828C205.4 209.828 209.83 205.401 209.83 199.939C209.83 194.475 205.4 190.047 199.939 190.047C194.477 190.047 190.047 194.475 190.047 199.939C190.047 205.401 194.477 209.828 199.939 209.828Z" fill="#619FC6"/>
<path d="M222.094 209.152C227.181 209.152 231.308 205.028 231.308 199.939C231.308 194.848 227.181 190.724 222.094 190.724C217.003 190.724 212.879 194.848 212.879 199.939C212.879 205.028 217.003 209.152 222.094 209.152Z" fill="#619FC6"/>
<path d="M244.246 208.109C248.758 208.109 252.417 204.45 252.417 199.939C252.417 195.427 248.758 191.768 244.246 191.768C239.733 191.768 236.075 195.427 236.075 199.939C236.075 204.45 239.733 208.109 244.246 208.109Z" fill="#619FC6"/>
<path d="M266.402 207.063C270.338 207.063 273.528 203.873 273.528 199.939C273.528 196.003 270.338 192.812 266.402 192.812C262.464 192.812 259.274 196.003 259.274 199.939C259.274 203.873 262.464 207.063 266.402 207.063Z" fill="#619FC6"/>
<path d="M288.556 205.959C291.881 205.959 294.575 203.264 294.575 199.939C294.575 196.613 291.881 193.918 288.556 193.918C285.229 193.918 282.535 196.613 282.535 199.939C282.535 203.264 285.229 205.959 288.556 205.959Z" fill="#619FC6"/>
<path d="M310.71 204.914C313.456 204.914 315.685 202.686 315.685 199.939C315.685 197.19 313.456 194.962 310.71 194.962C307.964 194.962 305.734 197.19 305.734 199.939C305.734 202.686 307.964 204.914 310.71 204.914Z" fill="#619FC6"/>
<path d="M332.864 203.809C335.002 203.809 336.732 202.076 336.732 199.939C336.732 197.8 335.002 196.067 332.864 196.067C330.726 196.067 328.995 197.8 328.995 199.939C328.995 202.076 330.726 203.809 332.864 203.809Z" fill="#619FC6"/>
<path d="M355.015 202.764C356.576 202.764 357.845 201.498 357.845 199.939C357.845 198.376 356.576 197.112 355.015 197.112C353.457 197.112 352.19 198.376 352.19 199.939C352.19 201.498 353.457 202.764 355.015 202.764Z" fill="#619FC6"/>
<path d="M377.172 201.66C378.119 201.66 378.893 200.889 378.893 199.939C378.893 198.988 378.119 198.219 377.172 198.219C376.222 198.219 375.451 198.988 375.451 199.939C375.451 200.889 376.222 201.66 377.172 201.66Z" fill="#619FC6"/>
<path d="M399.326 200.614C399.699 200.614 400 200.313 400 199.939C400 199.566 399.699 199.262 399.326 199.262C398.953 199.262 398.649 199.566 398.649 199.939C398.649 200.313 398.953 200.614 399.326 200.614Z" fill="#619FC6"/>
<path d="M0.553531 222.584C0.82294 222.584 1.04335 222.364 1.04335 222.093C1.04335 221.822 0.82294 221.601 0.553531 221.601C0.281676 221.601 0.061264 221.822 0.061264 222.093C0.061264 222.364 0.281676 222.584 0.553531 222.584Z" fill="#619FC6"/>
<path d="M22.7056 223.629C23.5543 223.629 24.2424 222.94 24.2424 222.093C24.2424 221.244 23.5543 220.558 22.7056 220.558C21.8582 220.558 21.1725 221.244 21.1725 222.093C21.1725 222.94 21.8582 223.629 22.7056 223.629Z" fill="#619FC6"/>
<path d="M44.8616 224.734C46.3186 224.734 47.5027 223.551 47.5027 222.093C47.5027 220.634 46.3186 219.45 44.8616 219.45C43.4004 219.45 42.2189 220.634 42.2189 222.093C42.2189 223.551 43.4004 224.734 44.8616 224.734Z" fill="#619FC6"/>
<path d="M67.0138 225.778C69.0489 225.778 70.6994 224.128 70.6994 222.092C70.6994 220.056 69.0489 218.407 67.0138 218.407C64.9774 218.407 63.3278 220.056 63.3278 222.092C63.3278 224.128 64.9774 225.778 67.0138 225.778Z" fill="#619FC6"/>
<path d="M89.1681 226.822C91.7804 226.822 93.8986 224.706 93.8986 222.093C93.8986 219.48 91.7804 217.362 89.1681 217.362C86.5574 217.362 84.4392 219.48 84.4392 222.093C84.4392 224.706 86.5574 226.822 89.1681 226.822Z" fill="#619FC6"/>
<path d="M111.324 227.929C114.547 227.929 117.159 225.316 117.159 222.092C117.159 218.868 114.547 216.256 111.324 216.256C108.1 216.256 105.485 218.868 105.485 222.092C105.485 225.316 108.1 227.929 111.324 227.929Z" fill="#619FC6"/>
<path d="M133.476 228.974C137.278 228.974 140.358 225.894 140.358 222.093C140.358 218.293 137.278 215.213 133.476 215.213C129.676 215.213 126.597 218.293 126.597 222.093C126.597 225.894 129.676 228.974 133.476 228.974Z" fill="#619FC6"/>
<path d="M155.631 229.955C159.972 229.955 163.492 226.435 163.492 222.093C163.492 217.751 159.972 214.23 155.631 214.23C151.287 214.23 147.767 217.751 147.767 222.093C147.767 226.435 151.287 229.955 155.631 229.955Z" fill="#619FC6"/>
<path d="M177.787 230.817C182.602 230.817 186.508 226.911 186.508 222.093C186.508 217.276 182.602 213.369 177.787 213.369C172.968 213.369 169.062 217.276 169.062 222.093C169.062 226.911 172.968 230.817 177.787 230.817Z" fill="#619FC6"/>
<path d="M199.939 231.309C205.029 231.309 209.154 227.182 209.154 222.092C209.154 217.003 205.029 212.878 199.939 212.878C194.851 212.878 190.724 217.003 190.724 222.092C190.724 227.182 194.851 231.309 199.939 231.309Z" fill="#619FC6"/>
<path d="M222.093 230.938C226.979 230.938 230.938 226.978 230.938 222.092C230.938 217.206 226.979 213.246 222.093 213.246C217.207 213.246 213.246 217.206 213.246 222.092C213.246 226.978 217.207 230.938 222.093 230.938Z" fill="#619FC6"/>
<path d="M244.246 230.017C248.623 230.017 252.172 226.469 252.172 222.093C252.172 217.716 248.623 214.169 244.246 214.169C239.871 214.169 236.323 217.716 236.323 222.093C236.323 226.469 239.871 230.017 244.246 230.017Z" fill="#619FC6"/>
<path d="M266.401 229.034C270.234 229.034 273.344 225.926 273.344 222.092C273.344 218.258 270.234 215.15 266.401 215.15C262.568 215.15 259.458 218.258 259.458 222.092C259.458 225.926 262.568 229.034 266.401 229.034Z" fill="#619FC6"/>
<path d="M288.556 227.99C291.813 227.99 294.452 225.35 294.452 222.092C294.452 218.835 291.813 216.195 288.556 216.195C285.299 216.195 282.657 218.835 282.657 222.092C282.657 225.35 285.299 227.99 288.556 227.99Z" fill="#619FC6"/>
<path d="M310.71 226.947C313.39 226.947 315.559 224.773 315.559 222.093C315.559 219.412 313.39 217.239 310.71 217.239C308.03 217.239 305.856 219.412 305.856 222.093C305.856 224.773 308.03 226.947 310.71 226.947Z" fill="#619FC6"/>
<path d="M332.864 225.901C334.967 225.901 336.673 224.195 336.673 222.092C336.673 219.988 334.967 218.284 332.864 218.284C330.76 218.284 329.055 219.988 329.055 222.092C329.055 224.195 330.76 225.901 332.864 225.901Z" fill="#619FC6"/>
<path d="M355.015 224.856C356.545 224.856 357.78 223.618 357.78 222.092C357.78 220.567 356.545 219.327 355.015 219.327C353.491 219.327 352.25 220.567 352.25 222.092C352.25 223.618 353.491 224.856 355.015 224.856Z" fill="#619FC6"/>
<path d="M377.172 223.752C378.087 223.752 378.83 223.007 378.83 222.093C378.83 221.177 378.087 220.433 377.172 220.433C376.257 220.433 375.51 221.177 375.51 222.093C375.51 223.007 376.257 223.752 377.172 223.752Z" fill="#619FC6"/>
<path d="M399.326 222.706C399.661 222.706 399.937 222.432 399.937 222.092C399.937 221.752 399.661 221.479 399.326 221.479C398.987 221.479 398.712 221.752 398.712 222.092C398.712 222.432 398.987 222.706 399.326 222.706Z" fill="#619FC6"/>
<path d="M0.55355 244.616C0.755592 244.616 0.920924 244.45 0.920924 244.246C0.920924 244.043 0.755592 243.877 0.55355 243.877C0.349032 243.877 0.183731 244.043 0.183731 244.246C0.183731 244.45 0.349032 244.616 0.55355 244.616Z" fill="#619FC6"/>
<path d="M22.7057 245.597C23.4527 245.597 24.0588 244.992 24.0588 244.246C24.0588 243.5 23.4527 242.895 22.7057 242.895C21.9587 242.895 21.3562 243.5 21.3562 244.246C21.3562 244.992 21.9587 245.597 22.7057 245.597Z" fill="#619FC6"/>
<path d="M44.8616 246.641C46.1838 246.641 47.2553 245.568 47.2553 244.246C47.2553 242.923 46.1838 241.851 44.8616 241.851C43.539 241.851 42.4637 242.923 42.4637 244.246C42.4637 245.568 43.539 246.641 44.8616 246.641Z" fill="#619FC6"/>
<path d="M67.0137 247.688C68.9141 247.688 70.4546 246.149 70.4546 244.246C70.4546 242.347 68.9141 240.808 67.0137 240.808C65.1156 240.808 63.5751 242.347 63.5751 244.246C63.5751 246.149 65.1156 247.688 67.0137 247.688Z" fill="#619FC6"/>
<path d="M89.1681 248.731C91.6456 248.731 93.6538 246.722 93.6538 244.246C93.6538 241.77 91.6456 239.76 89.1681 239.76C86.6922 239.76 84.684 241.77 84.684 244.246C84.684 246.722 86.6922 248.731 89.1681 248.731Z" fill="#619FC6"/>
<path d="M111.324 249.714C114.343 249.714 116.792 247.265 116.792 244.247C116.792 241.228 114.343 238.779 111.324 238.779C108.302 238.779 105.856 241.228 105.856 244.247C105.856 247.265 108.302 249.714 111.324 249.714Z" fill="#619FC6"/>
<path d="M133.476 250.634C137.005 250.634 139.865 247.775 139.865 244.245C139.865 240.719 137.005 237.857 133.476 237.857C129.949 237.857 127.087 240.719 127.087 244.245C127.087 247.775 129.949 250.634 133.476 250.634Z" fill="#619FC6"/>
<path d="M155.631 251.496C159.635 251.496 162.88 248.249 162.88 244.246C162.88 240.243 159.635 236.998 155.631 236.998C151.627 236.998 148.381 240.243 148.381 244.246C148.381 248.249 151.627 251.496 155.631 251.496Z" fill="#619FC6"/>
<path d="M177.787 252.172C182.161 252.172 185.709 248.625 185.709 244.246C185.709 239.869 182.161 236.321 177.787 236.321C173.409 236.321 169.86 239.869 169.86 244.246C169.86 248.625 173.409 252.172 177.787 252.172Z" fill="#619FC6"/>
<path d="M199.939 252.419C204.452 252.419 208.109 248.76 208.109 244.246C208.109 239.735 204.452 236.077 199.939 236.077C195.427 236.077 191.768 239.735 191.768 244.246C191.768 248.76 195.427 252.419 199.939 252.419Z" fill="#619FC6"/>
<path d="M222.094 252.172C226.469 252.172 230.016 248.625 230.016 244.246C230.016 239.869 226.469 236.321 222.094 236.321C217.716 236.321 214.168 239.869 214.168 244.246C214.168 248.625 217.716 252.172 222.094 252.172Z" fill="#619FC6"/>
<path d="M244.246 251.557C248.284 251.557 251.556 248.283 251.556 244.246C251.556 240.208 248.284 236.935 244.246 236.935C240.211 236.935 236.935 240.208 236.935 244.246C236.935 248.283 240.211 251.557 244.246 251.557Z" fill="#619FC6"/>
<path d="M266.401 250.697C269.965 250.697 272.851 247.811 272.851 244.246C272.851 240.685 269.965 237.794 266.401 237.794C262.838 237.794 259.951 240.685 259.951 244.246C259.951 247.811 262.838 250.697 266.401 250.697Z" fill="#619FC6"/>
<path d="M288.556 249.776C291.609 249.776 294.085 247.299 294.085 244.246C294.085 241.192 291.609 238.716 288.556 238.716C285.501 238.716 283.027 241.192 283.027 244.246C283.027 247.299 285.501 249.776 288.556 249.776Z" fill="#619FC6"/>
<path d="M310.71 248.791C313.218 248.791 315.255 246.756 315.255 244.246C315.255 241.735 313.218 239.7 310.71 239.7C308.199 239.7 306.163 241.735 306.163 244.246C306.163 246.756 308.199 248.791 310.71 248.791Z" fill="#619FC6"/>
<path d="M332.864 247.81C334.833 247.81 336.428 246.215 336.428 244.246C336.428 242.28 334.833 240.685 332.864 240.685C330.895 240.685 329.3 242.28 329.3 244.246C329.3 246.215 330.895 247.81 332.864 247.81Z" fill="#619FC6"/>
<path d="M355.015 246.766C356.41 246.766 357.535 245.638 357.535 244.246C357.535 242.853 356.41 241.728 355.015 241.728C353.626 241.728 352.5 242.853 352.5 244.246C352.5 245.638 353.626 246.766 355.015 246.766Z" fill="#619FC6"/>
<path d="M377.172 245.72C377.984 245.72 378.645 245.061 378.645 244.246C378.645 243.431 377.984 242.773 377.172 242.773C376.357 242.773 375.696 243.431 375.696 244.246C375.696 245.061 376.357 245.72 377.172 245.72Z" fill="#619FC6"/>
<path d="M399.326 244.675C399.561 244.675 399.755 244.483 399.755 244.246C399.755 244.007 399.561 243.816 399.326 243.816C399.088 243.816 398.893 244.007 398.893 244.246C398.893 244.483 399.088 244.675 399.326 244.675Z" fill="#619FC6"/>
<path d="M0.553458 266.584C0.65509 266.584 0.737129 266.503 0.737129 266.399C0.737129 266.3 0.65509 266.214 0.553458 266.214C0.449381 266.214 0.36731 266.3 0.36731 266.399C0.36731 266.503 0.449381 266.584 0.553458 266.584Z" fill="#619FC6"/>
<path d="M22.7057 267.444C23.2848 267.444 23.7502 266.977 23.7502 266.4C23.7502 265.823 23.2848 265.357 22.7057 265.357C22.1301 265.357 21.6623 265.823 21.6623 266.4C21.6623 266.977 22.1301 267.444 22.7057 267.444Z" fill="#619FC6"/>
<path d="M44.8616 268.429C45.982 268.429 46.888 267.519 46.888 266.399C46.888 265.282 45.982 264.372 44.8616 264.372C43.7409 264.372 42.8349 265.282 42.8349 266.399C42.8349 267.519 43.7409 268.429 44.8616 268.429Z" fill="#619FC6"/>
<path d="M67.0138 269.41C68.6752 269.41 70.026 268.065 70.026 266.4C70.026 264.739 68.6752 263.391 67.0138 263.391C65.3507 263.391 64.0037 264.739 64.0037 266.4C64.0037 268.065 65.3507 269.41 67.0138 269.41Z" fill="#619FC6"/>
<path d="M89.1681 270.394C91.3725 270.394 93.1603 268.608 93.1603 266.4C93.1603 264.197 91.3725 262.411 89.1681 262.411C86.964 262.411 85.1761 264.197 85.1761 266.4C85.1761 268.608 86.964 270.394 89.1681 270.394Z" fill="#619FC6"/>
<path d="M111.324 271.315C114.036 271.315 116.237 269.114 116.237 266.399C116.237 263.684 114.036 261.487 111.324 261.487C108.608 261.487 106.408 263.684 106.408 266.399C106.408 269.114 108.608 271.315 111.324 271.315Z" fill="#619FC6"/>
<path d="M133.476 272.115C136.632 272.115 139.191 269.557 139.191 266.4C139.191 263.247 136.632 260.689 133.476 260.689C130.323 260.689 127.764 263.247 127.764 266.4C127.764 269.557 130.323 272.115 133.476 272.115Z" fill="#619FC6"/>
<path d="M155.631 272.851C159.194 272.851 162.082 269.964 162.082 266.399C162.082 262.838 159.194 259.948 155.631 259.948C152.067 259.948 149.181 262.838 149.181 266.399C149.181 269.964 152.067 272.851 155.631 272.851Z" fill="#619FC6"/>
<path d="M177.787 273.344C181.62 273.344 184.726 270.234 184.726 266.399C184.726 262.567 181.62 259.46 177.787 259.46C173.95 259.46 170.844 262.567 170.844 266.399C170.844 270.234 173.95 273.344 177.787 273.344Z" fill="#619FC6"/>
<path d="M199.939 273.525C203.876 273.525 207.066 270.337 207.066 266.399C207.066 262.465 203.876 259.274 199.939 259.274C196.004 259.274 192.812 262.465 192.812 266.399C192.812 270.337 196.004 273.525 199.939 273.525Z" fill="#619FC6"/>
<path d="M222.093 273.344C225.926 273.344 229.034 270.234 229.034 266.399C229.034 262.567 225.926 259.46 222.093 259.46C218.258 259.46 215.15 262.567 215.15 266.399C215.15 270.234 218.258 273.344 222.093 273.344Z" fill="#619FC6"/>
<path d="M244.246 272.851C247.809 272.851 250.696 269.964 250.696 266.399C250.696 262.838 247.809 259.948 244.246 259.948C240.686 259.948 237.796 262.838 237.796 266.399C237.796 269.964 240.686 272.851 244.246 272.851Z" fill="#619FC6"/>
<path d="M266.401 272.237C269.624 272.237 272.236 269.623 272.236 266.399C272.236 263.178 269.624 260.566 266.401 260.566C263.177 260.566 260.566 263.178 260.566 266.399C260.566 269.623 263.177 272.237 266.401 272.237Z" fill="#619FC6"/>
<path d="M288.556 271.374C291.303 271.374 293.532 269.149 293.532 266.399C293.532 263.653 291.303 261.425 288.556 261.425C285.807 261.425 283.578 263.653 283.578 266.399C283.578 269.149 285.807 271.374 288.556 271.374Z" fill="#619FC6"/>
<path d="M310.71 270.516C312.983 270.516 314.826 268.676 314.826 266.399C314.826 264.126 312.983 262.283 310.71 262.283C308.437 262.283 306.594 264.126 306.594 266.399C306.594 268.676 308.437 270.516 310.71 270.516Z" fill="#619FC6"/>
<path d="M332.864 269.532C334.594 269.532 335.996 268.131 335.996 266.399C335.996 264.669 334.594 263.268 332.864 263.268C331.133 263.268 329.729 264.669 329.729 266.399C329.729 268.131 331.133 269.532 332.864 269.532Z" fill="#619FC6"/>
<path d="M355.015 268.551C356.203 268.551 357.168 267.588 357.168 266.399C357.168 265.215 356.203 264.249 355.015 264.249C353.83 264.249 352.867 265.215 352.867 266.399C352.867 267.588 353.83 268.551 355.015 268.551Z" fill="#619FC6"/>
<path d="M377.172 267.569C377.818 267.569 378.338 267.046 378.338 266.399C378.338 265.754 377.818 265.234 377.172 265.234C376.526 265.234 376.006 265.754 376.006 266.399C376.006 267.046 376.526 267.569 377.172 267.569Z" fill="#619FC6"/>
<path d="M399.326 266.584C399.426 266.584 399.511 266.503 399.511 266.399C399.511 266.3 399.426 266.214 399.326 266.214C399.222 266.214 399.141 266.3 399.141 266.399C399.141 266.503 399.222 266.584 399.326 266.584Z" fill="#619FC6"/>
<path d="M22.7057 289.169C23.0461 289.169 23.3216 288.892 23.3216 288.554C23.3216 288.215 23.0461 287.939 22.7057 287.939C22.3664 287.939 22.0934 288.215 22.0934 288.554C22.0934 288.892 22.3664 289.169 22.7057 289.169Z" fill="#619FC6"/>
<path d="M44.8617 290.153C45.7432 290.153 46.4595 289.437 46.4595 288.553C46.4595 287.673 45.7432 286.958 44.8617 286.958C43.9798 286.958 43.2635 287.673 43.2635 288.553C43.2635 289.437 43.9798 290.153 44.8617 290.153Z" fill="#619FC6"/>
<path d="M67.0137 291.074C68.4059 291.074 69.5326 289.947 69.5326 288.554C69.5326 287.165 68.4059 286.037 67.0137 286.037C65.6237 286.037 64.4971 287.165 64.4971 288.554C64.4971 289.947 65.6237 291.074 67.0137 291.074Z" fill="#619FC6"/>
<path d="M89.1681 291.934C91.0359 291.934 92.5481 290.423 92.5481 288.554C92.5481 286.689 91.0359 285.174 89.1681 285.174C87.3045 285.174 85.7885 286.689 85.7885 288.554C85.7885 290.423 87.3045 291.934 89.1681 291.934Z" fill="#619FC6"/>
<path d="M111.324 292.732C113.629 292.732 115.5 290.861 115.5 288.554C115.5 286.247 113.629 284.378 111.324 284.378C109.016 284.378 107.145 286.247 107.145 288.554C107.145 290.861 109.016 292.732 111.324 292.732Z" fill="#619FC6"/>
<path d="M133.476 293.47C136.191 293.47 138.393 291.269 138.393 288.554C138.393 285.839 136.191 283.639 133.476 283.639C130.764 283.639 128.562 285.839 128.562 288.554C128.562 291.269 130.764 293.47 133.476 293.47Z" fill="#619FC6"/>
<path d="M155.631 294.084C158.684 294.084 161.16 291.607 161.16 288.554C161.16 285.501 158.684 283.028 155.631 283.028C152.576 283.028 150.102 285.501 150.102 288.554C150.102 291.607 152.576 294.084 155.631 294.084Z" fill="#619FC6"/>
<path d="M177.787 294.454C181.04 294.454 183.683 291.812 183.683 288.554C183.683 285.297 181.04 282.658 177.787 282.658C174.529 282.658 171.887 285.297 171.887 288.554C171.887 291.812 174.529 294.454 177.787 294.454Z" fill="#619FC6"/>
<path d="M199.939 294.576C203.264 294.576 205.96 291.88 205.96 288.554C205.96 285.231 203.264 282.535 199.939 282.535C196.614 282.535 193.92 285.231 193.92 288.554C193.92 291.88 196.614 294.576 199.939 294.576Z" fill="#619FC6"/>
<path d="M222.093 294.454C225.351 294.454 227.99 291.812 227.99 288.554C227.99 285.297 225.351 282.658 222.093 282.658C218.836 282.658 216.195 285.297 216.195 288.554C216.195 291.812 218.836 294.454 222.093 294.454Z" fill="#619FC6"/>
<path d="M244.246 294.084C247.301 294.084 249.774 291.607 249.774 288.554C249.774 285.501 247.301 283.028 244.246 283.028C241.194 283.028 238.717 285.501 238.717 288.554C238.717 291.607 241.194 294.084 244.246 294.084Z" fill="#619FC6"/>
<path d="M266.402 293.531C269.151 293.531 271.376 291.303 271.376 288.553C271.376 285.804 269.151 283.578 266.402 283.578C263.652 283.578 261.426 285.804 261.426 288.553C261.426 291.303 263.652 293.531 266.402 293.531Z" fill="#619FC6"/>
<path d="M288.556 292.855C290.929 292.855 292.854 290.93 292.854 288.554C292.854 286.181 290.929 284.254 288.556 284.254C286.181 284.254 284.255 286.181 284.255 288.554C284.255 290.93 286.181 292.855 288.556 292.855Z" fill="#619FC6"/>
<path d="M310.71 291.997C312.61 291.997 314.149 290.454 314.149 288.555C314.149 286.655 312.61 285.116 310.71 285.116C308.81 285.116 307.268 286.655 307.268 288.555C307.268 290.454 308.81 291.997 310.71 291.997Z" fill="#619FC6"/>
<path d="M332.864 291.134C334.287 291.134 335.444 289.981 335.444 288.554C335.444 287.131 334.287 285.974 332.864 285.974C331.438 285.974 330.284 287.131 330.284 288.554C330.284 289.981 331.438 291.134 332.864 291.134Z" fill="#619FC6"/>
<path d="M355.015 290.275C355.968 290.275 356.736 289.504 356.736 288.554C356.736 287.604 355.968 286.836 355.015 286.836C354.068 286.836 353.297 287.604 353.297 288.554C353.297 289.504 354.068 290.275 355.015 290.275Z" fill="#619FC6"/>
<path d="M377.172 289.291C377.579 289.291 377.909 288.962 377.909 288.554C377.909 288.146 377.579 287.817 377.172 287.817C376.764 287.817 376.432 288.146 376.432 288.554C376.432 288.962 376.764 289.291 377.172 289.291Z" fill="#619FC6"/>
<path d="M399.326 288.616C399.36 288.616 399.389 288.588 399.389 288.554C399.389 288.522 399.36 288.494 399.326 288.494C399.291 288.494 399.266 288.522 399.266 288.554C399.266 288.588 399.291 288.616 399.326 288.616Z" fill="#619FC6"/>
<path d="M22.7056 310.892C22.8073 310.892 22.8893 310.808 22.8893 310.707C22.8893 310.608 22.8073 310.526 22.7056 310.526C22.6052 310.526 22.5219 310.608 22.5219 310.707C22.5219 310.808 22.6052 310.892 22.7056 310.892Z" fill="#619FC6"/>
<path d="M44.8615 311.693C45.4026 311.693 45.8434 311.254 45.8434 310.708C45.8434 310.167 45.4026 309.727 44.8615 309.727C44.3189 309.727 43.8781 310.167 43.8781 310.708C43.8781 311.254 44.3189 311.693 44.8615 311.693Z" fill="#619FC6"/>
<path d="M67.0138 312.614C68.0668 312.614 68.9204 311.761 68.9204 310.707C68.9204 309.657 68.0668 308.805 67.0138 308.805C65.963 308.805 65.1094 309.657 65.1094 310.707C65.1094 311.761 65.963 312.614 67.0138 312.614Z" fill="#619FC6"/>
<path d="M89.1681 313.413C90.6622 313.413 91.8719 312.2 91.8719 310.707C91.8719 309.215 90.6622 308.006 89.1681 308.006C87.6744 308.006 86.4656 309.215 86.4656 310.707C86.4656 312.2 87.6744 313.413 89.1681 313.413Z" fill="#619FC6"/>
<path d="M111.324 314.087C113.188 314.087 114.7 312.573 114.7 310.707C114.7 308.842 113.188 307.331 111.324 307.331C109.457 307.331 107.944 308.842 107.944 310.707C107.944 312.573 109.457 314.087 111.324 314.087Z" fill="#619FC6"/>
<path d="M133.476 314.765C135.717 314.765 137.532 312.949 137.532 310.707C137.532 308.47 135.717 306.654 133.476 306.654C131.238 306.654 129.423 308.47 129.423 310.707C129.423 312.949 131.238 314.765 133.476 314.765Z" fill="#619FC6"/>
<path d="M155.631 315.194C158.108 315.194 160.117 313.184 160.117 310.707C160.117 308.231 158.108 306.225 155.631 306.225C153.155 306.225 151.147 308.231 151.147 310.707C151.147 313.184 153.155 315.194 155.631 315.194Z" fill="#619FC6"/>
<path d="M177.787 315.564C180.465 315.564 182.638 313.388 182.638 310.707C182.638 308.028 180.465 305.856 177.787 305.856C175.105 305.856 172.931 308.028 172.931 310.707C172.931 313.388 175.105 315.564 177.787 315.564Z" fill="#619FC6"/>
<path d="M199.939 315.687C202.688 315.687 204.917 313.459 204.917 310.708C204.917 307.963 202.688 305.734 199.939 305.734C197.19 305.734 194.963 307.963 194.963 310.708C194.963 313.459 197.19 315.687 199.939 315.687Z" fill="#619FC6"/>
<path d="M222.094 315.564C224.773 315.564 226.946 313.388 226.946 310.707C226.946 308.028 224.773 305.856 222.094 305.856C219.412 305.856 217.238 308.028 217.238 310.707C217.238 313.388 219.412 315.564 222.094 315.564Z" fill="#619FC6"/>
<path d="M244.246 315.253C246.756 315.253 248.792 313.219 248.792 310.707C248.792 308.197 246.756 306.162 244.246 306.162C241.735 306.162 239.7 308.197 239.7 310.707C239.7 313.219 241.735 315.253 244.246 315.253Z" fill="#619FC6"/>
<path d="M266.401 314.824C268.675 314.824 270.516 312.98 270.516 310.707C270.516 308.435 268.675 306.592 266.401 306.592C264.126 306.592 262.283 308.435 262.283 310.707C262.283 312.98 264.126 314.824 266.401 314.824Z" fill="#619FC6"/>
<path d="M288.556 314.147C290.454 314.147 291.995 312.607 291.995 310.707C291.995 308.808 290.454 307.268 288.556 307.268C286.656 307.268 285.115 308.808 285.115 310.707C285.115 312.607 286.656 314.147 288.556 314.147Z" fill="#619FC6"/>
<path d="M310.71 313.472C312.236 313.472 313.472 312.234 313.472 310.707C313.472 309.181 312.236 307.943 310.71 307.943C309.18 307.943 307.945 309.181 307.945 310.707C307.945 312.234 309.18 313.472 310.71 313.472Z" fill="#619FC6"/>
<path d="M332.864 312.674C333.948 312.674 334.829 311.792 334.829 310.707C334.829 309.623 333.948 308.742 332.864 308.742C331.776 308.742 330.898 309.623 330.898 310.707C330.898 311.792 331.776 312.674 332.864 312.674Z" fill="#619FC6"/>
<path d="M355.015 311.814C355.629 311.814 356.124 311.32 356.124 310.708C356.124 310.097 355.629 309.604 355.015 309.604C354.407 309.604 353.911 310.097 353.911 310.708C353.911 311.32 354.407 311.814 355.015 311.814Z" fill="#619FC6"/>
<path d="M377.172 310.952C377.307 310.952 377.417 310.846 377.417 310.707C377.417 310.572 377.307 310.464 377.172 310.464C377.037 310.464 376.927 310.572 376.927 310.707C376.927 310.846 377.037 310.952 377.172 310.952Z" fill="#619FC6"/>
<path d="M44.8616 333.232C45.0635 333.232 45.2287 333.066 45.2287 332.862C45.2287 332.659 45.0635 332.492 44.8616 332.492C44.6556 332.492 44.4904 332.659 44.4904 332.862C44.4904 333.066 44.6556 333.232 44.8616 333.232Z" fill="#619FC6"/>
<path d="M67.0138 334.032C67.6589 334.032 68.1831 333.508 68.1831 332.862C68.1831 332.219 67.6589 331.696 67.0138 331.696C66.3708 331.696 65.8467 332.219 65.8467 332.862C65.8467 333.508 66.3708 334.032 67.0138 334.032Z" fill="#619FC6"/>
<path d="M89.1681 334.767C90.2214 334.767 91.0725 333.915 91.0725 332.862C91.0725 331.811 90.2214 330.959 89.1681 330.959C88.1151 330.959 87.2639 331.811 87.2639 332.862C87.2639 333.915 88.1151 334.767 89.1681 334.767Z" fill="#619FC6"/>
<path d="M111.324 335.382C112.714 335.382 113.841 334.254 113.841 332.862C113.841 331.47 112.714 330.344 111.324 330.344C109.931 330.344 108.804 331.47 108.804 332.862C108.804 334.254 109.931 335.382 111.324 335.382Z" fill="#619FC6"/>
<path d="M133.476 335.934C135.172 335.934 136.55 334.558 136.55 332.862C136.55 331.166 135.172 329.79 133.476 329.79C131.78 329.79 130.405 331.166 130.405 332.862C130.405 334.558 131.78 335.934 133.476 335.934Z" fill="#619FC6"/>
<path d="M155.631 336.363C157.566 336.363 159.133 334.795 159.133 332.862C159.133 330.927 157.566 329.36 155.631 329.36C153.696 329.36 152.128 330.927 152.128 332.862C152.128 334.795 153.696 336.363 155.631 336.363Z" fill="#619FC6"/>
<path d="M177.787 336.671C179.889 336.671 181.595 334.966 181.595 332.863C181.595 330.759 179.889 329.054 177.787 329.054C175.68 329.054 173.975 330.759 173.975 332.863C173.975 334.966 175.68 336.671 177.787 336.671Z" fill="#619FC6"/>
<path d="M199.939 336.734C202.076 336.734 203.808 334.999 203.808 332.861C203.808 330.727 202.076 328.993 199.939 328.993C197.802 328.993 196.069 330.727 196.069 332.861C196.069 334.999 197.802 336.734 199.939 336.734Z" fill="#619FC6"/>
<path d="M222.093 336.671C224.197 336.671 225.902 334.966 225.902 332.863C225.902 330.759 224.197 329.054 222.093 329.054C219.991 329.054 218.285 330.759 218.285 332.863C218.285 334.966 219.991 336.671 222.093 336.671Z" fill="#619FC6"/>
<path d="M244.246 336.427C246.215 336.427 247.809 334.832 247.809 332.863C247.809 330.897 246.215 329.298 244.246 329.298C242.28 329.298 240.682 330.897 240.682 332.863C240.682 334.832 242.28 336.427 244.246 336.427Z" fill="#619FC6"/>
<path d="M266.401 335.997C268.13 335.997 269.532 334.593 269.532 332.862C269.532 331.132 268.13 329.731 266.401 329.731C264.671 329.731 263.269 331.132 263.269 332.862C263.269 334.593 264.671 335.997 266.401 335.997Z" fill="#619FC6"/>
<path d="M288.556 335.442C289.98 335.442 291.134 334.289 291.134 332.862C291.134 331.439 289.98 330.282 288.556 330.282C287.129 330.282 285.976 331.439 285.976 332.862C285.976 334.289 287.129 335.442 288.556 335.442Z" fill="#619FC6"/>
<path d="M310.71 334.828C311.795 334.828 312.672 333.947 312.672 332.862C312.672 331.777 311.795 330.897 310.71 330.897C309.625 330.897 308.744 331.777 308.744 332.862C308.744 333.947 309.625 334.828 310.71 334.828Z" fill="#619FC6"/>
<path d="M332.864 334.092C333.541 334.092 334.093 333.539 334.093 332.862C334.093 332.185 333.541 331.637 332.864 331.637C332.184 331.637 331.632 332.185 331.632 332.862C331.632 333.539 332.184 334.092 332.864 334.092Z" fill="#619FC6"/>
<path d="M355.015 333.292C355.253 333.292 355.447 333.101 355.447 332.862C355.447 332.623 355.253 332.433 355.015 332.433C354.78 332.433 354.588 332.623 354.588 332.862C354.588 333.101 354.78 333.292 355.015 333.292Z" fill="#619FC6"/>
<path d="M67.0137 355.387C67.2181 355.387 67.3833 355.22 67.3833 355.015C67.3833 354.812 67.2181 354.649 67.0137 354.649C66.8115 354.649 66.6463 354.812 66.6463 355.015C66.6463 355.22 66.8115 355.387 67.0137 355.387Z" fill="#619FC6"/>
<path d="M89.1682 356.064C89.7437 356.064 90.213 355.594 90.213 355.016C90.213 354.439 89.7437 353.973 89.1682 353.973C88.5929 353.973 88.1249 354.439 88.1249 355.016C88.1249 355.594 88.5929 356.064 89.1682 356.064Z" fill="#619FC6"/>
<path d="M111.324 356.615C112.206 356.615 112.918 355.9 112.918 355.016C112.918 354.135 112.206 353.42 111.324 353.42C110.442 353.42 109.726 354.135 109.726 355.016C109.726 355.9 110.442 356.615 111.324 356.615Z" fill="#619FC6"/>
<path d="M133.476 357.107C134.63 357.107 135.567 356.171 135.567 355.016C135.567 353.862 134.63 352.929 133.476 352.929C132.322 352.929 131.388 353.862 131.388 355.016C131.388 356.171 132.322 357.107 133.476 357.107Z" fill="#619FC6"/>
<path d="M155.631 357.537C157.021 357.537 158.151 356.408 158.151 355.016C158.151 353.627 157.021 352.499 155.631 352.499C154.241 352.499 153.112 353.627 153.112 355.016C153.112 356.408 154.241 357.537 155.631 357.537Z" fill="#619FC6"/>
<path d="M177.787 357.718C179.277 357.718 180.487 356.511 180.487 355.015C180.487 353.524 179.277 352.314 177.787 352.314C176.293 352.314 175.083 353.524 175.083 355.015C175.083 356.511 176.293 357.718 177.787 357.718Z" fill="#619FC6"/>
<path d="M199.939 357.844C201.5 357.844 202.764 356.576 202.764 355.015C202.764 353.455 201.5 352.191 199.939 352.191C198.378 352.191 197.112 353.455 197.112 355.015C197.112 356.576 198.378 357.844 199.939 357.844Z" fill="#619FC6"/>
<path d="M222.094 357.78C223.618 357.78 224.859 356.542 224.859 355.015C224.859 353.49 223.618 352.252 222.094 352.252C220.567 352.252 219.33 353.49 219.33 355.015C219.33 356.542 220.567 357.78 222.094 357.78Z" fill="#619FC6"/>
<path d="M244.246 357.537C245.639 357.537 246.766 356.408 246.766 355.016C246.766 353.627 245.639 352.499 244.246 352.499C242.856 352.499 241.729 353.627 241.729 355.016C241.729 356.408 242.856 357.537 244.246 357.537Z" fill="#619FC6"/>
<path d="M266.402 357.167C267.589 357.167 268.55 356.205 268.55 355.016C268.55 353.832 267.589 352.865 266.402 352.865C265.214 352.865 264.252 353.832 264.252 355.016C264.252 356.205 265.214 357.167 266.402 357.167Z" fill="#619FC6"/>
<path d="M288.556 356.737C289.505 356.737 290.274 355.966 290.274 355.016C290.274 354.067 289.505 353.299 288.556 353.299C287.604 353.299 286.835 354.067 286.835 355.016C286.835 355.966 287.604 356.737 288.556 356.737Z" fill="#619FC6"/>
<path d="M310.71 356.123C311.321 356.123 311.813 355.628 311.813 355.016C311.813 354.405 311.321 353.913 310.71 353.913C310.099 353.913 309.603 354.405 309.603 355.016C309.603 355.628 310.099 356.123 310.71 356.123Z" fill="#619FC6"/>
<path d="M332.864 355.445C333.099 355.445 333.293 355.254 333.293 355.015C333.293 354.778 333.099 354.587 332.864 354.587C332.626 354.587 332.431 354.778 332.431 355.015C332.431 355.254 332.626 355.445 332.864 355.445Z" fill="#619FC6"/>
<path d="M355.015 355.079C355.052 355.079 355.077 355.051 355.077 355.015C355.077 354.981 355.052 354.957 355.015 354.957C354.983 354.957 354.955 354.981 354.955 355.015C354.955 355.051 354.983 355.079 355.015 355.079Z" fill="#619FC6"/>
<path d="M89.1681 377.418C89.3029 377.418 89.4132 377.305 89.4132 377.17C89.4132 377.035 89.3029 376.925 89.1681 376.925C89.0336 376.925 88.9232 377.035 88.9232 377.17C88.9232 377.305 89.0336 377.418 89.1681 377.418Z" fill="#619FC6"/>
<path d="M111.324 377.847C111.698 377.847 111.998 377.544 111.998 377.17C111.998 376.796 111.698 376.496 111.324 376.496C110.951 376.496 110.647 376.796 110.647 377.17C110.647 377.544 110.951 377.847 111.324 377.847Z" fill="#619FC6"/>
<path d="M133.476 378.277C134.088 378.277 134.581 377.781 134.581 377.17C134.581 376.562 134.088 376.063 133.476 376.063C132.866 376.063 132.371 376.562 132.371 377.17C132.371 377.781 132.866 378.277 133.476 378.277Z" fill="#619FC6"/>
<path d="M155.631 378.584C156.412 378.584 157.043 377.95 157.043 377.17C157.043 376.39 156.412 375.759 155.631 375.759C154.851 375.759 154.216 376.39 154.216 377.17C154.216 377.95 154.851 378.584 155.631 378.584Z" fill="#619FC6"/>
<path d="M177.787 378.828C178.701 378.828 179.442 378.086 179.442 377.17C179.442 376.255 178.701 375.512 177.787 375.512C176.868 375.512 176.127 376.255 176.127 377.17C176.127 378.086 176.868 378.828 177.787 378.828Z" fill="#619FC6"/>
<path d="M199.939 378.891C200.888 378.891 201.659 378.12 201.659 377.17C201.659 376.22 200.888 375.452 199.939 375.452C198.99 375.452 198.218 376.22 198.218 377.17C198.218 378.12 198.99 378.891 199.939 378.891Z" fill="#619FC6"/>
<path d="M222.093 378.828C223.009 378.828 223.753 378.086 223.753 377.17C223.753 376.255 223.009 375.512 222.093 375.512C221.179 375.512 220.434 376.255 220.434 377.17C220.434 378.086 221.179 378.828 222.093 378.828Z" fill="#619FC6"/>
<path d="M244.246 378.647C245.06 378.647 245.721 377.985 245.721 377.17C245.721 376.358 245.06 375.697 244.246 375.697C243.431 375.697 242.774 376.358 242.774 377.17C242.774 377.985 243.431 378.647 244.246 378.647Z" fill="#619FC6"/>
<path d="M266.401 378.336C267.047 378.336 267.567 377.815 267.567 377.17C267.567 376.525 267.047 376.004 266.401 376.004C265.755 376.004 265.234 376.525 265.234 377.17C265.234 377.815 265.755 378.336 266.401 378.336Z" fill="#619FC6"/>
<path d="M288.556 377.907C288.964 377.907 289.291 377.578 289.291 377.17C289.291 376.766 288.964 376.433 288.556 376.433C288.15 376.433 287.819 376.766 287.819 377.17C287.819 377.578 288.15 377.907 288.556 377.907Z" fill="#619FC6"/>
<path d="M310.71 377.418C310.845 377.418 310.954 377.305 310.954 377.17C310.954 377.035 310.845 376.925 310.71 376.925C310.575 376.925 310.462 377.035 310.462 377.17C310.462 377.305 310.575 377.418 310.71 377.418Z" fill="#619FC6"/>
<path d="M111.324 399.387C111.357 399.387 111.385 399.359 111.385 399.324C111.385 399.292 111.357 399.264 111.324 399.264C111.29 399.264 111.263 399.292 111.263 399.324C111.263 399.359 111.29 399.387 111.324 399.387Z" fill="#619FC6"/>
<path d="M133.476 399.51C133.58 399.51 133.66 399.428 133.66 399.325C133.66 399.224 133.58 399.14 133.476 399.14C133.375 399.14 133.292 399.224 133.292 399.325C133.292 399.428 133.375 399.51 133.476 399.51Z" fill="#619FC6"/>
<path d="M155.631 399.757C155.867 399.757 156.059 399.562 156.059 399.324C156.059 399.089 155.867 398.895 155.631 398.895C155.392 398.895 155.2 399.089 155.2 399.324C155.2 399.562 155.392 399.757 155.631 399.757Z" fill="#619FC6"/>
<path d="M177.787 399.938C178.123 399.938 178.399 399.667 178.399 399.325C178.399 398.986 178.123 398.713 177.787 398.713C177.446 398.713 177.171 398.986 177.171 399.325C177.171 399.667 177.446 399.938 177.787 399.938Z" fill="#619FC6"/>
<path d="M199.939 400.002C200.312 400.002 200.615 399.697 200.615 399.324C200.615 398.951 200.312 398.647 199.939 398.647C199.565 398.647 199.262 398.951 199.262 399.324C199.262 399.697 199.565 400.002 199.939 400.002Z" fill="#619FC6"/>
<path d="M222.094 399.938C222.434 399.938 222.706 399.667 222.706 399.325C222.706 398.986 222.434 398.713 222.094 398.713C221.754 398.713 221.479 398.986 221.479 399.325C221.479 399.667 221.754 399.938 222.094 399.938Z" fill="#619FC6"/>
<path d="M244.246 399.757C244.485 399.757 244.678 399.562 244.678 399.324C244.678 399.089 244.485 398.895 244.246 398.895C244.011 398.895 243.817 399.089 243.817 399.324C243.817 399.562 244.011 399.757 244.246 399.757Z" fill="#619FC6"/>
<path d="M266.401 399.51C266.502 399.51 266.585 399.428 266.585 399.325C266.585 399.224 266.502 399.14 266.401 399.14C266.3 399.14 266.218 399.224 266.218 399.325C266.218 399.428 266.3 399.51 266.401 399.51Z" fill="#619FC6"/>
<path d="M288.556 399.387C288.59 399.387 288.617 399.359 288.617 399.324C288.617 399.292 288.59 399.264 288.556 399.264C288.523 399.264 288.495 399.292 288.495 399.324C288.495 399.359 288.523 399.387 288.556 399.387Z" fill="#619FC6"/>
</svg>
