<svg width="43" height="43" viewBox="0 0 43 43" fill="none" xmlns="http://www.w3.org/2000/svg">
<path fill-rule="evenodd" clip-rule="evenodd" d="M21.5 43C9.62588 43 0 33.3741 0 21.5C0 9.62588 9.62588 0 21.5 0C33.3741 0 43 9.62588 43 21.5C43 33.3741 33.3741 43 21.5 43ZM21.5 39.0909C31.2152 39.0909 39.0909 31.2152 39.0909 21.5C39.0909 11.7848 31.2152 3.90909 21.5 3.90909C11.7848 3.90909 3.90909 11.7848 3.90909 21.5C3.90909 31.2152 11.7848 39.0909 21.5 39.0909ZM21.5 24.2641L15.0639 30.7003L12.2997 27.9361L18.7359 21.5L12.2997 15.0639L15.0639 12.2997L21.5 18.7359L27.9361 12.2997L30.7003 15.0639L24.2641 21.5L30.7003 27.9361L27.9361 30.7003L21.5 24.2641Z" fill="#256186"/>
</svg>
