<svg width="200" height="200" viewBox="0 0 200 200" fill="none" xmlns="http://www.w3.org/2000/svg">
<path d="M9.42307 181.158C14.6257 181.158 18.845 185.376 18.845 190.578C18.845 195.783 14.6257 200.001 9.42307 200.001C4.22045 200.001 0 195.783 0 190.578C0 185.376 4.22045 181.158 9.42307 181.158Z" fill="#256186"/>
<path d="M30.5276 181.802C35.3743 181.802 39.3053 185.731 39.3053 190.579C39.3053 195.428 35.3743 199.357 30.5276 199.357C25.6785 199.357 21.7496 195.428 21.7496 190.579C21.7496 185.731 25.6785 181.802 30.5276 181.802Z" fill="#256186"/>
<path d="M51.6298 182.796C55.9285 182.796 59.4137 186.282 59.4137 190.579C59.4137 194.878 55.9285 198.363 51.6298 198.363C47.3311 198.363 43.8467 194.878 43.8467 190.579C43.8467 186.282 47.3311 182.796 51.6298 182.796Z" fill="#256186"/>
<path d="M72.7349 183.793C76.485 183.793 79.5238 186.832 79.5238 190.58C79.5238 194.329 76.485 197.369 72.7349 197.369C68.9845 197.369 65.9457 194.329 65.9457 190.58C65.9457 186.832 68.9845 183.793 72.7349 183.793Z" fill="#256186"/>
<path d="M93.8393 184.845C97.0062 184.845 99.5726 187.412 99.5726 190.58C99.5726 193.748 97.0062 196.315 93.8393 196.315C90.6697 196.315 88.1036 193.748 88.1036 190.58C88.1036 187.412 90.6697 184.845 93.8393 184.845Z" fill="#256186"/>
<path d="M114.943 185.84C117.559 185.84 119.682 187.963 119.682 190.58C119.682 193.198 117.559 195.32 114.943 195.32C112.327 195.32 110.203 193.198 110.203 190.58C110.203 187.963 112.327 185.84 114.943 185.84" fill="#256186"/>
<path d="M136.046 186.892C138.083 186.892 139.731 188.543 139.731 190.578C139.731 192.616 138.083 194.267 136.046 194.267C134.01 194.267 132.361 192.616 132.361 190.578C132.361 188.543 134.01 186.892 136.046 186.892Z" fill="#256186"/>
<path d="M157.147 187.887C158.635 187.887 159.844 189.093 159.844 190.578C159.844 192.067 158.635 193.27 157.147 193.27C155.663 193.27 154.457 192.067 154.457 190.578C154.457 189.093 155.663 187.887 157.147 187.887" fill="#256186"/>
<path d="M178.254 188.939C179.156 188.939 179.893 189.674 179.893 190.578C179.893 191.484 179.156 192.217 178.254 192.217C177.349 192.217 176.614 191.484 176.614 190.578C176.614 189.674 177.349 188.939 178.254 188.939Z" fill="#256186"/>
<path d="M199.358 189.935C199.713 189.935 200 190.222 200 190.578C200 190.934 199.713 191.223 199.358 191.223C199.003 191.223 198.713 190.934 198.713 190.578C198.713 190.222 199.003 189.935 199.358 189.935Z" fill="#256186"/>
<path d="M9.42314 160.696C14.2722 160.696 18.2012 164.627 18.2012 169.475C18.2012 174.323 14.2722 178.253 9.42314 178.253C4.57648 178.253 0.645401 174.323 0.645401 169.475C0.645401 164.627 4.57648 160.696 9.42314 160.696Z" fill="#256186"/>
<path d="M30.5274 161.048C35.1818 161.048 38.9531 164.821 38.9531 169.475C38.9531 174.13 35.1818 177.902 30.5274 177.902C25.8731 177.902 22.0994 174.13 22.0994 169.475C22.0994 164.821 25.8731 161.048 30.5274 161.048Z" fill="#256186"/>
<path d="M51.6295 161.927C55.7998 161.927 59.1802 165.307 59.1802 169.476C59.1802 173.645 55.7998 177.024 51.6295 177.024C47.4628 177.024 44.0824 173.645 44.0824 169.476C44.0824 165.307 47.4628 161.927 51.6295 161.927Z" fill="#256186"/>
<path d="M72.7352 162.863C76.3862 162.863 79.3492 165.823 79.3492 169.476C79.3492 173.128 76.3862 176.089 72.7352 176.089C69.084 176.089 66.121 173.128 66.121 169.476C66.121 165.823 69.084 162.863 72.7352 162.863Z" fill="#256186"/>
<path d="M93.8392 163.857C96.9419 163.857 99.4557 166.372 99.4557 169.475C99.4557 172.578 96.9419 175.093 93.8392 175.093C90.7362 175.093 88.22 172.578 88.22 169.475C88.22 166.372 90.7362 163.857 93.8392 163.857Z" fill="#256186"/>
<path d="M114.943 164.85C117.496 164.85 119.563 166.921 119.563 169.474C119.563 172.028 117.496 174.098 114.943 174.098C112.39 174.098 110.32 172.028 110.32 169.474C110.32 166.921 112.39 164.85 114.943 164.85Z" fill="#256186"/>
<path d="M136.046 165.847C138.05 165.847 139.674 167.472 139.674 169.475C139.674 171.479 138.05 173.103 136.046 173.103C134.042 173.103 132.418 171.479 132.418 169.475C132.418 167.472 134.042 165.847 136.046 165.847Z" fill="#256186"/>
<path d="M157.147 166.841C158.604 166.841 159.781 168.021 159.781 169.474C159.781 170.928 158.604 172.108 157.147 172.108C155.696 172.108 154.513 170.928 154.513 169.474C154.513 168.021 155.696 166.841 157.147 166.841Z" fill="#256186"/>
<path d="M178.254 167.894C179.126 167.894 179.834 168.603 179.834 169.475C179.834 170.347 179.126 171.055 178.254 171.055C177.382 171.055 176.671 170.347 176.671 169.475C176.671 168.603 177.382 167.894 178.254 167.894Z" fill="#256186"/>
<path d="M199.358 168.89C199.677 168.89 199.94 169.151 199.94 169.475C199.94 169.799 199.677 170.059 199.358 170.059C199.035 170.059 198.772 169.799 198.772 169.475C198.772 169.151 199.035 168.89 199.358 168.89Z" fill="#256186"/>
<path d="M9.42324 140.586C13.7219 140.586 17.2063 144.072 17.2063 148.372C17.2063 152.669 13.7219 156.153 9.42324 156.153C5.12485 156.153 1.63932 152.669 1.63932 148.372C1.63932 144.072 5.12485 140.586 9.42324 140.586Z" fill="#256186"/>
<path d="M30.5273 140.821C34.6952 140.821 38.0744 144.199 38.0744 148.371C38.0744 152.54 34.6952 155.92 30.5273 155.92C26.3571 155.92 22.9778 152.54 22.9778 148.371C22.9778 144.199 26.3571 140.821 30.5273 140.821Z" fill="#256186"/>
<path d="M51.6297 141.408C55.4768 141.408 58.5936 144.526 58.5936 148.372C58.5936 152.218 55.4768 155.336 51.6297 155.336C47.7861 155.336 44.6658 152.218 44.6658 148.372C44.6658 144.526 47.7861 141.408 51.6297 141.408Z" fill="#256186"/>
<path d="M72.7349 142.227C76.1293 142.227 78.8788 144.976 78.8788 148.372C78.8788 151.764 76.1293 154.518 72.7349 154.518C69.3404 154.518 66.5898 151.764 66.5898 148.372C66.5898 144.976 69.3404 142.227 72.7349 142.227Z" fill="#256186"/>
<path d="M93.8392 143.104C96.7472 143.104 99.1057 145.464 99.1057 148.372C99.1057 151.281 96.7472 153.64 93.8392 153.64C90.9288 153.64 88.5724 151.281 88.5724 148.372C88.5724 145.464 90.9288 143.104 93.8392 143.104" fill="#256186"/>
<path d="M114.943 144.042C117.332 144.042 119.273 145.98 119.273 148.372C119.273 150.764 117.332 152.702 114.943 152.702C112.551 152.702 110.611 150.764 110.611 148.372C110.611 145.98 112.551 144.042 114.943 144.042Z" fill="#256186"/>
<path d="M136.047 144.975C137.922 144.975 139.442 146.495 139.442 148.371C139.442 150.243 137.922 151.763 136.047 151.763C134.171 151.763 132.651 150.243 132.651 148.371C132.651 146.495 134.171 144.975 136.047 144.975Z" fill="#256186"/>
<path d="M157.147 145.97C158.476 145.97 159.548 147.044 159.548 148.371C159.548 149.697 158.476 150.769 157.147 150.769C155.825 150.769 154.752 149.697 154.752 148.371C154.752 147.044 155.825 145.97 157.147 145.97Z" fill="#256186"/>
<path d="M178.254 146.966C179.027 146.966 179.658 147.594 179.658 148.37C179.658 149.147 179.027 149.773 178.254 149.773C177.478 149.773 176.847 149.147 176.847 148.37C176.847 147.594 177.478 146.966 178.254 146.966Z" fill="#256186"/>
<path d="M199.358 147.961C199.582 147.961 199.767 148.144 199.767 148.371C199.767 148.598 199.582 148.78 199.358 148.78C199.131 148.78 198.946 148.598 198.946 148.371C198.946 148.144 199.131 147.961 199.358 147.961Z" fill="#256186"/>
<path d="M9.42344 120.482C13.1739 120.482 16.2124 123.518 16.2124 127.27C16.2124 131.017 13.1739 134.056 9.42344 134.056C5.67542 134.056 2.63455 131.017 2.63455 127.27C2.63455 123.518 5.67542 120.482 9.42344 120.482Z" fill="#256186"/>
<path d="M30.5278 120.653C34.1788 120.653 37.1397 123.616 37.1397 127.268C37.1397 130.919 34.1788 133.879 30.5278 133.879C26.8745 133.879 23.9136 130.919 23.9136 127.268C23.9136 123.616 26.8745 120.653 30.5278 120.653Z" fill="#256186"/>
<path d="M51.6295 121.123C55.024 121.123 57.7746 123.873 57.7746 127.269C57.7746 130.661 55.024 133.414 51.6295 133.414C48.2386 133.414 45.4856 130.661 45.4856 127.269C45.4856 123.873 48.2386 121.123 51.6295 121.123Z" fill="#256186"/>
<path d="M72.7347 121.709C75.8049 121.709 78.293 124.2 78.293 127.27C78.293 130.339 75.8049 132.827 72.7347 132.827C69.6634 132.827 67.1761 130.339 67.1761 127.27C67.1761 124.2 69.6634 121.709 72.7347 121.709Z" fill="#256186"/>
<path d="M93.8394 122.531C96.4556 122.531 98.5789 124.65 98.5789 127.27C98.5789 129.886 96.4556 132.008 93.8394 132.008C91.2205 132.008 89.0976 129.886 89.0976 127.27C89.0976 124.65 91.2205 122.531 93.8394 122.531Z" fill="#256186"/>
<path d="M114.943 123.347C117.108 123.347 118.864 125.1 118.864 127.269C118.864 129.434 117.108 131.19 114.943 131.19C112.778 131.19 111.022 129.434 111.022 127.269C111.022 125.1 112.778 123.347 114.943 123.347" fill="#256186"/>
<path d="M136.046 124.285C137.695 124.285 139.03 125.619 139.03 127.269C139.03 128.917 137.695 130.251 136.046 130.251C134.398 130.251 133.06 128.917 133.06 127.269C133.06 125.619 134.398 124.285 136.046 124.285Z" fill="#256186"/>
<path d="M157.147 125.218C158.279 125.218 159.199 126.135 159.199 127.268C159.199 128.396 158.279 129.316 157.147 129.316C156.019 129.316 155.102 128.396 155.102 127.268C155.102 126.135 156.019 125.218 157.147 125.218Z" fill="#256186"/>
<path d="M178.253 126.154C178.869 126.154 179.364 126.652 179.364 127.268C179.364 127.883 178.869 128.378 178.253 128.378C177.638 128.378 177.143 127.883 177.143 127.268C177.143 126.652 177.638 126.154 178.253 126.154Z" fill="#256186"/>
<path d="M199.358 127.091C199.453 127.091 199.534 127.168 199.534 127.268C199.534 127.362 199.453 127.444 199.358 127.444C199.259 127.444 199.182 127.362 199.182 127.268C199.182 127.168 199.259 127.091 199.358 127.091Z" fill="#256186"/>
<path d="M9.42337 100.427C12.5906 100.427 15.159 102.996 15.159 106.164C15.159 109.33 12.5906 111.897 9.42337 111.897C6.25646 111.897 3.6901 109.33 3.6901 106.164C3.6901 102.996 6.25646 100.427 9.42337 100.427Z" fill="#256186"/>
<path d="M30.5278 100.543C33.6307 100.543 36.1446 103.061 36.1446 106.164C36.1446 109.266 33.6307 111.78 30.5278 111.78C27.4248 111.78 24.9088 109.266 24.9088 106.164C24.9088 103.061 27.4248 100.543 30.5278 100.543Z" fill="#256186"/>
<path d="M51.6292 100.897C54.5396 100.897 56.896 103.257 56.896 106.165C56.896 109.073 54.5396 111.429 51.6292 111.429C48.7224 111.429 46.3624 109.073 46.3624 106.165C46.3624 103.257 48.7224 100.897 51.6292 100.897" fill="#256186"/>
<path d="M72.735 101.421C75.3537 101.421 77.4733 103.544 77.4733 106.163C77.4733 108.782 75.3537 110.903 72.735 110.903C70.1161 110.903 67.9956 108.782 67.9956 106.163C67.9956 103.544 70.1161 101.421 72.735 101.421Z" fill="#256186"/>
<path d="M93.8393 102.068C96.0999 102.068 97.9338 103.902 97.9338 106.165C97.9338 108.425 96.0999 110.262 93.8393 110.262C91.5764 110.262 89.7425 108.425 89.7425 106.165C89.7425 103.902 91.5764 102.068 93.8393 102.068Z" fill="#256186"/>
<path d="M114.943 102.885C116.752 102.885 118.219 104.355 118.219 106.164C118.219 107.974 116.752 109.44 114.943 109.44C113.133 109.44 111.664 107.974 111.664 106.164C111.664 104.355 113.133 102.885 114.943 102.885Z" fill="#256186"/>
<path d="M136.047 103.707C137.402 103.707 138.504 104.805 138.504 106.165C138.504 107.52 137.402 108.622 136.047 108.622C134.688 108.622 133.589 107.52 133.589 106.165C133.589 104.805 134.688 103.707 136.047 103.707Z" fill="#256186"/>
<path d="M157.147 104.524C158.055 104.524 158.787 105.258 158.787 106.163C158.787 107.068 158.055 107.799 157.147 107.799C156.245 107.799 155.511 107.068 155.511 106.163C155.511 105.258 156.245 104.524 157.147 104.524Z" fill="#256186"/>
<path d="M178.254 105.461C178.642 105.461 178.955 105.775 178.955 106.164C178.955 106.552 178.642 106.866 178.254 106.866C177.865 106.866 177.549 106.552 177.549 106.164C177.549 105.775 177.865 105.461 178.254 105.461Z" fill="#256186"/>
<path d="M199.359 106.106C199.392 106.106 199.419 106.133 199.419 106.166C199.419 106.197 199.392 106.224 199.359 106.224C199.325 106.224 199.301 106.197 199.301 106.166C199.301 106.133 199.325 106.106 199.359 106.106Z" fill="#256186"/>
<path d="M9.42304 80.3179C12.042 80.3179 14.1649 82.4408 14.1649 85.0609C14.1649 87.6763 12.042 89.7992 9.42304 89.7992C6.80441 89.7992 4.68359 87.6763 4.68359 85.0609C4.68359 82.4408 6.80441 80.3179 9.42304 80.3179Z" fill="#256186"/>
<path d="M30.5274 80.4351C33.0798 80.4351 35.1501 82.5078 35.1501 85.0613C35.1501 87.6137 33.0798 89.6828 30.5274 89.6828C27.9727 89.6828 25.9023 87.6137 25.9023 85.0613C25.9023 82.5078 27.9727 80.4351 30.5274 80.4351" fill="#256186"/>
<path d="M51.629 80.731C54.0204 80.731 55.9603 82.6684 55.9603 85.061C55.9603 87.4524 54.0204 89.391 51.629 89.391C49.2377 89.391 47.299 87.4524 47.299 85.061C47.299 82.6684 49.2377 80.731 51.629 80.731Z" fill="#256186"/>
<path d="M72.735 81.1401C74.9012 81.1401 76.6545 82.8969 76.6545 85.062C76.6545 87.227 74.9012 88.9826 72.735 88.9826C70.5676 88.9826 68.812 87.227 68.812 85.062C68.812 82.8969 70.5676 81.1401 72.735 81.1401Z" fill="#256186"/>
<path d="M93.8395 81.7847C95.6474 81.7847 97.1148 83.2509 97.1148 85.0615C97.1148 86.8705 95.6474 88.3371 93.8395 88.3371C92.029 88.3371 90.5615 86.8705 90.5615 85.0615C90.5615 83.2509 92.029 81.7847 93.8395 81.7847Z" fill="#256186"/>
<path d="M114.943 82.4272C116.397 82.4272 117.574 83.6065 117.574 85.0611C117.574 86.5145 116.397 87.6938 114.943 87.6938C113.485 87.6938 112.309 86.5145 112.309 85.0611C112.309 83.6065 113.485 82.4272 114.943 82.4272Z" fill="#256186"/>
<path d="M136.046 83.189C137.08 83.189 137.919 84.029 137.919 85.0625C137.919 86.0949 137.08 86.9346 136.046 86.9346C135.01 86.9346 134.174 86.0949 134.174 85.0625C134.174 84.029 135.01 83.189 136.046 83.189Z" fill="#256186"/>
<path d="M157.147 84.0063C157.732 84.0063 158.204 84.4776 158.204 85.0608C158.204 85.6428 157.732 86.1116 157.147 86.1116C156.568 86.1116 156.096 85.6428 156.096 85.0608C156.096 84.4776 156.568 84.0063 157.147 84.0063Z" fill="#256186"/>
<path d="M178.254 84.8276C178.382 84.8276 178.487 84.9289 178.487 85.0609C178.487 85.1893 178.382 85.2929 178.254 85.2929C178.126 85.2929 178.021 85.1893 178.021 85.0609C178.021 84.9289 178.126 84.8276 178.254 84.8276Z" fill="#256186"/>
<path d="M9.42275 60.269C11.4582 60.269 13.109 61.921 13.109 63.9576C13.109 65.991 11.4582 67.6427 9.42275 67.6427C7.38733 67.6427 5.73654 65.991 5.73654 63.9576C5.73654 61.921 7.38733 60.269 9.42275 60.269Z" fill="#256186"/>
<path d="M30.5277 60.3276C32.5318 60.3276 34.1554 61.9513 34.1554 63.9553C34.1554 65.9594 32.5318 67.583 30.5277 67.583C28.5248 67.583 26.8997 65.9594 26.8997 63.9553C26.8997 61.9513 28.5248 60.3276 30.5277 60.3276Z" fill="#256186"/>
<path d="M51.6297 60.5601C53.5053 60.5601 55.0241 62.0801 55.0241 63.9557C55.0241 65.8281 53.5053 67.3514 51.6297 67.3514C49.7573 67.3514 48.2352 65.8281 48.2352 63.9557C48.2352 62.0801 49.7573 60.5601 51.6297 60.5601Z" fill="#256186"/>
<path d="M72.7347 60.9683C74.3816 60.9683 75.7173 62.3061 75.7173 63.9545C75.7173 65.6029 74.3816 66.9372 72.7347 66.9372C71.0862 66.9372 69.7508 65.6029 69.7508 63.9545C69.7508 62.3061 71.0862 60.9683 72.7347 60.9683Z" fill="#256186"/>
<path d="M93.8394 61.4995C95.196 61.4995 96.2947 62.5982 96.2947 63.9572C96.2947 65.3126 95.196 66.4149 93.8394 66.4149C92.4803 66.4149 91.3814 65.3126 91.3814 63.9572C91.3814 62.5982 92.4803 61.4995 93.8394 61.4995Z" fill="#256186"/>
<path d="M114.943 62.0845C115.976 62.0845 116.812 62.9233 116.812 63.9568C116.812 64.9904 115.976 65.8292 114.943 65.8292C113.91 65.8292 113.071 64.9904 113.071 63.9568C113.071 62.9233 113.91 62.0845 114.943 62.0845Z" fill="#256186"/>
<path d="M136.047 62.7866C136.692 62.7866 137.217 63.3128 137.217 63.9578C137.217 64.6028 136.692 65.1254 136.047 65.1254C135.399 65.1254 134.873 64.6028 134.873 63.9578C134.873 63.3128 135.399 62.7866 136.047 62.7866Z" fill="#256186"/>
<path d="M157.147 63.5483C157.374 63.5483 157.559 63.7302 157.559 63.9578C157.559 64.1853 157.374 64.3672 157.147 64.3672C156.923 64.3672 156.741 64.1853 156.741 63.9578C156.741 63.7302 156.923 63.5483 157.147 63.5483Z" fill="#256186"/>
<path d="M9.42285 40.1597C10.9103 40.1597 12.1141 41.367 12.1141 42.8542C12.1141 44.3404 10.9103 45.5442 9.42285 45.5442C7.9357 45.5442 6.73046 44.3404 6.73046 42.8542C6.73046 41.367 7.9357 40.1597 9.42285 40.1597" fill="#256186"/>
<path d="M30.5276 40.2202C31.9798 40.2202 33.1615 41.3995 33.1615 42.8541C33.1615 44.3075 31.9798 45.4867 30.5276 45.4867C29.073 45.4867 27.8949 44.3075 27.8949 42.8541C27.8949 41.3995 29.073 40.2202 30.5276 40.2202Z" fill="#256186"/>
<path d="M51.6292 40.4512C52.9566 40.4512 54.0298 41.5268 54.0298 42.853C54.0298 44.1759 52.9566 45.2501 51.6292 45.2501C50.3051 45.2501 49.2322 44.1759 49.2322 42.853C49.2322 41.5268 50.3051 40.4512 51.6292 40.4512Z" fill="#256186"/>
<path d="M72.7352 40.8037C73.8667 40.8037 74.7823 41.7205 74.7823 42.8532C74.7823 43.9811 73.8667 44.9014 72.7352 44.9014C71.6037 44.9014 70.6879 43.9811 70.6879 42.8532C70.6879 41.7205 71.6037 40.8037 72.7352 40.8037Z" fill="#256186"/>
<path d="M93.8396 41.2134C94.7435 41.2134 95.476 41.9483 95.476 42.8534C95.476 43.7574 94.7435 44.489 93.8396 44.489C92.933 44.489 92.2004 43.7574 92.2004 42.8534C92.2004 41.9483 92.933 41.2134 93.8396 41.2134Z" fill="#256186"/>
<path d="M114.942 41.7983C115.525 41.7983 115.994 42.2696 115.994 42.8528C115.994 43.4348 115.525 43.9039 114.942 43.9039C114.36 43.9039 113.888 43.4348 113.888 42.8528C113.888 42.2696 114.36 41.7983 114.942 41.7983Z" fill="#256186"/>
<path d="M136.047 42.4438C136.27 42.4438 136.456 42.6257 136.456 42.8533C136.456 43.0796 136.27 43.2615 136.047 43.2615C135.82 43.2615 135.634 43.0796 135.634 42.8533C135.634 42.6257 135.82 42.4438 136.047 42.4438Z" fill="#256186"/>
<path d="M157.148 42.7935C157.184 42.7935 157.209 42.8207 157.209 42.8549C157.209 42.8879 157.184 42.9119 157.148 42.9119C157.118 42.9119 157.091 42.8879 157.091 42.8549C157.091 42.8207 157.118 42.7935 157.148 42.7935Z" fill="#256186"/>
<path d="M9.42312 20.1108C10.3271 20.1108 11.062 20.8446 11.062 21.7497C11.062 22.6548 10.3271 23.3864 9.42312 23.3864C8.51918 23.3864 7.78428 22.6548 7.78428 21.7497C7.78428 20.8446 8.51918 20.1108 9.42312 20.1108Z" fill="#256186"/>
<path d="M30.5272 20.1699C31.3998 20.1699 32.1078 20.8768 32.1078 21.7493C32.1078 22.6207 31.3998 23.3288 30.5272 23.3288C29.6558 23.3288 28.9466 22.6207 28.9466 21.7493C28.9466 20.8768 29.6558 20.1699 30.5272 20.1699Z" fill="#256186"/>
<path d="M51.6294 20.3433C52.4052 20.3433 53.035 20.9734 53.035 21.7501C53.035 22.5235 52.4052 23.1533 51.6294 23.1533C50.8536 23.1533 50.2274 22.5235 50.2274 21.7501C50.2274 20.9734 50.8536 20.3433 51.6294 20.3433Z" fill="#256186"/>
<path d="M72.735 20.6387C73.3495 20.6387 73.8456 21.1347 73.8456 21.7493C73.8456 22.3641 73.3495 22.8598 72.735 22.8598C72.1189 22.8598 71.6232 22.3641 71.6232 21.7493C71.6232 21.1347 72.1189 20.6387 72.735 20.6387Z" fill="#256186"/>
<path d="M93.8394 21.0483C94.2276 21.0483 94.5391 21.3619 94.5391 21.7504C94.5391 22.1353 94.2276 22.4528 93.8394 22.4528C93.4521 22.4528 93.1371 22.1353 93.1371 21.7504C93.1371 21.3619 93.4521 21.0483 93.8394 21.0483Z" fill="#256186"/>
<path d="M114.942 21.5137C115.071 21.5137 115.175 21.6209 115.175 21.7493C115.175 21.8777 115.071 21.9825 114.942 21.9825C114.814 21.9825 114.706 21.8777 114.706 21.7493C114.706 21.6209 114.814 21.5137 114.942 21.5137Z" fill="#256186"/>
<path d="M9.42323 -0.000488281C9.77889 -0.000488281 10.0671 0.290074 10.0671 0.64454C10.0671 1.0005 9.77889 1.28957 9.42323 1.28957C9.06756 1.28957 8.77821 1.0005 8.77821 0.64454C8.77821 0.290074 9.06756 -0.000488281 9.42323 -0.000488281Z" fill="#256186"/>
<path d="M30.5274 0.0605469C30.8517 0.0605469 31.1106 0.319454 31.1106 0.644954C31.1106 0.968065 30.8517 1.22817 30.5274 1.22817C30.2043 1.22817 29.9418 0.968065 29.9418 0.644954C29.9418 0.319454 30.2043 0.0605469 30.5274 0.0605469Z" fill="#256186"/>
<path d="M51.6295 0.233887C51.8571 0.233887 52.0413 0.419331 52.0413 0.645688C52.0413 0.869656 51.8571 1.0551 51.6295 1.0551C51.4056 1.0551 51.2213 0.869656 51.2213 0.645688C51.2213 0.419331 51.4056 0.233887 51.6295 0.233887Z" fill="#256186"/>
<path d="M72.7348 0.468262C72.8304 0.468262 72.9098 0.5465 72.9098 0.644449C72.9098 0.740307 72.8304 0.820636 72.7348 0.820636C72.6381 0.820636 72.5598 0.740307 72.5598 0.644449C72.5598 0.5465 72.6381 0.468262 72.7348 0.468262Z" fill="#256186"/>
<path d="M93.8401 0.586426C93.8731 0.586426 93.8991 0.613681 93.8991 0.646689C93.8991 0.677577 93.8731 0.704827 93.8401 0.704827C93.808 0.704827 93.7807 0.677577 93.7807 0.646689C93.7807 0.613681 93.808 0.586426 93.8401 0.586426Z" fill="#256186"/>
</svg>
