<svg width="200" height="201" viewBox="0 0 200 201" fill="none" xmlns="http://www.w3.org/2000/svg">
<path d="M9.42307 181.158C14.6257 181.158 18.845 185.376 18.845 190.578C18.845 195.783 14.6257 200.001 9.42307 200.001C4.22045 200.001 0 195.783 0 190.578C0 185.376 4.22045 181.158 9.42307 181.158Z" fill="white"/>
<path d="M30.5276 181.802C35.3742 181.802 39.3053 185.731 39.3053 190.579C39.3053 195.428 35.3742 199.357 30.5276 199.357C25.6785 199.357 21.7495 195.428 21.7495 190.579C21.7495 185.731 25.6785 181.802 30.5276 181.802Z" fill="white"/>
<path d="M51.6297 182.796C55.9284 182.796 59.4136 186.282 59.4136 190.579C59.4136 194.878 55.9284 198.363 51.6297 198.363C47.331 198.363 43.8467 194.878 43.8467 190.579C43.8467 186.282 47.331 182.796 51.6297 182.796Z" fill="white"/>
<path d="M72.735 183.793C76.4851 183.793 79.5239 186.832 79.5239 190.58C79.5239 194.329 76.4851 197.369 72.735 197.369C68.9846 197.369 65.9458 194.329 65.9458 190.58C65.9458 186.832 68.9846 183.793 72.735 183.793Z" fill="white"/>
<path d="M93.8392 184.845C97.0061 184.845 99.5725 187.412 99.5725 190.58C99.5725 193.748 97.0061 196.315 93.8392 196.315C90.6696 196.315 88.1035 193.748 88.1035 190.58C88.1035 187.412 90.6696 184.845 93.8392 184.845Z" fill="white"/>
<path d="M114.943 185.84C117.559 185.84 119.682 187.963 119.682 190.58C119.682 193.198 117.559 195.32 114.943 195.32C112.327 195.32 110.203 193.198 110.203 190.58C110.203 187.963 112.327 185.84 114.943 185.84Z" fill="white"/>
<path d="M136.046 186.892C138.083 186.892 139.731 188.543 139.731 190.578C139.731 192.616 138.083 194.267 136.046 194.267C134.01 194.267 132.361 192.616 132.361 190.578C132.361 188.543 134.01 186.892 136.046 186.892Z" fill="white"/>
<path d="M157.148 187.887C158.635 187.887 159.844 189.093 159.844 190.578C159.844 192.067 158.635 193.27 157.148 193.27C155.663 193.27 154.457 192.067 154.457 190.578C154.457 189.093 155.663 187.887 157.148 187.887Z" fill="white"/>
<path d="M178.254 188.939C179.156 188.939 179.893 189.674 179.893 190.578C179.893 191.484 179.156 192.217 178.254 192.217C177.349 192.217 176.614 191.484 176.614 190.578C176.614 189.674 177.349 188.939 178.254 188.939Z" fill="white"/>
<path d="M199.358 189.935C199.713 189.935 200 190.222 200 190.578C200 190.934 199.713 191.223 199.358 191.223C199.003 191.223 198.713 190.934 198.713 190.578C198.713 190.222 199.003 189.935 199.358 189.935Z" fill="white"/>
<path d="M9.42325 160.696C14.2723 160.696 18.2013 164.627 18.2013 169.475C18.2013 174.323 14.2723 178.253 9.42325 178.253C4.57659 178.253 0.645508 174.323 0.645508 169.475C0.645508 164.627 4.57659 160.696 9.42325 160.696Z" fill="white"/>
<path d="M30.5277 161.048C35.182 161.048 38.9533 164.821 38.9533 169.475C38.9533 174.13 35.182 177.902 30.5277 177.902C25.8733 177.902 22.0996 174.13 22.0996 169.475C22.0996 164.821 25.8733 161.048 30.5277 161.048Z" fill="white"/>
<path d="M51.6296 161.927C55.7999 161.927 59.1803 165.307 59.1803 169.476C59.1803 173.645 55.7999 177.024 51.6296 177.024C47.4629 177.024 44.0825 173.645 44.0825 169.476C44.0825 165.307 47.4629 161.927 51.6296 161.927Z" fill="white"/>
<path d="M72.7353 162.863C76.3863 162.863 79.3492 165.823 79.3492 169.476C79.3492 173.128 76.3863 176.089 72.7353 176.089C69.084 176.089 66.1211 173.128 66.1211 169.476C66.1211 165.823 69.084 162.863 72.7353 162.863Z" fill="white"/>
<path d="M93.8394 163.857C96.9421 163.857 99.4559 166.372 99.4559 169.475C99.4559 172.578 96.9421 175.093 93.8394 175.093C90.7364 175.093 88.2202 172.578 88.2202 169.475C88.2202 166.372 90.7364 163.857 93.8394 163.857Z" fill="white"/>
<path d="M114.943 164.85C117.496 164.85 119.563 166.921 119.563 169.474C119.563 172.028 117.496 174.098 114.943 174.098C112.39 174.098 110.32 172.028 110.32 169.474C110.32 166.921 112.39 164.85 114.943 164.85Z" fill="white"/>
<path d="M136.046 165.847C138.05 165.847 139.675 167.472 139.675 169.475C139.675 171.479 138.05 173.103 136.046 173.103C134.042 173.103 132.418 171.479 132.418 169.475C132.418 167.472 134.042 165.847 136.046 165.847Z" fill="white"/>
<path d="M157.147 166.841C158.604 166.841 159.781 168.021 159.781 169.474C159.781 170.928 158.604 172.108 157.147 172.108C155.696 172.108 154.513 170.928 154.513 169.474C154.513 168.021 155.696 166.841 157.147 166.841Z" fill="white"/>
<path d="M178.254 167.894C179.126 167.894 179.834 168.603 179.834 169.475C179.834 170.347 179.126 171.055 178.254 171.055C177.382 171.055 176.671 170.347 176.671 169.475C176.671 168.603 177.382 167.894 178.254 167.894Z" fill="white"/>
<path d="M199.358 168.89C199.677 168.89 199.94 169.151 199.94 169.475C199.94 169.799 199.677 170.059 199.358 170.059C199.035 170.059 198.772 169.799 198.772 169.475C198.772 169.151 199.035 168.89 199.358 168.89Z" fill="white"/>
<path d="M9.42308 140.586C13.7218 140.586 17.2061 144.072 17.2061 148.372C17.2061 152.669 13.7218 156.153 9.42308 156.153C5.12469 156.153 1.63916 152.669 1.63916 148.372C1.63916 144.072 5.12469 140.586 9.42308 140.586Z" fill="white"/>
<path d="M30.5275 140.821C34.6954 140.821 38.0746 144.199 38.0746 148.371C38.0746 152.54 34.6954 155.92 30.5275 155.92C26.3573 155.92 22.978 152.54 22.978 148.371C22.978 144.199 26.3573 140.821 30.5275 140.821Z" fill="white"/>
<path d="M51.6294 141.408C55.4766 141.408 58.5933 144.526 58.5933 148.372C58.5933 152.218 55.4766 155.336 51.6294 155.336C47.7858 155.336 44.6655 152.218 44.6655 148.372C44.6655 144.526 47.7858 141.408 51.6294 141.408Z" fill="white"/>
<path d="M72.7349 142.227C76.1294 142.227 78.8788 144.976 78.8788 148.372C78.8788 151.764 76.1294 154.518 72.7349 154.518C69.3405 154.518 66.5898 151.764 66.5898 148.372C66.5898 144.976 69.3405 142.227 72.7349 142.227Z" fill="white"/>
<path d="M93.8391 143.104C96.7471 143.104 99.1056 145.464 99.1056 148.372C99.1056 151.281 96.7471 153.64 93.8391 153.64C90.9287 153.64 88.5723 151.281 88.5723 148.372C88.5723 145.464 90.9287 143.104 93.8391 143.104Z" fill="white"/>
<path d="M114.943 144.042C117.332 144.042 119.273 145.98 119.273 148.372C119.273 150.764 117.332 152.702 114.943 152.702C112.551 152.702 110.611 150.764 110.611 148.372C110.611 145.98 112.551 144.042 114.943 144.042Z" fill="white"/>
<path d="M136.047 144.975C137.922 144.975 139.442 146.495 139.442 148.371C139.442 150.243 137.922 151.763 136.047 151.763C134.171 151.763 132.651 150.243 132.651 148.371C132.651 146.495 134.171 144.975 136.047 144.975Z" fill="white"/>
<path d="M157.147 145.97C158.476 145.97 159.548 147.044 159.548 148.371C159.548 149.697 158.476 150.769 157.147 150.769C155.825 150.769 154.752 149.697 154.752 148.371C154.752 147.044 155.825 145.97 157.147 145.97Z" fill="white"/>
<path d="M178.254 146.966C179.028 146.966 179.658 147.594 179.658 148.37C179.658 149.147 179.028 149.773 178.254 149.773C177.478 149.773 176.848 149.147 176.848 148.37C176.848 147.594 177.478 146.966 178.254 146.966Z" fill="white"/>
<path d="M199.357 147.961C199.581 147.961 199.767 148.144 199.767 148.371C199.767 148.598 199.581 148.78 199.357 148.78C199.13 148.78 198.945 148.598 198.945 148.371C198.945 148.144 199.13 147.961 199.357 147.961Z" fill="white"/>
<path d="M9.42366 120.482C13.1741 120.482 16.2126 123.518 16.2126 127.27C16.2126 131.017 13.1741 134.056 9.42366 134.056C5.67564 134.056 2.63477 131.017 2.63477 127.27C2.63477 123.518 5.67564 120.482 9.42366 120.482Z" fill="white"/>
<path d="M30.5278 120.653C34.1788 120.653 37.1396 123.616 37.1396 127.268C37.1396 130.919 34.1788 133.879 30.5278 133.879C26.8744 133.879 23.9136 130.919 23.9136 127.268C23.9136 123.616 26.8744 120.653 30.5278 120.653Z" fill="white"/>
<path d="M51.6297 121.123C55.0242 121.123 57.7748 123.873 57.7748 127.269C57.7748 130.661 55.0242 133.414 51.6297 133.414C48.2389 133.414 45.4858 130.661 45.4858 127.269C45.4858 123.873 48.2389 121.123 51.6297 121.123Z" fill="white"/>
<path d="M72.7349 121.709C75.805 121.709 78.2931 124.2 78.2931 127.27C78.2931 130.339 75.805 132.827 72.7349 132.827C69.6635 132.827 67.1763 130.339 67.1763 127.27C67.1763 124.2 69.6635 121.709 72.7349 121.709Z" fill="white"/>
<path d="M93.8395 122.531C96.4557 122.531 98.579 124.65 98.579 127.27C98.579 129.886 96.4557 132.008 93.8395 132.008C91.2206 132.008 89.0977 129.886 89.0977 127.27C89.0977 124.65 91.2206 122.531 93.8395 122.531Z" fill="white"/>
<path d="M114.943 123.347C117.108 123.347 118.864 125.1 118.864 127.269C118.864 129.434 117.108 131.19 114.943 131.19C112.778 131.19 111.022 129.434 111.022 127.269C111.022 125.1 112.778 123.347 114.943 123.347Z" fill="white"/>
<path d="M136.046 124.285C137.695 124.285 139.03 125.619 139.03 127.269C139.03 128.917 137.695 130.251 136.046 130.251C134.398 130.251 133.06 128.917 133.06 127.269C133.06 125.619 134.398 124.285 136.046 124.285Z" fill="white"/>
<path d="M157.148 125.218C158.279 125.218 159.199 126.135 159.199 127.268C159.199 128.396 158.279 129.316 157.148 129.316C156.019 129.316 155.102 128.396 155.102 127.268C155.102 126.135 156.019 125.218 157.148 125.218Z" fill="white"/>
<path d="M178.253 126.154C178.869 126.154 179.364 126.652 179.364 127.268C179.364 127.883 178.869 128.378 178.253 128.378C177.638 128.378 177.143 127.883 177.143 127.268C177.143 126.652 177.638 126.154 178.253 126.154Z" fill="white"/>
<path d="M199.358 127.091C199.453 127.091 199.534 127.168 199.534 127.268C199.534 127.362 199.453 127.444 199.358 127.444C199.259 127.444 199.182 127.362 199.182 127.268C199.182 127.168 199.259 127.091 199.358 127.091Z" fill="white"/>
<path d="M9.42321 100.427C12.5904 100.427 15.1589 102.996 15.1589 106.164C15.1589 109.33 12.5904 111.897 9.42321 111.897C6.25631 111.897 3.68994 109.33 3.68994 106.164C3.68994 102.996 6.25631 100.427 9.42321 100.427Z" fill="white"/>
<path d="M30.5276 100.543C33.6306 100.543 36.1444 103.061 36.1444 106.164C36.1444 109.266 33.6306 111.78 30.5276 111.78C27.4246 111.78 24.9087 109.266 24.9087 106.164C24.9087 103.061 27.4246 100.543 30.5276 100.543Z" fill="white"/>
<path d="M51.6291 100.897C54.5395 100.897 56.896 103.257 56.896 106.165C56.896 109.073 54.5395 111.429 51.6291 111.429C48.7223 111.429 46.3623 109.073 46.3623 106.165C46.3623 103.257 48.7223 100.897 51.6291 100.897Z" fill="white"/>
<path d="M72.7351 101.421C75.3537 101.421 77.4733 103.544 77.4733 106.163C77.4733 108.782 75.3537 110.903 72.7351 110.903C70.1161 110.903 67.9956 108.782 67.9956 106.163C67.9956 103.544 70.1161 101.421 72.7351 101.421Z" fill="white"/>
<path d="M93.8395 102.068C96.1001 102.068 97.9339 103.902 97.9339 106.165C97.9339 108.425 96.1001 110.262 93.8395 110.262C91.5765 110.262 89.7427 108.425 89.7427 106.165C89.7427 103.902 91.5765 102.068 93.8395 102.068Z" fill="white"/>
<path d="M114.943 102.885C116.753 102.885 118.219 104.355 118.219 106.164C118.219 107.974 116.753 109.44 114.943 109.44C113.133 109.44 111.664 107.974 111.664 106.164C111.664 104.355 113.133 102.885 114.943 102.885Z" fill="white"/>
<path d="M136.047 103.707C137.402 103.707 138.504 104.805 138.504 106.165C138.504 107.52 137.402 108.622 136.047 108.622C134.688 108.622 133.589 107.52 133.589 106.165C133.589 104.805 134.688 103.707 136.047 103.707Z" fill="white"/>
<path d="M157.147 104.524C158.055 104.524 158.787 105.258 158.787 106.163C158.787 107.068 158.055 107.799 157.147 107.799C156.245 107.799 155.511 107.068 155.511 106.163C155.511 105.258 156.245 104.524 157.147 104.524Z" fill="white"/>
<path d="M178.254 105.461C178.642 105.461 178.955 105.775 178.955 106.164C178.955 106.552 178.642 106.866 178.254 106.866C177.865 106.866 177.549 106.552 177.549 106.164C177.549 105.775 177.865 105.461 178.254 105.461Z" fill="white"/>
<path d="M199.358 106.106C199.392 106.106 199.419 106.133 199.419 106.166C199.419 106.197 199.392 106.224 199.358 106.224C199.325 106.224 199.301 106.197 199.301 106.166C199.301 106.133 199.325 106.106 199.358 106.106Z" fill="white"/>
<path d="M9.42304 80.3181C12.042 80.3181 14.1649 82.441 14.1649 85.0612C14.1649 87.6765 12.042 89.7994 9.42304 89.7994C6.80441 89.7994 4.68359 87.6765 4.68359 85.0612C4.68359 82.441 6.80441 80.3181 9.42304 80.3181Z" fill="white"/>
<path d="M30.5274 80.4353C33.0798 80.4353 35.1501 82.5081 35.1501 85.0616C35.1501 87.6139 33.0798 89.6831 30.5274 89.6831C27.9727 89.6831 25.9023 87.6139 25.9023 85.0616C25.9023 82.5081 27.9727 80.4353 30.5274 80.4353Z" fill="white"/>
<path d="M51.6289 80.7312C54.0203 80.7312 55.9601 82.6687 55.9601 85.0612C55.9601 87.4526 54.0203 89.3913 51.6289 89.3913C49.2375 89.3913 47.2988 87.4526 47.2988 85.0612C47.2988 82.6687 49.2375 80.7312 51.6289 80.7312Z" fill="white"/>
<path d="M72.735 81.1404C74.9013 81.1404 76.6545 82.8972 76.6545 85.0622C76.6545 87.2272 74.9013 88.9828 72.735 88.9828C70.5676 88.9828 68.812 87.2272 68.812 85.0622C68.812 82.8972 70.5676 81.1404 72.735 81.1404Z" fill="white"/>
<path d="M93.8395 81.7849C95.6474 81.7849 97.1148 83.2512 97.1148 85.0617C97.1148 86.8708 95.6474 88.3373 93.8395 88.3373C92.029 88.3373 90.5615 86.8708 90.5615 85.0617C90.5615 83.2512 92.029 81.7849 93.8395 81.7849Z" fill="white"/>
<path d="M114.943 82.4275C116.397 82.4275 117.574 83.6068 117.574 85.0614C117.574 86.5148 116.397 87.694 114.943 87.694C113.486 87.694 112.309 86.5148 112.309 85.0614C112.309 83.6068 113.486 82.4275 114.943 82.4275Z" fill="white"/>
<path d="M136.046 83.1892C137.079 83.1892 137.919 84.0292 137.919 85.0628C137.919 86.0951 137.079 86.9348 136.046 86.9348C135.01 86.9348 134.174 86.0951 134.174 85.0628C134.174 84.0292 135.01 83.1892 136.046 83.1892Z" fill="white"/>
<path d="M157.147 84.0066C157.732 84.0066 158.204 84.4778 158.204 85.061C158.204 85.6431 157.732 86.1119 157.147 86.1119C156.568 86.1119 156.096 85.6431 156.096 85.061C156.096 84.4778 156.568 84.0066 157.147 84.0066Z" fill="white"/>
<path d="M178.254 84.8279C178.382 84.8279 178.487 84.9291 178.487 85.0611C178.487 85.1895 178.382 85.2931 178.254 85.2931C178.125 85.2931 178.021 85.1895 178.021 85.0611C178.021 84.9291 178.125 84.8279 178.254 84.8279Z" fill="white"/>
<path d="M9.42254 60.2693C11.458 60.2693 13.1088 61.9213 13.1088 63.9579C13.1088 65.9912 11.458 67.6429 9.42254 67.6429C7.38712 67.6429 5.73633 65.9912 5.73633 63.9579C5.73633 61.9213 7.38712 60.2693 9.42254 60.2693Z" fill="white"/>
<path d="M30.5279 60.3279C32.532 60.3279 34.1556 61.9515 34.1556 63.9556C34.1556 65.9596 32.532 67.5833 30.5279 67.5833C28.525 67.5833 26.8999 65.9596 26.8999 63.9556C26.8999 61.9515 28.525 60.3279 30.5279 60.3279Z" fill="white"/>
<path d="M51.6298 60.5603C53.5055 60.5603 55.0242 62.0803 55.0242 63.956C55.0242 65.8283 53.5055 67.3516 51.6298 67.3516C49.7574 67.3516 48.2354 65.8283 48.2354 63.956C48.2354 62.0803 49.7574 60.5603 51.6298 60.5603Z" fill="white"/>
<path d="M72.7348 60.9685C74.3817 60.9685 75.7175 62.3063 75.7175 63.9547C75.7175 65.6031 74.3817 66.9374 72.7348 66.9374C71.0864 66.9374 69.751 65.6031 69.751 63.9547C69.751 62.3063 71.0864 60.9685 72.7348 60.9685Z" fill="white"/>
<path d="M93.8393 61.4998C95.196 61.4998 96.2946 62.5984 96.2946 63.9574C96.2946 65.3129 95.196 66.4151 93.8393 66.4151C92.4803 66.4151 91.3813 65.3129 91.3813 63.9574C91.3813 62.5984 92.4803 61.4998 93.8393 61.4998Z" fill="white"/>
<path d="M114.943 62.0847C115.976 62.0847 116.813 62.9235 116.813 63.9571C116.813 64.9906 115.976 65.8295 114.943 65.8295C113.91 65.8295 113.071 64.9906 113.071 63.9571C113.071 62.9235 113.91 62.0847 114.943 62.0847Z" fill="white"/>
<path d="M136.047 62.7869C136.692 62.7869 137.217 63.313 137.217 63.9581C137.217 64.6031 136.692 65.1257 136.047 65.1257C135.399 65.1257 134.873 64.6031 134.873 63.9581C134.873 63.313 135.399 62.7869 136.047 62.7869Z" fill="white"/>
<path d="M157.147 63.5486C157.374 63.5486 157.559 63.7304 157.559 63.958C157.559 64.1855 157.374 64.3674 157.147 64.3674C156.923 64.3674 156.741 64.1855 156.741 63.958C156.741 63.7304 156.923 63.5486 157.147 63.5486Z" fill="white"/>
<path d="M9.42286 40.1599C10.9103 40.1599 12.1141 41.3673 12.1141 42.8544C12.1141 44.3406 10.9103 45.5444 9.42286 45.5444C7.93571 45.5444 6.73047 44.3406 6.73047 42.8544C6.73047 41.3673 7.93571 40.1599 9.42286 40.1599Z" fill="white"/>
<path d="M30.5277 40.2205C31.9799 40.2205 33.1615 41.3997 33.1615 42.8543C33.1615 44.3077 31.9799 45.487 30.5277 45.487C29.0731 45.487 27.895 44.3077 27.895 42.8543C27.895 41.3997 29.0731 40.2205 30.5277 40.2205Z" fill="white"/>
<path d="M51.629 40.4514C52.9564 40.4514 54.0296 41.5271 54.0296 42.8532C54.0296 44.1761 52.9564 45.2503 51.629 45.2503C50.3049 45.2503 49.2319 44.1761 49.2319 42.8532C49.2319 41.5271 50.3049 40.4514 51.629 40.4514Z" fill="white"/>
<path d="M72.7354 40.804C73.8668 40.804 74.7824 41.7207 74.7824 42.8534C74.7824 43.9813 73.8668 44.9017 72.7354 44.9017C71.6039 44.9017 70.688 43.9813 70.688 42.8534C70.688 41.7207 71.6039 40.804 72.7354 40.804Z" fill="white"/>
<path d="M93.8393 41.2136C94.7433 41.2136 95.4758 41.9485 95.4758 42.8537C95.4758 43.7576 94.7433 44.4892 93.8393 44.4892C92.9327 44.4892 92.2002 43.7576 92.2002 42.8537C92.2002 41.9485 92.9327 41.2136 93.8393 41.2136Z" fill="white"/>
<path d="M114.942 41.7986C115.525 41.7986 115.993 42.2698 115.993 42.853C115.993 43.435 115.525 43.9042 114.942 43.9042C114.36 43.9042 113.888 43.435 113.888 42.853C113.888 42.2698 114.36 41.7986 114.942 41.7986Z" fill="white"/>
<path d="M136.046 42.4441C136.27 42.4441 136.455 42.626 136.455 42.8535C136.455 43.0799 136.27 43.2617 136.046 43.2617C135.819 43.2617 135.634 43.0799 135.634 42.8535C135.634 42.626 135.819 42.4441 136.046 42.4441Z" fill="white"/>
<path d="M157.148 42.7937C157.184 42.7937 157.208 42.821 157.208 42.8552C157.208 42.8882 157.184 42.9121 157.148 42.9121C157.118 42.9121 157.09 42.8882 157.09 42.8552C157.09 42.821 157.118 42.7937 157.148 42.7937Z" fill="white"/>
<path d="M9.42302 20.1111C10.327 20.1111 11.0619 20.8448 11.0619 21.7499C11.0619 22.6551 10.327 23.3867 9.42302 23.3867C8.51909 23.3867 7.78418 22.6551 7.78418 21.7499C7.78418 20.8448 8.51909 20.1111 9.42302 20.1111Z" fill="white"/>
<path d="M30.5274 20.1702C31.4 20.1702 32.108 20.877 32.108 21.7496C32.108 22.621 31.4 23.329 30.5274 23.329C29.656 23.329 28.9468 22.621 28.9468 21.7496C28.9468 20.877 29.656 20.1702 30.5274 20.1702Z" fill="white"/>
<path d="M51.6296 20.3435C52.4054 20.3435 53.0352 20.9736 53.0352 21.7503C53.0352 22.5238 52.4054 23.1536 51.6296 23.1536C50.8538 23.1536 50.2275 22.5238 50.2275 21.7503C50.2275 20.9736 50.8538 20.3435 51.6296 20.3435Z" fill="white"/>
<path d="M72.7348 20.6389C73.3494 20.6389 73.8454 21.1349 73.8454 21.7495C73.8454 22.3644 73.3494 22.8601 72.7348 22.8601C72.1188 22.8601 71.623 22.3644 71.623 21.7495C71.623 21.1349 72.1188 20.6389 72.7348 20.6389Z" fill="white"/>
<path d="M93.8396 21.0486C94.2278 21.0486 94.5392 21.3621 94.5392 21.7507C94.5392 22.1356 94.2278 22.453 93.8396 22.453C93.4523 22.453 93.1372 22.1356 93.1372 21.7507C93.1372 21.3621 93.4523 21.0486 93.8396 21.0486Z" fill="white"/>
<path d="M114.942 21.5139C115.071 21.5139 115.175 21.6211 115.175 21.7495C115.175 21.8779 115.071 21.9828 114.942 21.9828C114.814 21.9828 114.707 21.8779 114.707 21.7495C114.707 21.6211 114.814 21.5139 114.942 21.5139Z" fill="white"/>
<path d="M9.42334 -0.000244141C9.779 -0.000244141 10.0672 0.290318 10.0672 0.644784C10.0672 1.00074 9.779 1.28981 9.42334 1.28981C9.06768 1.28981 8.77832 1.00074 8.77832 0.644784C8.77832 0.290318 9.06768 -0.000244141 9.42334 -0.000244141Z" fill="white"/>
<path d="M30.5275 0.060791C30.8518 0.060791 31.1107 0.319698 31.1107 0.645198C31.1107 0.968309 30.8518 1.22841 30.5275 1.22841C30.2044 1.22841 29.9419 0.968309 29.9419 0.645198C29.9419 0.319698 30.2044 0.060791 30.5275 0.060791Z" fill="white"/>
<path d="M51.6294 0.234131C51.857 0.234131 52.0412 0.419576 52.0412 0.645932C52.0412 0.8699 51.857 1.05535 51.6294 1.05535C51.4054 1.05535 51.2212 0.8699 51.2212 0.645932C51.2212 0.419576 51.4054 0.234131 51.6294 0.234131Z" fill="white"/>
<path d="M72.7351 0.468506C72.8306 0.468506 72.91 0.546744 72.91 0.644693C72.91 0.740551 72.8306 0.82088 72.7351 0.82088C72.6383 0.82088 72.5601 0.740551 72.5601 0.644693C72.5601 0.546744 72.6383 0.468506 72.7351 0.468506Z" fill="white"/>
<path d="M93.8401 0.58667C93.8731 0.58667 93.8992 0.613926 93.8992 0.646933C93.8992 0.677821 93.8731 0.705071 93.8401 0.705071C93.808 0.705071 93.7808 0.677821 93.7808 0.646933C93.7808 0.613926 93.808 0.58667 93.8401 0.58667Z" fill="white"/>
</svg>
