<svg width="200" height="200" viewBox="0 0 200 200" fill="none" xmlns="http://www.w3.org/2000/svg">
<path d="M190.577 181.157C185.374 181.157 181.155 185.375 181.155 190.578C181.155 195.783 185.374 200.001 190.577 200.001C195.78 200.001 200 195.783 200 190.578C200 185.375 195.78 181.157 190.577 181.157Z" fill="white"/>
<path d="M169.472 181.802C164.626 181.802 160.695 185.73 160.695 190.579C160.695 195.428 164.626 199.356 169.472 199.356C174.321 199.356 178.25 195.428 178.25 190.579C178.25 185.73 174.321 181.802 169.472 181.802Z" fill="white"/>
<path d="M148.371 182.795C144.072 182.795 140.587 186.281 140.587 190.578C140.587 194.877 144.072 198.362 148.371 198.362C152.669 198.362 156.154 194.877 156.154 190.578C156.154 186.281 152.669 182.795 148.371 182.795Z" fill="white"/>
<path d="M127.265 183.792C123.515 183.792 120.476 186.83 120.476 190.578C120.476 194.327 123.515 197.367 127.265 197.367C131.015 197.367 134.054 194.327 134.054 190.578C134.054 186.83 131.015 183.792 127.265 183.792Z" fill="white"/>
<path d="M106.161 184.844C102.994 184.844 100.427 187.411 100.427 190.578C100.427 193.746 102.994 196.314 106.161 196.314C109.33 196.314 111.896 193.746 111.896 190.578C111.896 187.411 109.33 184.844 106.161 184.844Z" fill="white"/>
<path d="M85.0571 185.839C82.4412 185.839 80.3179 187.962 80.3179 190.578C80.3179 193.197 82.4412 195.319 85.0571 195.319C87.6731 195.319 89.7969 193.197 89.7969 190.578C89.7969 187.962 87.6731 185.839 85.0571 185.839Z" fill="white"/>
<path d="M63.9534 186.892C61.9168 186.892 60.2684 188.542 60.2684 190.578C60.2684 192.616 61.9168 194.266 63.9534 194.266C65.99 194.266 67.6384 192.616 67.6384 190.578C67.6384 188.542 65.99 186.892 63.9534 186.892Z" fill="white"/>
<path d="M42.8527 187.887C41.3656 187.887 40.1561 189.093 40.1561 190.578C40.1561 192.067 41.3656 193.27 42.8527 193.27C44.3369 193.27 45.5433 192.067 45.5433 190.578C45.5433 189.093 44.3369 187.887 42.8527 187.887Z" fill="white"/>
<path d="M21.7459 188.939C20.8441 188.939 20.1065 189.674 20.1065 190.578C20.1065 191.484 20.8441 192.217 21.7459 192.217C22.6508 192.217 23.3854 191.484 23.3854 190.578C23.3854 189.674 22.6508 188.939 21.7459 188.939Z" fill="white"/>
<path d="M0.642071 189.935C0.286708 189.935 2.21729e-05 190.222 2.21729e-05 190.578C2.21729e-05 190.934 0.286708 191.223 0.642071 191.223C0.997434 191.223 1.28711 190.934 1.28711 190.578C1.28711 190.222 0.997434 189.935 0.642071 189.935Z" fill="white"/>
<path d="M190.577 160.696C185.728 160.696 181.799 164.627 181.799 169.475C181.799 174.323 185.728 178.253 190.577 178.253C195.424 178.253 199.355 174.323 199.355 169.475C199.355 164.627 195.424 160.696 190.577 160.696Z" fill="white"/>
<path d="M169.472 161.048C164.818 161.048 161.047 164.821 161.047 169.475C161.047 174.13 164.818 177.902 169.472 177.902C174.127 177.902 177.901 174.13 177.901 169.475C177.901 164.821 174.127 161.048 169.472 161.048Z" fill="white"/>
<path d="M148.37 161.926C144.2 161.926 140.82 165.305 140.82 169.474C140.82 173.643 144.2 177.023 148.37 177.023C152.537 177.023 155.918 173.643 155.918 169.474C155.918 165.305 152.537 161.926 148.37 161.926Z" fill="white"/>
<path d="M127.265 162.862C123.614 162.862 120.651 165.823 120.651 169.475C120.651 173.128 123.614 176.088 127.265 176.088C130.916 176.088 133.879 173.128 133.879 169.475C133.879 165.823 130.916 162.862 127.265 162.862Z" fill="white"/>
<path d="M106.161 163.857C103.058 163.857 100.544 166.372 100.544 169.475C100.544 172.578 103.058 175.093 106.161 175.093C109.264 175.093 111.78 172.578 111.78 169.475C111.78 166.372 109.264 163.857 106.161 163.857Z" fill="white"/>
<path d="M85.0571 164.851C82.5039 164.851 80.4374 166.921 80.4374 169.475C80.4374 172.028 82.5039 174.099 85.0571 174.099C87.6104 174.099 89.6804 172.028 89.6804 169.475C89.6804 166.921 87.6104 164.851 85.0571 164.851Z" fill="white"/>
<path d="M63.9534 165.847C61.9496 165.847 60.3251 167.472 60.3251 169.475C60.3251 171.479 61.9496 173.103 63.9534 173.103C65.9571 173.103 67.5817 171.479 67.5817 169.475C67.5817 167.472 65.9571 165.847 63.9534 165.847Z" fill="white"/>
<path d="M42.8526 166.842C41.3953 166.842 40.2187 168.021 40.2187 169.475C40.2187 170.928 41.3953 172.109 42.8526 172.109C44.3039 172.109 45.4865 170.928 45.4865 169.475C45.4865 168.021 44.3039 166.842 42.8526 166.842Z" fill="white"/>
<path d="M21.7458 167.895C20.8738 167.895 20.1661 168.604 20.1661 169.475C20.1661 170.348 20.8738 171.056 21.7458 171.056C22.6178 171.056 23.3285 170.348 23.3285 169.475C23.3285 168.604 22.6178 167.895 21.7458 167.895Z" fill="white"/>
<path d="M0.642126 168.891C0.322598 168.891 0.0598233 169.152 0.0598233 169.475C0.0598233 169.799 0.322598 170.059 0.642126 170.059C0.96464 170.059 1.22742 169.799 1.22742 169.475C1.22742 169.152 0.96464 168.891 0.642126 168.891Z" fill="white"/>
<path d="M190.577 140.586C186.278 140.586 182.794 144.071 182.794 148.371C182.794 152.669 186.278 156.153 190.577 156.153C194.875 156.153 198.361 152.669 198.361 148.371C198.361 144.071 194.875 140.586 190.577 140.586Z" fill="white"/>
<path d="M169.472 140.822C165.305 140.822 161.925 144.201 161.925 148.372C161.925 152.541 165.305 155.922 169.472 155.922C173.643 155.922 177.022 152.541 177.022 148.372C177.022 144.201 173.643 140.822 169.472 140.822Z" fill="white"/>
<path d="M148.37 141.408C144.523 141.408 141.407 144.526 141.407 148.372C141.407 152.218 144.523 155.336 148.37 155.336C152.214 155.336 155.334 152.218 155.334 148.372C155.334 144.526 152.214 141.408 148.37 141.408Z" fill="white"/>
<path d="M127.265 142.227C123.871 142.227 121.121 144.976 121.121 148.372C121.121 151.764 123.871 154.518 127.265 154.518C130.66 154.518 133.41 151.764 133.41 148.372C133.41 144.976 130.66 142.227 127.265 142.227Z" fill="white"/>
<path d="M106.161 143.104C103.253 143.104 100.894 145.464 100.894 148.372C100.894 151.281 103.253 153.64 106.161 153.64C109.071 153.64 111.427 151.281 111.427 148.372C111.427 145.464 109.071 143.104 106.161 143.104Z" fill="white"/>
<path d="M85.0571 144.042C82.6681 144.042 80.7271 145.98 80.7271 148.372C80.7271 150.764 82.6681 152.702 85.0571 152.702C87.4491 152.702 89.3887 150.764 89.3887 148.372C89.3887 145.98 87.4491 144.042 85.0571 144.042Z" fill="white"/>
<path d="M63.9534 144.977C62.078 144.977 60.558 146.496 60.558 148.372C60.558 150.244 62.078 151.764 63.9534 151.764C65.8288 151.764 67.3488 150.244 67.3488 148.372C67.3488 146.496 65.8288 144.977 63.9534 144.977Z" fill="white"/>
<path d="M42.8527 145.972C41.5238 145.972 40.4518 147.046 40.4518 148.372C40.4518 149.699 41.5238 150.771 42.8527 150.771C44.1756 150.771 45.2477 149.699 45.2477 148.372C45.2477 147.046 44.1756 145.972 42.8527 145.972Z" fill="white"/>
<path d="M21.7458 146.968C20.9724 146.968 20.3423 147.595 20.3423 148.371C20.3423 149.148 20.9724 149.775 21.7458 149.775C22.5223 149.775 23.1523 149.148 23.1523 148.371C23.1523 147.595 22.5223 146.968 21.7458 146.968Z" fill="white"/>
<path d="M0.642097 147.963C0.418129 147.963 0.232983 148.146 0.232983 148.372C0.232983 148.6 0.418129 148.782 0.642097 148.782C0.869051 148.782 1.0542 148.6 1.0542 148.372C1.0542 148.146 0.869051 147.963 0.642097 147.963Z" fill="white"/>
<path d="M190.577 120.481C186.826 120.481 183.788 123.517 183.788 127.269C183.788 131.016 186.826 134.056 190.577 134.056C194.325 134.056 197.366 131.016 197.366 127.269C197.366 123.517 194.325 120.481 190.577 120.481Z" fill="white"/>
<path d="M169.473 120.653C165.822 120.653 162.861 123.616 162.861 127.268C162.861 130.919 165.822 133.879 169.473 133.879C173.126 133.879 176.087 130.919 176.087 127.268C176.087 123.616 173.126 120.653 169.473 120.653Z" fill="white"/>
<path d="M148.371 121.123C144.976 121.123 142.225 123.873 142.225 127.269C142.225 130.661 144.976 133.414 148.371 133.414C151.761 133.414 154.514 130.661 154.514 127.269C154.514 123.873 151.761 121.123 148.371 121.123Z" fill="white"/>
<path d="M127.265 121.708C124.195 121.708 121.707 124.198 121.707 127.269C121.707 130.338 124.195 132.826 127.265 132.826C130.336 132.826 132.824 130.338 132.824 127.269C132.824 124.198 130.336 121.708 127.265 121.708Z" fill="white"/>
<path d="M106.161 122.529C103.544 122.529 101.421 124.649 101.421 127.269C101.421 129.884 103.544 132.007 106.161 132.007C108.78 132.007 110.902 129.884 110.902 127.269C110.902 124.649 108.78 122.529 106.161 122.529Z" fill="white"/>
<path d="M85.0571 123.347C82.8921 123.347 81.1362 125.1 81.1362 127.269C81.1362 129.434 82.8921 131.19 85.0571 131.19C87.2221 131.19 88.978 129.434 88.978 127.269C88.978 125.1 87.2221 123.347 85.0571 123.347Z" fill="white"/>
<path d="M63.9535 124.285C62.3051 124.285 60.9702 125.619 60.9702 127.269C60.9702 128.917 62.3051 130.251 63.9535 130.251C65.6019 130.251 66.9397 128.917 66.9397 127.269C66.9397 125.619 65.6019 124.285 63.9535 124.285Z" fill="white"/>
<path d="M42.8526 125.219C41.7208 125.219 40.8011 126.136 40.8011 127.269C40.8011 128.396 41.7208 129.317 42.8526 129.317C43.9814 129.317 44.8982 128.396 44.8982 127.269C44.8982 126.136 43.9814 125.219 42.8526 125.219Z" fill="white"/>
<path d="M21.7459 126.154C21.1308 126.154 20.635 126.652 20.635 127.268C20.635 127.883 21.1308 128.379 21.7459 128.379C22.3611 128.379 22.8568 127.883 22.8568 127.268C22.8568 126.652 22.3611 126.154 21.7459 126.154Z" fill="white"/>
<path d="M0.642059 127.092C0.5465 127.092 0.465881 127.169 0.465881 127.268C0.465881 127.363 0.5465 127.445 0.642059 127.445C0.740605 127.445 0.818237 127.363 0.818237 127.268C0.818237 127.169 0.740605 127.092 0.642059 127.092Z" fill="white"/>
<path d="M190.577 100.427C187.41 100.427 184.841 102.996 184.841 106.164C184.841 109.33 187.41 111.897 190.577 111.897C193.744 111.897 196.31 109.33 196.31 106.164C196.31 102.996 193.744 100.427 190.577 100.427Z" fill="white"/>
<path d="M169.473 100.544C166.37 100.544 163.856 103.061 163.856 106.164C163.856 109.267 166.37 111.781 169.473 111.781C172.576 111.781 175.091 109.267 175.091 106.164C175.091 103.061 172.576 100.544 169.473 100.544Z" fill="white"/>
<path d="M148.371 100.896C145.46 100.896 143.104 103.256 143.104 106.164C143.104 109.072 145.46 111.428 148.371 111.428C151.277 111.428 153.637 109.072 153.637 106.164C153.637 103.256 151.277 100.896 148.371 100.896Z" fill="white"/>
<path d="M127.265 101.423C124.646 101.423 122.527 103.546 122.527 106.165C122.527 108.783 124.646 110.904 127.265 110.904C129.884 110.904 132.004 108.783 132.004 106.165C132.004 103.546 129.884 101.423 127.265 101.423Z" fill="white"/>
<path d="M106.161 102.067C103.9 102.067 102.066 103.901 102.066 106.164C102.066 108.424 103.9 110.261 106.161 110.261C108.424 110.261 110.257 108.424 110.257 106.164C110.257 103.901 108.424 102.067 106.161 102.067Z" fill="white"/>
<path d="M85.0572 102.885C83.2475 102.885 81.7813 104.355 81.7813 106.164C81.7813 107.973 83.2475 109.44 85.0572 109.44C86.8668 109.44 88.3361 107.973 88.3361 106.164C88.3361 104.355 86.8668 102.885 85.0572 102.885Z" fill="white"/>
<path d="M63.9533 103.706C62.5976 103.706 61.4957 104.805 61.4957 106.164C61.4957 107.519 62.5976 108.622 63.9533 108.622C65.3121 108.622 66.411 107.519 66.411 106.164C66.411 104.805 65.3121 103.706 63.9533 103.706Z" fill="white"/>
<path d="M42.8527 104.525C41.9449 104.525 41.2132 105.259 41.2132 106.164C41.2132 107.069 41.9449 107.8 42.8527 107.8C43.7545 107.8 44.4891 107.069 44.4891 106.164C44.4891 105.259 43.7545 104.525 42.8527 104.525Z" fill="white"/>
<path d="M21.7459 105.462C21.3577 105.462 21.0441 105.776 21.0441 106.164C21.0441 106.553 21.3577 106.866 21.7459 106.866C22.1341 106.866 22.4507 106.553 22.4507 106.164C22.4507 105.776 22.1341 105.462 21.7459 105.462Z" fill="white"/>
<path d="M0.642131 106.105C0.609283 106.105 0.582421 106.132 0.582421 106.164C0.582421 106.195 0.609283 106.221 0.642131 106.221C0.67498 106.221 0.698853 106.195 0.698853 106.164C0.698853 106.132 0.67498 106.105 0.642131 106.105Z" fill="white"/>
<path d="M190.577 80.3174C187.958 80.3174 185.835 82.4403 185.835 85.0604C185.835 87.6758 187.958 89.7987 190.577 89.7987C193.195 89.7987 195.316 87.6758 195.316 85.0604C195.316 82.4403 193.195 80.3174 190.577 80.3174Z" fill="white"/>
<path d="M169.472 80.4351C166.92 80.4351 164.85 82.5078 164.85 85.0613C164.85 87.6137 166.92 89.6829 169.472 89.6829C172.027 89.6829 174.098 87.6137 174.098 85.0613C174.098 82.5078 172.027 80.4351 169.472 80.4351Z" fill="white"/>
<path d="M148.371 80.731C145.979 80.731 144.039 82.6684 144.039 85.061C144.039 87.4524 145.979 89.3911 148.371 89.3911C150.762 89.3911 152.701 87.4524 152.701 85.061C152.701 82.6684 150.762 80.731 148.371 80.731Z" fill="white"/>
<path d="M127.265 81.1392C125.099 81.1392 123.346 82.896 123.346 85.061C123.346 87.226 125.099 88.9816 127.265 88.9816C129.432 88.9816 131.188 87.226 131.188 85.061C131.188 82.896 129.432 81.1392 127.265 81.1392Z" fill="white"/>
<path d="M106.16 81.7847C104.353 81.7847 102.885 83.2509 102.885 85.0615C102.885 86.8705 104.353 88.3371 106.16 88.3371C107.971 88.3371 109.438 86.8705 109.438 85.0615C109.438 83.2509 107.971 81.7847 106.16 81.7847Z" fill="white"/>
<path d="M85.0572 82.4277C83.6029 82.4277 82.4263 83.607 82.4263 85.0616C82.4263 86.515 83.6029 87.6943 85.0572 87.6943C86.5145 87.6943 87.691 86.515 87.691 85.0616C87.691 83.607 86.5145 82.4277 85.0572 82.4277Z" fill="white"/>
<path d="M63.9534 83.1875C62.9202 83.1875 62.081 84.0275 62.081 85.0611C62.081 86.0934 62.9202 86.9331 63.9534 86.9331C64.9897 86.9331 65.8258 86.0934 65.8258 85.0611C65.8258 84.0275 64.9897 83.1875 63.9534 83.1875Z" fill="white"/>
<path d="M42.8526 84.0068C42.2673 84.0068 41.7955 84.4781 41.7955 85.0613C41.7955 85.6433 42.2673 86.1121 42.8526 86.1121C43.432 86.1121 43.9038 85.6433 43.9038 85.0613C43.9038 84.4781 43.432 84.0068 42.8526 84.0068Z" fill="white"/>
<path d="M21.7459 84.8281C21.6175 84.8281 21.5129 84.9294 21.5129 85.0614C21.5129 85.1898 21.6175 85.2934 21.7459 85.2934C21.8743 85.2934 21.9788 85.1898 21.9788 85.0614C21.9788 84.9294 21.8743 84.8281 21.7459 84.8281Z" fill="white"/>
<path d="M190.577 60.2686C188.541 60.2686 186.891 61.9205 186.891 63.9572C186.891 65.9905 188.541 67.6422 190.577 67.6422C192.612 67.6422 194.263 65.9905 194.263 63.9572C194.263 61.9205 192.612 60.2686 190.577 60.2686Z" fill="white"/>
<path d="M169.473 60.3286C167.469 60.3286 165.845 61.9522 165.845 63.9563C165.845 65.9604 167.469 67.584 169.473 67.584C171.475 67.584 173.101 65.9604 173.101 63.9563C173.101 61.9522 171.475 60.3286 169.473 60.3286Z" fill="white"/>
<path d="M148.37 60.5605C146.495 60.5605 144.976 62.0805 144.976 63.9562C144.976 65.8286 146.495 67.3519 148.37 67.3519C150.243 67.3519 151.765 65.8286 151.765 63.9562C151.765 62.0805 150.243 60.5605 148.37 60.5605Z" fill="white"/>
<path d="M127.265 60.9702C125.618 60.9702 124.282 62.3081 124.282 63.9565C124.282 65.6049 125.618 66.9391 127.265 66.9391C128.913 66.9391 130.249 65.6049 130.249 63.9565C130.249 62.3081 128.913 60.9702 127.265 60.9702Z" fill="white"/>
<path d="M106.161 61.499C104.804 61.499 103.705 62.5977 103.705 63.9567C103.705 65.3122 104.804 66.4144 106.161 66.4144C107.52 66.4144 108.619 65.3122 108.619 63.9567C108.619 62.5977 107.52 61.499 106.161 61.499Z" fill="white"/>
<path d="M85.0571 62.0845C84.0238 62.0845 83.1877 62.9233 83.1877 63.9568C83.1877 64.9904 84.0238 65.8292 85.0571 65.8292C86.0903 65.8292 86.9294 64.9904 86.9294 63.9568C86.9294 62.9233 86.0903 62.0845 85.0571 62.0845Z" fill="white"/>
<path d="M63.9533 62.7852C63.3082 62.7852 62.7826 63.3113 62.7826 63.9564C62.7826 64.6014 63.3082 65.124 63.9533 65.124C64.6013 65.124 65.1268 64.6014 65.1268 63.9564C65.1268 63.3113 64.6013 62.7852 63.9533 62.7852Z" fill="white"/>
<path d="M42.8527 63.5469C42.6257 63.5469 42.4406 63.7287 42.4406 63.9563C42.4406 64.1838 42.6257 64.3657 42.8527 64.3657C43.0766 64.3657 43.2588 64.1838 43.2588 63.9563C43.2588 63.7287 43.0766 63.5469 42.8527 63.5469Z" fill="white"/>
<path d="M190.577 40.1597C189.089 40.1597 187.886 41.367 187.886 42.8542C187.886 44.3404 189.089 45.5442 190.577 45.5442C192.064 45.5442 193.269 44.3404 193.269 42.8542C193.269 41.367 192.064 40.1597 190.577 40.1597Z" fill="white"/>
<path d="M169.472 40.2197C168.02 40.2197 166.839 41.399 166.839 42.8536C166.839 44.307 168.02 45.4863 169.472 45.4863C170.927 45.4863 172.105 44.307 172.105 42.8536C172.105 41.399 170.927 40.2197 169.472 40.2197Z" fill="white"/>
<path d="M148.371 40.4517C147.043 40.4517 145.97 41.5273 145.97 42.8535C145.97 44.1764 147.043 45.2506 148.371 45.2506C149.695 45.2506 150.768 44.1764 150.768 42.8535C150.768 41.5273 149.695 40.4517 148.371 40.4517Z" fill="white"/>
<path d="M127.265 40.8037C126.133 40.8037 125.218 41.7205 125.218 42.8532C125.218 43.9811 126.133 44.9014 127.265 44.9014C128.396 44.9014 129.312 43.9811 129.312 42.8532C129.312 41.7205 128.396 40.8037 127.265 40.8037Z" fill="white"/>
<path d="M106.161 41.2129C105.257 41.2129 104.524 41.9478 104.524 42.8529C104.524 43.7569 105.257 44.4885 106.161 44.4885C107.067 44.4885 107.8 43.7569 107.8 42.8529C107.8 41.9478 107.067 41.2129 106.161 41.2129Z" fill="white"/>
<path d="M85.0572 41.7988C84.4749 41.7988 84.006 42.2701 84.006 42.8533C84.006 43.4353 84.4749 43.9044 85.0572 43.9044C85.6395 43.9044 86.1113 43.4353 86.1113 42.8533C86.1113 42.2701 85.6395 41.7988 85.0572 41.7988Z" fill="white"/>
<path d="M63.9534 42.4443C63.7294 42.4443 63.5443 42.6262 63.5443 42.8538C63.5443 43.0801 63.7294 43.262 63.9534 43.262C64.1803 43.262 64.3655 43.0801 64.3655 42.8538C64.3655 42.6262 64.1803 42.4443 63.9534 42.4443Z" fill="white"/>
<path d="M42.8527 42.793C42.8168 42.793 42.793 42.8198 42.793 42.8536C42.793 42.8861 42.8168 42.9097 42.8527 42.9097C42.8825 42.9097 42.9094 42.8861 42.9094 42.8536C42.9094 42.8198 42.8825 42.793 42.8527 42.793Z" fill="white"/>
<path d="M190.577 20.1104C189.673 20.1104 188.938 20.8441 188.938 21.7492C188.938 22.6543 189.673 23.386 190.577 23.386C191.481 23.386 192.216 22.6543 192.216 21.7492C192.216 20.8441 191.481 20.1104 190.577 20.1104Z" fill="white"/>
<path d="M169.473 20.1699C168.6 20.1699 167.892 20.8768 167.892 21.7493C167.892 22.6207 168.6 23.3288 169.473 23.3288C170.344 23.3288 171.053 22.6207 171.053 21.7493C171.053 20.8768 170.344 20.1699 169.473 20.1699Z" fill="white"/>
<path d="M148.371 20.3428C147.595 20.3428 146.965 20.9729 146.965 21.7496C146.965 22.523 147.595 23.1528 148.371 23.1528C149.146 23.1528 149.773 22.523 149.773 21.7496C149.773 20.9729 149.146 20.3428 148.371 20.3428Z" fill="white"/>
<path d="M127.265 20.6387C126.65 20.6387 126.154 21.1347 126.154 21.7493C126.154 22.3641 126.65 22.8598 127.265 22.8598C127.881 22.8598 128.377 22.3641 128.377 21.7493C128.377 21.1347 127.881 20.6387 127.265 20.6387Z" fill="white"/>
<path d="M106.161 21.0469C105.772 21.0469 105.461 21.3604 105.461 21.7489C105.461 22.1339 105.772 22.4513 106.161 22.4513C106.548 22.4513 106.863 22.1339 106.863 21.7489C106.863 21.3604 106.548 21.0469 106.161 21.0469Z" fill="white"/>
<path d="M85.0572 21.5137C84.9288 21.5137 84.8242 21.6209 84.8242 21.7493C84.8242 21.8777 84.9288 21.9825 85.0572 21.9825C85.1856 21.9825 85.2931 21.8777 85.2931 21.7493C85.2931 21.6209 85.1856 21.5137 85.0572 21.5137Z" fill="white"/>
<path d="M190.577 0C190.221 0 189.933 0.290562 189.933 0.645029C189.933 1.00099 190.221 1.29006 190.577 1.29006C190.933 1.29006 191.222 1.00099 191.222 0.645029C191.222 0.290562 190.933 0 190.577 0Z" fill="white"/>
<path d="M169.473 0.0600586C169.148 0.0600586 168.889 0.318966 168.889 0.644466C168.889 0.967577 169.148 1.22768 169.473 1.22768C169.796 1.22768 170.058 0.967577 170.058 0.644466C170.058 0.318966 169.796 0.0600586 169.473 0.0600586Z" fill="white"/>
<path d="M148.37 0.233398C148.143 0.233398 147.959 0.418843 147.959 0.6452C147.959 0.869168 148.143 1.05461 148.37 1.05461C148.594 1.05461 148.779 0.869168 148.779 0.6452C148.779 0.418843 148.594 0.233398 148.37 0.233398Z" fill="white"/>
<path d="M127.265 0.468262C127.169 0.468262 127.09 0.5465 127.09 0.644449C127.09 0.740307 127.169 0.820636 127.265 0.820636C127.362 0.820636 127.44 0.740307 127.44 0.644449C127.44 0.5465 127.362 0.468262 127.265 0.468262Z" fill="white"/>
<path d="M106.161 0.585449C106.128 0.585449 106.102 0.612327 106.102 0.644877C106.102 0.675337 106.128 0.702209 106.161 0.702209C106.192 0.702209 106.219 0.675337 106.219 0.644877C106.219 0.612327 106.192 0.585449 106.161 0.585449Z" fill="white"/>
</svg>
