<svg width="100" height="101" viewBox="0 0 100 101" fill="none" xmlns="http://www.w3.org/2000/svg">
<path d="M95.2885 10.4199C92.6871 10.4199 90.5775 8.31089 90.5775 5.70958C90.5775 3.10722 92.6871 0.998182 95.2885 0.998182C97.8898 0.998182 100 3.10722 100 5.70958C100 8.31089 97.8898 10.4199 95.2885 10.4199Z" fill="#256186"/>
<path d="M84.736 10.0978C82.3126 10.0978 80.3471 8.13343 80.3471 5.70935C80.3471 3.28482 82.3126 1.32048 84.736 1.32048C87.1605 1.32048 89.125 3.28482 89.125 5.70935C89.125 8.13343 87.1605 10.0978 84.736 10.0978Z" fill="#256186"/>
<path d="M74.1856 9.60107C72.0363 9.60107 70.2937 7.85831 70.2937 5.70956C70.2937 3.56036 72.0363 1.81759 74.1856 1.81759C76.335 1.81759 78.0771 3.56036 78.0771 5.70956C78.0771 7.85831 76.335 9.60107 74.1856 9.60107Z" fill="#256186"/>
<path d="M63.6327 9.10291C61.7577 9.10291 60.2383 7.58351 60.2383 5.70949C60.2383 3.83503 61.7577 2.31503 63.6327 2.31503C65.5079 2.31503 67.0273 3.83503 67.0273 5.70949C67.0273 7.58351 65.5079 9.10291 63.6327 9.10291Z" fill="#256186"/>
<path d="M53.0804 8.57678C51.497 8.57678 50.2138 7.29315 50.2138 5.70954C50.2138 4.12549 51.497 2.8417 53.0804 2.8417C54.6652 2.8417 55.9482 4.12549 55.9482 5.70954C55.9482 7.29315 54.6652 8.57678 53.0804 8.57678Z" fill="#256186"/>
<path d="M42.5286 8.07922C41.2206 8.07922 40.159 7.01777 40.159 5.7095C40.159 4.40018 41.2206 3.33917 42.5286 3.33917C43.8365 3.33917 44.8984 4.40018 44.8984 5.7095C44.8984 7.01777 43.8365 8.07922 42.5286 8.07922Z" fill="#256186"/>
<path d="M31.9768 7.55273C30.9585 7.55273 30.1343 6.72749 30.1343 5.70963C30.1343 4.69072 30.9585 3.86547 31.9768 3.86547C32.9951 3.86547 33.8193 4.69072 33.8193 5.70963C33.8193 6.72749 32.9951 7.55273 31.9768 7.55273Z" fill="#256186"/>
<path d="M21.4262 7.05493C20.6826 7.05493 20.0779 6.45187 20.0779 5.70934C20.0779 4.96517 20.6826 4.36329 21.4262 4.36329C22.1683 4.36329 22.7715 4.96517 22.7715 5.70934C22.7715 6.45187 22.1683 7.05493 21.4262 7.05493Z" fill="#256186"/>
<path d="M10.8727 6.52917C10.4217 6.52917 10.0529 6.16172 10.0529 5.7096C10.0529 5.25644 10.4217 4.89017 10.8727 4.89017C11.3251 4.89017 11.6924 5.25644 11.6924 5.7096C11.6924 6.16172 11.3251 6.52917 10.8727 6.52917Z" fill="#256186"/>
<path d="M0.321036 6.03101C0.143354 6.03101 1.10865e-05 5.88751 1.10865e-05 5.70953C1.10865e-05 5.5317 0.143354 5.38702 0.321036 5.38702C0.498717 5.38702 0.643555 5.5317 0.643555 5.70953C0.643555 5.88751 0.498717 6.03101 0.321036 6.03101Z" fill="#256186"/>
<path d="M95.2884 20.6509C92.8638 20.6509 90.8993 18.6853 90.8993 16.2612C90.8993 13.8373 92.8638 11.8724 95.2884 11.8724C97.7117 11.8724 99.6772 13.8373 99.6772 16.2612C99.6772 18.6853 97.7117 20.6509 95.2884 20.6509Z" fill="#256186"/>
<path d="M84.7362 20.4744C82.409 20.4744 80.5233 18.5881 80.5233 16.2609C80.5233 13.9338 82.409 12.0477 84.7362 12.0477C87.0633 12.0477 88.9502 13.9338 88.9502 16.2609C88.9502 18.5881 87.0633 20.4744 84.7362 20.4744Z" fill="#256186"/>
<path d="M74.1854 20.0356C72.1003 20.0356 70.4101 18.3459 70.4101 16.2613C70.4101 14.1768 72.1003 12.4872 74.1854 12.4872C76.2688 12.4872 77.959 14.1768 77.959 16.2613C77.959 18.3459 76.2688 20.0356 74.1854 20.0356Z" fill="#256186"/>
<path d="M63.6323 19.5675C61.8069 19.5675 60.3254 18.0872 60.3254 16.261C60.3254 14.4349 61.8069 12.9546 63.6323 12.9546C65.458 12.9546 66.9395 14.4349 66.9395 16.261C66.9395 18.0872 65.458 19.5675 63.6323 19.5675Z" fill="#256186"/>
<path d="M53.08 19.0701C51.5287 19.0701 50.2718 17.8126 50.2718 16.2611C50.2718 14.7097 51.5287 13.4522 53.08 13.4522C54.6315 13.4522 55.8896 14.7097 55.8896 16.2611C55.8896 17.8126 54.6315 19.0701 53.08 19.0701Z" fill="#256186"/>
<path d="M42.5282 18.5732C41.2516 18.5732 40.2183 17.5379 40.2183 16.2611C40.2183 14.9845 41.2516 13.9492 42.5282 13.9492C43.8048 13.9492 44.8398 14.9845 44.8398 16.2611C44.8398 17.5379 43.8048 18.5732 42.5282 18.5732Z" fill="#256186"/>
<path d="M31.9769 18.0751C30.975 18.0751 30.1627 17.2625 30.1627 16.2611C30.1627 15.259 30.975 14.4472 31.9769 14.4472C32.9788 14.4472 33.791 15.259 33.791 16.2611C33.791 17.2625 32.9788 18.0751 31.9769 18.0751Z" fill="#256186"/>
<path d="M21.4262 17.5776C20.6976 17.5776 20.1093 16.988 20.1093 16.2612C20.1093 15.5344 20.6976 14.9442 21.4262 14.9442C22.1519 14.9442 22.7432 15.5344 22.7432 16.2612C22.7432 16.988 22.1519 17.5776 21.4262 17.5776Z" fill="#256186"/>
<path d="M10.8727 17.0515C10.4367 17.0515 10.0829 16.6969 10.0829 16.2612C10.0829 15.8249 10.4367 15.4709 10.8727 15.4709C11.3087 15.4709 11.6641 15.8249 11.6641 16.2612C11.6641 16.6969 11.3087 17.0515 10.8727 17.0515Z" fill="#256186"/>
<path d="M0.321124 16.5533C0.16136 16.5533 0.0299727 16.4227 0.0299727 16.2611C0.0299727 16.099 0.16136 15.9689 0.321124 15.9689C0.482381 15.9689 0.61377 16.099 0.61377 16.2611C0.61377 16.4227 0.482381 16.5533 0.321124 16.5533Z" fill="#256186"/>
<path d="M95.2887 30.7057C93.1394 30.7057 91.3972 28.9629 91.3972 26.813C91.3972 24.6644 93.1394 22.9222 95.2887 22.9222C97.4379 22.9222 99.1807 24.6644 99.1807 26.813C99.1807 28.9629 97.4379 30.7057 95.2887 30.7057Z" fill="#256186"/>
<path d="M84.736 30.5876C82.652 30.5876 80.9624 28.8985 80.9624 26.8127C80.9624 24.7282 82.652 23.038 84.736 23.038C86.8211 23.038 88.5107 24.7282 88.5107 26.8127C88.5107 28.8985 86.8211 30.5876 84.736 30.5876Z" fill="#256186"/>
<path d="M74.185 30.2949C72.2614 30.2949 70.7031 28.7358 70.7031 26.8128C70.7031 24.8898 72.2614 23.3309 74.185 23.3309C76.1068 23.3309 77.667 24.8898 77.667 26.8128C77.667 28.7358 76.1068 30.2949 74.185 30.2949Z" fill="#256186"/>
<path d="M63.6325 29.8855C61.9353 29.8855 60.5606 28.5108 60.5606 26.813C60.5606 25.1169 61.9353 23.7398 63.6325 23.7398C65.3298 23.7398 66.7051 25.1169 66.7051 26.813C66.7051 28.5108 65.3298 29.8855 63.6325 29.8855Z" fill="#256186"/>
<path d="M53.0805 29.4467C51.6265 29.4467 50.4472 28.2668 50.4472 26.8126C50.4472 25.358 51.6265 24.1788 53.0805 24.1788C54.5357 24.1788 55.7139 25.358 55.7139 26.8126C55.7139 28.2668 54.5357 29.4467 53.0805 29.4467Z" fill="#256186"/>
<path d="M42.5286 28.9778C41.3341 28.9778 40.3635 28.0084 40.3635 26.8128C40.3635 25.6166 41.3341 24.6477 42.5286 24.6477C43.7246 24.6477 44.6943 25.6166 44.6943 26.8128C44.6943 28.0084 43.7246 28.9778 42.5286 28.9778Z" fill="#256186"/>
<path d="M31.9766 28.5104C31.039 28.5104 30.279 27.7505 30.279 26.8126C30.279 25.8765 31.039 25.1165 31.9766 25.1165C32.9143 25.1165 33.6743 25.8765 33.6743 26.8126C33.6743 27.7505 32.9143 28.5104 31.9766 28.5104Z" fill="#256186"/>
<path d="M21.4265 28.0129C20.7621 28.0129 20.2261 27.4759 20.2261 26.8126C20.2261 26.1495 20.7621 25.6135 21.4265 25.6135C22.088 25.6135 22.624 26.1495 22.624 26.8126C22.624 27.4759 22.088 28.0129 21.4265 28.0129Z" fill="#256186"/>
<path d="M10.8729 27.5148C10.4862 27.5148 10.1711 27.2009 10.1711 26.813C10.1711 26.4246 10.4862 26.1114 10.8729 26.1114C11.2611 26.1114 11.5762 26.4246 11.5762 26.813C11.5762 27.2009 11.2611 27.5148 10.8729 27.5148Z" fill="#256186"/>
<path d="M0.321292 27.0173C0.209308 27.0173 0.116736 26.9258 0.116736 26.8126C0.116736 26.699 0.209308 26.6079 0.321292 26.6079C0.43477 26.6079 0.527344 26.699 0.527344 26.8126C0.527344 26.9258 0.43477 27.0173 0.321292 27.0173Z" fill="#256186"/>
<path d="M95.2882 40.7582C93.413 40.7582 91.8937 39.24 91.8937 37.3642C91.8937 35.4907 93.413 33.9709 95.2882 33.9709C97.1622 33.9709 98.6826 35.4907 98.6826 37.3642C98.6826 39.24 97.1622 40.7582 95.2882 40.7582Z" fill="#256186"/>
<path d="M84.7363 40.6721C82.9108 40.6721 81.4304 39.1906 81.4304 37.3644C81.4304 35.5389 82.9108 34.0592 84.7363 34.0592C86.563 34.0592 88.0435 35.5389 88.0435 37.3644C88.0435 39.1906 86.563 40.6721 84.7363 40.6721Z" fill="#256186"/>
<path d="M74.1854 40.4375C72.4881 40.4375 71.1128 39.0622 71.1128 37.3644C71.1128 35.6683 72.4881 34.2918 74.1854 34.2918C75.8808 34.2918 77.2573 35.6683 77.2573 37.3644C77.2573 39.0622 75.8808 40.4375 74.1854 40.4375Z" fill="#256186"/>
<path d="M63.6328 40.1447C62.0977 40.1447 60.8537 38.8995 60.8537 37.3643C60.8537 35.8298 62.0977 34.5858 63.6328 34.5858C65.1685 34.5858 66.4121 35.8298 66.4121 37.3643C66.4121 38.8995 65.1685 40.1447 63.6328 40.1447Z" fill="#256186"/>
<path d="M53.0803 39.7339C51.7721 39.7339 50.7105 38.6742 50.7105 37.3642C50.7105 36.0565 51.7721 34.995 53.0803 34.995C54.3897 34.995 55.4512 36.0565 55.4512 37.3642C55.4512 38.6742 54.3897 39.7339 53.0803 39.7339Z" fill="#256186"/>
<path d="M42.5288 39.3252C41.4463 39.3252 40.5683 38.4486 40.5683 37.3643C40.5683 36.2818 41.4463 35.404 42.5288 35.404C43.6113 35.404 44.4893 36.2818 44.4893 37.3643C44.4893 38.4486 43.6113 39.3252 42.5288 39.3252Z" fill="#256186"/>
<path d="M31.9766 38.8563C31.1524 38.8563 30.485 38.1892 30.485 37.3644C30.485 36.5403 31.1524 35.8731 31.9766 35.8731C32.8008 35.8731 33.4697 36.5403 33.4697 37.3644C33.4697 38.1892 32.8008 38.8563 31.9766 38.8563Z" fill="#256186"/>
<path d="M21.4264 38.3892C20.8605 38.3892 20.4007 37.9306 20.4007 37.3643C20.4007 36.8003 20.8605 36.3402 21.4264 36.3402C21.9908 36.3402 22.4492 36.8003 22.4492 37.3643C22.4492 37.9306 21.9908 38.3892 21.4264 38.3892Z" fill="#256186"/>
<path d="M10.8733 37.9214C10.5657 37.9214 10.3178 37.6723 10.3178 37.3643C10.3178 37.057 10.5657 36.8092 10.8733 36.8092C11.1809 36.8092 11.4287 37.057 11.4287 37.3643C11.4287 37.6723 11.1809 37.9214 10.8733 37.9214Z" fill="#256186"/>
<path d="M0.321091 37.4526C0.273311 37.4526 0.233002 37.4141 0.233002 37.3645C0.233002 37.3174 0.273311 37.2764 0.321091 37.2764C0.370364 37.2764 0.40918 37.3174 0.40918 37.3645C0.40918 37.4141 0.370364 37.4526 0.321091 37.4526Z" fill="#256186"/>
<path d="M95.2886 50.785C93.705 50.785 92.4208 49.5008 92.4208 47.9166C92.4208 46.3337 93.705 45.05 95.2886 45.05C96.8721 45.05 98.1553 46.3337 98.1553 47.9166C98.1553 49.5008 96.8721 50.785 95.2886 50.785Z" fill="#256186"/>
<path d="M84.7364 50.7267C83.1849 50.7267 81.928 49.4681 81.928 47.9166C81.928 46.3653 83.1849 45.1084 84.7364 45.1084C86.2879 45.1084 87.5459 46.3653 87.5459 47.9166C87.5459 49.4681 86.2879 50.7267 84.7364 50.7267Z" fill="#256186"/>
<path d="M74.1849 50.5507C72.7297 50.5507 71.5515 49.3706 71.5515 47.9166C71.5515 46.4626 72.7297 45.2844 74.1849 45.2844C75.6383 45.2844 76.8184 46.4626 76.8184 47.9166C76.8184 49.3706 75.6383 50.5507 74.1849 50.5507Z" fill="#256186"/>
<path d="M63.6322 50.2872C62.3229 50.2872 61.2631 49.2258 61.2631 47.9163C61.2631 46.607 62.3229 45.5466 63.6322 45.5466C64.9417 45.5466 66.002 46.607 66.002 47.9163C66.002 49.2258 64.9417 50.2872 63.6322 50.2872Z" fill="#256186"/>
<path d="M53.0805 49.9651C51.9502 49.9651 51.0333 49.0482 51.0333 47.9167C51.0333 46.7864 51.9502 45.8683 53.0805 45.8683C54.212 45.8683 55.1289 46.7864 55.1289 47.9167C55.1289 49.0482 54.212 49.9651 53.0805 49.9651Z" fill="#256186"/>
<path d="M42.5285 49.5564C41.6237 49.5564 40.8906 48.8215 40.8906 47.9168C40.8906 47.0123 41.6237 46.279 42.5285 46.279C43.4334 46.279 44.168 47.0123 44.168 47.9168C44.168 48.8215 43.4334 49.5564 42.5285 49.5564Z" fill="#256186"/>
<path d="M31.9767 49.1455C31.2989 49.1455 30.7479 48.596 30.7479 47.9165C30.7479 47.2388 31.2989 46.6877 31.9767 46.6877C32.6561 46.6877 33.2056 47.2388 33.2056 47.9165C33.2056 48.596 32.6561 49.1455 31.9767 49.1455Z" fill="#256186"/>
<path d="M21.4264 48.7361C20.9725 48.7361 20.6067 48.3692 20.6067 47.9167C20.6067 47.4641 20.9725 47.0984 21.4264 47.0984C21.8773 47.0984 22.2446 47.4641 22.2446 47.9167C22.2446 48.3692 21.8773 48.7361 21.4264 48.7361Z" fill="#256186"/>
<path d="M10.8732 48.2677C10.6791 48.2677 10.5223 48.1108 10.5223 47.9165C10.5223 47.7223 10.6791 47.5655 10.8732 47.5655C11.0673 47.5655 11.2256 47.7223 11.2256 47.9165C11.2256 48.1108 11.0673 48.2677 10.8732 48.2677Z" fill="#256186"/>
<path d="M0.321249 47.9463C0.304825 47.9463 0.291394 47.933 0.291394 47.9166C0.291394 47.9015 0.304825 47.8881 0.321249 47.8881C0.337673 47.8881 0.349609 47.9015 0.349609 47.9166C0.349609 47.933 0.337673 47.9463 0.321249 47.9463Z" fill="#256186"/>
<path d="M95.2885 60.8398C93.979 60.8398 92.9175 59.7784 92.9175 58.4683C92.9175 57.1606 93.979 56.0992 95.2885 56.0992C96.5978 56.0992 97.6582 57.1606 97.6582 58.4683C97.6582 59.7784 96.5978 60.8398 95.2885 60.8398Z" fill="#256186"/>
<path d="M84.7363 60.7812C83.4601 60.7812 82.4249 59.7449 82.4249 58.4681C82.4249 57.1919 83.4601 56.1574 84.7363 56.1574C86.0136 56.1574 87.0488 57.1919 87.0488 58.4681C87.0488 59.7449 86.0136 60.7812 84.7363 60.7812Z" fill="#256186"/>
<path d="M74.1856 60.6332C72.9899 60.6332 72.0199 59.6644 72.0199 58.4682C72.0199 57.2725 72.9899 56.3031 74.1856 56.3031C75.3813 56.3031 76.3506 57.2725 76.3506 58.4682C76.3506 59.6644 75.3813 60.6332 74.1856 60.6332Z" fill="#256186"/>
<path d="M63.6322 60.4291C62.5491 60.4291 61.6725 59.5507 61.6725 58.4682C61.6725 57.3857 62.5491 56.5078 63.6322 56.5078C64.7159 56.5078 65.5938 57.3857 65.5938 58.4682C65.5938 59.5507 64.7159 60.4291 63.6322 60.4291Z" fill="#256186"/>
<path d="M53.0802 60.1063C52.1763 60.1063 51.4426 59.3732 51.4426 58.4679C51.4426 57.5634 52.1763 56.8301 53.0802 56.8301C53.9855 56.8301 54.7192 57.5634 54.7192 58.4679C54.7192 59.3732 53.9855 60.1063 53.0802 60.1063Z" fill="#256186"/>
<path d="M42.5288 59.7849C41.8016 59.7849 41.2133 59.1953 41.2133 58.468C41.2133 57.7413 41.8016 57.1516 42.5288 57.1516C43.2574 57.1516 43.8457 57.7413 43.8457 58.468C43.8457 59.1953 43.2574 59.7849 42.5288 59.7849Z" fill="#256186"/>
<path d="M31.9769 59.4048C31.4603 59.4048 31.0407 58.9848 31.0407 58.468C31.0407 57.9518 31.4603 57.532 31.9769 57.532C32.495 57.532 32.9131 57.9518 32.9131 58.468C32.9131 58.9848 32.495 59.4048 31.9769 59.4048Z" fill="#256186"/>
<path d="M21.4266 58.9954C21.1339 58.9954 20.898 58.7597 20.898 58.4681C20.898 58.1771 21.1339 57.9427 21.4266 57.9427C21.7162 57.9427 21.9521 58.1771 21.9521 58.4681C21.9521 58.7597 21.7162 58.9954 21.4266 58.9954Z" fill="#256186"/>
<path d="M10.8728 58.5846C10.8086 58.5846 10.7563 58.534 10.7563 58.468C10.7563 58.4038 10.8086 58.352 10.8728 58.352C10.937 58.352 10.9893 58.4038 10.9893 58.468C10.9893 58.534 10.937 58.5846 10.8728 58.5846Z" fill="#256186"/>
<path d="M95.2887 70.8644C94.271 70.8644 93.4456 70.0384 93.4456 69.0201C93.4456 68.0034 94.271 67.1776 95.2887 67.1776C96.3064 67.1776 97.1318 68.0034 97.1318 69.0201C97.1318 70.0384 96.3064 70.8644 95.2887 70.8644Z" fill="#256186"/>
<path d="M84.7363 70.8344C83.7343 70.8344 82.9225 70.0225 82.9225 69.0205C82.9225 68.0185 83.7343 67.2067 84.7363 67.2067C85.7377 67.2067 86.5503 68.0185 86.5503 69.0205C86.5503 70.0225 85.7377 70.8344 84.7363 70.8344Z" fill="#256186"/>
<path d="M74.1851 70.7184C73.2473 70.7184 72.4879 69.9584 72.4879 69.0206C72.4879 68.0844 73.2473 67.3227 74.1851 67.3227C75.1213 67.3227 75.8823 68.0844 75.8823 69.0206C75.8823 69.9584 75.1213 70.7184 74.1851 70.7184Z" fill="#256186"/>
<path d="M63.6326 70.5137C62.8091 70.5137 62.1413 69.8448 62.1413 69.0206C62.1413 68.1963 62.8091 67.5292 63.6326 67.5292C64.4568 67.5292 65.1245 68.1963 65.1245 69.0206C65.1245 69.8448 64.4568 70.5137 63.6326 70.5137Z" fill="#256186"/>
<path d="M53.0806 70.2493C52.4023 70.2493 51.8529 69.6999 51.8529 69.0204C51.8529 68.3427 52.4023 67.7916 53.0806 67.7916C53.7601 67.7916 54.3096 68.3427 54.3096 69.0204C54.3096 69.6999 53.7601 70.2493 53.0806 70.2493Z" fill="#256186"/>
<path d="M42.5287 69.9564C42.012 69.9564 41.594 69.537 41.594 69.0202C41.594 68.5035 42.012 68.0841 42.5287 68.0841C43.0453 68.0841 43.4648 68.5035 43.4648 69.0202C43.4648 69.537 43.0453 69.9564 42.5287 69.9564Z" fill="#256186"/>
<path d="M31.9767 69.6061C31.6542 69.6061 31.3914 69.343 31.3914 69.0205C31.3914 68.698 31.6542 68.4367 31.9767 68.4367C32.3007 68.4367 32.5635 68.698 32.5635 69.0205C32.5635 69.343 32.3007 69.6061 31.9767 69.6061Z" fill="#256186"/>
<path d="M21.4263 69.2253C21.3129 69.2253 21.2203 69.1344 21.2203 69.0206C21.2203 68.9069 21.3129 68.8159 21.4263 68.8159C21.5383 68.8159 21.6294 68.9069 21.6294 69.0206C21.6294 69.1344 21.5383 69.2253 21.4263 69.2253Z" fill="#256186"/>
<path d="M95.2886 80.9189C94.5448 80.9189 93.943 80.3153 93.943 79.5717C93.943 78.8286 94.5448 78.2267 95.2886 78.2267C96.0321 78.2267 96.6348 78.8286 96.6348 79.5717C96.6348 80.3153 96.0321 80.9189 95.2886 80.9189Z" fill="#256186"/>
<path d="M84.7364 80.8889C84.0103 80.8889 83.4195 80.2993 83.4195 79.572C83.4195 78.8453 84.0103 78.2556 84.7364 78.2556C85.4637 78.2556 86.0527 78.8453 86.0527 79.572C86.0527 80.2993 85.4637 80.8889 84.7364 80.8889Z" fill="#256186"/>
<path d="M74.1853 80.7729C73.5216 80.7729 72.9849 80.2351 72.9849 79.572C72.9849 78.9106 73.5216 78.3735 74.1853 78.3735C74.8473 78.3735 75.3838 78.9106 75.3838 79.572C75.3838 80.2351 74.8473 80.7729 74.1853 80.7729Z" fill="#256186"/>
<path d="M63.6326 80.5968C63.0668 80.5968 62.609 80.1384 62.609 79.5721C62.609 79.0081 63.0668 78.5479 63.6326 78.5479C64.1983 78.5479 64.6562 79.0081 64.6562 79.5721C64.6562 80.1384 64.1983 80.5968 63.6326 80.5968Z" fill="#256186"/>
<path d="M53.0803 80.3921C52.6284 80.3921 52.2621 80.0246 52.2621 79.5721C52.2621 79.1201 52.6284 78.7543 53.0803 78.7543C53.5336 78.7543 53.8999 79.1201 53.8999 79.5721C53.8999 80.0246 53.5336 80.3921 53.0803 80.3921Z" fill="#256186"/>
<path d="M42.5286 80.0994C42.2374 80.0994 42.003 79.8637 42.003 79.5721C42.003 79.2811 42.2374 79.0466 42.5286 79.0466C42.8198 79.0466 43.0557 79.2811 43.0557 79.5721C43.0557 79.8637 42.8198 80.0994 42.5286 80.0994Z" fill="#256186"/>
<path d="M31.9766 79.7766C31.8646 79.7766 31.772 79.6857 31.772 79.5719C31.772 79.4587 31.8646 79.3678 31.9766 79.3678C32.09 79.3678 32.1826 79.4587 32.1826 79.5719C32.1826 79.6857 32.09 79.7766 31.9766 79.7766Z" fill="#256186"/>
<path d="M21.4262 79.6023C21.4083 79.6023 21.3964 79.5889 21.3964 79.572C21.3964 79.5557 21.4083 79.5439 21.4262 79.5439C21.4411 79.5439 21.4546 79.5557 21.4546 79.572C21.4546 79.5889 21.4411 79.6023 21.4262 79.6023Z" fill="#256186"/>
<path d="M95.2885 90.9434C94.8365 90.9434 94.4691 90.5765 94.4691 90.1239C94.4691 89.6714 94.8365 89.3056 95.2885 89.3056C95.7405 89.3056 96.1079 89.6714 96.1079 90.1239C96.1079 90.5765 95.7405 90.9434 95.2885 90.9434Z" fill="#256186"/>
<path d="M84.7361 90.9137C84.2998 90.9137 83.9458 90.5603 83.9458 90.124C83.9458 89.6883 84.2998 89.3343 84.7361 89.3343C85.1717 89.3343 85.5264 89.6883 85.5264 90.124C85.5264 90.5603 85.1717 90.9137 84.7361 90.9137Z" fill="#256186"/>
<path d="M74.1852 90.8274C73.7973 90.8274 73.4824 90.5123 73.4824 90.124C73.4824 89.7373 73.7973 89.4224 74.1852 89.4224C74.5731 89.4224 74.8862 89.7373 74.8862 90.124C74.8862 90.5123 74.5731 90.8274 74.1852 90.8274Z" fill="#256186"/>
<path d="M63.6326 90.6793C63.3253 90.6793 63.0773 90.4313 63.0773 90.124C63.0773 89.8166 63.3253 89.5687 63.6326 89.5687C63.9406 89.5687 64.1885 89.8166 64.1885 90.124C64.1885 90.4313 63.9406 90.6793 63.6326 90.6793Z" fill="#256186"/>
<path d="M53.0805 90.4753C52.8864 90.4753 52.7306 90.3186 52.7306 90.1243C52.7306 89.9318 52.8864 89.7731 53.0805 89.7731C53.2741 89.7731 53.4316 89.9318 53.4316 90.1243C53.4316 90.3186 53.2741 90.4753 53.0805 90.4753Z" fill="#256186"/>
<path d="M42.5285 90.2419C42.4643 90.2419 42.4121 90.1883 42.4121 90.1241C42.4121 90.0599 42.4643 90.0075 42.5285 90.0075C42.5927 90.0075 42.6465 90.0599 42.6465 90.1241C42.6465 90.1883 42.5927 90.2419 42.5285 90.2419Z" fill="#256186"/>
<path d="M95.2883 100.999C95.1105 100.999 94.9664 100.853 94.9664 100.676C94.9664 100.498 95.1105 100.354 95.2883 100.354C95.4662 100.354 95.6108 100.498 95.6108 100.676C95.6108 100.853 95.4662 100.999 95.2883 100.999Z" fill="#256186"/>
<path d="M84.7365 100.969C84.5743 100.969 84.4449 100.839 84.4449 100.676C84.4449 100.515 84.5743 100.385 84.7365 100.385C84.8981 100.385 85.0293 100.515 85.0293 100.676C85.0293 100.839 84.8981 100.969 84.7365 100.969Z" fill="#256186"/>
<path d="M74.1855 100.882C74.0718 100.882 73.9796 100.789 73.9796 100.676C73.9796 100.564 74.0718 100.471 74.1855 100.471C74.2975 100.471 74.3896 100.564 74.3896 100.676C74.3896 100.789 74.2975 100.882 74.1855 100.882Z" fill="#256186"/>
<path d="M63.6322 100.765C63.5845 100.765 63.5447 100.725 63.5447 100.676C63.5447 100.629 63.5845 100.588 63.6322 100.588C63.6806 100.588 63.7197 100.629 63.7197 100.676C63.7197 100.725 63.6806 100.765 63.6322 100.765Z" fill="#256186"/>
<path d="M53.0801 100.706C53.0638 100.706 53.051 100.692 53.051 100.676C53.051 100.661 53.0638 100.647 53.0801 100.647C53.0959 100.647 53.1094 100.661 53.1094 100.676C53.1094 100.692 53.0959 100.706 53.0801 100.706Z" fill="#256186"/>
</svg>
