<svg width="200" height="201" viewBox="0 0 200 201" fill="none" xmlns="http://www.w3.org/2000/svg">
<path d="M190.577 19.8423C185.374 19.8423 181.155 15.6242 181.155 10.4216C181.155 5.21688 185.374 0.998806 190.577 0.998806C195.78 0.998806 200 5.21688 200 10.4216C200 15.6242 195.78 19.8423 190.577 19.8423Z" fill="white"/>
<path d="M169.472 19.198C164.626 19.198 160.695 15.2693 160.695 10.4211C160.695 5.57208 164.626 1.64339 169.472 1.64339C174.321 1.64339 178.25 5.57208 178.25 10.4211C178.25 15.2693 174.321 19.198 169.472 19.198Z" fill="white"/>
<path d="M148.371 18.2045C144.072 18.2045 140.587 14.7189 140.587 10.4214C140.587 6.12304 144.072 2.63751 148.371 2.63751C152.669 2.63751 156.154 6.12304 156.154 10.4214C156.154 14.7189 152.669 18.2045 148.371 18.2045Z" fill="white"/>
<path d="M127.265 17.2083C123.515 17.2083 120.476 14.1695 120.476 10.4214C120.476 6.6725 123.515 3.63251 127.265 3.63251C131.015 3.63251 134.054 6.6725 134.054 10.4214C134.054 14.1695 131.015 17.2083 127.265 17.2083Z" fill="white"/>
<path d="M106.16 16.156C102.993 16.156 100.427 13.5887 100.427 10.4215C100.427 7.25342 102.993 4.68585 106.16 4.68585C109.33 4.68585 111.896 7.25342 111.896 10.4215C111.896 13.5887 109.33 16.156 106.16 16.156Z" fill="white"/>
<path d="M85.0571 15.1609C82.4412 15.1609 80.3179 13.038 80.3179 10.4214C80.3179 7.8028 82.4412 5.68078 85.0571 5.68078C87.6731 5.68078 89.7969 7.8028 89.7969 10.4214C89.7969 13.038 87.6731 15.1609 85.0571 15.1609Z" fill="white"/>
<path d="M63.9537 14.108C61.917 14.108 60.2687 12.4575 60.2687 10.4218C60.2687 8.38401 61.917 6.73351 63.9537 6.73351C65.9903 6.73351 67.6387 8.38401 67.6387 10.4218C67.6387 12.4575 65.9903 14.108 63.9537 14.108Z" fill="white"/>
<path d="M42.8529 13.1124C41.3657 13.1124 40.1563 11.9063 40.1563 10.4212C40.1563 8.9329 41.3657 7.72914 42.8529 7.72914C44.337 7.72914 45.5435 8.9329 45.5435 10.4212C45.5435 11.9063 44.337 13.1124 42.8529 13.1124Z" fill="white"/>
<path d="M21.7458 12.0608C20.844 12.0608 20.1063 11.3259 20.1063 10.4216C20.1063 9.51532 20.844 8.78278 21.7458 8.78278C22.6506 8.78278 23.3853 9.51532 23.3853 10.4216C23.3853 11.3259 22.6506 12.0608 21.7458 12.0608Z" fill="white"/>
<path d="M0.642071 11.0645C0.286708 11.0645 2.21729e-05 10.7775 2.21729e-05 10.4215C2.21729e-05 10.0658 0.286708 9.77647 0.642071 9.77647C0.997434 9.77647 1.28711 10.0658 1.28711 10.4215C1.28711 10.7775 0.997434 11.0645 0.642071 11.0645Z" fill="white"/>
<path d="M190.577 40.3041C185.728 40.3041 181.799 36.373 181.799 31.5248C181.799 26.677 185.728 22.7471 190.577 22.7471C195.423 22.7471 199.354 26.677 199.354 31.5248C199.354 36.373 195.423 40.3041 190.577 40.3041Z" fill="white"/>
<path d="M169.472 39.9513C164.818 39.9513 161.047 36.1788 161.047 31.5244C161.047 26.8701 164.818 23.0979 169.472 23.0979C174.127 23.0979 177.9 26.8701 177.9 31.5244C177.9 36.1788 174.127 39.9513 169.472 39.9513Z" fill="white"/>
<path d="M148.37 39.0737C144.2 39.0737 140.82 35.6942 140.82 31.5251C140.82 27.356 144.2 23.9768 148.37 23.9768C152.537 23.9768 155.917 27.356 155.917 31.5251C155.917 35.6942 152.537 39.0737 148.37 39.0737Z" fill="white"/>
<path d="M127.265 38.1375C123.614 38.1375 120.651 35.1769 120.651 31.5244C120.651 27.8722 123.614 24.9117 127.265 24.9117C130.916 24.9117 133.879 27.8722 133.879 31.5244C133.879 35.1769 130.916 38.1375 127.265 38.1375Z" fill="white"/>
<path d="M106.161 37.1426C103.058 37.1426 100.544 34.6276 100.544 31.5245C100.544 28.4218 103.058 25.9068 106.161 25.9068C109.264 25.9068 111.78 28.4218 111.78 31.5245C111.78 34.6276 109.264 37.1426 106.161 37.1426Z" fill="white"/>
<path d="M85.0569 36.1489C82.5036 36.1489 80.4372 34.0783 80.4372 31.5247C80.4372 28.9715 82.5036 26.9008 85.0569 26.9008C87.6101 26.9008 89.6802 28.9715 89.6802 31.5247C89.6802 34.0783 87.6101 36.1489 85.0569 36.1489Z" fill="white"/>
<path d="M63.9533 35.1526C61.9495 35.1526 60.325 33.5275 60.325 31.5246C60.325 29.5205 61.9495 27.8969 63.9533 27.8969C65.957 27.8969 67.5815 29.5205 67.5815 31.5246C67.5815 33.5275 65.957 35.1526 63.9533 35.1526Z" fill="white"/>
<path d="M42.8524 34.1577C41.3952 34.1577 40.2186 32.9784 40.2186 31.5247C40.2186 30.0713 41.3952 28.8909 42.8524 28.8909C44.3038 28.8909 45.4863 30.0713 45.4863 31.5247C45.4863 32.9784 44.3038 34.1577 42.8524 34.1577Z" fill="white"/>
<path d="M21.7459 33.1055C20.8739 33.1055 20.1662 32.3962 20.1662 31.5248C20.1662 30.6523 20.8739 29.9442 21.7459 29.9442C22.6179 29.9442 23.3286 30.6523 23.3286 31.5248C23.3286 32.3962 22.6179 33.1055 21.7459 33.1055Z" fill="white"/>
<path d="M0.642248 32.1091C0.32272 32.1091 0.0599453 31.8478 0.0599453 31.5247C0.0599453 31.2004 0.32272 30.9403 0.642248 30.9403C0.964762 30.9403 1.22754 31.2004 1.22754 31.5247C1.22754 31.8478 0.964762 32.1091 0.642248 32.1091Z" fill="white"/>
<path d="M190.577 60.4138C186.278 60.4138 182.794 56.9283 182.794 52.6284C182.794 48.3312 186.278 44.8469 190.577 44.8469C194.875 44.8469 198.361 48.3312 198.361 52.6284C198.361 56.9283 194.875 60.4138 190.577 60.4138Z" fill="white"/>
<path d="M169.472 60.1777C165.305 60.1777 161.925 56.7994 161.925 52.6279C161.925 48.4588 165.305 45.0784 169.472 45.0784C173.643 45.0784 177.022 48.4588 177.022 52.6279C177.022 56.7994 173.643 60.1777 169.472 60.1777Z" fill="white"/>
<path d="M148.371 59.5923C144.523 59.5923 141.407 56.4741 141.407 52.6281C141.407 48.7821 144.523 45.6642 148.371 45.6642C152.214 45.6642 155.334 48.7821 155.334 52.6281C155.334 56.4741 152.214 59.5923 148.371 59.5923Z" fill="white"/>
<path d="M127.265 58.7733C123.871 58.7733 121.121 56.0239 121.121 52.6282C121.121 49.2362 123.871 46.4819 127.265 46.4819C130.66 46.4819 133.41 49.2362 133.41 52.6282C133.41 56.0239 130.66 58.7733 127.265 58.7733Z" fill="white"/>
<path d="M106.16 57.8958C103.252 57.8958 100.894 55.536 100.894 52.6277C100.894 49.7185 103.252 47.36 106.16 47.36C109.071 47.36 111.427 49.7185 111.427 52.6277C111.427 55.536 109.071 57.8958 106.16 57.8958Z" fill="white"/>
<path d="M85.0571 56.9581C82.6681 56.9581 80.7271 55.0195 80.7271 52.6281C80.7271 50.2358 82.6681 48.298 85.0571 48.298C87.4491 48.298 89.3887 50.2358 89.3887 52.6281C89.3887 55.0195 87.4491 56.9581 85.0571 56.9581Z" fill="white"/>
<path d="M63.9533 56.0232C62.0779 56.0232 60.5579 54.5035 60.5579 52.6275C60.5579 50.7555 62.0779 49.2355 63.9533 49.2355C65.8286 49.2355 67.3486 50.7555 67.3486 52.6275C67.3486 54.5035 65.8286 56.0232 63.9533 56.0232Z" fill="white"/>
<path d="M42.8526 55.0283C41.5237 55.0283 40.4516 53.9542 40.4516 52.6277C40.4516 51.3015 41.5237 50.2294 42.8526 50.2294C44.1755 50.2294 45.2476 51.3015 45.2476 52.6277C45.2476 53.9542 44.1755 55.0283 42.8526 55.0283Z" fill="white"/>
<path d="M21.7458 54.032C20.9724 54.032 20.3423 53.4043 20.3423 52.6284C20.3423 51.8517 20.9724 51.2252 21.7458 51.2252C22.5223 51.2252 23.1523 51.8517 23.1523 52.6284C23.1523 53.4043 22.5223 54.032 21.7458 54.032Z" fill="white"/>
<path d="M0.642097 53.0371C0.418129 53.0371 0.232983 52.8541 0.232983 52.6277C0.232983 52.4005 0.418129 52.2183 0.642097 52.2183C0.869051 52.2183 1.0542 52.4005 1.0542 52.6277C1.0542 52.8541 0.869051 53.0371 0.642097 53.0371Z" fill="white"/>
<path d="M190.577 80.5188C186.826 80.5188 183.788 77.4824 183.788 73.7308C183.788 69.9839 186.826 66.9443 190.577 66.9443C194.325 66.9443 197.366 69.9839 197.366 73.7308C197.366 77.4824 194.325 80.5188 190.577 80.5188Z" fill="white"/>
<path d="M169.473 80.3468C165.822 80.3468 162.861 77.3838 162.861 73.7314C162.861 70.0804 165.822 67.121 169.473 67.121C173.126 67.121 176.087 70.0804 176.087 73.7314C176.087 77.3838 173.126 80.3468 169.473 80.3468Z" fill="white"/>
<path d="M148.371 79.8773C144.976 79.8773 142.226 77.1267 142.226 73.731C142.226 70.339 144.976 67.5859 148.371 67.5859C151.762 67.5859 154.515 70.339 154.515 73.731C154.515 77.1267 151.762 79.8773 148.371 79.8773Z" fill="white"/>
<path d="M127.265 79.2917C124.195 79.2917 121.707 76.8015 121.707 73.7311C121.707 70.6621 124.195 68.174 127.265 68.174C130.336 68.174 132.824 70.6621 132.824 73.7311C132.824 76.8015 130.336 79.2917 127.265 79.2917Z" fill="white"/>
<path d="M106.161 78.4702C103.544 78.4702 101.421 76.3509 101.421 73.7307C101.421 71.1154 103.544 68.9925 106.161 68.9925C108.779 68.9925 110.902 71.1154 110.902 73.7307C110.902 76.3509 108.779 78.4702 106.161 78.4702Z" fill="white"/>
<path d="M85.0571 77.6527C82.8921 77.6527 81.1362 75.8995 81.1362 73.7309C81.1362 71.5659 82.8921 69.8103 85.0571 69.8103C87.2221 69.8103 88.978 71.5659 88.978 73.7309C88.978 75.8995 87.2221 77.6527 85.0571 77.6527Z" fill="white"/>
<path d="M63.9532 76.7151C62.3048 76.7151 60.97 75.3808 60.97 73.7312C60.97 72.0831 62.3048 70.7486 63.9532 70.7486C65.6016 70.7486 66.9395 72.0831 66.9395 73.7312C66.9395 75.3808 65.6016 76.7151 63.9532 76.7151Z" fill="white"/>
<path d="M42.8529 75.7808C41.7211 75.7808 40.8013 74.8637 40.8013 73.731C40.8013 72.6031 41.7211 71.6828 42.8529 71.6828C43.9817 71.6828 44.8984 72.6031 44.8984 73.731C44.8984 74.8637 43.9817 75.7808 42.8529 75.7808Z" fill="white"/>
<path d="M21.7461 74.8452C21.1309 74.8452 20.6352 74.3471 20.6352 73.731C20.6352 73.1165 21.1309 72.6208 21.7461 72.6208C22.3612 72.6208 22.8569 73.1165 22.8569 73.731C22.8569 74.3471 22.3612 74.8452 21.7461 74.8452Z" fill="white"/>
<path d="M0.642181 73.9077C0.546622 73.9077 0.466003 73.8307 0.466003 73.7315C0.466003 73.6372 0.546622 73.5553 0.642181 73.5553C0.740727 73.5553 0.818359 73.6372 0.818359 73.7315C0.818359 73.8307 0.740727 73.9077 0.642181 73.9077Z" fill="white"/>
<path d="M190.577 100.573C187.41 100.573 184.841 98.004 184.841 94.8356C184.841 91.6699 187.41 89.1024 190.577 89.1024C193.744 89.1024 196.31 91.6699 196.31 94.8356C196.31 98.004 193.744 100.573 190.577 100.573Z" fill="white"/>
<path d="M169.472 100.456C166.369 100.456 163.856 97.9387 163.856 94.8357C163.856 91.733 166.369 89.2192 169.472 89.2192C172.575 89.2192 175.091 91.733 175.091 94.8357C175.091 97.9387 172.575 100.456 169.472 100.456Z" fill="white"/>
<path d="M148.37 100.104C145.46 100.104 143.104 97.7437 143.104 94.8357C143.104 91.9277 145.46 89.5713 148.37 89.5713C151.277 89.5713 153.637 91.9277 153.637 94.8357C153.637 97.7437 151.277 100.104 148.37 100.104Z" fill="white"/>
<path d="M127.265 99.5769C124.646 99.5769 122.527 97.454 122.527 94.835C122.527 92.2164 124.646 90.0956 127.265 90.0956C129.884 90.0956 132.004 92.2164 132.004 94.835C132.004 97.454 129.884 99.5769 127.265 99.5769Z" fill="white"/>
<path d="M106.161 98.9327C103.9 98.9327 102.066 97.0989 102.066 94.8359C102.066 92.5753 103.9 90.7391 106.161 90.7391C108.423 90.7391 110.257 92.5753 110.257 94.8359C110.257 97.0989 108.423 98.9327 106.161 98.9327Z" fill="white"/>
<path d="M85.0571 98.1152C83.2474 98.1152 81.7811 96.6454 81.7811 94.836C81.7811 93.027 83.2474 91.5604 85.0571 91.5604C86.8667 91.5604 88.3359 93.027 88.3359 94.836C88.3359 96.6454 86.8667 98.1152 85.0571 98.1152Z" fill="white"/>
<path d="M63.9535 97.2936C62.5977 97.2936 61.4958 96.1946 61.4958 94.8356C61.4958 93.4801 62.5977 92.3779 63.9535 92.3779C65.3122 92.3779 66.4111 93.4801 66.4111 94.8356C66.4111 96.1946 65.3122 97.2936 63.9535 97.2936Z" fill="white"/>
<path d="M42.8528 96.4747C41.945 96.4747 41.2134 95.741 41.2134 94.8359C41.2134 93.9307 41.945 93.1994 42.8528 93.1994C43.7546 93.1994 44.4893 93.9307 44.4893 94.8359C44.4893 95.741 43.7546 96.4747 42.8528 96.4747Z" fill="white"/>
<path d="M21.7459 95.5378C21.3577 95.5378 21.0441 95.224 21.0441 94.8355C21.0441 94.447 21.3577 94.1334 21.7459 94.1334C22.1341 94.1334 22.4507 94.447 22.4507 94.8355C22.4507 95.224 22.1341 95.5378 21.7459 95.5378Z" fill="white"/>
<path d="M0.642009 94.895C0.609161 94.895 0.582299 94.8684 0.582299 94.8356C0.582299 94.8054 0.609161 94.7786 0.642009 94.7786C0.674858 94.7786 0.69873 94.8054 0.69873 94.8356C0.69873 94.8684 0.674858 94.895 0.642009 94.895Z" fill="white"/>
<path d="M190.577 120.682C187.958 120.682 185.835 118.559 185.835 115.939C185.835 113.324 187.958 111.201 190.577 111.201C193.196 111.201 195.316 113.324 195.316 115.939C195.316 118.559 193.196 120.682 190.577 120.682Z" fill="white"/>
<path d="M169.473 120.565C166.92 120.565 164.85 118.492 164.85 115.939C164.85 113.386 166.92 111.317 169.473 111.317C172.027 111.317 174.098 113.386 174.098 115.939C174.098 118.492 172.027 120.565 169.473 120.565Z" fill="white"/>
<path d="M148.371 120.269C145.979 120.269 144.039 118.331 144.039 115.939C144.039 113.547 145.979 111.609 148.371 111.609C150.762 111.609 152.701 113.547 152.701 115.939C152.701 118.331 150.762 120.269 148.371 120.269Z" fill="white"/>
<path d="M127.265 119.861C125.099 119.861 123.346 118.104 123.346 115.939C123.346 113.774 125.099 112.018 127.265 112.018C129.432 112.018 131.188 113.774 131.188 115.939C131.188 118.104 129.432 119.861 127.265 119.861Z" fill="white"/>
<path d="M106.16 119.215C104.353 119.215 102.885 117.749 102.885 115.938C102.885 114.129 104.353 112.663 106.16 112.663C107.971 112.663 109.438 114.129 109.438 115.938C109.438 117.749 107.971 119.215 106.16 119.215Z" fill="white"/>
<path d="M85.0571 118.572C83.6028 118.572 82.4262 117.393 82.4262 115.938C82.4262 114.485 83.6028 113.306 85.0571 113.306C86.5143 113.306 87.6909 114.485 87.6909 115.938C87.6909 117.393 86.5143 118.572 85.0571 118.572Z" fill="white"/>
<path d="M63.9533 117.812C62.9201 117.812 62.0809 116.972 62.0809 115.938C62.0809 114.906 62.9201 114.066 63.9533 114.066C64.9895 114.066 65.8257 114.906 65.8257 115.938C65.8257 116.972 64.9895 117.812 63.9533 117.812Z" fill="white"/>
<path d="M42.8526 116.993C42.2673 116.993 41.7955 116.522 41.7955 115.939C41.7955 115.357 42.2673 114.888 42.8526 114.888C43.432 114.888 43.9038 115.357 43.9038 115.939C43.9038 116.522 43.432 116.993 42.8526 116.993Z" fill="white"/>
<path d="M21.7456 116.172C21.6172 116.172 21.5127 116.07 21.5127 115.938C21.5127 115.81 21.6172 115.706 21.7456 115.706C21.874 115.706 21.9785 115.81 21.9785 115.938C21.9785 116.07 21.874 116.172 21.7456 116.172Z" fill="white"/>
<path d="M190.577 140.731C188.542 140.731 186.891 139.079 186.891 137.043C186.891 135.009 188.542 133.358 190.577 133.358C192.612 133.358 194.263 135.009 194.263 137.043C194.263 139.079 192.612 140.731 190.577 140.731Z" fill="white"/>
<path d="M169.473 140.671C167.469 140.671 165.845 139.048 165.845 137.043C165.845 135.039 167.469 133.416 169.473 133.416C171.475 133.416 173.101 135.039 173.101 137.043C173.101 139.048 171.475 140.671 169.473 140.671Z" fill="white"/>
<path d="M148.37 140.439C146.495 140.439 144.976 138.919 144.976 137.044C144.976 135.171 146.495 133.648 148.37 133.648C150.243 133.648 151.765 135.171 151.765 137.044C151.765 138.919 150.243 140.439 148.37 140.439Z" fill="white"/>
<path d="M127.265 140.03C125.618 140.03 124.283 138.692 124.283 137.044C124.283 135.395 125.618 134.061 127.265 134.061C128.914 134.061 130.249 135.395 130.249 137.044C130.249 138.692 128.914 140.03 127.265 140.03Z" fill="white"/>
<path d="M106.161 139.501C104.804 139.501 103.705 138.402 103.705 137.043C103.705 135.688 104.804 134.585 106.161 134.585C107.52 134.585 108.619 135.688 108.619 137.043C108.619 138.402 107.52 139.501 106.161 139.501Z" fill="white"/>
<path d="M85.0573 138.915C84.0241 138.915 83.1879 138.076 83.1879 137.043C83.1879 136.009 84.0241 135.171 85.0573 135.171C86.0905 135.171 86.9297 136.009 86.9297 137.043C86.9297 138.076 86.0905 138.915 85.0573 138.915Z" fill="white"/>
<path d="M63.9534 138.215C63.3084 138.215 62.7828 137.688 62.7828 137.043C62.7828 136.398 63.3084 135.876 63.9534 135.876C64.6014 135.876 65.127 136.398 65.127 137.043C65.127 137.688 64.6014 138.215 63.9534 138.215Z" fill="white"/>
<path d="M42.8527 137.453C42.6257 137.453 42.4406 137.271 42.4406 137.044C42.4406 136.816 42.6257 136.634 42.8527 136.634C43.0766 136.634 43.2588 136.816 43.2588 137.044C43.2588 137.271 43.0766 137.453 42.8527 137.453Z" fill="white"/>
<path d="M190.577 160.84C189.09 160.84 187.886 159.633 187.886 158.146C187.886 156.66 189.09 155.456 190.577 155.456C192.064 155.456 193.27 156.66 193.27 158.146C193.27 159.633 192.064 160.84 190.577 160.84Z" fill="white"/>
<path d="M169.472 160.78C168.02 160.78 166.838 159.601 166.838 158.146C166.838 156.693 168.02 155.514 169.472 155.514C170.927 155.514 172.105 156.693 172.105 158.146C172.105 159.601 170.927 160.78 169.472 160.78Z" fill="white"/>
<path d="M148.371 160.548C147.043 160.548 145.97 159.473 145.97 158.146C145.97 156.823 147.043 155.749 148.371 155.749C149.695 155.749 150.768 156.823 150.768 158.146C150.768 159.473 149.695 160.548 148.371 160.548Z" fill="white"/>
<path d="M127.265 160.196C126.134 160.196 125.218 159.279 125.218 158.147C125.218 157.019 126.134 156.098 127.265 156.098C128.397 156.098 129.312 157.019 129.312 158.147C129.312 159.279 128.397 160.196 127.265 160.196Z" fill="white"/>
<path d="M106.161 159.787C105.257 159.787 104.524 159.052 104.524 158.147C104.524 157.243 105.257 156.511 106.161 156.511C107.067 156.511 107.8 157.243 107.8 158.147C107.8 159.052 107.067 159.787 106.161 159.787Z" fill="white"/>
<path d="M85.0572 159.201C84.4749 159.201 84.006 158.73 84.006 158.147C84.006 157.565 84.4749 157.096 85.0572 157.096C85.6395 157.096 86.1113 157.565 86.1113 158.147C86.1113 158.73 85.6395 159.201 85.0572 159.201Z" fill="white"/>
<path d="M63.9536 158.556C63.7297 158.556 63.5445 158.374 63.5445 158.146C63.5445 157.92 63.7297 157.738 63.9536 157.738C64.1806 157.738 64.3657 157.92 64.3657 158.146C64.3657 158.374 64.1806 158.556 63.9536 158.556Z" fill="white"/>
<path d="M42.8524 158.207C42.8166 158.207 42.7927 158.18 42.7927 158.146C42.7927 158.114 42.8166 158.09 42.8524 158.09C42.8823 158.09 42.9092 158.114 42.9092 158.146C42.9092 158.18 42.8823 158.207 42.8524 158.207Z" fill="white"/>
<path d="M190.577 180.889C189.673 180.889 188.938 180.156 188.938 179.25C188.938 178.345 189.673 177.614 190.577 177.614C191.481 177.614 192.216 178.345 192.216 179.25C192.216 180.156 191.481 180.889 190.577 180.889Z" fill="white"/>
<path d="M169.473 180.83C168.6 180.83 167.892 180.123 167.892 179.25C167.892 178.379 168.6 177.671 169.473 177.671C170.344 177.671 171.053 178.379 171.053 179.25C171.053 180.123 170.344 180.83 169.473 180.83Z" fill="white"/>
<path d="M148.37 180.657C147.595 180.657 146.965 180.027 146.965 179.25C146.965 178.477 147.595 177.847 148.37 177.847C149.146 177.847 149.772 178.477 149.772 179.25C149.772 180.027 149.146 180.657 148.37 180.657Z" fill="white"/>
<path d="M127.265 180.361C126.651 180.361 126.155 179.865 126.155 179.251C126.155 178.636 126.651 178.14 127.265 178.14C127.881 178.14 128.377 178.636 128.377 179.251C128.377 179.865 127.881 180.361 127.265 180.361Z" fill="white"/>
<path d="M106.16 179.953C105.772 179.953 105.461 179.639 105.461 179.251C105.461 178.866 105.772 178.549 106.16 178.549C106.548 178.549 106.863 178.866 106.863 179.251C106.863 179.639 106.548 179.953 106.16 179.953Z" fill="white"/>
<path d="M85.0571 179.486C84.9287 179.486 84.8241 179.379 84.8241 179.251C84.8241 179.122 84.9287 179.017 85.0571 179.017C85.1855 179.017 85.293 179.122 85.293 179.251C85.293 179.379 85.1855 179.486 85.0571 179.486Z" fill="white"/>
<path d="M190.577 201C190.221 201 189.933 200.709 189.933 200.355C189.933 199.999 190.221 199.71 190.577 199.71C190.932 199.71 191.222 199.999 191.222 200.355C191.222 200.709 190.932 201 190.577 201Z" fill="white"/>
<path d="M169.473 200.94C169.148 200.94 168.889 200.681 168.889 200.355C168.889 200.032 169.148 199.772 169.473 199.772C169.796 199.772 170.058 200.032 170.058 200.355C170.058 200.681 169.796 200.94 169.473 200.94Z" fill="white"/>
<path d="M148.371 200.766C148.143 200.766 147.959 200.581 147.959 200.355C147.959 200.131 148.143 199.945 148.371 199.945C148.595 199.945 148.779 200.131 148.779 200.355C148.779 200.581 148.595 200.766 148.371 200.766Z" fill="white"/>
<path d="M127.265 200.531C127.169 200.531 127.09 200.453 127.09 200.355C127.09 200.259 127.169 200.179 127.265 200.179C127.362 200.179 127.44 200.259 127.44 200.355C127.44 200.453 127.362 200.531 127.265 200.531Z" fill="white"/>
<path d="M106.161 200.414C106.128 200.414 106.102 200.387 106.102 200.355C106.102 200.324 106.128 200.297 106.161 200.297C106.192 200.297 106.219 200.324 106.219 200.355C106.219 200.387 106.192 200.414 106.161 200.414Z" fill="white"/>
</svg>
