<svg width="200" height="200" viewBox="0 0 200 200" fill="none" xmlns="http://www.w3.org/2000/svg">
<path d="M9.42308 18.8435C14.6257 18.8435 18.845 14.6254 18.845 9.42281C18.845 4.2181 14.6257 2.67029e-05 9.42308 2.67029e-05C4.22045 2.67029e-05 0 4.2181 0 9.42281C0 14.6254 4.22045 18.8435 9.42308 18.8435Z" fill="#619FC6"/>
<path d="M30.5276 18.1993C35.3743 18.1993 39.3053 14.2706 39.3053 9.42242C39.3053 4.57337 35.3743 0.644674 30.5276 0.644674C25.6785 0.644674 21.7495 4.57337 21.7495 9.42242C21.7495 14.2706 25.6785 18.1993 30.5276 18.1993Z" fill="#619FC6"/>
<path d="M51.6295 17.2057C55.9282 17.2057 59.4134 13.7202 59.4134 9.42265C59.4134 5.12426 55.9282 1.63873 51.6295 1.63873C47.3308 1.63873 43.8464 5.12426 43.8464 9.42265C43.8464 13.7202 47.3308 17.2057 51.6295 17.2057Z" fill="#619FC6"/>
<path d="M72.7351 16.2094C76.4852 16.2094 79.524 13.1706 79.524 9.42259C79.524 5.67366 76.4852 2.63367 72.7351 2.63367C68.9846 2.63367 65.9459 5.67366 65.9459 9.42259C65.9459 13.1706 68.9846 16.2094 72.7351 16.2094Z" fill="#619FC6"/>
<path d="M93.8395 15.1572C97.0064 15.1572 99.5728 12.5899 99.5728 9.42269C99.5728 6.25458 97.0064 3.68701 93.8395 3.68701C90.6699 3.68701 88.1038 6.25458 88.1038 9.42269C88.1038 12.5899 90.6699 15.1572 93.8395 15.1572Z" fill="#619FC6"/>
<path d="M114.943 14.1622C117.559 14.1622 119.682 12.0393 119.682 9.42272C119.682 6.80408 117.559 4.68206 114.943 4.68206C112.327 4.68206 110.203 6.80408 110.203 9.42272C110.203 12.0393 112.327 14.1622 114.943 14.1622Z" fill="#619FC6"/>
<path d="M136.047 13.1093C138.083 13.1093 139.732 11.4588 139.732 9.42304C139.732 7.38523 138.083 5.73473 136.047 5.73473C134.01 5.73473 132.362 7.38523 132.362 9.42304C132.362 11.4588 134.01 13.1093 136.047 13.1093Z" fill="#619FC6"/>
<path d="M157.147 12.1136C158.634 12.1136 159.844 10.9075 159.844 9.42246C159.844 7.93412 158.634 6.73036 157.147 6.73036C155.663 6.73036 154.457 7.93412 154.457 9.42246C154.457 10.9075 155.663 12.1136 157.147 12.1136Z" fill="#619FC6"/>
<path d="M178.254 11.062C179.156 11.062 179.894 10.3271 179.894 9.42286C179.894 8.51654 179.156 7.784 178.254 7.784C177.349 7.784 176.615 8.51654 176.615 9.42286C176.615 10.3271 177.349 11.062 178.254 11.062Z" fill="#619FC6"/>
<path d="M199.358 10.0657C199.713 10.0657 200 9.77875 200 9.42279C200 9.06713 199.713 8.77775 199.358 8.77775C199.003 8.77775 198.713 9.06713 198.713 9.42279C198.713 9.77875 199.003 10.0657 199.358 10.0657Z" fill="#619FC6"/>
<path d="M9.42313 39.3053C14.2722 39.3053 18.2012 35.3742 18.2012 30.526C18.2012 25.6782 14.2722 21.7483 9.42313 21.7483C4.57646 21.7483 0.645382 25.6782 0.645382 30.526C0.645382 35.3742 4.57646 39.3053 9.42313 39.3053Z" fill="#619FC6"/>
<path d="M30.5275 38.9525C35.1819 38.9525 38.9532 35.18 38.9532 30.5256C38.9532 25.8713 35.1819 22.0991 30.5275 22.0991C25.8732 22.0991 22.0994 25.8713 22.0994 30.5256C22.0994 35.18 25.8732 38.9525 30.5275 38.9525Z" fill="#619FC6"/>
<path d="M51.6295 38.075C55.7998 38.075 59.1802 34.6954 59.1802 30.5263C59.1802 26.3572 55.7998 22.978 51.6295 22.978C47.4628 22.978 44.0824 26.3572 44.0824 30.5263C44.0824 34.6954 47.4628 38.075 51.6295 38.075Z" fill="#619FC6"/>
<path d="M72.7349 37.1387C76.3859 37.1387 79.3489 34.1781 79.3489 30.5256C79.3489 26.8735 76.3859 23.9129 72.7349 23.9129C69.0837 23.9129 66.1207 26.8735 66.1207 30.5256C66.1207 34.1781 69.0837 37.1387 72.7349 37.1387Z" fill="#619FC6"/>
<path d="M93.8394 36.1437C96.9421 36.1437 99.4559 33.6287 99.4559 30.5257C99.4559 27.423 96.9421 24.908 93.8394 24.908C90.7364 24.908 88.2202 27.423 88.2202 30.5257C88.2202 33.6287 90.7364 36.1437 93.8394 36.1437Z" fill="#619FC6"/>
<path d="M114.943 35.1501C117.496 35.1501 119.563 33.0795 119.563 30.5259C119.563 27.9727 117.496 25.9021 114.943 25.9021C112.39 25.9021 110.32 27.9727 110.32 30.5259C110.32 33.0795 112.39 35.1501 114.943 35.1501Z" fill="#619FC6"/>
<path d="M136.047 34.1539C138.05 34.1539 139.675 32.5287 139.675 30.5259C139.675 28.5218 138.05 26.8982 136.047 26.8982C134.043 26.8982 132.418 28.5218 132.418 30.5259C132.418 32.5287 134.043 34.1539 136.047 34.1539Z" fill="#619FC6"/>
<path d="M157.147 33.1589C158.605 33.1589 159.781 31.9797 159.781 30.526C159.781 29.0726 158.605 27.8921 157.147 27.8921C155.696 27.8921 154.514 29.0726 154.514 30.526C154.514 31.9797 155.696 33.1589 157.147 33.1589Z" fill="#619FC6"/>
<path d="M178.254 32.1066C179.126 32.1066 179.834 31.3974 179.834 30.526C179.834 29.6534 179.126 28.9454 178.254 28.9454C177.382 28.9454 176.671 29.6534 176.671 30.526C176.671 31.3974 177.382 32.1066 178.254 32.1066Z" fill="#619FC6"/>
<path d="M199.358 31.1104C199.677 31.1104 199.94 30.849 199.94 30.5259C199.94 30.2016 199.677 29.9415 199.358 29.9415C199.035 29.9415 198.773 30.2016 198.773 30.5259C198.773 30.849 199.035 31.1104 199.358 31.1104Z" fill="#619FC6"/>
<path d="M9.42323 59.415C13.7219 59.415 17.2063 55.9295 17.2063 51.6296C17.2063 47.3324 13.7219 43.8481 9.42323 43.8481C5.12483 43.8481 1.6393 47.3324 1.6393 51.6296C1.6393 55.9295 5.12483 59.415 9.42323 59.415Z" fill="#619FC6"/>
<path d="M30.5275 59.179C34.6954 59.179 38.0747 55.8006 38.0747 51.6291C38.0747 47.4601 34.6954 44.0796 30.5275 44.0796C26.3573 44.0796 22.978 47.4601 22.978 51.6291C22.978 55.8006 26.3573 59.179 30.5275 59.179Z" fill="#619FC6"/>
<path d="M51.6296 58.5934C55.4767 58.5934 58.5935 55.4752 58.5935 51.6292C58.5935 47.7833 55.4767 44.6653 51.6296 44.6653C47.786 44.6653 44.6656 47.7833 44.6656 51.6292C44.6656 55.4752 47.786 58.5934 51.6296 58.5934Z" fill="#619FC6"/>
<path d="M72.735 57.7745C76.1294 57.7745 78.8789 55.0251 78.8789 51.6294C78.8789 48.2374 76.1294 45.4832 72.735 45.4832C69.3405 45.4832 66.5899 48.2374 66.5899 51.6294C66.5899 55.0251 69.3405 57.7745 72.735 57.7745Z" fill="#619FC6"/>
<path d="M93.8394 56.897C96.7474 56.897 99.106 54.5372 99.106 51.6289C99.106 48.7198 96.7474 46.3612 93.8394 46.3612C90.929 46.3612 88.5726 48.7198 88.5726 51.6289C88.5726 54.5372 90.929 56.897 93.8394 56.897Z" fill="#619FC6"/>
<path d="M114.943 55.9594C117.332 55.9594 119.273 54.0207 119.273 51.6293C119.273 49.237 117.332 47.2993 114.943 47.2993C112.551 47.2993 110.611 49.237 110.611 51.6293C110.611 54.0207 112.551 55.9594 114.943 55.9594Z" fill="#619FC6"/>
<path d="M136.047 55.0245C137.922 55.0245 139.442 53.5048 139.442 51.6288C139.442 49.7568 137.922 48.2368 136.047 48.2368C134.171 48.2368 132.651 49.7568 132.651 51.6288C132.651 53.5048 134.171 55.0245 136.047 55.0245Z" fill="#619FC6"/>
<path d="M157.147 54.0295C158.476 54.0295 159.548 52.9554 159.548 51.6289C159.548 50.3027 158.476 49.2307 157.147 49.2307C155.824 49.2307 154.752 50.3027 154.752 51.6289C154.752 52.9554 155.824 54.0295 157.147 54.0295Z" fill="#619FC6"/>
<path d="M178.254 53.0332C179.028 53.0332 179.658 52.4055 179.658 51.6297C179.658 50.8529 179.028 50.2264 178.254 50.2264C177.478 50.2264 176.848 50.8529 176.848 51.6297C176.848 52.4055 177.478 53.0332 178.254 53.0332Z" fill="#619FC6"/>
<path d="M199.358 52.0383C199.582 52.0383 199.767 51.8552 199.767 51.6289C199.767 51.4016 199.582 51.2194 199.358 51.2194C199.131 51.2194 198.946 51.4016 198.946 51.6289C198.946 51.8552 199.131 52.0383 199.358 52.0383Z" fill="#619FC6"/>
<path d="M9.42315 79.52C13.1736 79.52 16.2121 76.4836 16.2121 72.732C16.2121 68.9852 13.1736 65.9455 9.42315 65.9455C5.67512 65.9455 2.63424 68.9852 2.63424 72.732C2.63424 76.4836 5.67512 79.52 9.42315 79.52Z" fill="#619FC6"/>
<path d="M30.5275 79.348C34.1785 79.348 37.1393 76.3851 37.1393 72.7326C37.1393 69.0816 34.1785 66.1223 30.5275 66.1223C26.8741 66.1223 23.9133 69.0816 23.9133 72.7326C23.9133 76.3851 26.8741 79.348 30.5275 79.348Z" fill="#619FC6"/>
<path d="M51.6294 78.8785C55.0239 78.8785 57.7745 76.1279 57.7745 72.7323C57.7745 69.3402 55.0239 66.5872 51.6294 66.5872C48.2386 66.5872 45.4855 69.3402 45.4855 72.7323C45.4855 76.1279 48.2386 78.8785 51.6294 78.8785Z" fill="#619FC6"/>
<path d="M72.735 78.293C75.8051 78.293 78.2933 75.8028 78.2933 72.7323C78.2933 69.6634 75.8051 67.1753 72.735 67.1753C69.6636 67.1753 67.1764 69.6634 67.1764 72.7323C67.1764 75.8028 69.6636 78.293 72.735 78.293Z" fill="#619FC6"/>
<path d="M93.8394 77.4714C96.4556 77.4714 98.5789 75.3521 98.5789 72.732C98.5789 70.1166 96.4556 67.9937 93.8394 67.9937C91.2205 67.9937 89.0975 70.1166 89.0975 72.732C89.0975 75.3521 91.2205 77.4714 93.8394 77.4714Z" fill="#619FC6"/>
<path d="M114.943 76.6539C117.108 76.6539 118.864 74.9007 118.864 72.7321C118.864 70.5671 117.108 68.8115 114.943 68.8115C112.778 68.8115 111.022 70.5671 111.022 72.7321C111.022 74.9007 112.778 76.6539 114.943 76.6539Z" fill="#619FC6"/>
<path d="M136.047 75.7163C137.695 75.7163 139.03 74.3821 139.03 72.7325C139.03 71.0844 137.695 69.7498 136.047 69.7498C134.398 69.7498 133.06 71.0844 133.06 72.7325C133.06 74.3821 134.398 75.7163 136.047 75.7163Z" fill="#619FC6"/>
<path d="M157.147 74.782C158.279 74.782 159.199 73.865 159.199 72.7323C159.199 71.6044 158.279 70.684 157.147 70.684C156.019 70.684 155.102 71.6044 155.102 72.7323C155.102 73.865 156.019 74.782 157.147 74.782Z" fill="#619FC6"/>
<path d="M178.254 73.8465C178.869 73.8465 179.365 73.3484 179.365 72.7323C179.365 72.1178 178.869 71.6221 178.254 71.6221C177.639 71.6221 177.143 72.1178 177.143 72.7323C177.143 73.3484 177.639 73.8465 178.254 73.8465Z" fill="#619FC6"/>
<path d="M199.358 72.9089C199.453 72.9089 199.534 72.8318 199.534 72.7327C199.534 72.6383 199.453 72.5565 199.358 72.5565C199.259 72.5565 199.182 72.6383 199.182 72.7327C199.182 72.8318 199.259 72.9089 199.358 72.9089Z" fill="#619FC6"/>
<path d="M9.4232 99.5737C12.5904 99.5737 15.1589 97.0053 15.1589 93.8369C15.1589 90.6712 12.5904 88.1036 9.4232 88.1036C6.25629 88.1036 3.68992 90.6712 3.68992 93.8369C3.68992 97.0053 6.25629 99.5737 9.4232 99.5737Z" fill="#619FC6"/>
<path d="M30.5275 99.457C33.6305 99.457 36.1443 96.9399 36.1443 93.8369C36.1443 90.7342 33.6305 88.2204 30.5275 88.2204C27.4245 88.2204 24.9085 90.7342 24.9085 93.8369C24.9085 96.9399 27.4245 99.457 30.5275 99.457Z" fill="#619FC6"/>
<path d="M51.6294 99.1049C54.5398 99.1049 56.8963 96.7449 56.8963 93.8369C56.8963 90.9289 54.5398 88.5724 51.6294 88.5724C48.7226 88.5724 46.3626 90.9289 46.3626 93.8369C46.3626 96.7449 48.7226 99.1049 51.6294 99.1049Z" fill="#619FC6"/>
<path d="M72.7351 98.5781C75.3537 98.5781 77.4733 96.4552 77.4733 93.8363C77.4733 91.2176 75.3537 89.0968 72.7351 89.0968C70.1161 89.0968 67.9956 91.2176 67.9956 93.8363C67.9956 96.4552 70.1161 98.5781 72.7351 98.5781Z" fill="#619FC6"/>
<path d="M93.8394 97.934C96.1 97.934 97.9338 96.1001 97.9338 93.8371C97.9338 91.5765 96.1 89.7403 93.8394 89.7403C91.5764 89.7403 89.7426 91.5765 89.7426 93.8371C89.7426 96.1001 91.5764 97.934 93.8394 97.934Z" fill="#619FC6"/>
<path d="M114.943 97.1165C116.752 97.1165 118.219 95.6466 118.219 93.8373C118.219 92.0282 116.752 90.5617 114.943 90.5617C113.133 90.5617 111.664 92.0282 111.664 93.8373C111.664 95.6466 113.133 97.1165 114.943 97.1165Z" fill="#619FC6"/>
<path d="M136.047 96.2948C137.402 96.2948 138.504 95.1959 138.504 93.8368C138.504 92.4814 137.402 91.3791 136.047 91.3791C134.688 91.3791 133.589 92.4814 133.589 93.8368C133.589 95.1959 134.688 96.2948 136.047 96.2948Z" fill="#619FC6"/>
<path d="M157.147 95.476C158.055 95.476 158.787 94.7422 158.787 93.8371C158.787 92.932 158.055 92.2006 157.147 92.2006C156.245 92.2006 155.511 92.932 155.511 93.8371C155.511 94.7422 156.245 95.476 157.147 95.476Z" fill="#619FC6"/>
<path d="M178.254 94.539C178.642 94.539 178.956 94.2251 178.956 93.8366C178.956 93.4481 178.642 93.1346 178.254 93.1346C177.866 93.1346 177.549 93.4481 177.549 93.8366C177.549 94.2251 177.866 94.539 178.254 94.539Z" fill="#619FC6"/>
<path d="M199.358 93.8962C199.391 93.8962 199.418 93.8696 199.418 93.8367C199.418 93.8066 199.391 93.7797 199.358 93.7797C199.325 93.7797 199.301 93.8066 199.301 93.8367C199.301 93.8696 199.325 93.8962 199.358 93.8962Z" fill="#619FC6"/>
<path d="M9.42312 119.683C12.0421 119.683 14.165 117.561 14.165 114.94C14.165 112.325 12.0421 110.202 9.42312 110.202C6.80449 110.202 4.68367 112.325 4.68367 114.94C4.68367 117.561 6.80449 119.683 9.42312 119.683Z" fill="#619FC6"/>
<path d="M30.5276 119.566C33.0799 119.566 35.1503 117.493 35.1503 114.94C35.1503 112.387 33.0799 110.318 30.5276 110.318C27.9728 110.318 25.9025 112.387 25.9025 114.94C25.9025 117.493 27.9728 119.566 30.5276 119.566Z" fill="#619FC6"/>
<path d="M51.6294 119.27C54.0208 119.27 55.9607 117.332 55.9607 114.94C55.9607 112.549 54.0208 110.61 51.6294 110.61C49.238 110.61 47.2994 112.549 47.2994 114.94C47.2994 117.332 49.238 119.27 51.6294 119.27Z" fill="#619FC6"/>
<path d="M72.735 118.862C74.9012 118.862 76.6544 117.105 76.6544 114.94C76.6544 112.775 74.9012 111.019 72.735 111.019C70.5676 111.019 68.8119 112.775 68.8119 114.94C68.8119 117.105 70.5676 118.862 72.735 118.862Z" fill="#619FC6"/>
<path d="M93.8395 118.216C95.6473 118.216 97.1148 116.75 97.1148 114.94C97.1148 113.13 95.6473 111.664 93.8395 111.664C92.0289 111.664 90.5615 113.13 90.5615 114.94C90.5615 116.75 92.0289 118.216 93.8395 118.216Z" fill="#619FC6"/>
<path d="M114.943 117.573C116.397 117.573 117.574 116.394 117.574 114.94C117.574 113.486 116.397 112.307 114.943 112.307C113.486 112.307 112.309 113.486 112.309 114.94C112.309 116.394 113.486 117.573 114.943 117.573Z" fill="#619FC6"/>
<path d="M136.047 116.813C137.08 116.813 137.919 115.973 137.919 114.94C137.919 113.907 137.08 113.068 136.047 113.068C135.01 113.068 134.174 113.907 134.174 114.94C134.174 115.973 135.01 116.813 136.047 116.813Z" fill="#619FC6"/>
<path d="M157.147 115.994C157.733 115.994 158.204 115.523 158.204 114.94C158.204 114.358 157.733 113.889 157.147 113.889C156.568 113.889 156.096 114.358 156.096 114.94C156.096 115.523 156.568 115.994 157.147 115.994Z" fill="#619FC6"/>
<path d="M178.254 115.173C178.383 115.173 178.487 115.072 178.487 114.94C178.487 114.811 178.383 114.708 178.254 114.708C178.126 114.708 178.021 114.811 178.021 114.94C178.021 115.072 178.126 115.173 178.254 115.173Z" fill="#619FC6"/>
<path d="M9.42317 139.732C11.4586 139.732 13.1094 138.08 13.1094 136.044C13.1094 134.01 11.4586 132.359 9.42317 132.359C7.38775 132.359 5.73696 134.01 5.73696 136.044C5.73696 138.08 7.38775 139.732 9.42317 139.732Z" fill="#619FC6"/>
<path d="M30.5275 139.672C32.5315 139.672 34.1551 138.049 34.1551 136.045C34.1551 134.041 32.5315 132.417 30.5275 132.417C28.5246 132.417 26.8995 134.041 26.8995 136.045C26.8995 138.049 28.5246 139.672 30.5275 139.672Z" fill="#619FC6"/>
<path d="M51.6296 139.44C53.5052 139.44 55.024 137.92 55.024 136.045C55.024 134.172 53.5052 132.649 51.6296 132.649C49.7572 132.649 48.2351 134.172 48.2351 136.045C48.2351 137.92 49.7572 139.44 51.6296 139.44Z" fill="#619FC6"/>
<path d="M72.735 139.031C74.3819 139.031 75.7176 137.693 75.7176 136.045C75.7176 134.396 74.3819 133.062 72.735 133.062C71.0865 133.062 69.7511 134.396 69.7511 136.045C69.7511 137.693 71.0865 139.031 72.735 139.031Z" fill="#619FC6"/>
<path d="M93.8394 138.502C95.196 138.502 96.2946 137.403 96.2946 136.044C96.2946 134.689 95.196 133.587 93.8394 133.587C92.4803 133.587 91.3814 134.689 91.3814 136.044C91.3814 137.403 92.4803 138.502 93.8394 138.502Z" fill="#619FC6"/>
<path d="M114.943 137.917C115.976 137.917 116.812 137.078 116.812 136.044C116.812 135.011 115.976 134.172 114.943 134.172C113.91 134.172 113.071 135.011 113.071 136.044C113.071 137.078 113.91 137.917 114.943 137.917Z" fill="#619FC6"/>
<path d="M136.047 137.216C136.692 137.216 137.217 136.69 137.217 136.045C137.217 135.4 136.692 134.877 136.047 134.877C135.399 134.877 134.873 135.4 134.873 136.045C134.873 136.69 135.399 137.216 136.047 137.216Z" fill="#619FC6"/>
<path d="M157.147 136.454C157.374 136.454 157.559 136.272 157.559 136.045C157.559 135.817 157.374 135.635 157.147 135.635C156.923 135.635 156.741 135.817 156.741 136.045C156.741 136.272 156.923 136.454 157.147 136.454Z" fill="#619FC6"/>
<path d="M9.4231 159.841C10.9105 159.841 12.1143 158.634 12.1143 157.147C12.1143 155.661 10.9105 154.457 9.4231 154.457C7.93595 154.457 6.73071 155.661 6.73071 157.147C6.73071 158.634 7.93595 159.841 9.4231 159.841Z" fill="#619FC6"/>
<path d="M30.5276 159.781C31.9798 159.781 33.1614 158.602 33.1614 157.148C33.1614 155.694 31.9798 154.515 30.5276 154.515C29.073 154.515 27.8949 155.694 27.8949 157.148C27.8949 158.602 29.073 159.781 30.5276 159.781Z" fill="#619FC6"/>
<path d="M51.6295 159.549C52.9569 159.549 54.0301 158.474 54.0301 157.148C54.0301 155.825 52.9569 154.751 51.6295 154.751C50.3054 154.751 49.2324 155.825 49.2324 157.148C49.2324 158.474 50.3054 159.549 51.6295 159.549Z" fill="#619FC6"/>
<path d="M72.7351 159.197C73.8666 159.197 74.7821 158.281 74.7821 157.148C74.7821 156.02 73.8666 155.1 72.7351 155.1C71.6036 155.1 70.6877 156.02 70.6877 157.148C70.6877 158.281 71.6036 159.197 72.7351 159.197Z" fill="#619FC6"/>
<path d="M93.8394 158.788C94.7434 158.788 95.4759 158.053 95.4759 157.148C95.4759 156.244 94.7434 155.512 93.8394 155.512C92.9328 155.512 92.2003 156.244 92.2003 157.148C92.2003 158.053 92.9328 158.788 93.8394 158.788Z" fill="#619FC6"/>
<path d="M114.943 158.202C115.525 158.202 115.994 157.731 115.994 157.148C115.994 156.566 115.525 156.097 114.943 156.097C114.361 156.097 113.889 156.566 113.889 157.148C113.889 157.731 114.361 158.202 114.943 158.202Z" fill="#619FC6"/>
<path d="M136.047 157.557C136.271 157.557 136.456 157.375 136.456 157.147C136.456 156.921 136.271 156.739 136.047 156.739C135.82 156.739 135.635 156.921 135.635 157.147C135.635 157.375 135.82 157.557 136.047 157.557Z" fill="#619FC6"/>
<path d="M157.147 157.208C157.183 157.208 157.207 157.181 157.207 157.148C157.207 157.115 157.183 157.091 157.147 157.091C157.118 157.091 157.091 157.115 157.091 157.148C157.091 157.181 157.118 157.208 157.147 157.208Z" fill="#619FC6"/>
<path d="M9.42318 179.891C10.3271 179.891 11.062 179.157 11.062 178.252C11.062 177.347 10.3271 176.615 9.42318 176.615C8.51924 176.615 7.78434 177.347 7.78434 178.252C7.78434 179.157 8.51924 179.891 9.42318 179.891Z" fill="#619FC6"/>
<path d="M30.5275 179.831C31.4 179.831 32.1081 179.124 32.1081 178.252C32.1081 177.38 31.4 176.672 30.5275 176.672C29.6561 176.672 28.9468 177.38 28.9468 178.252C28.9468 179.124 29.6561 179.831 30.5275 179.831Z" fill="#619FC6"/>
<path d="M51.6294 179.658C52.4053 179.658 53.035 179.028 53.035 178.252C53.035 177.478 52.4053 176.848 51.6294 176.848C50.8536 176.848 50.2274 177.478 50.2274 178.252C50.2274 179.028 50.8536 179.658 51.6294 179.658Z" fill="#619FC6"/>
<path d="M72.7351 179.362C73.3496 179.362 73.8456 178.866 73.8456 178.252C73.8456 177.637 73.3496 177.141 72.7351 177.141C72.119 177.141 71.6233 177.637 71.6233 178.252C71.6233 178.866 72.119 179.362 72.7351 179.362Z" fill="#619FC6"/>
<path d="M93.8394 178.954C94.2276 178.954 94.5391 178.641 94.5391 178.252C94.5391 177.867 94.2276 177.55 93.8394 177.55C93.4521 177.55 93.137 177.867 93.137 178.252C93.137 178.641 93.4521 178.954 93.8394 178.954Z" fill="#619FC6"/>
<path d="M114.943 178.487C115.071 178.487 115.176 178.38 115.176 178.252C115.176 178.123 115.071 178.019 114.943 178.019C114.814 178.019 114.707 178.123 114.707 178.252C114.707 178.38 114.814 178.487 114.943 178.487Z" fill="#619FC6"/>
<path d="M9.4231 200.001C9.77876 200.001 10.0669 199.71 10.0669 199.356C10.0669 199 9.77876 198.711 9.4231 198.711C9.06744 198.711 8.77808 199 8.77808 199.356C8.77808 199.71 9.06744 200.001 9.4231 200.001Z" fill="#619FC6"/>
<path d="M30.5276 199.941C30.8519 199.941 31.1107 199.682 31.1107 199.356C31.1107 199.033 30.8519 198.773 30.5276 198.773C30.2044 198.773 29.9419 199.033 29.9419 199.356C29.9419 199.682 30.2044 199.941 30.5276 199.941Z" fill="#619FC6"/>
<path d="M51.6295 199.768C51.8571 199.768 52.0413 199.582 52.0413 199.356C52.0413 199.132 51.8571 198.946 51.6295 198.946C51.4056 198.946 51.2213 199.132 51.2213 199.356C51.2213 199.582 51.4056 199.768 51.6295 199.768Z" fill="#619FC6"/>
<path d="M72.735 199.533C72.8306 199.533 72.91 199.455 72.91 199.357C72.91 199.261 72.8306 199.18 72.735 199.18C72.6383 199.18 72.56 199.261 72.56 199.357C72.56 199.455 72.6383 199.533 72.735 199.533Z" fill="#619FC6"/>
<path d="M93.8394 199.415C93.872 199.415 93.8976 199.389 93.8976 199.356C93.8976 199.326 93.872 199.299 93.8394 199.299C93.8078 199.299 93.7809 199.326 93.7809 199.356C93.7809 199.389 93.8078 199.415 93.8394 199.415Z" fill="#619FC6"/>
</svg>
