<svg width="200" height="201" viewBox="0 0 200 201" fill="none" xmlns="http://www.w3.org/2000/svg">
<path d="M9.42308 19.8418C14.6257 19.8418 18.845 15.6237 18.845 10.4211C18.845 5.21639 14.6257 0.998318 9.42308 0.998318C4.22045 0.998318 0 5.21639 0 10.4211C0 15.6237 4.22045 19.8418 9.42308 19.8418Z" fill="white"/>
<path d="M30.5276 19.1978C35.3743 19.1978 39.3053 15.2691 39.3053 10.4209C39.3053 5.57184 35.3743 1.64315 30.5276 1.64315C25.6785 1.64315 21.7495 5.57184 21.7495 10.4209C21.7495 15.2691 25.6785 19.1978 30.5276 19.1978Z" fill="white"/>
<path d="M51.6295 18.2041C55.9282 18.2041 59.4134 14.7186 59.4134 10.4211C59.4134 6.12267 55.9282 2.63714 51.6295 2.63714C47.3308 2.63714 43.8464 6.12267 43.8464 10.4211C43.8464 14.7186 47.3308 18.2041 51.6295 18.2041Z" fill="white"/>
<path d="M72.7351 17.208C76.4852 17.208 79.524 14.1692 79.524 10.4212C79.524 6.67226 76.4852 3.63226 72.7351 3.63226C68.9846 3.63226 65.9459 6.67226 65.9459 10.4212C65.9459 14.1692 68.9846 17.208 72.7351 17.208Z" fill="white"/>
<path d="M93.8395 16.1558C97.0064 16.1558 99.5728 13.5885 99.5728 10.4213C99.5728 7.25318 97.0064 4.6856 93.8395 4.6856C90.6699 4.6856 88.1038 7.25318 88.1038 10.4213C88.1038 13.5885 90.6699 16.1558 93.8395 16.1558Z" fill="white"/>
<path d="M114.943 15.1606C117.559 15.1606 119.682 13.0377 119.682 10.4212C119.682 7.80256 117.559 5.68053 114.943 5.68053C112.327 5.68053 110.203 7.80256 110.203 10.4212C110.203 13.0377 112.327 15.1606 114.943 15.1606Z" fill="white"/>
<path d="M136.047 14.1079C138.083 14.1079 139.732 12.4574 139.732 10.4217C139.732 8.38389 138.083 6.73339 136.047 6.73339C134.01 6.73339 132.362 8.38389 132.362 10.4217C132.362 12.4574 134.01 14.1079 136.047 14.1079Z" fill="white"/>
<path d="M157.147 13.1123C158.634 13.1123 159.844 11.9062 159.844 10.4211C159.844 8.93277 158.634 7.72902 157.147 7.72902C155.663 7.72902 154.457 8.93277 154.457 10.4211C154.457 11.9062 155.663 13.1123 157.147 13.1123Z" fill="white"/>
<path d="M178.254 12.0605C179.156 12.0605 179.894 11.3256 179.894 10.4214C179.894 9.51507 179.156 8.78254 178.254 8.78254C177.349 8.78254 176.615 9.51507 176.615 10.4214C176.615 11.3256 177.349 12.0605 178.254 12.0605Z" fill="white"/>
<path d="M199.358 11.0645C199.713 11.0645 200 10.7775 200 10.4215C200 10.0658 199.713 9.77647 199.358 9.77647C199.003 9.77647 198.713 10.0658 198.713 10.4215C198.713 10.7775 199.003 11.0645 199.358 11.0645Z" fill="white"/>
<path d="M9.42313 40.3037C14.2722 40.3037 18.2012 36.3726 18.2012 31.5244C18.2012 26.6766 14.2722 22.7467 9.42313 22.7467C4.57646 22.7467 0.645382 26.6766 0.645382 31.5244C0.645382 36.3726 4.57646 40.3037 9.42313 40.3037Z" fill="white"/>
<path d="M30.5275 39.9512C35.1819 39.9512 38.9532 36.1787 38.9532 31.5243C38.9532 26.8699 35.1819 23.0977 30.5275 23.0977C25.8732 23.0977 22.0994 26.8699 22.0994 31.5243C22.0994 36.1787 25.8732 39.9512 30.5275 39.9512Z" fill="white"/>
<path d="M51.6295 39.0732C55.7998 39.0732 59.1802 35.6937 59.1802 31.5246C59.1802 27.3555 55.7998 23.9763 51.6295 23.9763C47.4628 23.9763 44.0824 27.3555 44.0824 31.5246C44.0824 35.6937 47.4628 39.0732 51.6295 39.0732Z" fill="white"/>
<path d="M72.7349 38.1372C76.3859 38.1372 79.3489 35.1766 79.3489 31.5242C79.3489 27.872 76.3859 24.9114 72.7349 24.9114C69.0837 24.9114 66.1207 27.872 66.1207 31.5242C66.1207 35.1766 69.0837 38.1372 72.7349 38.1372Z" fill="white"/>
<path d="M93.8394 37.1421C96.9421 37.1421 99.4559 34.6271 99.4559 31.5241C99.4559 28.4214 96.9421 25.9064 93.8394 25.9064C90.7364 25.9064 88.2202 28.4214 88.2202 31.5241C88.2202 34.6271 90.7364 37.1421 93.8394 37.1421Z" fill="white"/>
<path d="M114.943 36.1484C117.496 36.1484 119.563 34.0778 119.563 31.5242C119.563 28.971 117.496 26.9004 114.943 26.9004C112.39 26.9004 110.32 28.971 110.32 31.5242C110.32 34.0778 112.39 36.1484 114.943 36.1484Z" fill="white"/>
<path d="M136.047 35.1523C138.05 35.1523 139.675 33.5272 139.675 31.5243C139.675 29.5203 138.05 27.8967 136.047 27.8967C134.043 27.8967 132.418 29.5203 132.418 31.5243C132.418 33.5272 134.043 35.1523 136.047 35.1523Z" fill="white"/>
<path d="M157.147 34.1572C158.605 34.1572 159.781 32.978 159.781 31.5243C159.781 30.0709 158.605 28.8904 157.147 28.8904C155.696 28.8904 154.514 30.0709 154.514 31.5243C154.514 32.978 155.696 34.1572 157.147 34.1572Z" fill="white"/>
<path d="M178.254 33.105C179.126 33.105 179.834 32.3957 179.834 31.5244C179.834 30.6518 179.126 29.9437 178.254 29.9437C177.382 29.9437 176.671 30.6518 176.671 31.5244C176.671 32.3957 177.382 33.105 178.254 33.105Z" fill="white"/>
<path d="M199.358 32.1089C199.677 32.1089 199.94 31.8476 199.94 31.5245C199.94 31.2002 199.677 30.9401 199.358 30.9401C199.035 30.9401 198.773 31.2002 198.773 31.5245C198.773 31.8476 199.035 32.1089 199.358 32.1089Z" fill="white"/>
<path d="M9.42323 60.4136C13.7219 60.4136 17.2063 56.928 17.2063 52.6282C17.2063 48.331 13.7219 44.8466 9.42323 44.8466C5.12483 44.8466 1.6393 48.331 1.6393 52.6282C1.6393 56.928 5.12483 60.4136 9.42323 60.4136Z" fill="white"/>
<path d="M30.5275 60.1777C34.6954 60.1777 38.0747 56.7994 38.0747 52.6279C38.0747 48.4588 34.6954 45.0784 30.5275 45.0784C26.3573 45.0784 22.978 48.4588 22.978 52.6279C22.978 56.7994 26.3573 60.1777 30.5275 60.1777Z" fill="white"/>
<path d="M51.6296 59.5918C55.4767 59.5918 58.5935 56.4736 58.5935 52.6276C58.5935 48.7816 55.4767 45.6637 51.6296 45.6637C47.786 45.6637 44.6656 48.7816 44.6656 52.6276C44.6656 56.4736 47.786 59.5918 51.6296 59.5918Z" fill="white"/>
<path d="M72.735 58.7729C76.1294 58.7729 78.8789 56.0235 78.8789 52.6279C78.8789 49.2358 76.1294 46.4816 72.735 46.4816C69.3405 46.4816 66.5899 49.2358 66.5899 52.6279C66.5899 56.0235 69.3405 58.7729 72.735 58.7729Z" fill="white"/>
<path d="M93.8394 57.8955C96.7474 57.8955 99.106 55.5358 99.106 52.6275C99.106 49.7183 96.7474 47.3598 93.8394 47.3598C90.929 47.3598 88.5726 49.7183 88.5726 52.6275C88.5726 55.5358 90.929 57.8955 93.8394 57.8955Z" fill="white"/>
<path d="M114.943 56.958C117.332 56.958 119.273 55.0193 119.273 52.628C119.273 50.2357 117.332 48.2979 114.943 48.2979C112.551 48.2979 110.611 50.2357 110.611 52.628C110.611 55.0193 112.551 56.958 114.943 56.958Z" fill="white"/>
<path d="M136.047 56.0229C137.922 56.0229 139.442 54.5033 139.442 52.6273C139.442 50.7552 137.922 49.2352 136.047 49.2352C134.171 49.2352 132.651 50.7552 132.651 52.6273C132.651 54.5033 134.171 56.0229 136.047 56.0229Z" fill="white"/>
<path d="M157.147 55.0283C158.476 55.0283 159.548 53.9542 159.548 52.6277C159.548 51.3015 158.476 50.2294 157.147 50.2294C155.824 50.2294 154.752 51.3015 154.752 52.6277C154.752 53.9542 155.824 55.0283 157.147 55.0283Z" fill="white"/>
<path d="M178.254 54.0317C179.028 54.0317 179.658 53.404 179.658 52.6282C179.658 51.8515 179.028 51.225 178.254 51.225C177.478 51.225 176.848 51.8515 176.848 52.6282C176.848 53.404 177.478 54.0317 178.254 54.0317Z" fill="white"/>
<path d="M199.358 53.0366C199.582 53.0366 199.767 52.8536 199.767 52.6272C199.767 52.4 199.582 52.2178 199.358 52.2178C199.131 52.2178 198.946 52.4 198.946 52.6272C198.946 52.8536 199.131 53.0366 199.358 53.0366Z" fill="white"/>
<path d="M9.42315 80.5186C13.1736 80.5186 16.2121 77.4821 16.2121 73.7305C16.2121 69.9837 13.1736 66.944 9.42315 66.944C5.67512 66.944 2.63424 69.9837 2.63424 73.7305C2.63424 77.4821 5.67512 80.5186 9.42315 80.5186Z" fill="white"/>
<path d="M30.5275 80.3467C34.1785 80.3467 37.1393 77.3837 37.1393 73.7313C37.1393 70.0803 34.1785 67.1209 30.5275 67.1209C26.8741 67.1209 23.9133 70.0803 23.9133 73.7313C23.9133 77.3837 26.8741 80.3467 30.5275 80.3467Z" fill="white"/>
<path d="M51.6294 79.877C55.0239 79.877 57.7745 77.1263 57.7745 73.7307C57.7745 70.3386 55.0239 67.5856 51.6294 67.5856C48.2386 67.5856 45.4855 70.3386 45.4855 73.7307C45.4855 77.1263 48.2386 79.877 51.6294 79.877Z" fill="white"/>
<path d="M72.735 79.2915C75.8051 79.2915 78.2933 76.8013 78.2933 73.7308C78.2933 70.6619 75.8051 68.1737 72.735 68.1737C69.6636 68.1737 67.1764 70.6619 67.1764 73.7308C67.1764 76.8013 69.6636 79.2915 72.735 79.2915Z" fill="white"/>
<path d="M93.8394 78.4697C96.4556 78.4697 98.5789 76.3504 98.5789 73.7303C98.5789 71.1149 96.4556 68.992 93.8394 68.992C91.2205 68.992 89.0975 71.1149 89.0975 73.7303C89.0975 76.3504 91.2205 78.4697 93.8394 78.4697Z" fill="white"/>
<path d="M114.943 77.6523C117.108 77.6523 118.864 75.8991 118.864 73.7305C118.864 71.5655 117.108 69.8099 114.943 69.8099C112.778 69.8099 111.022 71.5655 111.022 73.7305C111.022 75.8991 112.778 77.6523 114.943 77.6523Z" fill="white"/>
<path d="M136.047 76.7148C137.695 76.7148 139.03 75.3806 139.03 73.731C139.03 72.0829 137.695 70.7483 136.047 70.7483C134.398 70.7483 133.06 72.0829 133.06 73.731C133.06 75.3806 134.398 76.7148 136.047 76.7148Z" fill="white"/>
<path d="M157.147 75.7808C158.279 75.7808 159.199 74.8637 159.199 73.731C159.199 72.6031 158.279 71.6828 157.147 71.6828C156.019 71.6828 155.102 72.6031 155.102 73.731C155.102 74.8637 156.019 75.7808 157.147 75.7808Z" fill="white"/>
<path d="M178.254 74.8452C178.869 74.8452 179.365 74.3471 179.365 73.731C179.365 73.1165 178.869 72.6208 178.254 72.6208C177.639 72.6208 177.143 73.1165 177.143 73.731C177.143 74.3471 177.639 74.8452 178.254 74.8452Z" fill="white"/>
<path d="M199.358 73.9072C199.453 73.9072 199.534 73.8302 199.534 73.731C199.534 73.6367 199.453 73.5549 199.358 73.5549C199.259 73.5549 199.182 73.6367 199.182 73.731C199.182 73.8302 199.259 73.9072 199.358 73.9072Z" fill="white"/>
<path d="M9.4232 100.572C12.5904 100.572 15.1589 98.0038 15.1589 94.8354C15.1589 91.6697 12.5904 89.1021 9.4232 89.1021C6.25629 89.1021 3.68992 91.6697 3.68992 94.8354C3.68992 98.0038 6.25629 100.572 9.4232 100.572Z" fill="white"/>
<path d="M30.5275 100.456C33.6305 100.456 36.1443 97.9385 36.1443 94.8355C36.1443 91.7328 33.6305 89.2189 30.5275 89.2189C27.4245 89.2189 24.9085 91.7328 24.9085 94.8355C24.9085 97.9385 27.4245 100.456 30.5275 100.456Z" fill="white"/>
<path d="M51.6294 100.104C54.5398 100.104 56.8963 97.7435 56.8963 94.8355C56.8963 91.9275 54.5398 89.571 51.6294 89.571C48.7226 89.571 46.3626 91.9275 46.3626 94.8355C46.3626 97.7435 48.7226 100.104 51.6294 100.104Z" fill="white"/>
<path d="M72.7351 99.5767C75.3537 99.5767 77.4733 97.4537 77.4733 94.8348C77.4733 92.2162 75.3537 90.0953 72.7351 90.0953C70.1161 90.0953 67.9956 92.2162 67.9956 94.8348C67.9956 97.4537 70.1161 99.5767 72.7351 99.5767Z" fill="white"/>
<path d="M93.8394 98.9326C96.1 98.9326 97.9338 97.0988 97.9338 94.8358C97.9338 92.5752 96.1 90.739 93.8394 90.739C91.5764 90.739 89.7426 92.5752 89.7426 94.8358C89.7426 97.0988 91.5764 98.9326 93.8394 98.9326Z" fill="white"/>
<path d="M114.943 98.1152C116.752 98.1152 118.219 96.6454 118.219 94.836C118.219 93.027 116.752 91.5604 114.943 91.5604C113.133 91.5604 111.664 93.027 111.664 94.836C111.664 96.6454 113.133 98.1152 114.943 98.1152Z" fill="white"/>
<path d="M136.047 97.2935C137.402 97.2935 138.504 96.1945 138.504 94.8355C138.504 93.48 137.402 92.3778 136.047 92.3778C134.688 92.3778 133.589 93.48 133.589 94.8355C133.589 96.1945 134.688 97.2935 136.047 97.2935Z" fill="white"/>
<path d="M157.147 96.4746C158.055 96.4746 158.787 95.7409 158.787 94.8357C158.787 93.9306 158.055 93.1993 157.147 93.1993C156.245 93.1993 155.511 93.9306 155.511 94.8357C155.511 95.7409 156.245 96.4746 157.147 96.4746Z" fill="white"/>
<path d="M178.254 95.5376C178.642 95.5376 178.956 95.2237 178.956 94.8352C178.956 94.4467 178.642 94.1332 178.254 94.1332C177.866 94.1332 177.549 94.4467 177.549 94.8352C177.549 95.2237 177.866 95.5376 178.254 95.5376Z" fill="white"/>
<path d="M199.358 94.8945C199.391 94.8945 199.418 94.8679 199.418 94.8351C199.418 94.8049 199.391 94.7781 199.358 94.7781C199.325 94.7781 199.301 94.8049 199.301 94.8351C199.301 94.8679 199.325 94.8945 199.358 94.8945Z" fill="white"/>
<path d="M9.42312 120.682C12.0421 120.682 14.165 118.559 14.165 115.939C14.165 113.324 12.0421 111.201 9.42312 111.201C6.80449 111.201 4.68367 113.324 4.68367 115.939C4.68367 118.559 6.80449 120.682 9.42312 120.682Z" fill="white"/>
<path d="M30.5276 120.564C33.0799 120.564 35.1503 118.492 35.1503 115.938C35.1503 113.386 33.0799 111.317 30.5276 111.317C27.9728 111.317 25.9025 113.386 25.9025 115.938C25.9025 118.492 27.9728 120.564 30.5276 120.564Z" fill="white"/>
<path d="M51.6294 120.269C54.0208 120.269 55.9607 118.331 55.9607 115.939C55.9607 113.547 54.0208 111.608 51.6294 111.608C49.238 111.608 47.2994 113.547 47.2994 115.939C47.2994 118.331 49.238 120.269 51.6294 120.269Z" fill="white"/>
<path d="M72.735 119.86C74.9012 119.86 76.6544 118.104 76.6544 115.939C76.6544 113.773 74.9012 112.018 72.735 112.018C70.5676 112.018 68.8119 113.773 68.8119 115.939C68.8119 118.104 70.5676 119.86 72.735 119.86Z" fill="white"/>
<path d="M93.8395 119.215C95.6473 119.215 97.1148 117.749 97.1148 115.938C97.1148 114.129 95.6473 112.662 93.8395 112.662C92.0289 112.662 90.5615 114.129 90.5615 115.938C90.5615 117.749 92.0289 119.215 93.8395 119.215Z" fill="white"/>
<path d="M114.943 118.572C116.397 118.572 117.574 117.393 117.574 115.938C117.574 114.485 116.397 113.306 114.943 113.306C113.486 113.306 112.309 114.485 112.309 115.938C112.309 117.393 113.486 118.572 114.943 118.572Z" fill="white"/>
<path d="M136.047 117.812C137.08 117.812 137.919 116.972 137.919 115.938C137.919 114.906 137.08 114.066 136.047 114.066C135.01 114.066 134.174 114.906 134.174 115.938C134.174 116.972 135.01 117.812 136.047 117.812Z" fill="white"/>
<path d="M157.147 116.993C157.733 116.993 158.204 116.522 158.204 115.939C158.204 115.357 157.733 114.888 157.147 114.888C156.568 114.888 156.096 115.357 156.096 115.939C156.096 116.522 156.568 116.993 157.147 116.993Z" fill="white"/>
<path d="M178.254 116.171C178.383 116.171 178.487 116.07 178.487 115.938C178.487 115.81 178.383 115.706 178.254 115.706C178.126 115.706 178.021 115.81 178.021 115.938C178.021 116.07 178.126 116.171 178.254 116.171Z" fill="white"/>
<path d="M9.42317 140.731C11.4586 140.731 13.1094 139.079 13.1094 137.042C13.1094 135.009 11.4586 133.357 9.42317 133.357C7.38775 133.357 5.73696 135.009 5.73696 137.042C5.73696 139.079 7.38775 140.731 9.42317 140.731Z" fill="white"/>
<path d="M30.5275 140.671C32.5315 140.671 34.1551 139.047 34.1551 137.043C34.1551 135.039 32.5315 133.416 30.5275 133.416C28.5246 133.416 26.8995 135.039 26.8995 137.043C26.8995 139.047 28.5246 140.671 30.5275 140.671Z" fill="white"/>
<path d="M51.6296 140.439C53.5052 140.439 55.024 138.919 55.024 137.043C55.024 135.171 53.5052 133.648 51.6296 133.648C49.7572 133.648 48.2351 135.171 48.2351 137.043C48.2351 138.919 49.7572 140.439 51.6296 140.439Z" fill="white"/>
<path d="M72.735 140.029C74.3819 140.029 75.7176 138.691 75.7176 137.043C75.7176 135.395 74.3819 134.06 72.735 134.06C71.0865 134.06 69.7511 135.395 69.7511 137.043C69.7511 138.691 71.0865 140.029 72.735 140.029Z" fill="white"/>
<path d="M93.8394 139.5C95.196 139.5 96.2946 138.402 96.2946 137.043C96.2946 135.687 95.196 134.585 93.8394 134.585C92.4803 134.585 91.3814 135.687 91.3814 137.043C91.3814 138.402 92.4803 139.5 93.8394 139.5Z" fill="white"/>
<path d="M114.943 138.915C115.976 138.915 116.812 138.076 116.812 137.043C116.812 136.009 115.976 135.17 114.943 135.17C113.91 135.17 113.071 136.009 113.071 137.043C113.071 138.076 113.91 138.915 114.943 138.915Z" fill="white"/>
<path d="M136.047 138.214C136.692 138.214 137.217 137.688 137.217 137.043C137.217 136.398 136.692 135.876 136.047 135.876C135.399 135.876 134.873 136.398 134.873 137.043C134.873 137.688 135.399 138.214 136.047 138.214Z" fill="white"/>
<path d="M157.147 137.453C157.374 137.453 157.559 137.271 157.559 137.043C157.559 136.816 157.374 136.634 157.147 136.634C156.923 136.634 156.741 136.816 156.741 137.043C156.741 137.271 156.923 137.453 157.147 137.453Z" fill="white"/>
<path d="M9.4231 160.84C10.9105 160.84 12.1143 159.633 12.1143 158.145C12.1143 156.659 10.9105 155.455 9.4231 155.455C7.93595 155.455 6.73071 156.659 6.73071 158.145C6.73071 159.633 7.93595 160.84 9.4231 160.84Z" fill="white"/>
<path d="M30.5276 160.78C31.9798 160.78 33.1614 159.601 33.1614 158.146C33.1614 156.693 31.9798 155.513 30.5276 155.513C29.073 155.513 27.8949 156.693 27.8949 158.146C27.8949 159.601 29.073 160.78 30.5276 160.78Z" fill="white"/>
<path d="M51.6295 160.548C52.9569 160.548 54.0301 159.472 54.0301 158.146C54.0301 156.823 52.9569 155.749 51.6295 155.749C50.3054 155.749 49.2324 156.823 49.2324 158.146C49.2324 159.472 50.3054 160.548 51.6295 160.548Z" fill="white"/>
<path d="M72.7351 160.196C73.8666 160.196 74.7821 159.279 74.7821 158.146C74.7821 157.018 73.8666 156.098 72.7351 156.098C71.6036 156.098 70.6877 157.018 70.6877 158.146C70.6877 159.279 71.6036 160.196 72.7351 160.196Z" fill="white"/>
<path d="M93.8394 159.786C94.7434 159.786 95.4759 159.051 95.4759 158.146C95.4759 157.242 94.7434 156.511 93.8394 156.511C92.9328 156.511 92.2003 157.242 92.2003 158.146C92.2003 159.051 92.9328 159.786 93.8394 159.786Z" fill="white"/>
<path d="M114.943 159.201C115.525 159.201 115.994 158.73 115.994 158.147C115.994 157.565 115.525 157.096 114.943 157.096C114.361 157.096 113.889 157.565 113.889 158.147C113.889 158.73 114.361 159.201 114.943 159.201Z" fill="white"/>
<path d="M136.047 158.555C136.271 158.555 136.456 158.373 136.456 158.146C136.456 157.919 136.271 157.738 136.047 157.738C135.82 157.738 135.635 157.919 135.635 158.146C135.635 158.373 135.82 158.555 136.047 158.555Z" fill="white"/>
<path d="M157.147 158.207C157.183 158.207 157.207 158.18 157.207 158.146C157.207 158.113 157.183 158.09 157.147 158.09C157.118 158.09 157.091 158.113 157.091 158.146C157.091 158.18 157.118 158.207 157.147 158.207Z" fill="white"/>
<path d="M9.42318 180.889C10.3271 180.889 11.062 180.155 11.062 179.25C11.062 178.345 10.3271 177.614 9.42318 177.614C8.51924 177.614 7.78434 178.345 7.78434 179.25C7.78434 180.155 8.51924 180.889 9.42318 180.889Z" fill="white"/>
<path d="M30.5275 180.83C31.4 180.83 32.1081 180.123 32.1081 179.25C32.1081 178.379 31.4 177.671 30.5275 177.671C29.6561 177.671 28.9468 178.379 28.9468 179.25C28.9468 180.123 29.6561 180.83 30.5275 180.83Z" fill="white"/>
<path d="M51.6294 180.657C52.4053 180.657 53.035 180.027 53.035 179.25C53.035 178.477 52.4053 177.847 51.6294 177.847C50.8536 177.847 50.2274 178.477 50.2274 179.25C50.2274 180.027 50.8536 180.657 51.6294 180.657Z" fill="white"/>
<path d="M72.7351 180.361C73.3496 180.361 73.8456 179.865 73.8456 179.25C73.8456 178.635 73.3496 178.14 72.7351 178.14C72.119 178.14 71.6233 178.635 71.6233 179.25C71.6233 179.865 72.119 180.361 72.7351 180.361Z" fill="white"/>
<path d="M93.8394 179.953C94.2276 179.953 94.5391 179.639 94.5391 179.251C94.5391 178.866 94.2276 178.548 93.8394 178.548C93.4521 178.548 93.137 178.866 93.137 179.251C93.137 179.639 93.4521 179.953 93.8394 179.953Z" fill="white"/>
<path d="M114.943 179.486C115.071 179.486 115.176 179.379 115.176 179.25C115.176 179.122 115.071 179.017 114.943 179.017C114.814 179.017 114.707 179.122 114.707 179.25C114.707 179.379 114.814 179.486 114.943 179.486Z" fill="white"/>
<path d="M9.4231 201C9.77876 201 10.0669 200.709 10.0669 200.354C10.0669 199.999 9.77876 199.709 9.4231 199.709C9.06744 199.709 8.77808 199.999 8.77808 200.354C8.77808 200.709 9.06744 201 9.4231 201Z" fill="white"/>
<path d="M30.5276 200.939C30.8519 200.939 31.1107 200.681 31.1107 200.355C31.1107 200.032 30.8519 199.772 30.5276 199.772C30.2044 199.772 29.9419 200.032 29.9419 200.355C29.9419 200.681 30.2044 200.939 30.5276 200.939Z" fill="white"/>
<path d="M51.6295 200.766C51.8571 200.766 52.0413 200.581 52.0413 200.354C52.0413 200.13 51.8571 199.945 51.6295 199.945C51.4056 199.945 51.2213 200.13 51.2213 200.354C51.2213 200.581 51.4056 200.766 51.6295 200.766Z" fill="white"/>
<path d="M72.735 200.531C72.8306 200.531 72.91 200.453 72.91 200.355C72.91 200.259 72.8306 200.179 72.735 200.179C72.6383 200.179 72.56 200.259 72.56 200.355C72.56 200.453 72.6383 200.531 72.735 200.531Z" fill="white"/>
<path d="M93.8394 200.414C93.872 200.414 93.8976 200.387 93.8976 200.355C93.8976 200.324 93.872 200.297 93.8394 200.297C93.8078 200.297 93.7809 200.324 93.7809 200.355C93.7809 200.387 93.8078 200.414 93.8394 200.414Z" fill="white"/>
</svg>
