<svg width="200" height="369" viewBox="0 0 200 369" fill="none" xmlns="http://www.w3.org/2000/svg">
<path d="M74.6534 1.72168C74.7107 1.72168 74.7559 1.67949 74.7559 1.62222C74.7559 1.56495 74.7107 1.51975 74.6534 1.51975C74.5992 1.51975 74.554 1.56495 74.554 1.62222C74.554 1.67949 74.5992 1.72168 74.6534 1.72168Z" fill="#256186"/>
<path d="M111.171 2.22803C111.508 2.22803 111.78 1.95976 111.78 1.62217C111.78 1.28457 111.508 1.01329 111.171 1.01329C110.836 1.01329 110.562 1.28457 110.562 1.62217C110.562 1.95976 110.836 2.22803 111.171 2.22803Z" fill="#256186"/>
<path d="M147.688 2.93921C148.414 2.93921 149.005 2.34842 149.005 1.62199C149.005 0.895567 148.414 0.30478 147.688 0.30478C146.962 0.30478 146.371 0.895567 146.371 1.62199C146.371 2.34842 146.962 2.93921 147.688 2.93921Z" fill="#256186"/>
<path d="M184.205 3.24048C185.101 3.24048 185.824 2.51707 185.824 1.62184C185.824 0.726617 185.101 0.000187635 184.205 0.000187635C183.31 0.000187635 182.587 0.726617 182.587 1.62184C182.587 2.51707 183.31 3.24048 184.205 3.24048Z" fill="#256186"/>
<path d="M38.1362 38.3413C38.2477 38.3413 38.3382 38.2509 38.3382 38.1393C38.3382 38.0278 38.2477 37.9344 38.1362 37.9344C38.0246 37.9344 37.9373 38.0278 37.9373 38.1393C37.9373 38.2509 38.0246 38.3413 38.1362 38.3413Z" fill="#256186"/>
<path d="M74.6533 39.7607C75.5486 39.7607 76.275 39.0343 76.275 38.1391C76.275 37.2439 75.5486 36.5174 74.6533 36.5174C73.7581 36.5174 73.0347 37.2439 73.0347 38.1391C73.0347 39.0343 73.7581 39.7607 74.6533 39.7607Z" fill="#256186"/>
<path d="M111.171 41.2771C112.907 41.2771 114.312 39.8725 114.312 38.1393C114.312 36.4061 112.907 34.9984 111.171 34.9984C109.438 34.9984 108.03 36.4061 108.03 38.1393C108.03 39.8725 109.438 41.2771 111.171 41.2771Z" fill="#256186"/>
<path d="M147.688 42.3923C150.036 42.3923 151.941 40.4873 151.941 38.1393C151.941 35.7882 150.036 33.8862 147.688 33.8862C145.337 33.8862 143.438 35.7882 143.438 38.1393C143.438 40.4873 145.337 42.3923 147.688 42.3923Z" fill="#256186"/>
<path d="M184.205 42.7964C186.776 42.7964 188.862 40.7106 188.862 38.1394C188.862 35.5653 186.776 33.4794 184.205 33.4794C181.631 33.4794 179.548 35.5653 179.548 38.1394C179.548 40.7106 181.631 42.7964 184.205 42.7964Z" fill="#256186"/>
<path d="M1.62204 74.7561C1.6763 74.7561 1.72153 74.7109 1.72153 74.6566C1.72153 74.5994 1.6763 74.5541 1.62204 74.5541C1.56477 74.5541 1.51953 74.5994 1.51953 74.6566C1.51953 74.7109 1.56477 74.7561 1.62204 74.7561Z" fill="#256186"/>
<path d="M38.1359 76.2754C39.0312 76.2754 39.7576 75.549 39.7576 74.6568C39.7576 73.7615 39.0312 73.0351 38.1359 73.0351C37.2437 73.0351 36.5173 73.7615 36.5173 74.6568C36.5173 75.549 37.2437 76.2754 38.1359 76.2754Z" fill="#256186"/>
<path d="M74.6535 78.5029C76.7786 78.5029 78.5027 76.7818 78.5027 74.6568C78.5027 72.5287 76.7786 70.8076 74.6535 70.8076C72.5285 70.8076 70.8074 72.5287 70.8074 74.6568C70.8074 76.7818 72.5285 78.5029 74.6535 78.5029Z" fill="#256186"/>
<path d="M111.171 80.4287C114.36 80.4287 116.946 77.8425 116.946 74.6565C116.946 71.4675 114.36 68.8843 111.171 68.8843C107.985 68.8843 105.398 71.4675 105.398 74.6565C105.398 77.8425 107.985 80.4287 111.171 80.4287Z" fill="#256186"/>
<path d="M147.688 81.8457C151.658 81.8457 154.877 78.6265 154.877 74.6568C154.877 70.684 151.658 67.4649 147.688 67.4649C143.715 67.4649 140.499 70.684 140.499 74.6568C140.499 78.6265 143.715 81.8457 147.688 81.8457Z" fill="#256186"/>
<path d="M184.206 82.3518C188.456 82.3518 191.901 78.9066 191.901 74.6565C191.901 70.4035 188.456 66.9582 184.206 66.9582C179.956 66.9582 176.51 70.4035 176.51 74.6565C176.51 78.9066 179.956 82.3518 184.206 82.3518Z" fill="#256186"/>
<path d="M1.62182 111.78C1.9564 111.78 2.22768 111.509 2.22768 111.171C2.22768 110.836 1.9564 110.565 1.62182 110.565C1.28423 110.565 1.01294 110.836 1.01294 111.171C1.01294 111.509 1.28423 111.78 1.62182 111.78Z" fill="#256186"/>
<path d="M38.1363 114.312C39.8695 114.312 41.2772 112.904 41.2772 111.171C41.2772 109.438 39.8695 108.033 38.1363 108.033C36.4062 108.033 34.9985 109.438 34.9985 111.171C34.9985 112.904 36.4062 114.312 38.1363 114.312Z" fill="#256186"/>
<path d="M74.6534 116.943C77.8424 116.943 80.4256 114.36 80.4256 111.171C80.4256 107.985 77.8424 105.402 74.6534 105.402C71.4674 105.402 68.8811 107.985 68.8811 111.171C68.8811 114.36 71.4674 116.943 74.6534 116.943Z" fill="#256186"/>
<path d="M111.171 119.273C115.647 119.273 119.273 115.647 119.273 111.171C119.273 106.698 115.647 103.072 111.171 103.072C106.698 103.072 103.072 106.698 103.072 111.171C103.072 115.647 106.698 119.273 111.171 119.273Z" fill="#256186"/>
<path d="M147.688 121.097C153.168 121.097 157.614 116.654 157.614 111.171C157.614 105.691 153.168 101.248 147.688 101.248C142.205 101.248 137.765 105.691 137.765 111.171C137.765 116.654 142.205 121.097 147.688 121.097Z" fill="#256186"/>
<path d="M184.206 121.905C190.135 121.905 194.939 117.1 194.939 111.171C194.939 105.245 190.135 100.437 184.206 100.437C178.277 100.437 173.472 105.245 173.472 111.171C173.472 117.1 178.277 121.905 184.206 121.905Z" fill="#256186"/>
<path d="M1.62169 149.005C2.34812 149.005 2.93585 148.418 2.93585 147.691C2.93585 146.962 2.34812 146.371 1.62169 146.371C0.895267 146.371 0.304443 146.962 0.304443 147.691C0.304443 148.418 0.895267 149.005 1.62169 149.005Z" fill="#256186"/>
<path d="M38.136 151.941C40.4841 151.941 42.3891 150.036 42.3891 147.691C42.3891 145.34 40.4841 143.435 38.136 143.435C35.7909 143.435 33.886 145.34 33.886 147.691C33.886 150.036 35.7909 151.941 38.136 151.941Z" fill="#256186"/>
<path d="M74.6536 154.878C78.6263 154.878 81.8455 151.658 81.8455 147.691C81.8455 143.719 78.6263 140.499 74.6536 140.499C70.6838 140.499 67.4646 143.719 67.4646 147.691C67.4646 151.658 70.6838 154.878 74.6536 154.878Z" fill="#256186"/>
<path d="M111.171 157.612C116.654 157.612 121.094 153.171 121.094 147.691C121.094 142.208 116.654 137.765 111.171 137.765C105.691 137.765 101.248 142.208 101.248 147.691C101.248 153.171 105.691 157.612 111.171 157.612Z" fill="#256186"/>
<path d="M147.688 160.042C154.509 160.042 160.041 154.512 160.041 147.691C160.041 140.867 154.509 135.336 147.688 135.336C140.867 135.336 135.336 140.867 135.336 147.691C135.336 154.512 140.867 160.042 147.688 160.042Z" fill="#256186"/>
<path d="M184.205 161.36C191.756 161.36 197.875 155.238 197.875 147.691C197.875 140.14 191.756 134.018 184.205 134.018C176.655 134.018 170.536 140.14 170.536 147.691C170.536 155.238 176.655 161.36 184.205 161.36Z" fill="#256186"/>
<path d="M1.62169 185.827C2.51692 185.827 3.24029 185.102 3.24029 184.207C3.24029 183.312 2.51692 182.585 1.62169 182.585C0.726466 182.585 0 183.312 0 184.207C0 185.102 0.726466 185.827 1.62169 185.827Z" fill="#256186"/>
<path d="M38.136 188.865C40.7101 188.865 42.7959 186.78 42.7959 184.207C42.7959 181.634 40.7101 179.548 38.136 179.548C35.5648 179.548 33.479 181.634 33.479 184.207C33.479 186.78 35.5648 188.865 38.136 188.865Z" fill="#256186"/>
<path d="M74.6535 191.903C78.9035 191.903 82.3518 188.456 82.3518 184.207C82.3518 179.956 78.9035 176.51 74.6535 176.51C70.4034 176.51 66.9612 179.956 66.9612 184.207C66.9612 188.456 70.4034 191.903 74.6535 191.903Z" fill="#256186"/>
<path d="M111.171 194.94C117.1 194.94 121.905 190.135 121.905 184.207C121.905 178.278 117.1 173.472 111.171 173.472C105.245 173.472 100.437 178.278 100.437 184.207C100.437 190.135 105.245 194.94 111.171 194.94Z" fill="#256186"/>
<path d="M147.688 197.875C155.239 197.875 161.358 191.755 161.358 184.207C161.358 176.656 155.239 170.537 147.688 170.537C140.14 170.537 134.019 176.656 134.019 184.207C134.019 191.755 140.14 197.875 147.688 197.875Z" fill="#256186"/>
<path d="M184.205 200.003C192.932 200.003 200 192.929 200 184.207C200 175.482 192.932 168.409 184.205 168.409C175.479 168.409 168.411 175.482 168.411 184.207C168.411 192.929 175.479 200.003 184.205 200.003Z" fill="#256186"/>
<path d="M1.62169 222.04C2.34812 222.04 2.93585 221.449 2.93585 220.723C2.93585 219.996 2.34812 219.409 1.62169 219.409C0.895267 219.409 0.304443 219.996 0.304443 220.723C0.304443 221.449 0.895267 222.04 1.62169 222.04Z" fill="#256186"/>
<path d="M38.136 224.975C40.4841 224.975 42.3891 223.07 42.3891 220.723C42.3891 218.375 40.4841 216.47 38.136 216.47C35.7909 216.47 33.886 218.375 33.886 220.723C33.886 223.07 35.7909 224.975 38.136 224.975Z" fill="#256186"/>
<path d="M74.6536 227.912C78.6263 227.912 81.8455 224.693 81.8455 220.723C81.8455 216.754 78.6263 213.533 74.6536 213.533C70.6838 213.533 67.4646 216.754 67.4646 220.723C67.4646 224.693 70.6838 227.912 74.6536 227.912Z" fill="#256186"/>
<path d="M111.171 230.847C116.765 230.847 121.299 226.317 121.299 220.722C121.299 215.131 116.765 210.596 111.171 210.596C105.579 210.596 101.046 215.131 101.046 220.722C101.046 226.317 105.579 230.847 111.171 230.847Z" fill="#256186"/>
<path d="M147.688 233.28C154.624 233.28 160.245 227.659 160.245 220.723C160.245 213.787 154.624 208.168 147.688 208.168C140.755 208.168 135.134 213.787 135.134 220.723C135.134 227.659 140.755 233.28 147.688 233.28Z" fill="#256186"/>
<path d="M184.206 234.597C191.868 234.597 198.08 228.385 198.08 220.723C198.08 213.061 191.868 206.85 184.206 206.85C176.543 206.85 170.331 213.061 170.331 220.723C170.331 228.385 176.543 234.597 184.206 234.597Z" fill="#256186"/>
<path d="M1.62203 257.948C2.01388 257.948 2.33033 257.631 2.33033 257.24C2.33033 256.848 2.01388 256.532 1.62203 256.532C1.23018 256.532 0.910645 256.848 0.910645 257.24C0.910645 257.631 1.23018 257.948 1.62203 257.948Z" fill="#256186"/>
<path d="M38.136 260.481C39.9264 260.481 41.3762 259.03 41.3762 257.24C41.3762 255.45 39.9264 254 38.136 254C36.3485 254 34.8987 255.45 34.8987 257.24C34.8987 259.03 36.3485 260.481 38.136 260.481Z" fill="#256186"/>
<path d="M74.6534 263.215C77.954 263.215 80.6306 260.541 80.6306 257.24C80.6306 253.939 77.954 251.266 74.6534 251.266C71.3559 251.266 68.6792 253.939 68.6792 257.24C68.6792 260.541 71.3559 263.215 74.6534 263.215Z" fill="#256186"/>
<path d="M111.171 265.544C115.759 265.544 119.475 261.824 119.475 257.24C119.475 252.652 115.759 248.936 111.171 248.936C106.586 248.936 102.87 252.652 102.87 257.24C102.87 261.824 106.586 265.544 111.171 265.544Z" fill="#256186"/>
<path d="M147.688 267.365C153.279 267.365 157.813 262.831 157.813 257.24C157.813 251.649 153.279 247.112 147.688 247.112C142.094 247.112 137.56 251.649 137.56 257.24C137.56 262.831 142.094 267.365 147.688 267.365Z" fill="#256186"/>
<path d="M184.205 268.176C190.246 268.176 195.141 263.281 195.141 257.241C195.141 251.199 190.246 246.305 184.205 246.305C178.165 246.305 173.27 251.199 173.27 257.241C173.27 263.281 178.165 268.176 184.205 268.176Z" fill="#256186"/>
<path d="M1.62204 293.858C1.6763 293.858 1.72153 293.815 1.72153 293.758C1.72153 293.7 1.6763 293.655 1.62204 293.655C1.56477 293.655 1.51953 293.7 1.51953 293.758C1.51953 293.815 1.56477 293.858 1.62204 293.858Z" fill="#256186"/>
<path d="M38.1361 295.479C39.0855 295.479 39.8572 294.706 39.8572 293.757C39.8572 292.808 39.0855 292.036 38.1361 292.036C37.1896 292.036 36.418 292.808 36.418 293.757C36.418 294.706 37.1896 295.479 38.1361 295.479Z" fill="#256186"/>
<path d="M74.6534 297.809C76.8899 297.809 78.7045 295.995 78.7045 293.758C78.7045 291.522 76.8899 289.706 74.6534 289.706C72.4168 289.706 70.6052 291.522 70.6052 293.758C70.6052 295.995 72.4168 297.809 74.6534 297.809Z" fill="#256186"/>
<path d="M111.171 299.732C114.471 299.732 117.145 297.056 117.145 293.758C117.145 290.457 114.471 287.783 111.171 287.783C107.873 287.783 105.197 290.457 105.197 293.758C105.197 297.056 107.873 299.732 111.171 299.732Z" fill="#256186"/>
<path d="M147.688 301.148C151.769 301.148 155.082 297.838 155.082 293.757C155.082 289.676 151.769 286.363 147.688 286.363C143.604 286.363 140.297 289.676 140.297 293.757C140.297 297.838 143.604 301.148 147.688 301.148Z" fill="#256186"/>
<path d="M184.205 301.655C188.567 301.655 192.103 298.119 192.103 293.758C192.103 289.396 188.567 285.857 184.205 285.857C179.844 285.857 176.308 289.396 176.308 293.758C176.308 298.119 179.844 301.655 184.205 301.655Z" fill="#256186"/>
<path d="M38.1362 330.576C38.305 330.576 38.4437 330.441 38.4437 330.275C38.4437 330.106 38.305 329.971 38.1362 329.971C37.9674 329.971 37.8318 330.106 37.8318 330.275C37.8318 330.441 37.9674 330.576 38.1362 330.576Z" fill="#256186"/>
<path d="M74.6535 331.996C75.606 331.996 76.3776 331.225 76.3776 330.274C76.3776 329.322 75.606 328.551 74.6535 328.551C73.704 328.551 72.9324 329.322 72.9324 330.274C72.9324 331.225 73.704 331.996 74.6535 331.996Z" fill="#256186"/>
<path d="M111.171 333.615C113.019 333.615 114.514 332.119 114.514 330.274C114.514 328.427 113.019 326.931 111.171 326.931C109.326 326.931 107.831 328.427 107.831 330.274C107.831 332.119 109.326 333.615 111.171 333.615Z" fill="#256186"/>
<path d="M147.688 334.729C150.148 334.729 152.143 332.734 152.143 330.274C152.143 327.812 150.148 325.82 147.688 325.82C145.226 325.82 143.233 327.812 143.233 330.274C143.233 332.734 145.226 334.729 147.688 334.729Z" fill="#256186"/>
<path d="M184.205 335.134C186.891 335.134 189.064 332.958 189.064 330.274C189.064 327.59 186.891 325.413 184.205 325.413C181.519 325.413 179.346 327.59 179.346 330.274C179.346 332.958 181.519 335.134 184.205 335.134Z" fill="#256186"/>
<path d="M74.6534 366.891C74.7107 366.891 74.7559 366.846 74.7559 366.792C74.7559 366.735 74.7107 366.69 74.6534 366.69C74.5992 366.69 74.554 366.735 74.554 366.792C74.554 366.846 74.5992 366.891 74.6534 366.891Z" fill="#256186"/>
<path d="M111.171 367.6C111.62 367.6 111.981 367.239 111.981 366.792C111.981 366.343 111.62 365.981 111.171 365.981C110.724 365.981 110.363 366.343 110.363 366.792C110.363 367.239 110.724 367.6 111.171 367.6Z" fill="#256186"/>
<path d="M147.688 368.309C148.526 368.309 149.207 367.631 149.207 366.792C149.207 365.951 148.526 365.273 147.688 365.273C146.847 365.273 146.169 365.951 146.169 366.792C146.169 367.631 146.847 368.309 147.688 368.309Z" fill="#256186"/>
<path d="M184.205 368.613C185.212 368.613 186.026 367.795 186.026 366.792C186.026 365.786 185.212 364.968 184.205 364.968C183.199 364.968 182.382 365.786 182.382 366.792C182.382 367.795 183.199 368.613 184.205 368.613Z" fill="#256186"/>
</svg>
