<svg width="280" height="517" viewBox="0 0 280 517" fill="none" xmlns="http://www.w3.org/2000/svg">
<path d="M104.515 2.40967C104.595 2.40967 104.658 2.35061 104.658 2.27043C104.658 2.19025 104.595 2.12697 104.515 2.12697C104.439 2.12697 104.376 2.19025 104.376 2.27043C104.376 2.35061 104.439 2.40967 104.515 2.40967Z" fill="#FFC107"/>
<path d="M155.64 3.11841C156.112 3.11841 156.492 2.74283 156.492 2.2702C156.492 1.79757 156.112 1.41777 155.64 1.41777C155.171 1.41777 154.787 1.79757 154.787 2.2702C154.787 2.74283 155.171 3.11841 155.64 3.11841Z" fill="#FFC107"/>
<path d="M206.763 4.11377C207.78 4.11377 208.607 3.28667 208.607 2.26967C208.607 1.25267 207.78 0.425567 206.763 0.425567C205.746 0.425567 204.919 1.25267 204.919 2.26967C204.919 3.28667 205.746 4.11377 206.763 4.11377Z" fill="#FFC107"/>
<path d="M257.888 4.53638C259.141 4.53638 260.154 3.5236 260.154 2.27028C260.154 1.01697 259.141 -3.33786e-05 257.888 -3.33786e-05C256.634 -3.33786e-05 255.621 1.01697 255.621 2.27028C255.621 3.5236 256.634 4.53638 257.888 4.53638Z" fill="#FFC107"/>
<path d="M53.3905 53.6772C53.5466 53.6772 53.6733 53.5506 53.6733 53.3945C53.6733 53.2384 53.5466 53.1075 53.3905 53.1075C53.2343 53.1075 53.112 53.2384 53.112 53.3945C53.112 53.5506 53.2343 53.6772 53.3905 53.6772Z" fill="#FFC107"/>
<path d="M104.515 55.6646C105.768 55.6646 106.785 54.6475 106.785 53.3942C106.785 52.1409 105.768 51.1239 104.515 51.1239C103.262 51.1239 102.249 52.1409 102.249 53.3942C102.249 54.6475 103.262 55.6646 104.515 55.6646Z" fill="#FFC107"/>
<path d="M155.639 57.7874C158.07 57.7874 160.036 55.8209 160.036 53.3944C160.036 50.968 158.07 48.9972 155.639 48.9972C153.213 48.9972 151.242 50.968 151.242 53.3944C151.242 55.8209 153.213 57.7874 155.639 57.7874Z" fill="#FFC107"/>
<path d="M206.763 59.3486C210.051 59.3486 212.718 56.6817 212.718 53.3943C212.718 50.1028 210.051 47.44 206.763 47.44C203.472 47.44 200.813 50.1028 200.813 53.3943C200.813 56.6817 203.472 59.3486 206.763 59.3486Z" fill="#FFC107"/>
<path d="M257.888 59.9143C261.487 59.9143 264.407 56.9941 264.407 53.3946C264.407 49.7907 261.487 46.8706 257.888 46.8706C254.284 46.8706 251.368 49.7907 251.368 53.3946C251.368 56.9941 254.284 59.9143 257.888 59.9143Z" fill="#FFC107"/>
<path d="M2.27089 104.658C2.34685 104.658 2.41018 104.595 2.41018 104.519C2.41018 104.439 2.34685 104.376 2.27089 104.376C2.19072 104.376 2.12738 104.439 2.12738 104.519C2.12738 104.595 2.19072 104.658 2.27089 104.658Z" fill="#FFC107"/>
<path d="M53.3901 106.785C54.6434 106.785 55.6605 105.768 55.6605 104.519C55.6605 103.266 54.6434 102.249 53.3901 102.249C52.141 102.249 51.1241 103.266 51.1241 104.519C51.1241 105.768 52.141 106.785 53.3901 106.785Z" fill="#FFC107"/>
<path d="M104.515 109.903C107.49 109.903 109.904 107.494 109.904 104.519C109.904 101.539 107.49 99.1299 104.515 99.1299C101.54 99.1299 99.1302 101.539 99.1302 104.519C99.1302 107.494 101.54 109.903 104.515 109.903Z" fill="#FFC107"/>
<path d="M155.639 112.6C160.104 112.6 163.724 108.979 163.724 104.519C163.724 100.054 160.104 96.4374 155.639 96.4374C151.179 96.4374 147.558 100.054 147.558 104.519C147.558 108.979 151.179 112.6 155.639 112.6Z" fill="#FFC107"/>
<path d="M206.763 114.583C212.321 114.583 216.828 110.077 216.828 104.519C216.828 98.9572 212.321 94.4503 206.763 94.4503C201.201 94.4503 196.699 98.9572 196.699 104.519C196.699 110.077 201.201 114.583 206.763 114.583Z" fill="#FFC107"/>
<path d="M257.888 115.292C263.838 115.292 268.661 110.469 268.661 104.519C268.661 98.5645 263.838 93.7411 257.888 93.7411C251.938 93.7411 247.115 98.5645 247.115 104.519C247.115 110.469 251.938 115.292 257.888 115.292Z" fill="#FFC107"/>
<path d="M2.27071 156.491C2.73912 156.491 3.11891 156.112 3.11891 155.639C3.11891 155.171 2.73912 154.791 2.27071 154.791C1.79807 154.791 1.41827 155.171 1.41827 155.639C1.41827 156.112 1.79807 156.491 2.27071 156.491Z" fill="#FFC107"/>
<path d="M53.3908 160.036C55.8173 160.036 57.788 158.066 57.788 155.639C57.788 153.213 55.8173 151.246 53.3908 151.246C50.9686 151.246 48.9979 153.213 48.9979 155.639C48.9979 158.066 50.9686 160.036 53.3908 160.036Z" fill="#FFC107"/>
<path d="M104.515 163.72C108.98 163.72 112.596 160.104 112.596 155.639C112.596 151.178 108.98 147.562 104.515 147.562C100.054 147.562 96.4337 151.178 96.4337 155.639C96.4337 160.104 100.054 163.72 104.515 163.72Z" fill="#FFC107"/>
<path d="M155.639 166.982C161.906 166.982 166.982 161.905 166.982 155.639C166.982 149.376 161.906 144.3 155.639 144.3C149.377 144.3 144.3 149.376 144.3 155.639C144.3 161.905 149.377 166.982 155.639 166.982Z" fill="#FFC107"/>
<path d="M206.764 169.535C214.435 169.535 220.66 163.315 220.66 155.639C220.66 147.967 214.435 141.747 206.764 141.747C199.087 141.747 192.872 147.967 192.872 155.639C192.872 163.315 199.087 169.535 206.764 169.535Z" fill="#FFC107"/>
<path d="M257.888 170.667C266.189 170.667 272.915 163.94 272.915 155.639C272.915 147.343 266.189 140.612 257.888 140.612C249.588 140.612 242.861 147.343 242.861 155.639C242.861 163.94 249.588 170.667 257.888 170.667Z" fill="#FFC107"/>
<path d="M2.27018 208.607C3.28718 208.607 4.11 207.784 4.11 206.767C4.11 205.746 3.28718 204.919 2.27018 204.919C1.25318 204.919 0.426025 205.746 0.426025 206.767C0.426025 207.784 1.25318 208.607 2.27018 208.607Z" fill="#FFC107"/>
<path d="M53.3906 212.717C56.6779 212.717 59.3449 210.05 59.3449 206.767C59.3449 203.476 56.6779 200.809 53.3906 200.809C50.1075 200.809 47.4406 203.476 47.4406 206.767C47.4406 210.05 50.1075 212.717 53.3906 212.717Z" fill="#FFC107"/>
<path d="M104.515 216.829C110.077 216.829 114.584 212.321 114.584 206.767C114.584 201.205 110.077 196.698 104.515 196.698C98.9572 196.698 94.4503 201.205 94.4503 206.767C94.4503 212.321 98.9572 216.829 104.515 216.829Z" fill="#FFC107"/>
<path d="M155.639 220.657C163.315 220.657 169.531 214.439 169.531 206.767C169.531 199.091 163.315 192.871 155.639 192.871C147.968 192.871 141.747 199.091 141.747 206.767C141.747 214.439 147.968 220.657 155.639 220.657Z" fill="#FFC107"/>
<path d="M206.764 224.059C216.313 224.059 224.057 216.317 224.057 206.768C224.057 197.214 216.313 189.47 206.764 189.47C197.214 189.47 189.47 197.214 189.47 206.768C189.47 216.317 197.214 224.059 206.764 224.059Z" fill="#FFC107"/>
<path d="M257.888 225.903C268.458 225.903 277.025 217.334 277.025 206.767C277.025 196.196 268.458 187.626 257.888 187.626C247.317 187.626 238.75 196.196 238.75 206.767C238.75 217.334 247.317 225.903 257.888 225.903Z" fill="#FFC107"/>
<path d="M2.27037 260.157C3.52368 260.157 4.53641 259.142 4.53641 257.889C4.53641 256.636 3.52368 255.619 2.27037 255.619C1.01705 255.619 0 256.636 0 257.889C0 259.142 1.01705 260.157 2.27037 260.157Z" fill="#FFC107"/>
<path d="M53.3904 264.41C56.9942 264.41 59.9143 261.491 59.9143 257.889C59.9143 254.287 56.9942 251.366 53.3904 251.366C49.7908 251.366 46.8706 254.287 46.8706 257.889C46.8706 261.491 49.7908 264.41 53.3904 264.41Z" fill="#FFC107"/>
<path d="M104.515 268.664C110.465 268.664 115.293 263.839 115.293 257.889C115.293 251.939 110.465 247.114 104.515 247.114C98.565 247.114 93.7458 251.939 93.7458 257.889C93.7458 263.839 98.565 268.664 104.515 268.664Z" fill="#FFC107"/>
<path d="M155.639 272.916C163.94 272.916 170.666 266.188 170.666 257.888C170.666 249.589 163.94 242.86 155.639 242.86C147.343 242.86 140.612 249.589 140.612 257.888C140.612 266.188 147.343 272.916 155.639 272.916Z" fill="#FFC107"/>
<path d="M206.763 277.025C217.334 277.025 225.901 268.457 225.901 257.889C225.901 247.318 217.334 238.751 206.763 238.751C196.197 238.751 187.626 247.318 187.626 257.889C187.626 268.457 196.197 277.025 206.763 277.025Z" fill="#FFC107"/>
<path d="M257.888 280.004C270.104 280.004 280 270.1 280 257.889C280 245.674 270.104 235.772 257.888 235.772C245.671 235.772 235.775 245.674 235.775 257.889C235.775 270.1 245.671 280.004 257.888 280.004Z" fill="#FFC107"/>
<path d="M2.27018 310.855C3.28718 310.855 4.11 310.028 4.11 309.011C4.11 307.994 3.28718 307.171 2.27018 307.171C1.25318 307.171 0.426025 307.994 0.426025 309.011C0.426025 310.028 1.25318 310.855 2.27018 310.855Z" fill="#FFC107"/>
<path d="M53.3906 314.965C56.6779 314.965 59.3449 312.298 59.3449 309.011C59.3449 305.724 56.6779 303.057 53.3906 303.057C50.1075 303.057 47.4406 305.724 47.4406 309.011C47.4406 312.298 50.1075 314.965 53.3906 314.965Z" fill="#FFC107"/>
<path d="M104.515 319.076C110.077 319.076 114.584 314.57 114.584 309.011C114.584 303.454 110.077 298.946 104.515 298.946C98.9572 298.946 94.4503 303.454 94.4503 309.011C94.4503 314.57 98.9572 319.076 104.515 319.076Z" fill="#FFC107"/>
<path d="M155.639 323.185C163.471 323.185 169.818 316.844 169.818 309.011C169.818 301.182 163.471 294.834 155.639 294.834C147.811 294.834 141.464 301.182 141.464 309.011C141.464 316.844 147.811 323.185 155.639 323.185Z" fill="#FFC107"/>
<path d="M206.763 326.591C216.473 326.591 224.344 318.722 224.344 309.011C224.344 299.302 216.473 291.434 206.763 291.434C197.058 291.434 189.188 299.302 189.188 309.011C189.188 318.722 197.058 326.591 206.763 326.591Z" fill="#FFC107"/>
<path d="M257.888 328.436C268.615 328.436 277.312 319.739 277.312 309.011C277.312 298.285 268.615 289.59 257.888 289.59C247.161 289.59 238.464 298.285 238.464 309.011C238.464 319.739 247.161 328.436 257.888 328.436Z" fill="#FFC107"/>
<path d="M2.27085 361.127C2.81944 361.127 3.26247 360.683 3.26247 360.136C3.26247 359.587 2.81944 359.144 2.27085 359.144C1.72226 359.144 1.2749 359.587 1.2749 360.136C1.2749 360.683 1.72226 361.127 2.27085 361.127Z" fill="#FFC107"/>
<path d="M53.3905 364.673C55.8972 364.673 57.9269 362.642 57.9269 360.136C57.9269 357.629 55.8972 355.6 53.3905 355.6C50.8881 355.6 48.8583 357.629 48.8583 360.136C48.8583 362.642 50.8881 364.673 53.3905 364.673Z" fill="#FFC107"/>
<path d="M104.515 368.5C109.136 368.5 112.883 364.756 112.883 360.136C112.883 355.514 109.136 351.772 104.515 351.772C99.8982 351.772 96.1509 355.514 96.1509 360.136C96.1509 364.756 99.8982 368.5 104.515 368.5Z" fill="#FFC107"/>
<path d="M155.639 371.76C162.062 371.76 167.265 366.553 167.265 360.136C167.265 353.712 162.062 348.51 155.639 348.51C149.221 348.51 144.018 353.712 144.018 360.136C144.018 366.553 149.221 371.76 155.639 371.76Z" fill="#FFC107"/>
<path d="M206.763 374.311C214.591 374.311 220.938 367.963 220.938 360.136C220.938 352.307 214.591 345.957 206.763 345.957C198.931 345.957 192.584 352.307 192.584 360.136C192.584 367.963 198.931 374.311 206.763 374.311Z" fill="#FFC107"/>
<path d="M257.888 375.445C266.345 375.445 273.198 368.593 273.198 360.136C273.198 351.678 266.345 344.826 257.888 344.826C249.431 344.826 242.578 351.678 242.578 360.136C242.578 368.593 249.431 375.445 257.888 375.445Z" fill="#FFC107"/>
<path d="M2.27089 411.4C2.34685 411.4 2.41018 411.341 2.41018 411.26C2.41018 411.179 2.34685 411.117 2.27089 411.117C2.19072 411.117 2.12738 411.179 2.12738 411.26C2.12738 411.341 2.19072 411.4 2.27089 411.4Z" fill="#FFC107"/>
<path d="M53.3904 413.67C54.7197 413.67 55.8 412.589 55.8 411.26C55.8 409.931 54.7197 408.85 53.3904 408.85C52.0654 408.85 50.9851 409.931 50.9851 411.26C50.9851 412.589 52.0654 413.67 53.3904 413.67Z" fill="#FFC107"/>
<path d="M104.515 416.933C107.646 416.933 110.186 414.393 110.186 411.261C110.186 408.131 107.646 405.588 104.515 405.588C101.383 405.588 98.8472 408.131 98.8472 411.261C98.8472 414.393 101.383 416.933 104.515 416.933Z" fill="#FFC107"/>
<path d="M155.639 419.624C160.26 419.624 164.003 415.877 164.003 411.26C164.003 406.64 160.26 402.896 155.639 402.896C151.023 402.896 147.275 406.64 147.275 411.26C147.275 415.877 151.023 419.624 155.639 419.624Z" fill="#FFC107"/>
<path d="M206.764 421.606C212.477 421.606 217.115 416.973 217.115 411.26C217.115 405.546 212.477 400.907 206.764 400.907C201.046 400.907 196.417 405.546 196.417 411.26C196.417 416.973 201.046 421.606 206.764 421.606Z" fill="#FFC107"/>
<path d="M257.888 422.316C263.994 422.316 268.944 417.366 268.944 411.26C268.944 405.155 263.994 400.2 257.888 400.2C251.781 400.2 246.832 405.155 246.832 411.26C246.832 417.366 251.781 422.316 257.888 422.316Z" fill="#FFC107"/>
<path d="M53.3906 462.806C53.6269 462.806 53.821 462.616 53.821 462.384C53.821 462.148 53.6269 461.959 53.3906 461.959C53.1543 461.959 52.9644 462.148 52.9644 462.384C52.9644 462.616 53.1543 462.806 53.3906 462.806Z" fill="#FFC107"/>
<path d="M104.515 464.794C105.848 464.794 106.929 463.714 106.929 462.384C106.929 461.051 105.848 459.971 104.515 459.971C103.186 459.971 102.105 461.051 102.105 462.384C102.105 463.714 103.186 464.794 104.515 464.794Z" fill="#FFC107"/>
<path d="M155.64 467.06C158.226 467.06 160.32 464.967 160.32 462.384C160.32 459.797 158.226 457.704 155.64 457.704C153.057 457.704 150.964 459.797 150.964 462.384C150.964 464.967 153.057 467.06 155.64 467.06Z" fill="#FFC107"/>
<path d="M206.764 468.621C210.207 468.621 213.001 465.827 213.001 462.384C213.001 458.937 210.207 456.148 206.764 456.148C203.316 456.148 200.527 458.937 200.527 462.384C200.527 465.827 203.316 468.621 206.764 468.621Z" fill="#FFC107"/>
<path d="M257.887 469.187C261.647 469.187 264.69 466.14 264.69 462.384C264.69 458.625 261.647 455.577 257.887 455.577C254.127 455.577 251.085 458.625 251.085 462.384C251.085 466.14 254.127 469.187 257.887 469.187Z" fill="#FFC107"/>
<path d="M104.515 513.648C104.595 513.648 104.658 513.585 104.658 513.509C104.658 513.428 104.595 513.366 104.515 513.366C104.439 513.366 104.376 513.428 104.376 513.509C104.376 513.585 104.439 513.648 104.515 513.648Z" fill="#FFC107"/>
<path d="M155.639 514.64C156.268 514.64 156.774 514.134 156.774 513.509C156.774 512.88 156.268 512.374 155.639 512.374C155.014 512.374 154.508 512.88 154.508 513.509C154.508 514.134 155.014 514.64 155.639 514.64Z" fill="#FFC107"/>
<path d="M206.763 515.632C207.937 515.632 208.89 514.683 208.89 513.509C208.89 512.332 207.937 511.382 206.763 511.382C205.586 511.382 204.637 512.332 204.637 513.509C204.637 514.683 205.586 515.632 206.763 515.632Z" fill="#FFC107"/>
<path d="M257.888 516.057C259.297 516.057 260.437 514.913 260.437 513.509C260.437 512.1 259.297 510.955 257.888 510.955C256.478 510.955 255.335 512.1 255.335 513.509C255.335 514.913 256.478 516.057 257.888 516.057Z" fill="#FFC107"/>
</svg>
