<svg width="186" height="101" viewBox="0 0 186 101" fill="none" xmlns="http://www.w3.org/2000/svg">
<path d="M1.70312 63.6602C1.70312 63.6316 1.68203 63.609 1.6534 63.609C1.62476 63.609 1.60216 63.6316 1.60216 63.6602C1.60216 63.6873 1.62476 63.71 1.6534 63.71C1.68203 63.71 1.70312 63.6873 1.70312 63.6602Z" fill="#FFC107"/>
<path d="M1.9563 45.4016C1.9563 45.2328 1.82216 45.0972 1.65337 45.0972C1.48457 45.0972 1.34893 45.2328 1.34893 45.4016C1.34893 45.5689 1.48457 45.7061 1.65337 45.7061C1.82216 45.7061 1.9563 45.5689 1.9563 45.4016Z" fill="#FFC107"/>
<path d="M2.31177 27.1432C2.31177 26.78 2.01637 26.4845 1.65316 26.4845C1.28995 26.4845 0.994552 26.78 0.994552 27.1432C0.994552 27.5064 1.28995 27.8018 1.65316 27.8018C2.01637 27.8018 2.31177 27.5064 2.31177 27.1432Z" fill="#FFC107"/>
<path d="M2.46265 8.88427C2.46265 8.43665 2.10094 8.07497 1.65333 8.07497C1.20571 8.07497 0.8425 8.43665 0.8425 8.88427C0.8425 9.33188 1.20571 9.6936 1.65333 9.6936C2.10094 9.6936 2.46265 9.33188 2.46265 8.88427Z" fill="#FFC107"/>
<path d="M20.0129 81.9191C20.0129 81.8633 19.9677 81.8181 19.912 81.8181C19.8562 81.8181 19.8095 81.8633 19.8095 81.9191C19.8095 81.9749 19.8562 82.0186 19.912 82.0186C19.9677 82.0186 20.0129 81.9749 20.0129 81.9191Z" fill="#FFC107"/>
<path d="M20.7227 63.6604C20.7227 63.2128 20.3594 62.8496 19.9118 62.8496C19.4642 62.8496 19.101 63.2128 19.101 63.6604C19.101 64.108 19.4642 64.4697 19.9118 64.4697C20.3594 64.4697 20.7227 64.108 20.7227 63.6604Z" fill="#FFC107"/>
<path d="M21.481 45.4015C21.481 44.5334 20.7786 43.8311 19.912 43.8311C19.0455 43.8311 18.3416 44.5334 18.3416 45.4015C18.3416 46.2681 19.0455 46.9719 19.912 46.9719C20.7786 46.9719 21.481 46.2681 21.481 45.4015Z" fill="#FFC107"/>
<path d="M22.0386 27.1431C22.0386 25.969 21.0861 25.0165 19.912 25.0165C18.7365 25.0165 17.7855 25.969 17.7855 27.1431C17.7855 28.3186 18.7365 29.2681 19.912 29.2681C21.0861 29.2681 22.0386 28.3186 22.0386 27.1431Z" fill="#FFC107"/>
<path d="M22.2405 8.88441C22.2405 7.59884 21.1976 6.55593 19.912 6.55593C18.6249 6.55593 17.582 7.59884 17.582 8.88441C17.582 10.1715 18.6249 11.2129 19.912 11.2129C21.1976 11.2129 22.2405 10.1715 22.2405 8.88441Z" fill="#FFC107"/>
<path d="M38.2205 100.176C38.2205 100.149 38.1979 100.126 38.1707 100.126C38.1421 100.126 38.1195 100.149 38.1195 100.176C38.1195 100.205 38.1421 100.227 38.1707 100.227C38.1979 100.227 38.2205 100.205 38.2205 100.176Z" fill="#FFC107"/>
<path d="M38.98 81.9192C38.98 81.4716 38.6168 81.1084 38.1707 81.1084C37.723 81.1084 37.3598 81.4716 37.3598 81.9192C37.3598 82.3653 37.723 82.7285 38.1707 82.7285C38.6168 82.7285 38.98 82.3653 38.98 81.9192Z" fill="#FFC107"/>
<path d="M40.0938 63.6604C40.0938 62.5979 39.2332 61.7358 38.1707 61.7358C37.1067 61.7358 36.2461 62.5979 36.2461 63.6604C36.2461 64.7229 37.1067 65.5835 38.1707 65.5835C39.2332 65.5835 40.0938 64.7229 40.0938 63.6604Z" fill="#FFC107"/>
<path d="M41.0566 45.4017C41.0566 43.8072 39.7636 42.5141 38.1705 42.5141C36.576 42.5141 35.2844 43.8072 35.2844 45.4017C35.2844 46.9948 36.576 48.2878 38.1705 48.2878C39.7636 48.2878 41.0566 46.9948 41.0566 45.4017Z" fill="#FFC107"/>
<path d="M41.7651 27.1431C41.7651 25.1582 40.1555 23.5486 38.1707 23.5486C36.1843 23.5486 34.5747 25.1582 34.5747 27.1431C34.5747 29.1295 36.1843 30.7375 38.1707 30.7375C40.1555 30.7375 41.7651 29.1295 41.7651 27.1431Z" fill="#FFC107"/>
<path d="M42.0183 8.88427C42.0183 6.75924 40.2957 5.03661 38.1707 5.03661C36.0441 5.03661 34.3215 6.75924 34.3215 8.88427C34.3215 11.0093 36.0441 12.7319 38.1707 12.7319C40.2957 12.7319 42.0183 11.0093 42.0183 8.88427Z" fill="#FFC107"/>
<path d="M56.7324 100.176C56.7324 100.009 56.5968 99.8731 56.428 99.8731C56.2607 99.8731 56.1251 100.009 56.1251 100.176C56.1251 100.345 56.2607 100.48 56.428 100.48C56.5968 100.48 56.7324 100.345 56.7324 100.176Z" fill="#FFC107"/>
<path d="M57.9983 81.9189C57.9983 81.0523 57.2945 80.3485 56.4279 80.3485C55.5613 80.3485 54.859 81.0523 54.859 81.9189C54.859 82.784 55.5613 83.4878 56.4279 83.4878C57.2945 83.4878 57.9983 82.784 57.9983 81.9189Z" fill="#FFC107"/>
<path d="M59.314 63.6602C59.314 62.0657 58.0224 60.7741 56.4279 60.7741C54.8348 60.7741 53.5432 62.0657 53.5432 63.6602C53.5432 65.2533 54.8348 66.5464 56.4279 66.5464C58.0224 66.5464 59.314 65.2533 59.314 63.6602Z" fill="#FFC107"/>
<path d="M60.479 45.4016C60.479 43.1635 58.6659 41.3504 56.4279 41.3504C54.1913 41.3504 52.3783 43.1635 52.3783 45.4016C52.3783 47.6381 54.1913 49.4512 56.4279 49.4512C58.6659 49.4512 60.479 47.6381 60.479 45.4016Z" fill="#FFC107"/>
<path d="M61.3906 27.1428C61.3906 24.4029 59.1692 22.1799 56.4277 22.1799C53.6878 22.1799 51.4663 24.4029 51.4663 27.1428C51.4663 29.8843 53.6878 32.1042 56.4277 32.1042C59.1692 32.1042 61.3906 29.8843 61.3906 27.1428Z" fill="#FFC107"/>
<path d="M61.7949 8.88413C61.7949 5.91964 59.3926 3.51732 56.4281 3.51732C53.4651 3.51732 51.0612 5.91964 51.0612 8.88413C51.0612 11.8486 53.4651 14.251 56.4281 14.251C59.3926 14.251 61.7949 11.8486 61.7949 8.88413Z" fill="#FFC107"/>
<path d="M75.345 100.176C75.345 99.8131 75.0511 99.5193 74.6879 99.5193C74.3232 99.5193 74.0277 99.8131 74.0277 100.176C74.0277 100.54 74.3232 100.835 74.6879 100.835C75.0511 100.835 75.345 100.54 75.345 100.176Z" fill="#FFC107"/>
<path d="M76.813 81.9189C76.813 80.7449 75.8605 79.7924 74.688 79.7924C73.5124 79.7924 72.5599 80.7449 72.5599 81.9189C72.5599 83.0915 73.5124 84.0439 74.688 84.0439C75.8605 84.0439 76.813 83.0915 76.813 81.9189Z" fill="#FFC107"/>
<path d="M78.2815 63.6604C78.2815 61.674 76.6713 60.0645 74.6879 60.0645C72.7016 60.0645 71.092 61.674 71.092 63.6604C71.092 65.6453 72.7016 67.2549 74.6879 67.2549C76.6713 67.2549 78.2815 65.6453 78.2815 63.6604" fill="#FFC107"/>
<path d="M79.6484 45.4016C79.6484 42.6602 77.4279 40.4402 74.6879 40.4402C71.9465 40.4402 69.725 42.6602 69.725 45.4016C69.725 48.1416 71.9465 50.363 74.6879 50.363C77.4279 50.363 79.6484 48.1416 79.6484 45.4016Z" fill="#FFC107"/>
<path d="M80.8635 27.1429C80.8635 23.7324 78.0984 20.9668 74.688 20.9668C71.2759 20.9668 68.5103 23.7324 68.5103 27.1429C68.5103 30.5535 71.2759 33.3191 74.688 33.3191C78.0984 33.3191 80.8635 30.5535 80.8635 27.1429" fill="#FFC107"/>
<path d="M81.5222 8.88447C81.5222 5.10915 78.4616 2.04973 74.6879 2.04973C70.9126 2.04973 67.8516 5.10915 67.8516 8.88447C67.8516 12.6598 70.9126 15.7192 74.6879 15.7192C78.4616 15.7192 81.5222 12.6598 81.5222 8.88447Z" fill="#FFC107"/>
<path d="M93.7559 100.176C93.7559 99.7286 93.3932 99.3669 92.9458 99.3669C92.4985 99.3669 92.1351 99.7286 92.1351 100.176C92.1351 100.624 92.4985 100.987 92.9458 100.987C93.3932 100.987 93.7559 100.624 93.7559 100.176Z" fill="#FFC107"/>
<path d="M95.2747 81.9191C95.2747 80.632 94.2322 79.5891 92.9457 79.5891C91.6594 79.5891 90.6162 80.632 90.6162 81.9191C90.6162 83.2046 91.6594 84.2476 92.9457 84.2476C94.2322 84.2476 95.2747 83.2046 95.2747 81.9191Z" fill="#FFC107"/>
<path d="M96.7937 63.6602C96.7937 61.5352 95.0705 59.811 92.9457 59.811C90.8206 59.811 89.0973 61.5352 89.0973 63.6602C89.0973 65.7852 90.8206 67.5063 92.9457 67.5063C95.0705 67.5063 96.7937 65.7852 96.7937 63.6602Z" fill="#FFC107"/>
<path d="M98.3123 45.4017C98.3123 42.4373 95.9096 40.0349 92.9454 40.0349C89.9812 40.0349 87.5781 42.4373 87.5781 45.4017C87.5781 48.3647 89.9812 50.7686 92.9454 50.7686C95.9096 50.7686 98.3123 48.3647 98.3123 45.4017" fill="#FFC107"/>
<path d="M99.7803 27.143C99.7803 23.3677 96.7201 20.3083 92.9458 20.3083C89.1705 20.3083 86.1109 23.3677 86.1109 27.143C86.1109 30.9169 89.1705 33.9778 92.9458 33.9778C96.7201 33.9778 99.7803 30.9169 99.7803 27.143Z" fill="#FFC107"/>
<path d="M100.844 8.8842C100.844 4.52111 97.307 0.986941 92.9457 0.986941C88.5833 0.986941 85.0469 4.52111 85.0469 8.8842C85.0469 13.2473 88.5833 16.7815 92.9457 16.7815C97.307 16.7815 100.844 13.2473 100.844 8.8842Z" fill="#FFC107"/>
<path d="M111.862 100.176C111.862 99.8131 111.567 99.5193 111.204 99.5193C110.84 99.5193 110.547 99.8131 110.547 100.176C110.547 100.54 110.84 100.835 111.204 100.835C111.567 100.835 111.862 100.54 111.862 100.176Z" fill="#FFC107"/>
<path d="M113.33 81.9189C113.33 80.7449 112.378 79.7924 111.204 79.7924C110.03 79.7924 109.077 80.7449 109.077 81.9189C109.077 83.0915 110.03 84.0439 111.204 84.0439C112.378 84.0439 113.33 83.0915 113.33 81.9189Z" fill="#FFC107"/>
<path d="M114.798 63.6604C114.798 61.674 113.189 60.0645 111.204 60.0645C109.219 60.0645 107.609 61.674 107.609 63.6604C107.609 65.6453 109.219 67.2549 111.204 67.2549C113.189 67.2549 114.798 65.6453 114.798 63.6604Z" fill="#FFC107"/>
<path d="M116.266 45.4017C116.266 42.6045 114.001 40.3378 111.203 40.3378C108.408 40.3378 106.14 42.6045 106.14 45.4017C106.14 48.1974 108.408 50.4641 111.203 50.4641C114.001 50.4641 116.266 48.1974 116.266 45.4017Z" fill="#FFC107"/>
<path d="M117.482 27.1431C117.482 23.6752 114.672 20.8644 111.204 20.8644C107.736 20.8644 104.926 23.6752 104.926 27.1431C104.926 30.6094 107.736 33.4202 111.204 33.4202C114.672 33.4202 117.482 30.6094 117.482 27.1431Z" fill="#FFC107"/>
<path d="M118.141 8.88429C118.141 5.05321 115.035 1.94704 111.204 1.94704C107.373 1.94704 104.267 5.05321 104.267 8.88429C104.267 12.7154 107.373 15.8215 111.204 15.8215C115.035 15.8215 118.141 12.7154 118.141 8.88429Z" fill="#FFC107"/>
<path d="M129.816 100.176C129.816 99.9801 129.658 99.8219 129.463 99.8219C129.266 99.8219 129.108 99.9801 129.108 100.176C129.108 100.372 129.266 100.532 129.463 100.532C129.658 100.532 129.816 100.372 129.816 100.176Z" fill="#FFC107"/>
<path d="M131.083 81.919C131.083 81.0237 130.358 80.2988 129.463 80.2988C128.567 80.2988 127.842 81.0237 127.842 81.919C127.842 82.8127 128.567 83.5376 129.463 83.5376C130.358 83.5376 131.083 82.8127 131.083 81.919Z" fill="#FFC107"/>
<path d="M132.45 63.6604C132.45 62.0101 131.113 60.6718 129.462 60.6718C127.812 60.6718 126.475 62.0101 126.475 63.6604C126.475 65.3091 127.812 66.6475 129.462 66.6475C131.113 66.6475 132.45 65.3091 132.45 63.6604Z" fill="#FFC107"/>
<path d="M133.614 45.4017C133.614 43.1078 131.754 41.2495 129.463 41.2495C127.168 41.2495 125.31 43.1078 125.31 45.4017C125.31 47.694 127.168 49.5522 129.463 49.5522C131.754 49.5522 133.614 47.694 133.614 45.4017Z" fill="#FFC107"/>
<path d="M134.525 27.1429C134.525 24.3472 132.258 22.0805 129.463 22.0805C126.667 22.0805 124.398 24.3472 124.398 27.1429C124.398 29.9401 126.667 32.2068 129.463 32.2068C132.258 32.2068 134.525 29.9401 134.525 27.1429Z" fill="#FFC107"/>
<path d="M134.93 8.88424C134.93 5.86399 132.483 3.41643 129.463 3.41643C126.442 3.41643 123.995 5.86399 123.995 8.88424C123.995 11.9045 126.442 14.3521 129.463 14.3521C132.483 14.3521 134.93 11.9045 134.93 8.88424Z" fill="#FFC107"/>
<path d="M147.771 100.176C147.771 100.149 147.75 100.126 147.721 100.126C147.692 100.126 147.67 100.149 147.67 100.176C147.67 100.205 147.692 100.227 147.721 100.227C147.75 100.227 147.771 100.205 147.771 100.176Z" fill="#FFC107"/>
<path d="M148.582 81.919C148.582 81.4443 148.196 81.0585 147.721 81.0585C147.246 81.0585 146.86 81.4443 146.86 81.919C146.86 82.3923 147.246 82.7781 147.721 82.7781C148.196 82.7781 148.582 82.3923 148.582 81.919Z" fill="#FFC107"/>
<path d="M149.747 63.6605C149.747 62.5422 148.84 61.6349 147.721 61.6349C146.603 61.6349 145.695 62.5422 145.695 63.6605C145.695 64.7788 146.603 65.6846 147.721 65.6846C148.84 65.6846 149.747 64.7788 149.747 63.6605Z" fill="#FFC107"/>
<path d="M150.708 45.4016C150.708 43.7513 149.37 42.4145 147.721 42.4145C146.071 42.4145 144.734 43.7513 144.734 45.4016C144.734 47.0503 146.071 48.3887 147.721 48.3887C149.37 48.3887 150.708 47.0503 150.708 45.4016Z" fill="#FFC107"/>
<path d="M151.416 27.143C151.416 25.1023 149.761 23.446 147.721 23.446C145.68 23.446 144.024 25.1023 144.024 27.143C144.024 29.1851 145.68 30.8384 147.721 30.8384C149.761 30.8384 151.416 29.1851 151.416 27.143Z" fill="#FFC107"/>
<path d="M151.67 8.88438C151.67 6.70359 149.902 4.93575 147.721 4.93575C145.541 4.93575 143.771 6.70359 143.771 8.88438C143.771 11.0652 145.541 12.833 147.721 12.833C149.902 12.833 151.67 11.0652 151.67 8.88438" fill="#FFC107"/>
<path d="M166.13 81.9191C166.13 81.8347 166.063 81.7653 165.98 81.7653C165.896 81.7653 165.828 81.8347 165.828 81.9191C165.828 82.0035 165.896 82.0713 165.98 82.0713C166.063 82.0713 166.13 82.0035 166.13 81.9191Z" fill="#FFC107"/>
<path d="M166.84 63.6604C166.84 63.1842 166.455 62.7984 165.98 62.7984C165.503 62.7984 165.118 63.1842 165.118 63.6604C165.118 64.1352 165.503 64.521 165.98 64.521C166.455 64.521 166.84 64.1352 166.84 63.6604Z" fill="#FFC107"/>
<path d="M167.65 45.4014C167.65 44.4775 166.902 43.73 165.979 43.73C165.056 43.73 164.308 44.4775 164.308 45.4014C164.308 46.3237 165.056 47.0713 165.979 47.0713C166.902 47.0713 167.65 46.3237 167.65 45.4014Z" fill="#FFC107"/>
<path d="M168.207 27.1429C168.207 25.9131 167.209 24.9154 165.98 24.9154C164.749 24.9154 163.753 25.9131 163.753 27.1429C163.753 28.3742 164.749 29.3704 165.98 29.3704C167.209 29.3704 168.207 28.3742 168.207 27.1429Z" fill="#FFC107"/>
<path d="M168.409 8.88448C168.409 7.54164 167.321 6.45503 165.98 6.45503C164.637 6.45503 163.549 7.54164 163.549 8.88448C163.549 10.2273 164.637 11.314 165.98 11.314C167.321 11.314 168.409 10.2273 168.409 8.88448Z" fill="#FFC107"/>
<path d="M184.288 63.6602C184.288 63.6316 184.266 63.609 184.239 63.609C184.21 63.609 184.187 63.6316 184.187 63.6602C184.187 63.6873 184.21 63.71 184.239 63.71C184.266 63.71 184.288 63.6873 184.288 63.6602Z" fill="#FFC107"/>
<path d="M184.643 45.4018C184.643 45.1772 184.462 44.9964 184.239 44.9964C184.014 44.9964 183.833 45.1772 183.833 45.4018C183.833 45.6248 184.014 45.8057 184.239 45.8057C184.462 45.8057 184.643 45.6248 184.643 45.4018Z" fill="#FFC107"/>
<path d="M184.997 27.143C184.997 26.7241 184.658 26.3834 184.238 26.3834C183.818 26.3834 183.479 26.7241 183.479 27.143C183.479 27.5635 183.818 27.9026 184.238 27.9026C184.658 27.9026 184.997 27.5635 184.997 27.143Z" fill="#FFC107"/>
<path d="M185.149 8.88433C185.149 8.38096 184.74 7.97403 184.238 7.97403C183.735 7.97403 183.327 8.38096 183.327 8.88433C183.327 9.38771 183.735 9.79614 184.238 9.79614C184.74 9.79614 185.149 9.38771 185.149 8.88433Z" fill="#FFC107"/>
</svg>
