<svg width="50" height="50" viewBox="0 0 50 50" fill="none" xmlns="http://www.w3.org/2000/svg">
<rect width="50" height="50" rx="25" fill="white"/>
<path fill-rule="evenodd" clip-rule="evenodd" d="M23.469 16.3823C24.3479 17.3565 24.0693 18.4601 23.2921 19.5073C23.1078 19.7556 22.8955 20.0003 22.6389 20.2698C22.5158 20.3992 22.4198 20.4965 22.219 20.6975C21.7629 21.154 21.3796 21.5375 21.0688 21.8482C20.9182 21.9988 21.9469 24.0543 23.9434 26.0526C25.9388 28.0497 27.9944 29.0791 28.1458 28.9276L29.2951 27.7778C29.9281 27.1442 30.2633 26.8386 30.7239 26.5364C31.6814 25.9083 32.7259 25.7376 33.6067 26.5252C36.4828 28.5823 38.1104 29.8446 38.9077 30.673C40.4629 32.2888 40.2591 34.7759 38.9165 36.1948C38.451 36.6868 37.8607 37.2774 37.1635 37.9494C32.9462 42.1686 24.0457 39.601 17.2244 32.7737C10.4016 25.9448 7.83505 17.0444 12.0435 12.8341C12.7991 12.0668 13.0482 11.8178 13.784 11.0928C15.154 9.74306 17.7562 9.53172 19.338 11.0942C20.17 11.916 21.4966 13.6226 23.469 16.3823ZM31.4155 29.8986L30.2659 31.0487C28.3119 33.0037 24.984 31.3373 21.8228 28.1732C18.6594 25.007 16.9946 21.6808 18.9494 19.7264C19.2597 19.4162 19.6427 19.033 20.0984 18.5769C20.2823 18.3928 20.3664 18.3076 20.4673 18.2015C20.6049 18.057 20.7179 17.93 20.8084 17.8177C19.0603 15.3829 17.872 13.8615 17.2314 13.2288C16.9006 12.902 16.1598 12.9622 15.8879 13.2301C15.1625 13.9447 14.9241 14.183 14.1716 14.9472C11.4651 17.6549 13.537 24.8399 19.345 30.653C25.1512 36.4643 32.3359 38.537 35.0629 35.809C35.7493 35.1471 36.3086 34.5876 36.7391 34.1326C37.0502 33.8038 37.1057 33.1255 36.7479 32.7537C36.1519 32.1345 34.6928 30.9969 32.1733 29.1878C31.9896 29.3356 31.7639 29.55 31.4155 29.8986Z" fill="#256186"/>
</svg>
