<svg width="50" height="50" viewBox="0 0 50 50" fill="none" xmlns="http://www.w3.org/2000/svg">
<path d="M50 25.001C50 11.1943 38.8076 0.0001297 24.9991 0.0001297C11.1924 0.0001297 0 11.1943 0 25.001C0 37.4792 9.14236 47.8218 21.0939 49.6958V32.2284H14.7454V25.001H21.0939V19.492C21.0939 13.2272 24.8265 9.76657 30.5372 9.76657C33.2712 9.76657 36.1334 10.2556 36.1334 10.2556V16.4075H32.9806C29.8755 16.4075 28.9078 18.3344 28.9078 20.311V25.001H35.8394L34.7314 32.2284H28.9078V49.6958C40.8576 47.8218 50 37.4792 50 25.001Z" fill="white"/>
<path d="M34.7314 32.2282L35.8394 25.0008H28.9078V20.3108C28.9078 18.3343 29.8755 16.4073 32.9806 16.4073H36.1334V10.2554C36.1334 10.2554 33.2712 9.76643 30.5372 9.76643C24.8265 9.76643 21.094 13.2271 21.094 19.4918V25.0008H14.7454V32.2282H21.094V49.6957C22.3661 49.8957 23.6706 50 24.9992 50C26.3294 50 27.6323 49.8957 28.9078 49.6957V32.2282H34.7314Z" fill="#256186"/>
</svg>
