<svg width="50" height="50" viewBox="0 0 50 50" fill="none" xmlns="http://www.w3.org/2000/svg">
<rect width="50" height="50" rx="25" fill="white"/>
<path d="M41.2211 25.3117C41.2211 23.946 41.1103 22.9495 40.8705 21.916H25.2761V28.0799H34.4296C34.2451 29.6117 33.2486 31.9186 31.034 33.4687L31.0029 33.675L35.9336 37.4948L36.2752 37.5289C39.4125 34.6314 41.2211 30.3683 41.2211 25.3117Z" fill="#256186"/>
<path d="M25.2761 41.552C29.7606 41.552 33.5253 40.0755 36.2752 37.5288L31.034 33.4686C29.6314 34.4468 27.749 35.1296 25.2761 35.1296C20.8838 35.1296 17.156 32.2322 15.8271 28.2275L15.6323 28.2441L10.5053 32.2119L10.4383 32.3983C13.1696 37.824 18.7799 41.552 25.2761 41.552Z" fill="#256186"/>
<path d="M15.8271 28.2279C15.4765 27.1944 15.2735 26.087 15.2735 24.9429C15.2735 23.7986 15.4765 22.6914 15.8086 21.6579L15.7994 21.4378L10.6081 17.4062L10.4383 17.487C9.31259 19.7386 8.66666 22.2669 8.66666 24.9429C8.66666 27.6188 9.31259 30.1471 10.4383 32.3986L15.8271 28.2279Z" fill="#256186"/>
<path d="M25.2761 14.7558C28.3949 14.7558 30.4987 16.103 31.6983 17.2288L36.3859 12.6519C33.507 9.97599 29.7606 8.3335 25.2761 8.3335C18.7799 8.3335 13.1696 12.0614 10.4383 17.4871L15.8087 21.6579C17.156 17.6532 20.8838 14.7558 25.2761 14.7558Z" fill="#256186"/>
</svg>
