<svg width="50" height="50" viewBox="0 0 50 50" fill="none" xmlns="http://www.w3.org/2000/svg">
<rect y="-0.000488281" width="50" height="50" rx="25" fill="#256186"/>
<path d="M41.2212 25.3088C41.2212 23.9431 41.1103 22.9465 40.8705 21.9131H25.2761V28.077H34.4297C34.2452 29.6088 33.2486 31.9156 31.034 33.4658L31.003 33.6721L35.9336 37.4918L36.2752 37.5259C39.4125 34.6285 41.2212 30.3654 41.2212 25.3088Z" fill="white"/>
<path d="M25.2763 41.55C29.7607 41.55 33.5255 40.0736 36.2754 37.5269L31.0342 33.4667C29.6316 34.4448 27.7492 35.1276 25.2763 35.1276C20.884 35.1276 17.1562 32.2303 15.8273 28.2256L15.6325 28.2421L10.5055 32.2099L10.4385 32.3963C13.1698 37.822 18.7801 41.55 25.2763 41.55Z" fill="white"/>
<path d="M15.8271 28.2259C15.4764 27.1925 15.2735 26.0851 15.2735 24.9409C15.2735 23.7967 15.4764 22.6894 15.8086 21.656L15.7993 21.4358L10.6081 17.4043L10.4383 17.4851C9.31255 19.7366 8.66663 22.265 8.66663 24.9409C8.66663 27.6169 9.31255 30.1451 10.4383 32.3967L15.8271 28.2259Z" fill="white"/>
<path d="M25.2763 14.7553C28.3951 14.7553 30.4989 16.1025 31.6985 17.2283L36.3861 12.6515C33.5072 9.9755 29.7607 8.33301 25.2763 8.33301C18.7801 8.33301 13.1698 12.0609 10.4385 17.4866L15.8088 21.6574C17.1562 17.6527 20.884 14.7553 25.2763 14.7553Z" fill="white"/>
</svg>
