<svg width="50" height="50" viewBox="0 0 50 50" fill="none" xmlns="http://www.w3.org/2000/svg">
<path d="M25 50C38.8071 50 50 38.8071 50 25C50 11.1929 38.8071 0 25 0C11.1929 0 0 11.1929 0 25C0 38.8071 11.1929 50 25 50Z" fill="url(#paint0_linear_502_3)"/>
<path d="M32.1613 40.625H17.8387C13.1719 40.625 9.375 36.8285 9.375 32.1613V17.8387C9.375 13.1715 13.1719 9.375 17.8387 9.375H32.1613C36.8285 9.375 40.625 13.1715 40.625 17.8387V32.1617C40.625 36.8285 36.8285 40.625 32.1613 40.625ZM17.8387 11.9793C14.6078 11.9793 11.9793 14.6078 11.9793 17.8387V32.1617C11.9793 35.3926 14.6078 38.0211 17.8387 38.0211H32.1613C35.3922 38.0211 38.0207 35.3926 38.0207 32.1617V17.8387C38.0207 14.6078 35.3922 11.9793 32.1613 11.9793H17.8387Z" fill="white"/>
<path d="M25 32.8125C20.6922 32.8125 17.1875 29.3074 17.1875 25C17.1875 20.6918 20.6922 17.1875 25 17.1875C29.3078 17.1875 32.8125 20.6918 32.8125 25C32.8125 29.3074 29.3078 32.8125 25 32.8125ZM25 19.7918C22.1281 19.7918 19.7918 22.1281 19.7918 25C19.7918 27.8723 22.1281 30.2082 25 30.2082C27.8719 30.2082 30.2082 27.8723 30.2082 25C30.2082 22.1281 27.8723 19.7918 25 19.7918Z" fill="white"/>
<path d="M33.3008 18.4894C34.2895 18.4894 35.091 17.6879 35.091 16.6992C35.091 15.7105 34.2895 14.9089 33.3008 14.9089C32.3121 14.9089 31.5106 15.7105 31.5106 16.6992C31.5106 17.6879 32.3121 18.4894 33.3008 18.4894Z" fill="white"/>
<defs>
<linearGradient id="paint0_linear_502_3" x1="10.6596" y1="45.4807" x2="39.3408" y2="4.51969" gradientUnits="userSpaceOnUse">
<stop stop-color="#FFB900"/>
<stop offset="1" stop-color="#9100EB"/>
</linearGradient>
</defs>
</svg>
