<svg width="50" height="50" viewBox="0 0 50 50" fill="none" xmlns="http://www.w3.org/2000/svg">
<path d="M50 25C50 38.8072 38.8072 50 25 50C11.1928 50 0 38.8072 0 25C0 11.1911 11.1928 -1.90735e-05 25 -1.90735e-05C38.8072 -1.90735e-05 50 11.1911 50 25Z" fill="white"/>
<path d="M32.7594 15.5409C31.8121 15.5409 31.041 16.3104 31.041 17.2594C31.041 18.2084 31.8121 18.9795 32.7594 18.9795C33.7101 18.9795 34.4795 18.2084 34.4795 17.2594C34.4795 16.3104 33.7101 15.5409 32.7594 15.5409Z" fill="#256186"/>
<path d="M25.1196 29.5892C22.5702 29.5892 20.4962 27.5134 20.4962 24.964C20.4962 22.4146 22.5702 20.3405 25.1196 20.3405C27.6708 20.3405 29.7448 22.4146 29.7448 24.964C29.7448 27.5134 27.6708 29.5892 25.1196 29.5892ZM25.1196 17.745C21.1391 17.745 17.9023 20.9834 17.9023 24.964C17.9023 28.9446 21.1391 32.1831 25.1196 32.1831C29.1019 32.1831 32.3387 28.9446 32.3387 24.964C32.3387 20.9834 29.1019 17.745 25.1196 17.745Z" fill="#256186"/>
<path d="M19.1471 13.0651C15.8128 13.0651 13.101 15.7769 13.101 19.1129V30.8153C13.101 34.1512 15.8128 36.8631 19.1471 36.8631H30.8511C34.1854 36.8631 36.899 34.1512 36.899 30.8153V19.1129C36.899 15.7769 34.1854 13.0651 30.8511 13.0651H19.1471ZM30.8511 39.6211H19.1471C14.2928 39.6211 10.343 35.6713 10.343 30.8153V19.1129C10.343 14.2569 14.2928 10.3071 19.1471 10.3071H30.8511C35.7072 10.3071 39.6552 14.2569 39.6552 19.1129V30.8153C39.6552 35.6713 35.7072 39.6211 30.8511 39.6211Z" fill="#256186"/>
</svg>
