<svg width="50" height="50" viewBox="0 0 50 50" fill="none" xmlns="http://www.w3.org/2000/svg">
<path d="M50 25C50 38.8072 38.8072 50 25 50C11.1928 50 0 38.8072 0 25C0 11.1911 11.1928 -1.52588e-05 25 -1.52588e-05C38.8072 -1.52588e-05 50 11.1911 50 25Z" fill="#256186"/>
<path d="M32.7592 15.5405C31.8119 15.5405 31.0408 16.3099 31.0408 17.2589C31.0408 18.2079 31.8119 18.979 32.7592 18.979C33.7099 18.979 34.4793 18.2079 34.4793 17.2589C34.4793 16.3099 33.7099 15.5405 32.7592 15.5405Z" fill="white"/>
<path d="M25.1197 29.5882C22.5703 29.5882 20.4962 27.5125 20.4962 24.963C20.4962 22.4136 22.5703 20.3396 25.1197 20.3396C27.6708 20.3396 29.7449 22.4136 29.7449 24.963C29.7449 27.5125 27.6708 29.5882 25.1197 29.5882ZM25.1197 17.744C21.1391 17.744 17.9023 20.9825 17.9023 24.963C17.9023 28.9436 21.1391 32.1821 25.1197 32.1821C29.102 32.1821 32.3388 28.9436 32.3388 24.963C32.3388 20.9825 29.102 17.744 25.1197 17.744Z" fill="white"/>
<path d="M19.147 13.0656C15.8128 13.0656 13.1009 15.7774 13.1009 19.1134V30.8158C13.1009 34.1517 15.8128 36.8636 19.147 36.8636H30.8511C34.1853 36.8636 36.8989 34.1517 36.8989 30.8158V19.1134C36.8989 15.7774 34.1853 13.0656 30.8511 13.0656H19.147ZM30.8511 39.6216H19.147C14.2927 39.6216 10.3429 35.6718 10.3429 30.8158V19.1134C10.3429 14.2574 14.2927 10.3076 19.147 10.3076H30.8511C35.7071 10.3076 39.6552 14.2574 39.6552 19.1134V30.8158C39.6552 35.6718 35.7071 39.6216 30.8511 39.6216Z" fill="white"/>
</svg>
