<svg width="927" height="229" viewBox="0 0 927 229" fill="none" xmlns="http://www.w3.org/2000/svg">
<path d="M827 1.22128C826.7 1.92128 826.3 4.62127 826 7.32127C825.7 9.92127 824.8 13.4213 823.9 15.0213C821 20.6213 821.8 23.3213 829.3 31.7213C837.7 41.3213 842.3 48.4213 845.9 57.5213C849.1 65.7213 850.1 67.1213 851.4 65.0213C852.9 62.7213 852.6 42.1213 851 33.8213C848.7 22.2213 844 10.8213 839 5.22128C835.1 0.721275 827.8 -1.57873 827 1.22128Z" fill="#619FC6"/>
<path d="M863.5 23.1213C863.5 24.5212 861.3 28.8213 858.8 32.6213L854.3 39.5213L854.9 51.0213C855.6 62.2213 855.5 62.6213 853 66.0213C847.6 73.4213 847.1 75.2213 846.4 86.5213C846.1 92.5213 845.8 97.6213 845.8 97.7213C845.9 97.7213 848.8 94.4213 852.4 90.2213C859.8 81.6213 862.3 77.0213 862.4 72.0213C862.4 67.1213 865.3 62.9213 871.8 58.0213C878.9 52.8213 880 51.1213 881.9 42.0213C882.8 37.9213 883.9 34.1213 884.4 33.6213C885.9 32.1213 885.6 30.6213 884 31.9212C883.3 32.5212 881.9 35.7213 881 38.9213C879 46.1213 875.9 50.8213 871.7 53.3213C867.5 55.7213 865.5 54.6213 868.4 51.5213C869.9 49.9213 870.4 48.2213 870.2 45.9213C870 43.0213 869.5 42.4213 867.2 42.2213C864.3 41.9213 863.2 43.3213 862 49.2213C861.2 52.9213 859.9 52.7213 858.5 48.9213C856.8 43.9213 857.2 41.3213 861 32.9212C862.9 28.5212 864.3 24.0212 864.1 22.7213C863.7 20.7213 863.7 20.8213 863.5 23.1213Z" fill="#619FC6"/>
<path d="M816.3 31.6212C814.3 34.0212 814 43.0212 815.8 47.3212C817.4 51.1212 817.8 51.4212 828.7 55.4212C831.3 56.4212 835.9 59.4212 838.8 62.1212C841.8 64.8212 844.5 67.0212 844.8 67.0212C846.6 67.0212 844.9 61.2212 840.8 53.0212C837.4 46.2212 834.4 41.9212 829.4 36.9212C822.4 29.7212 819 28.3212 816.3 31.6212Z" fill="#619FC6"/>
<path d="M907.2 37.9212C895.7 41.6212 881.4 50.9212 872.3 60.6212C864 69.6212 862.4 73.7212 868.2 71.3212C869.7 70.7212 873.8 69.0212 877.3 67.5212C884.9 64.3212 896.3 62.1212 905.2 62.0212C913.8 62.0212 916.6 60.3212 919.3 53.6212C920.6 50.7212 922.6 47.2212 924 45.9212C927.6 42.5212 927.2 39.2212 922.9 37.4212C918.4 35.6212 914.2 35.7212 907.2 37.9212Z" fill="#619FC6"/>
<path d="M820.4 61.7213C817.7 62.7213 813.4 67.3213 813.4 69.2213C813.4 70.3213 814.5 71.5213 816 72.0213C819.6 73.4213 832 73.2213 837.8 71.7213C843.1 70.3213 845.2 68.0213 841.1 68.0213C837.7 68.0213 832.5 66.1213 828.4 63.3213C825 61.0213 823.3 60.7213 820.4 61.7213Z" fill="#619FC6"/>
<path d="M891.7 66.1212C888.9 66.6212 882.9 68.3212 878.4 70.0212C865.2 74.8212 864.2 77.0212 875.2 77.0212C880.1 77.0212 883.5 77.7212 887.9 79.6212C896.1 83.1212 899.6 83.9212 902.4 82.8212C907.2 81.0212 913.4 73.6212 913.4 69.6212C913.4 68.8212 912.5 67.6212 911.5 67.0212C908.8 65.6212 898 65.1212 891.7 66.1212Z" fill="#619FC6"/>
<path d="M837.4 73.6212C834.9 74.3212 828.1 74.9212 821.9 74.8212C811.8 74.8212 810.8 74.9212 809.4 77.0212C808.6 78.2212 806.6 80.7212 805.1 82.5212C801.6 86.8212 801.9 89.1212 806.2 90.4212C813.5 92.5212 829.1 86.9212 839.2 78.7212C847.3 72.0212 846.9 70.8212 837.4 73.6212Z" fill="#619FC6"/>
<path d="M449.8 79.1213C435 80.9213 426.4 89.1213 426.4 101.521C426.4 109.821 429.2 114.121 443.4 127.921C457.7 142.021 462.2 148.921 461 155.421C459.3 164.221 449.3 165.121 439.7 157.421C435 153.521 429.1 142.821 427.8 135.821C426.6 128.621 425.8 134.821 426.2 149.121L426.6 161.721L430.7 161.621C433 161.621 439.4 162.321 444.9 163.321C472.1 168.321 492.7 156.921 489.9 138.521C489 132.221 484.8 126.521 473.5 116.021C462.9 106.221 456.2 97.5213 454.5 91.4213C453.2 86.7213 454.8 82.5213 458.4 81.0213C467.2 77.4213 480.4 90.7213 482.9 105.821C484.1 113.421 485 109.421 484.7 96.9213C484.5 87.9213 484.1 84.6213 483.2 84.4213C482.5 84.3213 478.1 83.1213 473.4 81.7213C463.5 78.7213 458.2 78.1213 449.8 79.1213Z" fill="#256186"/>
<path d="M867.4 80.0212C867.4 83.9212 877.9 96.1212 883.7 99.1212C888.9 101.821 890.8 100.421 890.1 94.2212C889.5 88.6212 887.3 86.4212 881.1 85.0212C878.2 84.4212 874.2 82.8212 872.2 81.5212C868 78.7212 867.4 78.5212 867.4 80.0212Z" fill="#619FC6"/>
<path d="M863.8 87.2212C865.4 104.621 874.9 121.021 883.4 121.021C885 121.021 885.4 120.421 885.4 117.621C885.4 115.821 885.7 112.221 886 109.721C886.6 105.221 886.5 104.921 882.8 101.821C876.1 96.1212 871.3 90.7212 868.2 85.2212C864.1 78.0212 863 78.4212 863.8 87.2212Z" fill="#619FC6"/>
<path d="M2.6 83.3213C6.9 87.3213 7.4 91.4213 7.4 121.921C7.4 152.221 6.8 156.721 2.7 160.021C1.4 161.021 0.4 162.121 0.4 162.521C0.4 162.921 14 163.021 30.7 162.821C63.4 162.321 65.4 162.021 73.6 156.321C80.1 151.921 83.3 142.221 81.1 133.721C79.2 126.321 68 118.021 59.9 118.021C58.8 118.021 60.8 116.521 64.3 114.721C71.4 111.221 74.1 108.221 75.4 102.621C77.2 94.6213 72.4 87.4213 62.8 83.5213C58.4 81.8213 54.8 81.5213 28.9 81.2213L0 80.9213L2.6 83.3213ZM44.2 87.3213C51.9 95.3213 50.4 109.421 41.2 115.021C35.2 118.721 35.1 118.321 35.2 99.5213C35.3 90.1213 35.4 82.4213 35.4 82.3213C35.5 81.3213 41.8 84.8213 44.2 87.3213ZM41.1 118.921C44.4 119.021 49.9 124.421 51.9 129.321C57.4 142.921 49.5 161.721 38.6 160.821L35.3 160.521V140.521C35.3 129.521 35.3 120.021 35.3 119.321C35.4 118.721 36.2 118.321 37.2 118.521C38.1 118.721 39.9 118.921 41.1 118.921Z" fill="#256186"/>
<path d="M326.4 92.1213C321.4 95.4212 307.5 101.021 304.4 101.021C303.3 101.021 302.4 101.421 302.4 102.021C302.4 102.521 303 103.021 303.8 103.021C304.6 103.021 305.6 103.621 306.1 104.221C306.5 104.921 307.1 114.021 307.4 124.521C307.8 136.521 308.5 145.121 309.4 147.821C311.5 154.321 317.4 160.521 323.7 162.621C329.6 164.621 343.8 165.021 345.7 163.121C346.5 162.321 345.9 162.021 343.2 162.021C338.4 162.021 334.8 158.321 333.5 151.921C332.9 149.121 332.4 137.021 332.4 125.021V103.021H337.9C340.9 103.021 343.4 102.521 343.4 102.021C343.4 101.421 340.9 101.021 337.9 101.021H332.4V95.0212C332.4 91.7213 332.1 89.0212 331.7 89.1213C331.2 89.1213 328.9 90.5212 326.4 92.1213Z" fill="#256186"/>
<path d="M768.4 94.1213C763.2 96.8213 756.5 99.6213 753.7 100.221C748.1 101.521 747.1 102.421 750.4 103.321C753.6 104.121 754.2 107.521 754.2 126.021C754.3 141.321 754.5 144.321 756.3 149.121C760.2 159.421 768.2 164.221 782 164.321C787.3 164.421 790.8 164.021 791.6 163.221C792.5 162.321 792.1 162.021 789.7 162.021C785.8 162.021 781.8 158.921 780.4 154.621C779.8 152.621 779.3 141.921 779.2 127.421L779.1 103.521L784.3 103.221C791 102.821 790.9 101.221 784.2 100.821L778.9 100.521V94.7213C778.9 91.6213 778.7 89.1213 778.4 89.1213C778.1 89.2213 773.6 91.5213 768.4 94.1213Z" fill="#256186"/>
<path d="M116.1 100.121C100.4 102.621 90.6001 113.721 89.6001 130.121C88.6001 147.521 96.7001 159.721 112.1 163.721C127.3 167.721 140.6 160.921 144 147.521C144.3 146.121 144.2 145.021 143.6 145.021C143.1 145.021 142.4 146.321 142.1 147.921C140.7 154.821 131.3 161.221 124.8 159.621C120.8 158.621 115.8 152.821 113.9 147.021C113 144.221 112.4 141.721 112.5 141.521C112.7 141.321 115.8 140.921 119.4 140.621C128.4 139.721 137.6 135.121 141.2 129.721C143.4 126.421 143.9 124.521 143.9 119.421C143.9 114.121 143.5 112.521 140.9 108.921C135.8 101.621 126.6 98.4213 116.1 100.121ZM126.2 105.521C127.9 110.621 126.4 121.121 122.9 127.921C120.4 133.021 113.9 139.421 112.3 138.521C111.1 137.721 111.2 123.721 112.5 116.521C115.1 102.321 123.1 96.0213 126.2 105.521Z" fill="#256186"/>
<path d="M173.8 100.021C167.3 100.921 162.8 103.521 161.3 107.321C158.9 113.121 164.9 118.721 174.6 119.621C181.7 120.321 183.4 119.121 180.6 115.521C176.4 110.221 176.9 101.021 181.4 101.021C184.6 101.021 186.7 105.421 187.2 113.321L187.6 120.621L181.8 122.421C172.8 125.221 160.9 131.821 157 136.021C152.8 140.721 150.9 146.421 151.9 151.621C153.2 158.621 162 165.021 170.4 165.021C174.4 164.921 180.9 161.521 185 157.221L188.7 153.221L191.1 156.021C194.3 159.921 200.5 162.021 209.7 162.421C213.9 162.621 217.4 162.521 217.4 162.221C217.4 162.021 216.7 161.221 215.8 160.621C213.4 158.821 212.5 152.021 212.4 134.621C212.4 120.421 212.2 118.121 210.3 114.221C205.3 103.921 189.7 97.8212 173.8 100.021ZM187.5 137.521L187.7 152.521L184.8 154.221C181.3 156.321 177.7 155.721 174.7 152.321C169.9 147.121 172.8 135.721 181 127.121C184 124.121 186.6 121.821 186.8 122.121C187.1 122.321 187.4 129.321 187.5 137.521Z" fill="#256186"/>
<path d="M524.1 100.121C517 101.221 511 104.621 506 110.121C500.5 116.221 498.1 123.121 498 132.521C498 141.821 500.5 148.721 505.9 154.821C518.6 168.921 542.8 167.821 550.4 152.921C551.5 150.821 552.4 147.821 552.3 146.321C552.3 143.721 552.2 143.721 550.9 147.321C548.6 153.421 545.7 156.721 540.9 158.521C535.7 160.521 532.8 160.021 528.3 156.321C525 153.521 521.5 146.921 521.4 143.521C521.4 141.721 522.4 141.321 529.4 140.221C544.7 138.021 552.7 130.921 552.7 119.521C552.7 106.121 540.1 97.5213 524.1 100.121ZM534.4 104.021C535.2 105.921 535.5 109.621 535.2 114.021C534.5 122.921 529.6 133.421 524.5 136.821C522.6 138.021 520.9 138.821 520.7 138.621C519.8 137.721 520.3 119.221 521.4 114.621C524.1 102.821 531.4 96.8213 534.4 104.021Z" fill="#256186"/>
<path d="M586.4 100.421C571.2 103.721 562.5 113.821 561.6 129.121C560.4 150.321 572.8 165.021 591.9 165.021C594.8 165.021 598.6 164.521 600.5 163.921C607.7 161.421 614 154.921 614.9 148.821L615.4 145.521L614 148.621C611.8 153.221 606.8 157.821 602.5 159.121C594.6 161.521 588.3 156.721 585.3 146.021C583.3 139.021 583.9 120.821 586.3 112.921C589.8 101.921 595.5 98.9212 597.8 106.921C599 111.021 597.1 121.521 594.8 124.121C593.2 125.821 593.2 126.021 594.8 126.621C595.7 127.021 599 127.021 602 126.821C609.2 126.221 613.4 122.421 614.1 115.921C615.3 104.821 601.5 97.1212 586.4 100.421Z" fill="#256186"/>
<path d="M713.4 100.421C705.7 102.121 700.3 105.221 695.6 110.521C690.4 116.521 688.1 123.321 688.1 133.021C688.2 146.821 694.4 157.021 705.9 162.121C711.8 164.821 722.7 165.221 728.7 163.121C736.4 160.521 742.5 152.921 742.4 146.321C742.3 143.721 742.2 143.821 741 147.221C738.9 153.121 736.7 155.821 732.2 158.121C726.8 160.921 722.2 160.121 717.7 155.821C714.7 152.921 710.3 142.821 711.5 141.621C711.7 141.421 714.8 140.921 718.4 140.521C733.6 138.921 742.7 130.921 742.6 119.421C742.5 105.421 729.4 96.8212 713.4 100.421ZM724.5 103.721C725.1 105.321 725.4 109.821 725.1 113.821C724.6 122.921 719.8 133.121 714.5 136.721C712.6 138.021 710.9 138.821 710.7 138.621C710.5 138.421 710.3 134.021 710.3 128.921C710.2 119.621 711.4 111.721 713.6 107.621C717.1 100.821 722.6 98.9212 724.5 103.721Z" fill="#256186"/>
<path d="M816.6 100.221C806.8 101.721 801 106.621 799.8 114.521C798.8 121.321 802.4 127.621 813.2 138.221C822.4 147.121 825.7 152.321 825.7 157.421C825.7 163.521 818.6 164.821 811.2 160.121C805.8 156.721 802.8 151.121 801.8 142.721C800.6 132.521 799.4 135.521 799.4 148.821V161.721L810.8 163.521C820.2 165.021 823.2 165.221 828.8 164.221C838 162.721 844.1 159.021 846.6 153.321C850.2 145.221 846.5 136.521 835.6 127.221C828.4 121.121 822.7 113.921 821.3 108.921C820.2 105.521 820.3 104.721 821.9 103.021C827.1 97.2213 838.2 105.121 841.5 117.021C843.6 124.621 844.4 123.821 844.4 113.921V104.521L837.1 102.321C828.1 99.6213 823.4 99.1213 816.6 100.221Z" fill="#256186"/>
<path d="M663 102.821C660.9 104.421 658.1 107.421 656.8 109.621L654.4 113.521V107.721C654.4 104.521 654.1 102.021 653.7 102.221C645 106.621 631 111.021 625.9 111.021C622.6 111.021 622.2 112.121 624.8 114.121C628.2 116.821 629.4 123.121 629.4 137.721C629.4 152.221 628.4 157.121 624.9 159.821C623.5 160.921 622.4 162.121 622.4 162.421C622.4 162.721 631.2 163.021 641.9 163.021C652.6 163.021 661.4 162.721 661.4 162.421C661.4 162.121 660.3 160.921 658.9 159.821C655.3 157.021 654.4 152.221 654.4 134.421V118.321L656.9 117.221C658.3 116.521 660.5 116.021 661.8 116.021C664.6 116.021 669.4 119.621 669.4 121.621C669.4 125.821 677.2 123.021 680.4 117.721C687.7 105.821 674.3 94.4212 663 102.821Z" fill="#256186"/>
<path d="M349.9 102.021C349.7 102.421 350.6 103.321 351.9 104.021C356.3 106.421 359.3 112.321 366.3 133.021C370.1 144.321 374 155.621 374.9 158.221L376.6 162.921L384.7 163.221L392.9 163.521L389.6 166.721C385.3 170.921 380.7 171.821 375.7 169.421C372.6 167.821 371.3 166.321 368.7 161.221C368.2 160.021 364.4 163.521 363 166.421C361 170.721 361 173.321 363 177.521C367.1 186.221 381.7 184.421 388.7 174.321C392.5 168.821 393.6 165.621 400.3 142.421C403.6 130.921 407.1 119.121 408.2 116.321C410.5 110.221 414.8 104.321 417.6 103.421C419.1 102.921 419.3 102.621 418.4 102.021C416.9 101.121 401.6 101.521 400.7 102.421C400.3 102.721 400.6 103.021 401.3 103.021C403.1 103.021 405.4 109.321 405.4 114.021C405.4 117.221 400.8 135.621 397 147.521C396.6 148.921 384.4 111.721 384.4 108.821C384.4 107.521 385.1 105.421 386 104.221L387.5 102.021L371.2 101.921C362.2 101.821 353.9 101.621 352.6 101.521C351.4 101.421 350.2 101.621 349.9 102.021Z" fill="#256186"/>
<path d="M244.9 105.121C241.6 106.721 234.7 108.721 229.7 109.721C224.6 110.721 220.4 111.821 220.4 112.221C220.4 112.721 220.9 113.021 221.5 113.021C222 113.021 223.5 115.121 224.7 117.721C226.6 121.921 226.9 124.421 227 137.621C227.2 150.821 227.4 153.221 229.3 156.821C232.3 162.721 235.5 164.521 242.9 164.421C249.3 164.421 259.4 160.521 265.1 156.021L267.6 154.021L269.5 156.421C270.5 157.721 273.3 159.521 275.6 160.521C280.6 162.521 297.4 163.821 297.4 162.321C297.4 161.721 296.8 161.021 296 160.721C293.2 159.621 292.4 152.621 292.4 127.321V102.121L286.2 104.921C279.8 107.821 268.5 111.021 264.8 111.021C261.7 111.021 261.2 112.121 263.4 113.721C266.4 115.821 267.4 121.421 267.4 137.221V151.921L264.7 153.921C260 157.721 254.5 157.821 252.8 154.221C252.3 153.321 251.7 141.221 251.4 127.421L250.9 102.421L244.9 105.121Z" fill="#256186"/>
<path d="M736.6 185.221C732.8 186.221 729.4 191.021 729.4 195.321C729.4 199.521 731.6 202.921 738.3 209.121C742.9 213.321 744.4 215.321 744.4 217.421C744.4 221.421 742.7 224.021 739.9 224.021C738 224.021 737.3 223.321 736.5 220.321C735.9 218.321 735.7 216.321 736 215.821C736.3 215.421 734.9 215.021 733 215.021C729.6 215.021 729.4 215.221 729.4 218.121C729.4 222.521 735 228.021 739.6 228.021C747.7 228.021 753.1 220.121 750 212.621C749.2 210.721 745.9 206.621 742.5 203.321C739.2 200.121 736.4 196.821 736.3 196.021C735.9 192.121 736.6 190.021 738.6 188.921C740.4 187.921 741 188.121 742.6 190.021C743.6 191.221 744.4 193.521 744.4 195.121C744.4 197.821 744.7 198.021 748 198.021H751.6L750.9 194.221C749.5 186.821 744 183.321 736.6 185.221Z" fill="#619FC6"/>
<path d="M786.6 206.221L786.9 227.421L790.2 227.621L793.4 227.821V206.421V185.021H789.9H786.4L786.6 206.221Z" fill="#619FC6"/>
<path d="M759.8 202.421C756.5 205.721 756.4 206.121 756.4 213.421C756.4 220.421 756.6 221.221 759.3 224.221C762.1 227.421 762.5 227.521 770.1 227.521H777.9L778 214.521C778.1 207.321 777.9 200.921 777.7 200.221C777.3 199.421 774.9 199.021 770.2 199.021C763.6 199.021 763 199.221 759.8 202.421ZM769.5 203.021C771.2 203.921 771.4 205.221 771.4 213.021C771.4 219.721 771 222.221 769.8 223.421C767.9 225.421 767.3 225.421 764.9 223.621C763.3 222.421 763 221.021 763.1 213.621C763.2 202.921 764.7 200.521 769.5 203.021Z" fill="#619FC6"/>
<path d="M802.8 202.421C799.6 205.621 799.4 206.221 799.4 212.321C799.4 220.621 800.5 223.521 804.6 226.021C808.5 228.421 811.5 228.521 815.4 226.521C819.4 224.421 821.4 220.221 821.4 213.521C821.4 204.221 817.4 199.021 810.1 199.021C807 199.021 805.5 199.721 802.8 202.421ZM813.2 203.221C814 204.021 814.4 207.821 814.4 213.721C814.4 221.921 814.2 223.021 812.4 224.021C811 224.821 809.8 224.821 808.4 224.021C806.6 223.021 806.4 221.921 806.4 213.721C806.4 204.321 807.2 202.021 810.4 202.021C811.3 202.021 812.5 202.521 813.2 203.221Z" fill="#619FC6"/>
<path d="M828.1 201.121C827.8 202.221 827.6 208.421 827.6 215.021V226.821L831 227.221L834.4 227.621V216.421C834.4 207.521 834.7 204.821 836 203.621C837.8 201.821 839.2 201.621 841.4 203.021C842.6 203.721 842.9 206.421 843 215.521C843.1 221.921 843.4 227.321 843.6 227.621C843.9 227.921 845.3 227.821 846.8 227.421L849.4 226.821V216.121C849.3 201.621 847.2 199.021 835.1 199.021C829.4 199.021 828.6 199.221 828.1 201.121Z" fill="#619FC6"/>
</svg>
