<svg width="512" height="512" viewBox="0 0 512 512" fill="none" xmlns="http://www.w3.org/2000/svg">
<path d="M272.678 2.93813C271.956 4.62213 270.993 11.1176 270.271 17.613C269.549 23.8679 267.383 32.288 265.217 36.1371C258.237 49.6092 260.163 56.1046 278.213 76.3127C298.43 99.4076 309.501 116.488 318.165 138.38C325.866 158.107 328.273 161.475 331.402 156.423C335.012 150.89 334.29 101.332 330.439 81.3647C324.904 53.4583 313.592 26.0331 301.558 12.561C292.172 1.73526 274.603 -3.7979 272.678 2.93813Z" fill="#619FC6"/>
<path d="M360.523 55.6234C360.523 58.9914 355.228 69.336 349.212 78.4778L338.381 95.0773L339.825 122.743C341.51 149.687 341.269 150.649 335.253 158.829C322.256 176.631 321.053 180.962 319.368 208.146C318.646 222.581 317.924 234.85 317.924 235.09C318.165 235.09 325.144 227.151 333.809 217.047C351.618 196.358 357.635 185.292 357.876 173.263C357.876 161.475 364.855 151.371 380.499 139.583C397.587 127.073 400.234 122.984 404.807 101.092C406.973 91.2281 409.62 82.0863 410.824 80.8835C414.434 77.2749 413.712 73.6663 409.861 76.7938C408.176 78.2372 404.807 85.9355 402.641 93.6338C397.827 110.955 390.366 122.262 380.258 128.276C370.15 134.05 365.337 131.404 372.316 123.946C375.926 120.097 377.13 116.007 376.648 110.474C376.167 103.497 374.963 102.054 369.428 101.573C362.449 100.851 359.801 104.219 356.913 118.413C354.988 127.314 351.859 126.833 348.49 117.691C344.398 105.662 345.361 99.4076 354.506 79.1995C359.079 68.6143 362.449 57.7885 361.967 54.6611C361.004 49.8497 361.004 50.0902 360.523 55.6234Z" fill="#619FC6"/>
<path d="M246.926 76.072C242.112 81.8457 241.39 103.497 245.722 113.842C249.573 122.984 250.536 123.705 276.769 133.328C283.027 135.734 294.098 142.951 301.077 149.447C308.297 155.942 314.795 161.235 315.517 161.235C319.849 161.235 315.758 147.281 305.89 127.554C297.708 111.196 290.487 100.851 278.454 88.8223C261.607 71.5011 253.424 68.1331 246.926 76.072Z" fill="#619FC6"/>
<path d="M465.697 91.2279C438.02 100.129 403.603 122.502 381.702 145.838C361.726 167.489 357.876 177.353 371.835 171.579C375.445 170.136 385.312 166.046 393.736 162.437C412.027 154.739 439.464 149.446 460.883 149.206C481.581 149.206 488.32 145.116 494.818 128.998C497.947 122.021 502.76 113.601 506.13 110.474C514.794 102.294 513.831 94.3554 503.482 90.0251C492.652 85.6948 482.544 85.9354 465.697 91.2279Z" fill="#619FC6"/>
<path d="M256.793 148.484C250.295 150.89 239.946 161.956 239.946 166.527C239.946 169.174 242.594 172.061 246.204 173.263C254.868 176.631 284.711 176.15 298.67 172.542C311.426 169.174 316.48 163.641 306.612 163.641C298.43 163.641 285.915 159.07 276.047 152.334C267.864 146.8 263.773 146.079 256.793 148.484Z" fill="#619FC6"/>
<path d="M428.392 159.069C421.654 160.272 407.213 164.362 396.383 168.452C364.614 179.999 362.208 185.292 388.682 185.292C400.475 185.292 408.657 186.976 419.247 191.547C438.982 199.967 447.406 201.891 454.144 199.245C465.697 194.915 480.618 177.112 480.618 167.489C480.618 165.565 478.452 162.678 476.046 161.235C469.547 157.867 443.555 156.664 428.392 159.069Z" fill="#619FC6"/>
<path d="M297.708 177.112C291.691 178.796 275.325 180.24 260.404 179.999C236.096 179.999 233.689 180.24 230.32 185.292C228.394 188.179 223.581 194.193 219.971 198.523C211.547 208.868 212.269 214.401 222.618 217.529C240.187 222.581 277.732 209.109 302.04 189.382C321.534 173.263 320.572 170.376 297.708 177.112Z" fill="#619FC6"/>
<path d="M369.909 192.509C369.909 201.891 395.18 231.241 409.139 238.458C421.654 244.954 426.226 241.586 424.542 226.67C423.098 213.198 417.803 207.906 402.881 204.538C395.902 203.094 386.275 199.245 381.461 196.118C371.353 189.382 369.909 188.9 369.909 192.509Z" fill="#619FC6"/>
<path d="M361.245 209.83C365.096 251.69 387.96 291.144 408.417 291.144C412.268 291.144 413.23 289.7 413.23 282.964C413.23 278.634 413.952 269.973 414.674 263.959C416.118 253.133 415.878 252.412 406.973 244.954C390.848 231.241 379.296 218.25 371.835 205.019C361.967 187.698 359.32 188.66 361.245 209.83Z" fill="#619FC6"/>
<path d="M266.434 306.602C230.814 310.932 210.117 330.659 210.117 360.49C210.117 380.458 216.855 390.802 251.031 424.001C285.447 457.922 296.277 474.521 293.389 490.158C289.298 511.329 265.23 513.494 242.126 494.97C230.814 485.588 216.615 459.846 213.486 443.006C210.598 425.685 208.673 440.601 209.635 475.002L210.598 505.315L220.465 505.074C226.001 505.074 241.404 506.758 254.641 509.164C320.104 521.192 369.682 493.767 362.943 449.502C360.777 434.346 350.669 420.633 323.473 395.373C297.962 371.797 281.837 350.867 277.745 336.192C274.617 324.885 278.467 314.781 287.132 311.173C308.311 302.512 340.079 334.508 346.096 370.835C348.984 389.118 351.15 379.495 350.428 349.424C349.947 327.772 348.984 319.833 346.818 319.352C345.134 319.112 334.544 316.225 323.232 312.857C299.406 305.64 286.65 304.196 266.434 306.602Z" fill="#256186"/>
<path d="M6.25747 222.289C16.6064 231.912 17.8097 241.775 17.8097 315.15C17.8097 388.043 16.3657 398.869 6.49814 406.808C3.36941 409.214 0.962688 411.86 0.962688 412.822C0.962688 413.784 33.6941 414.025 73.8863 413.544C152.586 412.341 157.4 411.619 177.135 397.907C192.778 387.321 200.48 363.986 195.185 343.537C190.612 325.735 163.657 305.767 144.163 305.767C141.515 305.767 146.329 302.159 154.752 297.829C171.84 289.409 178.338 282.191 181.467 268.719C185.799 249.474 174.247 232.152 151.142 222.77C140.552 218.68 131.888 217.959 69.5542 217.237L0 216.515L6.25747 222.289ZM106.377 231.912C124.909 251.158 121.299 285.078 99.1569 298.55C84.7166 307.451 84.4759 306.489 84.7166 261.262C84.9572 238.648 85.1979 220.124 85.1979 219.883C85.4386 217.477 100.601 225.897 106.377 231.912ZM98.9162 307.933C106.858 308.173 120.095 321.164 124.909 332.952C138.146 365.67 119.133 410.898 92.8994 408.732L84.9572 408.011V359.896C84.9572 333.433 84.9572 310.579 84.9572 308.895C85.1979 307.451 87.1233 306.489 89.53 306.97C91.696 307.451 96.0281 307.933 98.9162 307.933Z" fill="#256186"/>
</svg>
