<svg width="50" height="50" viewBox="0 0 50 50" fill="none" xmlns="http://www.w3.org/2000/svg">
<path d="M50 24.9987C50 38.8063 38.8063 49.9985 25 49.9985C11.1937 49.9985 0 38.8063 0 24.9987C0 11.1924 11.1937 0.000232697 25 0.000232697C38.8063 0.000232697 50 11.1924 50 24.9987Z" fill="white"/>
<path d="M19.6997 34.1374L20.1904 34.4313C21.9993 35.5086 24.0545 36.0776 26.1369 36.0776C32.5553 36.0776 37.7804 30.8528 37.7804 24.4332C37.7804 18.0117 32.5553 12.7869 26.1369 12.7869C19.7151 12.7869 14.4901 18.0117 14.4901 24.4332C14.4901 26.5538 15.08 28.6409 16.193 30.4709L16.4957 30.9663L15.3313 35.3083L19.6997 34.1374ZM11.4929 39.1465L13.5788 31.3692C12.3974 29.2398 11.7767 26.8542 11.7767 24.4332C11.7767 16.5157 18.2191 10.074 26.1369 10.074C34.0531 10.074 40.4954 16.5157 40.4954 24.4332C40.4954 32.3509 34.0531 38.7926 26.1369 38.7926C23.7587 38.7926 21.4112 38.1907 19.3099 37.052L11.4929 39.1465Z" fill="#256186"/>
<path fill-rule="evenodd" clip-rule="evenodd" d="M31.4782 26.4294C30.8866 26.0755 30.1172 25.6814 29.4197 25.9652C28.8879 26.1836 28.546 27.0205 28.2006 27.4479C28.0228 27.6663 27.8108 27.6998 27.5372 27.5916C25.5317 26.7914 23.9963 25.4523 22.8884 23.609C22.702 23.3218 22.7345 23.0968 22.9619 22.8309C23.2953 22.4368 23.7159 21.9894 23.8048 21.4604C23.8954 20.9295 23.6458 20.3097 23.4287 19.8375C23.1466 19.2331 22.8354 18.3729 22.2302 18.031C21.6745 17.7171 20.941 17.894 20.4468 18.2962C19.592 18.9927 19.1799 20.0827 19.1936 21.1632C19.197 21.4705 19.2329 21.7777 19.3047 22.0728C19.4791 22.7861 19.8074 23.4521 20.1784 24.0852C20.4571 24.5627 20.7614 25.0249 21.0897 25.471C22.1617 26.927 23.4971 28.1925 25.0427 29.1391C25.8138 29.6118 26.6447 30.0273 27.5064 30.3111C28.4724 30.6303 29.3324 30.9623 30.3754 30.7638C31.4662 30.557 32.5434 29.8823 32.9776 28.8304C33.1042 28.5179 33.1691 28.1705 33.0973 27.842C32.9486 27.1621 32.027 26.7581 31.4782 26.4294Z" fill="#256186"/>
</svg>
